<?xml version="1.0" encoding="UTF-8" standalone="no"?>
<svg
   class="set-header-symbol"
   focusable="false"
   aria-hidden="true"
   viewBox="0 0 210.67166 29.736401"
   version="1.1"
   id="svg4"
   sodipodi:docname="A24.svg"
   width="210.67166"
   height="29.736401"
   inkscape:version="1.3.2 (091e20e, 2023-11-25, custom)"
   xml:space="preserve"
   inkscape:export-filename="A24.png"
   inkscape:export-xdpi="112.99"
   inkscape:export-ydpi="112.99"
   xmlns:inkscape="http://www.inkscape.org/namespaces/inkscape"
   xmlns:sodipodi="http://sodipodi.sourceforge.net/DTD/sodipodi-0.dtd"
   xmlns:xlink="http://www.w3.org/1999/xlink"
   xmlns="http://www.w3.org/2000/svg"
   xmlns:svg="http://www.w3.org/2000/svg"><defs
     id="defs8"><linearGradient
       inkscape:collect="always"
       id="linearGradient1000"><stop
         style="stop-color:#86713f;stop-opacity:1"
         offset="0"
         id="stop994" /><stop
         id="stop996"
         offset="0.5"
         style="stop-color:#dfc27f;stop-opacity:1" /><stop
         style="stop-color:#86713f;stop-opacity:1"
         offset="1"
         id="stop998" /></linearGradient><linearGradient
       id="linearGradient909"
       inkscape:collect="always"><stop
         id="stop905"
         offset="0"
         style="stop-color:#b73326;stop-opacity:1" /><stop
         style="stop-color:#f49226;stop-opacity:1"
         offset="0.5"
         id="stop913" /><stop
         id="stop907"
         offset="1"
         style="stop-color:#b73326;stop-opacity:1" /></linearGradient><linearGradient
       inkscape:collect="always"
       id="linearGradient1008"><stop
         style="stop-color:#4c6d7a;stop-opacity:1"
         offset="0"
         id="stop1002" /><stop
         id="stop1004"
         offset="0.5"
         style="stop-color:#bae2ef;stop-opacity:1" /><stop
         style="stop-color:#4c6d7a;stop-opacity:1"
         offset="1"
         id="stop1006" /></linearGradient><linearGradient
       inkscape:collect="always"
       xlink:href="#linearGradient1008"
       id="linearGradient15318"
       x1="0.98382646"
       y1="15.985"
       x2="68.498924"
       y2="15.985"
       gradientUnits="userSpaceOnUse" /><linearGradient
       inkscape:collect="always"
       xlink:href="#linearGradient1000"
       id="linearGradient15353"
       x1="72.121017"
       y1="15.733187"
       x2="139.45934"
       y2="15.733187"
       gradientUnits="userSpaceOnUse" /><linearGradient
       inkscape:collect="always"
       xlink:href="#linearGradient909"
       id="linearGradient15364"
       x1="142.84013"
       y1="15.811979"
       x2="210.17847"
       y2="15.811979"
       gradientUnits="userSpaceOnUse" /></defs><sodipodi:namedview
     id="namedview6"
     pagecolor="#ffffff"
     bordercolor="#666666"
     borderopacity="1.0"
     inkscape:pageshadow="2"
     inkscape:pageopacity="0.0"
     inkscape:pagecheckerboard="0"
     showgrid="false"
     fit-margin-top="0"
     fit-margin-left="0"
     fit-margin-right="0"
     fit-margin-bottom="0"
     inkscape:zoom="3.9999998"
     inkscape:cx="95.250004"
     inkscape:cy="6.8750003"
     inkscape:window-width="1920"
     inkscape:window-height="1129"
     inkscape:window-x="-8"
     inkscape:window-y="-8"
     inkscape:window-maximized="1"
     inkscape:current-layer="svg4"
     inkscape:showpageshadow="2"
     inkscape:deskcolor="#d1d1d1" /><g
     id="g2"><path
       id="path5660-3-5"
       style="fill:#000000;fill-opacity:1;stroke:none;stroke-width:1px;stroke-linecap:butt;stroke-linejoin:miter;stroke-opacity:1"
       d="m 93.95877,0.00202 14.93945,29.73438 h 9.57617 l -8.54101,-6.5625 -6.11524,-23.17188 z m -4.07813,6.08203 -5.13867,9.78711 2.8125,2.6875 c 0,0 1.16266,-0.64477 2.35352,-1.19726 1.19086,-0.55248 4.99023,0 4.99023,0 z" /><path
       id="path9024-4"
       style="color:#000000;fill:url(#linearGradient15353);fill-opacity:1;fill-rule:evenodd;-inkscape-stroke:none"
       d="m 83.30838,0.50007 c 0.898,2.056 0.898,3.94406 0,5.66406 l -8.55469,18.79492 c -0.931,1.917 -1.84614,3.34335 -2.74414,4.27735 H 84.5115 c -1.394,-3.163 -1.2988,-5.57242 0.2832,-7.23242 l 5.89454,-6.14649 H 84.7947 l 5.22852,-9.69336 8.34961,18.04688 c 0.69,1.549 0.91436,3.29339 -1.05664,5.02539 h 15.21289 c -1.197,-1.21 -2.1233,-2.52246 -2.7793,-3.93946 L 101.02713,6.49616 c -0.658,-1.818 -0.658,-3.81609 0,-5.99609 z m 51.91601,0 -33.95898,0.002 -0.11524,0.29297 c -0.765,2.048 -0.72576,3.85215 0.11524,5.41016 l 7.9414,17.13672 0.1543,0.33203 c 1.765,3.708 4.30886,5.5625 7.63086,5.5625 h 18.23242 l 0.25,-0.45117 c 5.247,-9.613 5.163,-19.04216 -0.25,-28.28516 z" /><text
       xml:space="preserve"
       style="font-style:normal;font-variant:normal;font-weight:normal;font-stretch:normal;font-size:24.8522px;font-family:Beleren;-inkscape-font-specification:Beleren;fill:#000000;stroke-width:1.55326"
       x="109.66685"
       y="20.952578"
       id="text1-6"><tspan
         sodipodi:role="line"
         id="tspan1-8"
         x="109.66685"
         y="20.952578"
         style="fill:#000000;stroke-width:1.55326">24</tspan></text><path
       id="path9026-2-1-5-9"
       style="color:#000000;fill:#000000;fill-rule:evenodd"
       d="m 101.02709,-9.41e-4 -18.48242,0.002 0.30468,0.701172 c 0.85306,1.953108 0.84421,3.645494 0.0156,5.232422 l -0.006,0.01172 -8.55664,18.796875 c -0.91681,1.887258 -1.81341,3.273935 -2.65234,4.146484 l -0.81442,0.847609 h 14.44336 l -0.31055,-0.701172 c -0.6764,-1.534779 -0.97479,-2.858276 -0.93164,-3.958985 0.0431,-1.100089 0.40884,-1.980693 1.11914,-2.726562 v -0.0039 l 6.70508,-6.990235 h -6.23047 l 4.35743,-8.076172 7.92773,17.132813 c 0.32477,0.729089 0.5182,1.460028 0.42969,2.179687 -0.0885,0.71966 -0.44352,1.462769 -1.35938,2.267579 l -0.99609,0.875 h 17.73632 l -0.84179,-0.851563 c -0.22314,-0.22556 -0.42759,-0.457093 -0.63086,-0.689453 1.36933,1.015279 2.95679,1.541016 4.73828,1.541016 h 18.52734 l 0.39258,-0.710938 h 0.002 c 5.31394,-9.73563 5.22898,-19.408373 -0.25781,-28.777344 l -0.14453,-0.248047 h -0.28711 l -33.52344,0.0039 v -0.0039 z M 83.92162,1.001012 h 16.52539 c -0.49588,2.014228 -0.52013,3.928691 0.10937,5.667969 l 0.008,0.01953 8.73046,18.820313 c 0.53958,1.165529 1.39121,2.204197 2.27735,3.228516 H 98.37885 c 0.51291,-0.66664 0.8759,-1.343972 0.95898,-2.019532 0.11974,-0.973589 -0.14258,-1.891028 -0.50781,-2.710937 l -0.002,-0.0039 -8.77149,-18.955078 -6.0996,11.308593 h 5.56054 l -5.08398,5.300781 c -0.87092,0.91386 -1.34514,2.068868 -1.39649,3.378907 -0.0436,1.112149 0.26301,2.35907 0.77735,3.699219 H 72.91381 c 0.76649,-0.9501 1.5257,-1.986776 2.28906,-3.558594 l 0.004,-0.0059 8.54492,-18.77539 C 84.61204,4.747808 84.5758,2.90408 83.92171,1.000977 Z m 17.6914,0 h 33.28907 c 5.19755,9.036251 5.26629,18.139902 0.13281,27.544922 l -0.10547,0.191407 h -17.9375 c -3.13471,0 -5.46524,-1.678291 -7.17773,-5.273438 l -0.002,-0.0039 v -0.002 l -0.15039,-0.328125 -7.94922,-17.150391 -0.008,-0.01367 C 100.9416,4.552319 100.8966,2.938502 101.61279,1.000973 Z"
       sodipodi:nodetypes="cccccccccccccccccscccccsccccccccccccccccsccccccscccccccccccscccccccc" /></g><g
     id="g3"><path
       id="path5660-3-3"
       style="fill:#000000;fill-opacity:1;stroke:none;stroke-width:1px;stroke-linecap:butt;stroke-linejoin:miter;stroke-opacity:1"
       d="m 164.79432,0.00202 14.93945,29.73438 h 9.57617 l -8.54101,-6.5625 -6.11524,-23.17188 z m -4.07813,6.08203 -5.13867,9.78711 2.8125,2.6875 c 0,0 1.16266,-0.64477 2.35352,-1.19726 1.19086,-0.55248 4.99023,0 4.99023,0 z" /><path
       id="path9024-7"
       style="color:#000000;fill:url(#linearGradient15364);fill-opacity:1;fill-rule:evenodd;-inkscape-stroke:none"
       d="m 154.14393,0.50007 c 0.898,2.056 0.898,3.94406 0,5.66406 l -8.55469,18.79492 c -0.931,1.917 -1.84614,3.34335 -2.74414,4.27735 h 12.50195 c -1.394,-3.163 -1.2988,-5.57242 0.2832,-7.23242 l 5.89454,-6.14649 h -5.89454 l 5.22852,-9.69336 8.34961,18.04688 c 0.69,1.549 0.91436,3.29339 -1.05664,5.02539 h 15.21289 c -1.197,-1.21 -2.1233,-2.52246 -2.7793,-3.93946 L 171.86268,6.49616 c -0.658,-1.818 -0.658,-3.81609 0,-5.99609 z m 51.91601,0 -33.95898,0.002 -0.11524,0.29297 c -0.765,2.048 -0.72576,3.85215 0.11524,5.41016 l 7.9414,17.13672 0.1543,0.33203 c 1.765,3.708 4.30886,5.5625 7.63086,5.5625 h 18.23242 l 0.25,-0.45117 c 5.247,-9.613 5.163,-19.04216 -0.25,-28.28516 z" /><text
       xml:space="preserve"
       style="font-style:normal;font-variant:normal;font-weight:normal;font-stretch:normal;font-size:24.8522px;font-family:Beleren;-inkscape-font-specification:Beleren;fill:#000000;stroke-width:1.55326"
       x="180.5024"
       y="20.952578"
       id="text1-6-7"><tspan
         sodipodi:role="line"
         id="tspan1-8-2"
         x="180.5024"
         y="20.952578"
         style="fill:#000000;stroke-width:1.55326">24</tspan></text><path
       id="path9026-2-1-5-9-2"
       style="color:#000000;fill:#000000;fill-rule:evenodd"
       d="m 171.86264,-9.41e-4 -18.48242,0.002 0.30468,0.701172 c 0.85306,1.953108 0.84421,3.645494 0.0156,5.232422 l -0.006,0.01172 -8.55664,18.796875 c -0.91681,1.887258 -1.81341,3.273935 -2.65234,4.146484 l -0.81442,0.847609 h 14.44336 l -0.31055,-0.701172 c -0.6764,-1.534779 -0.97479,-2.858276 -0.93164,-3.958985 0.0431,-1.100089 0.40884,-1.980693 1.11914,-2.726562 v -0.0039 l 6.70508,-6.990235 h -6.23047 l 4.35743,-8.076172 7.92773,17.132813 c 0.32477,0.729089 0.5182,1.460028 0.42969,2.179687 -0.0885,0.71966 -0.44352,1.462769 -1.35938,2.267579 l -0.99609,0.875 h 17.73632 l -0.84179,-0.851563 c -0.22314,-0.22556 -0.42759,-0.457093 -0.63086,-0.689453 1.36933,1.015279 2.95679,1.541016 4.73828,1.541016 h 18.52734 l 0.39258,-0.710938 h 0.002 c 5.31394,-9.73563 5.22898,-19.408373 -0.25781,-28.777344 l -0.14453,-0.248047 h -0.28711 l -33.52344,0.0039 v -0.0039 z m -17.10547,1.001953 h 16.52539 c -0.49588,2.014228 -0.52013,3.928691 0.10937,5.667969 l 0.008,0.01953 8.73046,18.820313 c 0.53958,1.165529 1.39121,2.204197 2.27735,3.228516 H 169.2144 c 0.51291,-0.66664 0.8759,-1.343972 0.95898,-2.019532 0.11974,-0.973589 -0.14258,-1.891028 -0.50781,-2.710937 l -0.002,-0.0039 -8.77149,-18.955078 -6.0996,11.308593 h 5.56054 l -5.08398,5.300781 c -0.87092,0.91386 -1.34514,2.068868 -1.39649,3.378907 -0.0436,1.112149 0.26301,2.35907 0.77735,3.699219 h -10.90054 c 0.76649,-0.9501 1.5257,-1.986776 2.28906,-3.558594 l 0.004,-0.0059 8.54492,-18.77539 c 0.86025,-1.647701 0.82401,-3.491429 0.16992,-5.394532 z m 17.6914,0 h 33.28907 c 5.19755,9.036251 5.26629,18.139902 0.13281,27.544922 l -0.10547,0.191407 h -17.9375 c -3.13471,0 -5.46524,-1.678291 -7.17773,-5.273438 l -0.002,-0.0039 v -0.002 l -0.15039,-0.328125 -7.94922,-17.150391 -0.008,-0.01367 c -0.76299,-1.413498 -0.80799,-3.027315 -0.0918,-4.964844 z"
       sodipodi:nodetypes="cccccccccccccccccscccccsccccccccccccccccsccccccscccccccccccscccccccc" /></g><g
     id="g1"><path
       id="path5660-3"
       style="fill:#000000;fill-opacity:1;stroke:none;stroke-width:1px;stroke-linecap:butt;stroke-linejoin:miter;stroke-opacity:1"
       d="M 23.12322,0.00202 38.06267,29.7364 h 9.576172 L 39.097826,23.1739 32.98259,0.00202 Z m -4.07813,6.08203 -5.13867,9.78711 2.8125,2.6875 c 0,0 1.16266,-0.64477 2.35352,-1.19726 1.19086,-0.55248 4.99023,0 4.99023,0 z" /><path
       id="path9024"
       style="color:#000000;fill:url(#linearGradient15318);fill-opacity:1;fill-rule:evenodd;-inkscape-stroke:none"
       d="m 12.47283,0.50007 c 0.898,2.056 0.898,3.94406 0,5.66406 L 3.91814,24.95905 C 2.98714,26.87605 2.072,28.3024 1.174,29.2364 h 12.50195 c -1.394,-3.163 -1.2988,-5.57242 0.2832,-7.23242 l 5.89454,-6.14649 h -5.89454 l 5.22852,-9.69336 8.34961,18.04688 c 0.69,1.549 0.91436,3.29339 -1.05664,5.02539 h 15.212889 c -1.197,-1.21 -2.123295,-2.52246 -2.779297,-3.93946 L 30.19158,6.49616 c -0.658,-1.818 -0.658,-3.81609 0,-5.99609 z m 51.916012,0 -33.958982,0.002 -0.11524,0.29297 c -0.765,2.048 -0.72576,3.85215 0.11524,5.41016 l 7.941404,17.13672 0.154297,0.33203 c 1.765,3.708 4.308859,5.5625 7.630859,5.5625 h 18.232422 l 0.25,-0.45117 c 5.247,-9.613 5.163,-19.04216 -0.25,-28.28516 z" /><text
       xml:space="preserve"
       style="font-style:normal;font-variant:normal;font-weight:normal;font-stretch:normal;font-size:24.8522px;font-family:Beleren;-inkscape-font-specification:Beleren;fill:#000000;stroke-width:1.55326"
       x="38.831219"
       y="20.952568"
       id="text1"><tspan
         sodipodi:role="line"
         id="tspan1"
         x="38.831219"
         y="20.952568"
         style="fill:#000000;stroke-width:1.55326">24</tspan></text><path
       id="path9026-2"
       style="color:#000000;fill:#000000;fill-rule:evenodd"
       d="m 30.191458,-9.51e-4 -18.482426,0.002 0.304688,0.701172 c 0.853059,1.953108 0.844204,3.645494 0.01563,5.232422 l -0.0059,0.01172 -8.5566406,18.796875 c -0.916809,1.887258 -1.813415,3.273935 -2.65234399,4.146484 L 4.840522e-5,29.737331 H 14.443407 L 14.13286,29.036159 c -0.676409,-1.534779 -0.97479,-2.858276 -0.93164,-3.958985 0.0431,-1.100089 0.408841,-1.980693 1.11914,-2.726562 v -0.0039 l 6.705079,-6.990235 H 14.79497 l 4.357422,-8.076172 7.927736,17.132813 c 0.32477,0.729089 0.5182,1.460028 0.42969,2.179687 -0.0885,0.71966 -0.44352,1.462769 -1.359379,2.267579 l -0.996094,0.875 h 17.736323 l -0.84179,-0.851563 c -0.22314,-0.22556 -0.42759,-0.457093 -0.63086,-0.689453 1.36933,1.015279 2.95679,1.541016 4.73828,1.541016 h 18.52734 l 0.39258,-0.710938 h 0.0019 c 5.31394,-9.73563 5.22898,-19.408373 -0.25781,-28.777344 l -0.14453,-0.248047 h -0.28711 l -33.52344,0.0039 v -0.0039 z M 13.085986,1.001002 h 16.525392 c -0.49588,2.014228 -0.52013,3.928691 0.10937,5.667969 l 0.0078,0.01953 8.73046,18.820313 c 0.53958,1.165529 1.39121,2.204197 2.27735,3.228516 h -13.19334 c 0.51291,-0.66664 0.8759,-1.343972 0.95898,-2.019532 0.11974,-0.973589 -0.14258,-1.891028 -0.50781,-2.710937 l -0.002,-0.0039 -8.771487,-18.955078 -6.099609,11.308593 h 5.560547 l -5.083985,5.300781 c -0.870919,0.91386 -1.345134,2.068868 -1.396484,3.378907 -0.0436,1.112149 0.263004,2.35907 0.777344,3.699219 H 2.0781734 c 0.766499,-0.9501 1.525703,-1.986776 2.289063,-3.558594 l 0.0039,-0.0059 8.5449216,-18.77539 C 13.776306,4.747798 13.740064,2.90407 13.08598,1.000967 Z m 17.691402,0 h 33.28907 c 5.19755,9.036251 5.26629,18.139902 0.13281,27.544922 l -0.10547,0.191407 h -17.9375 c -3.13471,0 -5.46524,-1.678291 -7.17773,-5.273438 l -0.002,-0.0039 v -0.002 l -0.15039,-0.328125 -7.94922,-17.150391 -0.0078,-0.01367 c -0.76299,-1.413498 -0.80799,-3.027315 -0.0918,-4.964844 z"
       sodipodi:nodetypes="cccccccccccccccccccccccscccccccccccccccccccccccccccccccccccscccccccc" /></g></svg>
