<?xml version="1.0" encoding="UTF-8" standalone="no"?>
<svg
   xmlns:dc="http://purl.org/dc/elements/1.1/"
   xmlns:cc="http://creativecommons.org/ns#"
   xmlns:rdf="http://www.w3.org/1999/02/22-rdf-syntax-ns#"
   xmlns:svg="http://www.w3.org/2000/svg"
   xmlns="http://www.w3.org/2000/svg"
   xmlns:xlink="http://www.w3.org/1999/xlink"
   xmlns:sodipodi="http://sodipodi.sourceforge.net/DTD/sodipodi-0.dtd"
   xmlns:inkscape="http://www.inkscape.org/namespaces/inkscape"
   inkscape:version="1.0 (4035a4fb49, 2020-05-01)"
   sodipodi:docname="akr.svg"
   id="svg6"
   viewBox="0 0 108.80119 31.36911"
   height="31.36911"
   width="108.80119"
   version="1.1">
  <metadata
     id="metadata12">
    <rdf:RDF>
      <cc:Work
         rdf:about="">
        <dc:format>image/svg+xml</dc:format>
        <dc:type
           rdf:resource="http://purl.org/dc/dcmitype/StillImage" />
        <dc:title>akr</dc:title>
      </cc:Work>
    </rdf:RDF>
  </metadata>
  <defs
     id="defs10">
    <linearGradient
       inkscape:collect="always"
       id="linearGradient1111">
      <stop
         style="stop-color:#b73326;stop-opacity:1"
         offset="0"
         id="stop1105" />
      <stop
         id="stop1107"
         offset="0.5"
         style="stop-color:#f49226;stop-opacity:1" />
      <stop
         style="stop-color:#b73326;stop-opacity:1"
         offset="1"
         id="stop1109" />
    </linearGradient>
    <linearGradient
       inkscape:collect="always"
       id="linearGradient1097">
      <stop
         style="stop-color:#86713f;stop-opacity:1"
         offset="0"
         id="stop1091" />
      <stop
         id="stop1093"
         offset="0.5"
         style="stop-color:#dfc27f;stop-opacity:1" />
      <stop
         style="stop-color:#86713f;stop-opacity:1"
         offset="1"
         id="stop1095" />
    </linearGradient>
    <linearGradient
       id="linearGradient1009"
       inkscape:collect="always">
      <stop
         id="stop1005"
         offset="0"
         style="stop-color:#4c6d7a;stop-opacity:1" />
      <stop
         style="stop-color:#bae2ef;stop-opacity:1"
         offset="0.5"
         id="stop1013" />
      <stop
         id="stop1007"
         offset="1"
         style="stop-color:#4c6d7a;stop-opacity:1" />
    </linearGradient>
    <linearGradient
       gradientUnits="userSpaceOnUse"
       y2="20.191402"
       x2="-32.722912"
       y1="20.191402"
       x1="-57.723099"
       id="linearGradient1011"
       xlink:href="#linearGradient1009"
       inkscape:collect="always" />
    <linearGradient
       gradientTransform="translate(113.22207,-4.4968484)"
       inkscape:collect="always"
       xlink:href="#linearGradient1097"
       id="linearGradient1011-55"
       x1="-57.723099"
       y1="20.191402"
       x2="-32.722912"
       y2="20.191402"
       gradientUnits="userSpaceOnUse" />
    <linearGradient
       gradientTransform="translate(140.42236,-4.4968484)"
       inkscape:collect="always"
       xlink:href="#linearGradient1111"
       id="linearGradient1011-8"
       x1="-57.723099"
       y1="20.191402"
       x2="-32.722912"
       y2="20.191402"
       gradientUnits="userSpaceOnUse" />
  </defs>
  <sodipodi:namedview
     inkscape:current-layer="svg6"
     inkscape:window-maximized="1"
     inkscape:window-y="-8"
     inkscape:window-x="55"
     inkscape:cy="0.58950706"
     inkscape:cx="47.250524"
     inkscape:zoom="5.6679028"
     fit-margin-bottom="0"
     fit-margin-right="0"
     fit-margin-left="0"
     fit-margin-top="0"
     showgrid="false"
     id="namedview8"
     inkscape:window-height="1177"
     inkscape:window-width="1857"
     inkscape:pageshadow="2"
     inkscape:pageopacity="0"
     guidetolerance="10"
     gridtolerance="10"
     objecttolerance="10"
     borderopacity="1"
     bordercolor="#666666"
     pagecolor="#ffffff" />
  <title
     id="title2">akr</title>
  <g
     inkscape:export-ydpi="220.34"
     inkscape:export-xdpi="220.34"
     transform="translate(86.021771,-4.4968484)"
     id="g1017">
    <path
       id="path904"
       d="M -48.000474,4.4983637 A 1.10011,1.10011 0 0 0 -48.447739,4.6135981 H -48.449693 A 1.10011,1.10011 0 0 0 -49.055161,5.6702387 C -48.992637,6.6171719 -49.057901,7.5671027 -49.262193,8.4788325 A 1.10011,1.10011 0 0 0 -49.264146,8.486645 C -49.534633,9.7303461 -50.054563,10.93921 -50.728989,12.072583 A 1.10011,1.10011 0 0 0 -50.732896,12.080395 C -51.20638,12.891457 -51.833362,13.635346 -52.547349,14.305004 -53.441569,15.077464 -54.388142,15.790075 -55.37938,16.43977 -55.631472,16.601855 -55.911068,16.766227 -56.207505,16.949536 A 1.10011,1.10011 0 0 0 -56.258286,16.982739 C -56.934033,17.455193 -57.602821,18.057014 -58.086411,18.863599 -58.447201,19.451074 -58.659148,20.102813 -58.742661,20.763989 -58.847208,21.42295 -58.861262,22.125659 -58.701646,22.832349 -58.534366,23.575566 -58.176526,24.245994 -57.701646,24.801099 A 1.10011,1.10011 0 0 0 -57.684068,24.82063 C -57.394642,25.141821 -57.021321,25.395559 -56.654771,25.650708 A 1.10011,1.10011 0 0 0 -56.750474,25.748364 C -57.132713,26.190423 -57.504112,26.629751 -57.875474,27.055005 A 1.10011,1.10011 0 0 0 -57.607896,28.724927 C -53.689587,31.05111 -49.772017,33.374964 -45.857896,35.703442 L -45.982896,35.617505 C -45.573208,35.945255 -44.868806,35.955555 -44.445786,35.607739 L -44.584458,35.703442 C -40.666577,33.379513 -36.746928,31.057775 -32.832505,28.724927 A 1.10011,1.10011 0 0 0 -32.564927,27.058911 C -32.936673,26.629974 -33.310185,26.189794 -33.69188,25.748364 A 1.10011,1.10011 0 0 0 -33.770005,25.668286 C -32.962249,25.11123 -32.24786,24.353564 -31.893052,23.342114 -31.512851,22.283009 -31.585999,21.214207 -31.781724,20.28938 A 1.10011,1.10011 0 0 0 -31.78563,20.273755 C -31.882237,19.847867 -32.039861,19.463296 -32.219224,19.115552 A 1.10011,1.10011 0 0 0 -32.225083,19.103833 C -32.722448,18.165798 -33.472762,17.466592 -34.25438,16.937817 A 1.10011,1.10011 0 0 0 -34.31688,16.898754 C -35.551637,16.17707 -36.715849,15.30498 -37.838365,14.357739 -38.518608,13.745395 -39.116487,13.04137 -39.59813,12.269848 A 1.10011,1.10011 0 0 0 -39.600083,12.265942 C -40.150877,11.390392 -40.598046,10.451849 -40.916489,9.4768794 V 9.4749262 C -41.314141,8.2523178 -41.480751,6.9529011 -41.391099,5.6780512 A 1.10011,1.10011 0 0 0 -43.572739,5.4124262 C -43.579018,5.4486414 -43.578243,5.4874968 -43.584458,5.5237544 H -43.586411 C -43.586549,5.5257069 -43.586275,5.5276611 -43.586411,5.5296137 -43.845029,7.0391721 -44.054331,8.5833201 -44.092271,10.162426 A 1.10011,1.10011 0 0 0 -44.092271,10.176098 C -44.108158,11.522533 -44.009512,12.987048 -43.480943,14.412426 -43.76657,14.081451 -44.052691,13.751175 -44.338365,13.420239 A 1.10011,1.10011 0 0 0 -44.37938,13.369458 C -44.381781,13.366677 -44.384792,13.364426 -44.387193,13.361645 A 1.10011,1.10011 0 0 0 -46.053208,13.359692 C -46.350819,13.704108 -46.648227,14.048421 -46.945786,14.392895 -46.742349,13.832782 -46.581614,13.25835 -46.496568,12.674145 -46.369333,11.820795 -46.335772,10.969022 -46.359849,10.135083 V 10.133129 C -46.394958,8.55768 -46.608266,7.0231442 -46.859849,5.5257075 -46.866031,5.4889105 -46.865333,5.449175 -46.871568,5.4124262 A 1.10011,1.10011 0 0 0 -48.000474,4.4983637 Z M -48.918443,13.297192 C -48.964629,13.450764 -48.984048,13.613146 -49.041489,13.762036 -49.332925,14.472756 -49.821422,15.153425 -50.402818,15.818676 -50.783614,16.244051 -51.179122,16.648614 -51.594224,17.027661 A 1.10011,1.10011 0 0 0 -51.631333,17.062817 C -51.668325,17.099809 -51.765114,17.174937 -51.918443,17.291333 A 1.10011,1.10011 0 0 0 -51.939927,17.306958 C -52.50873,17.76079 -53.139452,18.270515 -53.684068,18.957349 -54.029861,19.380953 -54.396934,19.964789 -54.449693,20.734692 -54.525575,21.510817 -54.231664,22.204598 -53.771958,22.711255 -53.525927,22.989209 -53.250548,23.216249 -52.967271,23.400708 A 1.10011,1.10011 0 0 0 -52.924302,23.426099 C -50.542323,24.825499 -48.161641,26.229693 -45.777818,27.631177 A 1.10011,1.10011 0 0 0 -44.66063,27.631177 C -42.28065,26.227778 -39.897725,24.826514 -37.516099,23.424145 A 1.10011,1.10011 0 0 0 -37.447739,23.381177 C -37.029971,23.090762 -36.519747,22.680231 -36.209458,22.00227 -35.866192,21.269028 -35.926894,20.492887 -36.207505,19.847973 A 1.10011,1.10011 0 0 0 -36.213365,19.836255 C -36.472244,19.257843 -36.842321,18.840444 -37.158677,18.50227 A 1.10011,1.10011 0 0 0 -37.170396,18.490552 C -37.674286,17.967916 -38.212611,17.537213 -38.730943,17.138989 -39.116699,16.801113 -39.488024,16.425853 -39.855943,16.029614 -40.510882,15.30423 -41.068842,14.565907 -41.389146,13.789379 -41.389466,13.788603 -41.390779,13.788203 -41.391099,13.787426 -41.428341,13.694765 -41.401792,13.566504 -41.434068,13.47102 -40.842188,14.410312 -40.123905,15.264942 -39.303208,16.00227 A 1.10011,1.10011 0 0 0 -39.277818,16.023754 C -38.084012,17.032474 -36.81272,17.988791 -35.426255,18.799145 L -35.486802,18.760083 C -34.91525,19.146746 -34.445206,19.616057 -34.170396,20.13313 -34.060246,20.348303 -33.979178,20.555942 -33.934068,20.750317 -33.789714,21.436242 -33.780126,22.091793 -33.965318,22.603833 A 1.10011,1.10011 0 0 0 -33.967271,22.613599 C -34.153031,23.143144 -34.595396,23.642214 -35.148911,23.984692 -35.149754,23.985213 -35.150022,23.986125 -35.150865,23.986645 -38.504273,25.934163 -41.864688,27.873232 -45.22313,29.818677 -48.540409,27.89739 -51.859239,25.977741 -55.174302,24.055005 A 1.10011,1.10011 0 0 0 -55.189927,24.047192 C -55.496007,23.875958 -55.782424,23.637982 -56.03563,23.359692 -56.290362,23.059138 -56.475076,22.706437 -56.555161,22.349927 A 1.10011,1.10011 0 0 0 -56.555161,22.347973 C -56.641586,21.965335 -56.642603,21.534188 -56.570786,21.092114 A 1.10011,1.10011 0 0 0 -56.564927,21.049145 C -56.519008,20.674617 -56.397284,20.313742 -56.211411,20.012036 A 1.10011,1.10011 0 0 0 -56.203599,19.998364 C -55.939687,19.5564 -55.514895,19.151212 -55.008286,18.795239 -54.751572,18.637384 -54.473748,18.474581 -54.180161,18.285473 A 1.10011,1.10011 0 0 0 -54.172349,18.279614 C -53.093775,17.572676 -52.059801,16.795693 -51.082505,15.949536 A 1.10011,1.10011 0 0 0 -51.051255,15.922192 C -50.240121,15.162987 -49.511551,14.282433 -48.918443,13.297192 Z M -45.221177,15.763989 C -43.764404,17.452017 -42.307023,19.140266 -40.84813,20.828442 -42.305847,21.699448 -43.763017,22.570925 -45.221177,23.43977 -46.678331,22.569819 -48.136934,21.698479 -49.596177,20.828442 -48.137841,19.140201 -46.679184,17.451836 -45.221177,15.763989 Z"
       style="color:#000000;font-style:normal;font-variant:normal;font-weight:normal;font-stretch:normal;font-size:medium;line-height:normal;font-family:sans-serif;font-variant-ligatures:normal;font-variant-position:normal;font-variant-caps:normal;font-variant-numeric:normal;font-variant-alternates:normal;font-variant-east-asian:normal;font-feature-settings:normal;font-variation-settings:normal;text-indent:0;text-align:start;text-decoration:none;text-decoration-line:none;text-decoration-style:solid;text-decoration-color:#000000;letter-spacing:normal;word-spacing:normal;text-transform:none;writing-mode:lr-tb;direction:ltr;text-orientation:mixed;dominant-baseline:auto;baseline-shift:baseline;text-anchor:start;white-space:normal;shape-padding:0;shape-margin:0;inline-size:0;clip-rule:nonzero;display:inline;overflow:visible;visibility:visible;isolation:auto;mix-blend-mode:normal;color-interpolation:sRGB;color-interpolation-filters:linearRGB;solid-color:#000000;solid-opacity:1;vector-effect:none;fill:#000000;fill-opacity:1;fill-rule:nonzero;stroke:none;stroke-width:2.2;stroke-linecap:butt;stroke-linejoin:round;stroke-miterlimit:4;stroke-dasharray:none;stroke-dashoffset:0;stroke-opacity:1;color-rendering:auto;image-rendering:auto;shape-rendering:auto;text-rendering:auto;enable-background:accumulate;stop-color:#000000" />
    <path
       id="path4-7"
       d="M -47.956095,5.5972148 C -47.700096,7.1062148 -47.493096,8.6282148 -47.459096,10.160215 -47.436096,10.945215 -47.468096,11.733215 -47.584096,12.511215 -47.666096,13.077215 -47.810095,13.635215 -48.017095,14.169215 -48.377095,15.052215 -48.950095,15.828215 -49.574095,16.542215 -49.979095,16.995215 -50.404095,17.430215 -50.853095,17.840215 -50.975095,17.962215 -51.116095,18.063215 -51.253095,18.167215 -51.817095,18.617215 -52.381095,19.080215 -52.830095,19.649215 -53.103095,19.983215 -53.334095,20.379215 -53.360095,20.819215 -53.409095,21.243215 -53.237095,21.669215 -52.953095,21.979215 -52.783095,22.172215 -52.582095,22.338215 -52.367095,22.478215 -49.984095,23.878215 -47.603096,25.282215 -45.220096,26.683215 -42.839096,25.279215 -40.456096,23.879215 -38.075096,22.477215 -37.724096,22.233215 -37.385096,21.938215 -37.205096,21.541215 -37.019096,21.148215 -37.046096,20.679215 -37.217096,20.286215 -37.392096,19.895215 -37.672096,19.563215 -37.962096,19.253215 -38.419096,18.779215 -38.934096,18.365215 -39.455096,17.966215 -39.882096,17.592215 -40.282096,17.188215 -40.668096,16.772215 -41.362096,16.004215 -42.012096,15.171215 -42.409096,14.207215 -42.922096,12.936215 -43.008096,11.545215 -42.992096,10.189215 -42.955096,8.6492148 -42.752096,7.1182148 -42.489096,5.6012148 -42.589096,7.0232148 -42.404096,8.4622148 -41.963096,9.8172148 -41.615096,10.883215 -41.129096,11.903215 -40.532096,12.852215 -39.992096,13.717215 -39.326096,14.503215 -38.568096,15.184215 -37.407096,16.165215 -36.185096,17.081215 -34.871096,17.849215 -34.194096,18.307215 -33.582096,18.891215 -33.196096,19.619215 -33.049096,19.904215 -32.929096,20.204215 -32.858096,20.517215 -32.687096,21.325215 -32.645096,22.189215 -32.930096,22.977215 -33.218096,23.798215 -33.841096,24.470215 -34.573096,24.922215 -38.120096,26.982215 -41.672096,29.034215 -45.222096,31.091215 -48.723095,29.063215 -52.226095,27.037215 -55.726095,25.007215 -56.155095,24.767215 -56.538095,24.449215 -56.866095,24.085215 -57.233095,23.656215 -57.504095,23.142215 -57.628095,22.590215 -57.752095,22.041215 -57.747095,21.469215 -57.657095,20.915215 -57.593095,20.393215 -57.423095,19.882215 -57.147095,19.434215 -56.772095,18.806215 -56.223095,18.300215 -55.628095,17.884215 -55.345095,17.709215 -55.057095,17.541215 -54.776095,17.360215 -53.737095,16.679215 -52.742095,15.931215 -51.803095,15.118215 -51.022095,14.387215 -50.323095,13.560215 -49.783095,12.635215 -49.060095,11.420215 -48.490095,10.104215 -48.189095,8.7202148 -47.960095,7.6982148 -47.889095,6.6432148 -47.958095,5.5982148 Z M -45.220096,14.079215 C -47.242096,16.419215 -49.263095,18.761215 -51.285095,21.101215 -49.262095,22.305215 -47.242096,23.514215 -45.221096,24.720215 -43.199096,23.516215 -41.178096,22.308215 -39.158096,21.101215 -41.181096,18.762215 -43.200096,16.420215 -45.220096,14.080215 Z M -57.047095,27.779215 C -53.129095,30.105215 -49.210095,32.429215 -45.295096,34.758215 -45.250096,34.794215 -45.190096,34.795215 -45.145096,34.758215 -41.227096,32.434215 -37.309096,30.111215 -33.396096,27.779215 -33.773096,27.344215 -34.146096,26.904215 -34.523096,26.468215 -38.090096,28.622215 -41.650096,30.789215 -45.220096,32.938215 -48.789095,30.786215 -52.353095,28.627215 -55.918095,26.468215 -56.295095,26.904215 -56.668095,27.345215 -57.047095,27.779215 Z"
       fill="#444444"
       style="fill:url(#linearGradient1011);fill-opacity:1" />
  </g>
  <g
     inkscape:export-ydpi="220.34"
     inkscape:export-xdpi="220.34"
     id="g1087">
    <path
       style="color:#000000;font-style:normal;font-variant:normal;font-weight:normal;font-stretch:normal;font-size:medium;line-height:normal;font-family:sans-serif;font-variant-ligatures:normal;font-variant-position:normal;font-variant-caps:normal;font-variant-numeric:normal;font-variant-alternates:normal;font-variant-east-asian:normal;font-feature-settings:normal;font-variation-settings:normal;text-indent:0;text-align:start;text-decoration:none;text-decoration-line:none;text-decoration-style:solid;text-decoration-color:#000000;letter-spacing:normal;word-spacing:normal;text-transform:none;writing-mode:lr-tb;direction:ltr;text-orientation:mixed;dominant-baseline:auto;baseline-shift:baseline;text-anchor:start;white-space:normal;shape-padding:0;shape-margin:0;inline-size:0;clip-rule:nonzero;display:inline;overflow:visible;visibility:visible;isolation:auto;mix-blend-mode:normal;color-interpolation:sRGB;color-interpolation-filters:linearRGB;solid-color:#000000;solid-opacity:1;vector-effect:none;fill:#ffffff;fill-opacity:1;fill-rule:nonzero;stroke:none;stroke-width:2.2;stroke-linecap:butt;stroke-linejoin:round;stroke-miterlimit:4;stroke-dasharray:none;stroke-dashoffset:0;stroke-opacity:1;color-rendering:auto;image-rendering:auto;shape-rendering:auto;text-rendering:auto;enable-background:accumulate;stop-color:#000000"
       d="M 10.821,0.0015153 A 1.10011,1.10011 0 0 0 10.373735,0.1167497 H 10.371781 A 1.10011,1.10011 0 0 0 9.766313,1.1733903 C 9.828837,2.1203235 9.763573,3.0702543 9.559281,3.9819841 A 1.10011,1.10011 0 0 0 9.557328,3.9897966 C 9.286841,5.2334977 8.766911,6.4423616 8.092485,7.5757346 A 1.10011,1.10011 0 0 0 8.088578,7.5835466 C 7.615094,8.3946086 6.988112,9.1384976 6.274125,9.8081556 5.379905,10.580616 4.433332,11.293227 3.442094,11.942922 3.190002,12.105007 2.910406,12.269379 2.613969,12.452688 A 1.10011,1.10011 0 0 0 2.563188,12.485891 C 1.887441,12.958345 1.218653,13.560166 0.735063,14.366751 0.374273,14.954226 0.162326,15.605965 0.078813,16.267141 -0.025734,16.926102 -0.039788,17.628811 0.119828,18.335501 0.287108,19.078718 0.644948,19.749146 1.119828,20.304251 A 1.10011,1.10011 0 0 0 1.137406,20.323782 C 1.426832,20.644973 1.800153,20.898711 2.166703,21.15386 A 1.10011,1.10011 0 0 0 2.071,21.251516 C 1.688761,21.693575 1.317362,22.132903 0.946,22.558157 A 1.10011,1.10011 0 0 0 1.213578,24.228079 C 5.131887,26.554262 9.049457,28.878116 12.963578,31.206594 L 12.838578,31.120657 C 13.248266,31.448407 13.952668,31.458707 14.375688,31.110891 L 14.237016,31.206594 C 18.154897,28.882665 22.074546,26.560927 25.988969,24.228079 A 1.10011,1.10011 0 0 0 26.256547,22.562063 C 25.884801,22.133126 25.511289,21.692946 25.129594,21.251516 A 1.10011,1.10011 0 0 0 25.051469,21.171438 C 25.859225,20.614382 26.573614,19.856716 26.928422,18.845266 27.308623,17.786161 27.235475,16.717359 27.03975,15.792532 A 1.10011,1.10011 0 0 0 27.035844,15.776907 C 26.939237,15.351019 26.781613,14.966448 26.60225,14.618704 A 1.10011,1.10011 0 0 0 26.596391,14.606985 C 26.099026,13.66895 25.348712,12.969744 24.567094,12.440969 A 1.10011,1.10011 0 0 0 24.504594,12.401906 C 23.269837,11.680222 22.105625,10.808132 20.983109,9.8608906 20.302866,9.2485466 19.704987,8.5445216 19.223344,7.7729996 A 1.10011,1.10011 0 0 0 19.221391,7.7690936 C 18.670597,6.8935436 18.223428,5.9550006 17.904985,4.980031 V 4.9780778 C 17.507333,3.7554694 17.340723,2.4560527 17.430375,1.1812028 A 1.10011,1.10011 0 0 0 15.248735,0.9155778 C 15.242456,0.951793 15.243231,0.9906484 15.237016,1.026906 H 15.235063 C 15.234925,1.0288585 15.235199,1.0308127 15.235063,1.0327653 14.976445,2.5423237 14.767143,4.0864717 14.729203,5.6655776 A 1.10011,1.10011 0 0 0 14.729203,5.6792496 C 14.713316,7.0256846 14.811962,8.4901996 15.340531,9.9155776 15.054904,9.5846026 14.768783,9.2543266 14.483109,8.9233906 A 1.10011,1.10011 0 0 0 14.442094,8.8726096 C 14.439693,8.8698286 14.436682,8.8675776 14.434281,8.8647966 A 1.10011,1.10011 0 0 0 12.768266,8.8628436 C 12.470655,9.2072596 12.173247,9.5515726 11.875688,9.8960466 12.079125,9.3359336 12.23986,8.7615016 12.324906,8.1772966 12.452141,7.3239466 12.485702,6.4721736 12.461625,5.6382346 V 5.6362806 C 12.426516,4.0608316 12.213208,2.5262958 11.961625,1.0288591 11.955443,0.9920621 11.956141,0.9523266 11.949906,0.9155778 A 1.10011,1.10011 0 0 0 10.821,0.0015153 Z M 9.903031,8.8003436 C 9.856845,8.9539156 9.837426,9.1162976 9.779985,9.2651876 9.488549,9.9759076 9.000052,10.656577 8.418656,11.321828 8.03786,11.747203 7.642352,12.151766 7.22725,12.530813 A 1.10011,1.10011 0 0 0 7.190141,12.565969 C 7.153149,12.602961 7.05636,12.678089 6.903031,12.794485 A 1.10011,1.10011 0 0 0 6.881547,12.81011 C 6.312744,13.263942 5.682022,13.773667 5.137406,14.460501 4.791613,14.884105 4.42454,15.467941 4.371781,16.237844 4.295899,17.013969 4.58981,17.70775 5.049516,18.214407 5.295547,18.492361 5.570926,18.719401 5.854203,18.90386 A 1.10011,1.10011 0 0 0 5.897172,18.929251 C 8.279151,20.328651 10.659833,21.732845 13.043656,23.134329 A 1.10011,1.10011 0 0 0 14.160844,23.134329 C 16.540824,21.73093 18.923749,20.329666 21.305375,18.927297 A 1.10011,1.10011 0 0 0 21.373735,18.884329 C 21.791503,18.593914 22.301727,18.183383 22.612016,17.505422 22.955282,16.77218 22.89458,15.996039 22.613969,15.351125 A 1.10011,1.10011 0 0 0 22.608109,15.339407 C 22.34923,14.760995 21.979153,14.343596 21.662797,14.005422 A 1.10011,1.10011 0 0 0 21.651078,13.993704 C 21.147188,13.471068 20.608863,13.040365 20.090531,12.642141 19.704775,12.304265 19.33345,11.929005 18.965531,11.532766 18.310592,10.807382 17.752632,10.069059 17.432328,9.2925306 17.432008,9.2917546 17.430695,9.2913546 17.430375,9.2905776 17.393133,9.1979166 17.419682,9.0696556 17.387406,8.9741716 17.979286,9.9134636 18.697569,10.768094 19.518266,11.505422 A 1.10011,1.10011 0 0 0 19.543656,11.526906 C 20.737462,12.535626 22.008754,13.491943 23.395219,14.302297 L 23.334672,14.263235 C 23.906224,14.649898 24.376268,15.119209 24.651078,15.636282 24.761228,15.851455 24.842296,16.059094 24.887406,16.253469 25.03176,16.939394 25.041348,17.594945 24.856156,18.106985 A 1.10011,1.10011 0 0 0 24.854203,18.116751 C 24.668443,18.646296 24.226078,19.145366 23.672563,19.487844 23.67172,19.488365 23.671452,19.489277 23.670609,19.489797 20.317201,21.437315 16.956786,23.376384 13.598344,25.321829 10.281065,23.400542 6.962235,21.480893 3.647172,19.558157 A 1.10011,1.10011 0 0 0 3.631547,19.550344 C 3.325467,19.37911 3.03905,19.141134 2.785844,18.862844 2.531112,18.56229 2.346398,18.209589 2.266313,17.853079 A 1.10011,1.10011 0 0 0 2.266313,17.851125 C 2.179888,17.468487 2.178871,17.03734 2.250688,16.595266 A 1.10011,1.10011 0 0 0 2.256547,16.552297 C 2.302466,16.177769 2.42419,15.816894 2.610063,15.515188 A 1.10011,1.10011 0 0 0 2.617875,15.501516 C 2.881787,15.059552 3.306579,14.654364 3.813188,14.298391 4.069902,14.140536 4.347726,13.977733 4.641313,13.788625 A 1.10011,1.10011 0 0 0 4.649125,13.782766 C 5.727699,13.075828 6.761673,12.298845 7.738969,11.452688 A 1.10011,1.10011 0 0 0 7.770219,11.425344 C 8.581353,10.666139 9.309923,9.7855846 9.903031,8.8003436 Z M 13.600297,11.267141 C 15.05707,12.955169 16.514451,14.643418 17.973344,16.331594 16.515627,17.2026 15.058457,18.074077 13.600297,18.942922 12.143143,18.072971 10.68454,17.201631 9.225297,16.331594 10.683633,14.643353 12.14229,12.954988 13.600297,11.267141 Z"
       id="path904-1" />
    <path
       style="fill:#000000;fill-opacity:1"
       fill="#444444"
       d="M 10.865379,1.1003664 C 11.121378,2.6093664 11.328378,4.1313664 11.362378,5.6633666 11.385378,6.4483666 11.353378,7.2363666 11.237378,8.0143666 11.155378,8.5803666 11.011379,9.1383666 10.804379,9.6723666 10.444379,10.555367 9.871379,11.331367 9.247379,12.045367 8.842379,12.498367 8.417379,12.933367 7.968379,13.343367 7.846379,13.465367 7.705379,13.566367 7.568379,13.670367 7.004379,14.120367 6.440379,14.583367 5.991379,15.152367 5.718379,15.486367 5.487379,15.882367 5.461379,16.322367 5.412379,16.746367 5.584379,17.172367 5.868379,17.482367 6.038379,17.675367 6.239379,17.841367 6.454379,17.981367 8.837379,19.381367 11.218378,20.785367 13.601378,22.186367 15.982378,20.782367 18.365378,19.382367 20.746378,17.980367 21.097378,17.736367 21.436378,17.441367 21.616378,17.044367 21.802378,16.651367 21.775378,16.182367 21.604378,15.789367 21.429378,15.398367 21.149378,15.066367 20.859378,14.756367 20.402378,14.282367 19.887378,13.868367 19.366378,13.469367 18.939378,13.095367 18.539378,12.691367 18.153378,12.275367 17.459378,11.507367 16.809378,10.674367 16.412378,9.7103666 15.899378,8.4393666 15.813378,7.0483666 15.829378,5.6923666 15.866378,4.1523664 16.069378,2.6213664 16.332378,1.1043664 16.232378,2.5263664 16.417378,3.9653664 16.858378,5.3203664 17.206378,6.3863666 17.692378,7.4063666 18.289378,8.3553666 18.829378,9.2203666 19.495378,10.006367 20.253378,10.687367 21.414378,11.668367 22.636378,12.584367 23.950378,13.352367 24.627378,13.810367 25.239378,14.394367 25.625378,15.122367 25.772378,15.407367 25.892378,15.707367 25.963378,16.020367 26.134378,16.828367 26.176378,17.692367 25.891378,18.480367 25.603378,19.301367 24.980378,19.973367 24.248378,20.425367 20.701378,22.485367 17.149378,24.537367 13.599378,26.594367 10.098379,24.566367 6.595379,22.540367 3.095379,20.510367 2.666379,20.270367 2.283379,19.952367 1.955379,19.588367 1.588379,19.159367 1.317379,18.645367 1.193379,18.093367 1.069379,17.544367 1.074379,16.972367 1.164379,16.418367 1.228379,15.896367 1.398379,15.385367 1.674379,14.937367 2.049379,14.309367 2.598379,13.803367 3.193379,13.387367 3.476379,13.212367 3.764379,13.044367 4.045379,12.863367 5.084379,12.182367 6.079379,11.434367 7.018379,10.621367 7.799379,9.8903666 8.498379,9.0633666 9.038379,8.1383666 9.761379,6.9233666 10.331379,5.6073666 10.632379,4.2233664 10.861379,3.2013664 10.932379,2.1463664 10.863379,1.1013664 Z M 13.601378,9.5823666 C 11.579378,11.922367 9.558379,14.264367 7.536379,16.604367 9.559379,17.808367 11.579378,19.017367 13.600378,20.223367 15.622378,19.019367 17.643378,17.811367 19.663378,16.604367 17.640378,14.265367 15.621378,11.923367 13.601378,9.5833666 Z M 1.774379,23.282367 C 5.692379,25.608367 9.611379,27.932367 13.526378,30.261367 13.571378,30.297367 13.631378,30.298367 13.676378,30.261367 17.594378,27.937367 21.512378,25.614367 25.425378,23.282367 25.048378,22.847367 24.675378,22.407367 24.298378,21.971367 20.731378,24.125367 17.171378,26.292367 13.601378,28.441367 10.032379,26.289367 6.468379,24.130367 2.903379,21.971367 2.526379,22.407367 2.153379,22.848367 1.774379,23.282367 Z"
       id="path4-7-9" />
  </g>
  <g
     inkscape:export-ydpi="220.34"
     inkscape:export-xdpi="220.34"
     id="g1101">
    <path
       style="color:#000000;font-style:normal;font-variant:normal;font-weight:normal;font-stretch:normal;font-size:medium;line-height:normal;font-family:sans-serif;font-variant-ligatures:normal;font-variant-position:normal;font-variant-caps:normal;font-variant-numeric:normal;font-variant-alternates:normal;font-variant-east-asian:normal;font-feature-settings:normal;font-variation-settings:normal;text-indent:0;text-align:start;text-decoration:none;text-decoration-line:none;text-decoration-style:solid;text-decoration-color:#000000;letter-spacing:normal;word-spacing:normal;text-transform:none;writing-mode:lr-tb;direction:ltr;text-orientation:mixed;dominant-baseline:auto;baseline-shift:baseline;text-anchor:start;white-space:normal;shape-padding:0;shape-margin:0;inline-size:0;clip-rule:nonzero;display:inline;overflow:visible;visibility:visible;isolation:auto;mix-blend-mode:normal;color-interpolation:sRGB;color-interpolation-filters:linearRGB;solid-color:#000000;solid-opacity:1;vector-effect:none;fill:#000000;fill-opacity:1;fill-rule:nonzero;stroke:none;stroke-width:2.2;stroke-linecap:butt;stroke-linejoin:round;stroke-miterlimit:4;stroke-dasharray:none;stroke-dashoffset:0;stroke-opacity:1;color-rendering:auto;image-rendering:auto;shape-rendering:auto;text-rendering:auto;enable-background:accumulate;stop-color:#000000"
       d="M 65.221596,0.0015153 A 1.10011,1.10011 0 0 0 64.774331,0.1167497 H 64.772377 A 1.10011,1.10011 0 0 0 64.166909,1.1733903 C 64.229433,2.1203235 64.164169,3.0702543 63.959877,3.9819841 A 1.10011,1.10011 0 0 0 63.957924,3.9897966 C 63.687437,5.2334977 63.167507,6.4423616 62.493081,7.5757346 A 1.10011,1.10011 0 0 0 62.489174,7.5835466 C 62.01569,8.3946086 61.388708,9.1384976 60.674721,9.8081556 59.780501,10.580616 58.833928,11.293227 57.84269,11.942922 57.590598,12.105007 57.311002,12.269379 57.014565,12.452688 A 1.10011,1.10011 0 0 0 56.963784,12.485891 C 56.288037,12.958345 55.619249,13.560166 55.135659,14.366751 54.774869,14.954226 54.562922,15.605965 54.479409,16.267141 54.374862,16.926102 54.360808,17.628811 54.520424,18.335501 54.687704,19.078718 55.045544,19.749146 55.520424,20.304251 A 1.10011,1.10011 0 0 0 55.538002,20.323782 C 55.827428,20.644973 56.200749,20.898711 56.567299,21.15386 A 1.10011,1.10011 0 0 0 56.471596,21.251516 C 56.089357,21.693575 55.717958,22.132903 55.346596,22.558157 A 1.10011,1.10011 0 0 0 55.614174,24.228079 C 59.532483,26.554262 63.450053,28.878116 67.364174,31.206594 L 67.239174,31.120657 C 67.648862,31.448407 68.353264,31.458707 68.776284,31.110891 L 68.637612,31.206594 C 72.555493,28.882665 76.475142,26.560927 80.389565,24.228079 A 1.10011,1.10011 0 0 0 80.657143,22.562063 C 80.285397,22.133126 79.911885,21.692946 79.53019,21.251516 A 1.10011,1.10011 0 0 0 79.452065,21.171438 C 80.259821,20.614382 80.97421,19.856716 81.329018,18.845266 81.709219,17.786161 81.636071,16.717359 81.440346,15.792532 A 1.10011,1.10011 0 0 0 81.43644,15.776907 C 81.339833,15.351019 81.182209,14.966448 81.002846,14.618704 A 1.10011,1.10011 0 0 0 80.996987,14.606985 C 80.499622,13.66895 79.749308,12.969744 78.96769,12.440969 A 1.10011,1.10011 0 0 0 78.90519,12.401906 C 77.670433,11.680222 76.506221,10.808132 75.383705,9.8608906 74.703462,9.2485466 74.105583,8.5445216 73.62394,7.7729996 A 1.10011,1.10011 0 0 0 73.621987,7.7690936 C 73.071193,6.8935436 72.624024,5.9550006 72.305581,4.980031 V 4.9780778 C 71.907929,3.7554694 71.741319,2.4560527 71.830971,1.1812028 A 1.10011,1.10011 0 0 0 69.649331,0.9155778 C 69.643052,0.951793 69.643827,0.9906484 69.637612,1.026906 H 69.635659 C 69.635521,1.0288585 69.635795,1.0308127 69.635659,1.0327653 69.377041,2.5423237 69.167739,4.0864717 69.129799,5.6655776 A 1.10011,1.10011 0 0 0 69.129799,5.6792496 C 69.113912,7.0256846 69.212558,8.4901996 69.741127,9.9155776 69.4555,9.5846026 69.169379,9.2543266 68.883705,8.9233906 A 1.10011,1.10011 0 0 0 68.84269,8.8726096 C 68.840289,8.8698286 68.837278,8.8675776 68.834877,8.8647966 A 1.10011,1.10011 0 0 0 67.168862,8.8628436 C 66.871251,9.2072596 66.573843,9.5515726 66.276284,9.8960466 66.479721,9.3359336 66.640456,8.7615016 66.725502,8.1772966 66.852737,7.3239466 66.886298,6.4721736 66.862221,5.6382346 V 5.6362806 C 66.827112,4.0608316 66.613804,2.5262958 66.362221,1.0288591 66.356039,0.9920621 66.356737,0.9523266 66.350502,0.9155778 A 1.10011,1.10011 0 0 0 65.221596,0.0015153 Z M 64.303627,8.8003436 C 64.257441,8.9539156 64.238022,9.1162976 64.180581,9.2651876 63.889145,9.9759076 63.400648,10.656577 62.819252,11.321828 62.438456,11.747203 62.042948,12.151766 61.627846,12.530813 A 1.10011,1.10011 0 0 0 61.590737,12.565969 C 61.553745,12.602961 61.456956,12.678089 61.303627,12.794485 A 1.10011,1.10011 0 0 0 61.282143,12.81011 C 60.71334,13.263942 60.082618,13.773667 59.538002,14.460501 59.192209,14.884105 58.825136,15.467941 58.772377,16.237844 58.696495,17.013969 58.990406,17.70775 59.450112,18.214407 59.696143,18.492361 59.971522,18.719401 60.254799,18.90386 A 1.10011,1.10011 0 0 0 60.297768,18.929251 C 62.679747,20.328651 65.060429,21.732845 67.444252,23.134329 A 1.10011,1.10011 0 0 0 68.56144,23.134329 C 70.94142,21.73093 73.324345,20.329666 75.705971,18.927297 A 1.10011,1.10011 0 0 0 75.774331,18.884329 C 76.192099,18.593914 76.702323,18.183383 77.012612,17.505422 77.355878,16.77218 77.295176,15.996039 77.014565,15.351125 A 1.10011,1.10011 0 0 0 77.008705,15.339407 C 76.749826,14.760995 76.379749,14.343596 76.063393,14.005422 A 1.10011,1.10011 0 0 0 76.051674,13.993704 C 75.547784,13.471068 75.009459,13.040365 74.491127,12.642141 74.105371,12.304265 73.734046,11.929005 73.366127,11.532766 72.711188,10.807382 72.153228,10.069059 71.832924,9.2925306 71.832604,9.2917546 71.831291,9.2913546 71.830971,9.2905776 71.793729,9.1979166 71.820278,9.0696556 71.788002,8.9741716 72.379882,9.9134636 73.098165,10.768094 73.918862,11.505422 A 1.10011,1.10011 0 0 0 73.944252,11.526906 C 75.138058,12.535626 76.40935,13.491943 77.795815,14.302297 L 77.735268,14.263235 C 78.30682,14.649898 78.776864,15.119209 79.051674,15.636282 79.161824,15.851455 79.242892,16.059094 79.288002,16.253469 79.432356,16.939394 79.441944,17.594945 79.256752,18.106985 A 1.10011,1.10011 0 0 0 79.254799,18.116751 C 79.069039,18.646296 78.626674,19.145366 78.073159,19.487844 78.072316,19.488365 78.072048,19.489277 78.071205,19.489797 74.717797,21.437315 71.357382,23.376384 67.99894,25.321829 64.681661,23.400542 61.362831,21.480893 58.047768,19.558157 A 1.10011,1.10011 0 0 0 58.032143,19.550344 C 57.726063,19.37911 57.439646,19.141134 57.18644,18.862844 56.931708,18.56229 56.746994,18.209589 56.666909,17.853079 A 1.10011,1.10011 0 0 0 56.666909,17.851125 C 56.580484,17.468487 56.579467,17.03734 56.651284,16.595266 A 1.10011,1.10011 0 0 0 56.657143,16.552297 C 56.703062,16.177769 56.824786,15.816894 57.010659,15.515188 A 1.10011,1.10011 0 0 0 57.018471,15.501516 C 57.282383,15.059552 57.707175,14.654364 58.213784,14.298391 58.470498,14.140536 58.748322,13.977733 59.041909,13.788625 A 1.10011,1.10011 0 0 0 59.049721,13.782766 C 60.128295,13.075828 61.162269,12.298845 62.139565,11.452688 A 1.10011,1.10011 0 0 0 62.170815,11.425344 C 62.981949,10.666139 63.710519,9.7855846 64.303627,8.8003436 Z M 68.000893,11.267141 C 69.457666,12.955169 70.915047,14.643418 72.37394,16.331594 70.916223,17.2026 69.459053,18.074077 68.000893,18.942922 66.543739,18.072971 65.085136,17.201631 63.625893,16.331594 65.084229,14.643353 66.542886,12.954988 68.000893,11.267141 Z"
       id="path904-3" />
    <path
       style="fill:url(#linearGradient1011-55);fill-opacity:1"
       fill="#444444"
       d="M 65.265975,1.1003664 C 65.521974,2.6093664 65.728974,4.1313664 65.762974,5.6633666 65.785974,6.4483666 65.753974,7.2363666 65.637974,8.0143666 65.555974,8.5803666 65.411975,9.1383666 65.204975,9.6723666 64.844975,10.555367 64.271975,11.331367 63.647975,12.045367 63.242975,12.498367 62.817975,12.933367 62.368975,13.343367 62.246975,13.465367 62.105975,13.566367 61.968975,13.670367 61.404975,14.120367 60.840975,14.583367 60.391975,15.152367 60.118975,15.486367 59.887975,15.882367 59.861975,16.322367 59.812975,16.746367 59.984975,17.172367 60.268975,17.482367 60.438975,17.675367 60.639975,17.841367 60.854975,17.981367 63.237975,19.381367 65.618974,20.785367 68.001974,22.186367 70.382974,20.782367 72.765974,19.382367 75.146974,17.980367 75.497974,17.736367 75.836974,17.441367 76.016974,17.044367 76.202974,16.651367 76.175974,16.182367 76.004974,15.789367 75.829974,15.398367 75.549974,15.066367 75.259974,14.756367 74.802974,14.282367 74.287974,13.868367 73.766974,13.469367 73.339974,13.095367 72.939974,12.691367 72.553974,12.275367 71.859974,11.507367 71.209974,10.674367 70.812974,9.7103666 70.299974,8.4393666 70.213974,7.0483666 70.229974,5.6923666 70.266974,4.1523664 70.469974,2.6213664 70.732974,1.1043664 70.632974,2.5263664 70.817974,3.9653664 71.258974,5.3203664 71.606974,6.3863666 72.092974,7.4063666 72.689974,8.3553666 73.229974,9.2203666 73.895974,10.006367 74.653974,10.687367 75.814974,11.668367 77.036974,12.584367 78.350974,13.352367 79.027974,13.810367 79.639974,14.394367 80.025974,15.122367 80.172974,15.407367 80.292974,15.707367 80.363974,16.020367 80.534974,16.828367 80.576974,17.692367 80.291974,18.480367 80.003974,19.301367 79.380974,19.973367 78.648974,20.425367 75.101974,22.485367 71.549974,24.537367 67.999974,26.594367 64.498975,24.566367 60.995975,22.540367 57.495975,20.510367 57.066975,20.270367 56.683975,19.952367 56.355975,19.588367 55.988975,19.159367 55.717975,18.645367 55.593975,18.093367 55.469975,17.544367 55.474975,16.972367 55.564975,16.418367 55.628975,15.896367 55.798975,15.385367 56.074975,14.937367 56.449975,14.309367 56.998975,13.803367 57.593975,13.387367 57.876975,13.212367 58.164975,13.044367 58.445975,12.863367 59.484975,12.182367 60.479975,11.434367 61.418975,10.621367 62.199975,9.8903666 62.898975,9.0633666 63.438975,8.1383666 64.161975,6.9233666 64.731975,5.6073666 65.032975,4.2233664 65.261975,3.2013664 65.332975,2.1463664 65.263975,1.1013664 Z M 68.001974,9.5823666 C 65.979974,11.922367 63.958975,14.264367 61.936975,16.604367 63.959975,17.808367 65.979974,19.017367 68.000974,20.223367 70.022974,19.019367 72.043974,17.811367 74.063974,16.604367 72.040974,14.265367 70.021974,11.923367 68.001974,9.5833666 Z M 56.174975,23.282367 C 60.092975,25.608367 64.011975,27.932367 67.926974,30.261367 67.971974,30.297367 68.031974,30.298367 68.076974,30.261367 71.994974,27.937367 75.912974,25.614367 79.825974,23.282367 79.448974,22.847367 79.075974,22.407367 78.698974,21.971367 75.131974,24.125367 71.571974,26.292367 68.001974,28.441367 64.432975,26.289367 60.868975,24.130367 57.303975,21.971367 56.926975,22.407367 56.553975,22.848367 56.174975,23.282367 Z"
       id="path4-7-4" />
  </g>
  <g
     inkscape:export-ydpi="220.34"
     inkscape:export-xdpi="220.34"
     id="g1115">
    <path
       style="color:#000000;font-style:normal;font-variant:normal;font-weight:normal;font-stretch:normal;font-size:medium;line-height:normal;font-family:sans-serif;font-variant-ligatures:normal;font-variant-position:normal;font-variant-caps:normal;font-variant-numeric:normal;font-variant-alternates:normal;font-variant-east-asian:normal;font-feature-settings:normal;font-variation-settings:normal;text-indent:0;text-align:start;text-decoration:none;text-decoration-line:none;text-decoration-style:solid;text-decoration-color:#000000;letter-spacing:normal;word-spacing:normal;text-transform:none;writing-mode:lr-tb;direction:ltr;text-orientation:mixed;dominant-baseline:auto;baseline-shift:baseline;text-anchor:start;white-space:normal;shape-padding:0;shape-margin:0;inline-size:0;clip-rule:nonzero;display:inline;overflow:visible;visibility:visible;isolation:auto;mix-blend-mode:normal;color-interpolation:sRGB;color-interpolation-filters:linearRGB;solid-color:#000000;solid-opacity:1;vector-effect:none;fill:#000000;fill-opacity:1;fill-rule:nonzero;stroke:none;stroke-width:2.2;stroke-linecap:butt;stroke-linejoin:round;stroke-miterlimit:4;stroke-dasharray:none;stroke-dashoffset:0;stroke-opacity:1;color-rendering:auto;image-rendering:auto;shape-rendering:auto;text-rendering:auto;enable-background:accumulate;stop-color:#000000"
       d="M 92.421886,0.0015153 A 1.10011,1.10011 0 0 0 91.974621,0.1167497 H 91.972667 A 1.10011,1.10011 0 0 0 91.367199,1.1733903 C 91.429723,2.1203235 91.364459,3.0702543 91.160167,3.9819841 A 1.10011,1.10011 0 0 0 91.158214,3.9897966 C 90.887727,5.2334977 90.367797,6.4423616 89.693371,7.5757346 A 1.10011,1.10011 0 0 0 89.689464,7.5835466 C 89.21598,8.3946086 88.588998,9.1384976 87.875011,9.8081556 86.980791,10.580616 86.034218,11.293227 85.04298,11.942922 84.790888,12.105007 84.511292,12.269379 84.214855,12.452688 A 1.10011,1.10011 0 0 0 84.164074,12.485891 C 83.488327,12.958345 82.819539,13.560166 82.335949,14.366751 81.975159,14.954226 81.763212,15.605965 81.679699,16.267141 81.575152,16.926102 81.561098,17.628811 81.720714,18.335501 81.887994,19.078718 82.245834,19.749146 82.720714,20.304251 A 1.10011,1.10011 0 0 0 82.738292,20.323782 C 83.027718,20.644973 83.401039,20.898711 83.767589,21.15386 A 1.10011,1.10011 0 0 0 83.671886,21.251516 C 83.289647,21.693575 82.918248,22.132903 82.546886,22.558157 A 1.10011,1.10011 0 0 0 82.814464,24.228079 C 86.732773,26.554262 90.650343,28.878116 94.564464,31.206594 L 94.439464,31.120657 C 94.849152,31.448407 95.553554,31.458707 95.976574,31.110891 L 95.837902,31.206594 C 99.755783,28.882665 103.67543,26.560927 107.58986,24.228079 A 1.10011,1.10011 0 0 0 107.85743,22.562063 C 107.48569,22.133126 107.11218,21.692946 106.73048,21.251516 A 1.10011,1.10011 0 0 0 106.65236,21.171438 C 107.46011,20.614382 108.1745,19.856716 108.52931,18.845266 108.90951,17.786161 108.83636,16.717359 108.64064,15.792532 A 1.10011,1.10011 0 0 0 108.63673,15.776907 C 108.54012,15.351019 108.3825,14.966448 108.20314,14.618704 A 1.10011,1.10011 0 0 0 108.19728,14.606985 C 107.69991,13.66895 106.9496,12.969744 106.16798,12.440969 A 1.10011,1.10011 0 0 0 106.10548,12.401906 C 104.87072,11.680222 103.70651,10.808132 102.58399,9.8608906 101.90375,9.2485466 101.30587,8.5445216 100.82423,7.7729996 A 1.10011,1.10011 0 0 0 100.82228,7.7690936 C 100.27148,6.8935436 99.824314,5.9550006 99.505871,4.980031 V 4.9780778 C 99.108219,3.7554694 98.941609,2.4560527 99.031261,1.1812028 A 1.10011,1.10011 0 0 0 96.849621,0.9155778 C 96.843342,0.951793 96.844117,0.9906484 96.837902,1.026906 H 96.835949 C 96.835811,1.0288585 96.836085,1.0308127 96.835949,1.0327653 96.577331,2.5423237 96.368029,4.0864717 96.330089,5.6655776 A 1.10011,1.10011 0 0 0 96.330089,5.6792496 C 96.314202,7.0256846 96.412848,8.4901996 96.941417,9.9155776 96.65579,9.5846026 96.369669,9.2543266 96.083995,8.9233906 A 1.10011,1.10011 0 0 0 96.04298,8.8726096 C 96.040579,8.8698286 96.037568,8.8675776 96.035167,8.8647966 A 1.10011,1.10011 0 0 0 94.369152,8.8628436 C 94.071541,9.2072596 93.774133,9.5515726 93.476574,9.8960466 93.680011,9.3359336 93.840746,8.7615016 93.925792,8.1772966 94.053027,7.3239466 94.086588,6.4721736 94.062511,5.6382346 V 5.6362806 C 94.027402,4.0608316 93.814094,2.5262958 93.562511,1.0288591 93.556329,0.9920621 93.557027,0.9523266 93.550792,0.9155778 A 1.10011,1.10011 0 0 0 92.421886,0.0015153 Z M 91.503917,8.8003436 C 91.457731,8.9539156 91.438312,9.1162976 91.380871,9.2651876 91.089435,9.9759076 90.600938,10.656577 90.019542,11.321828 89.638746,11.747203 89.243238,12.151766 88.828136,12.530813 A 1.10011,1.10011 0 0 0 88.791027,12.565969 C 88.754035,12.602961 88.657246,12.678089 88.503917,12.794485 A 1.10011,1.10011 0 0 0 88.482433,12.81011 C 87.91363,13.263942 87.282908,13.773667 86.738292,14.460501 86.392499,14.884105 86.025426,15.467941 85.972667,16.237844 85.896785,17.013969 86.190696,17.70775 86.650402,18.214407 86.896433,18.492361 87.171812,18.719401 87.455089,18.90386 A 1.10011,1.10011 0 0 0 87.498058,18.929251 C 89.880037,20.328651 92.260719,21.732845 94.644542,23.134329 A 1.10011,1.10011 0 0 0 95.76173,23.134329 C 98.14171,21.73093 100.52463,20.329666 102.90626,18.927297 A 1.10011,1.10011 0 0 0 102.97462,18.884329 C 103.39239,18.593914 103.90261,18.183383 104.2129,17.505422 104.55617,16.77218 104.49547,15.996039 104.21486,15.351125 A 1.10011,1.10011 0 0 0 104.20899,15.339407 C 103.95012,14.760995 103.58004,14.343596 103.26368,14.005422 A 1.10011,1.10011 0 0 0 103.25196,13.993704 C 102.74807,13.471068 102.20975,13.040365 101.69142,12.642141 101.30566,12.304265 100.93434,11.929005 100.56642,11.532766 99.911478,10.807382 99.353518,10.069059 99.033214,9.2925306 99.032894,9.2917546 99.031581,9.2913546 99.031261,9.2905776 98.994019,9.1979166 99.020568,9.0696556 98.988292,8.9741716 99.580172,9.9134636 100.29845,10.768094 101.11915,11.505422 A 1.10011,1.10011 0 0 0 101.14454,11.526906 C 102.33835,12.535626 103.60964,13.491943 104.99611,14.302297 L 104.93556,14.263235 C 105.50711,14.649898 105.97715,15.119209 106.25196,15.636282 106.36211,15.851455 106.44318,16.059094 106.48829,16.253469 106.63265,16.939394 106.64223,17.594945 106.45704,18.106985 A 1.10011,1.10011 0 0 0 106.45509,18.116751 C 106.26933,18.646296 105.82696,19.145366 105.27345,19.487844 105.27261,19.488365 105.27234,19.489277 105.27149,19.489797 101.91809,21.437315 98.557672,23.376384 95.19923,25.321829 91.881951,23.400542 88.563121,21.480893 85.248058,19.558157 A 1.10011,1.10011 0 0 0 85.232433,19.550344 C 84.926353,19.37911 84.639936,19.141134 84.38673,18.862844 84.131998,18.56229 83.947284,18.209589 83.867199,17.853079 A 1.10011,1.10011 0 0 0 83.867199,17.851125 C 83.780774,17.468487 83.779757,17.03734 83.851574,16.595266 A 1.10011,1.10011 0 0 0 83.857433,16.552297 C 83.903352,16.177769 84.025076,15.816894 84.210949,15.515188 A 1.10011,1.10011 0 0 0 84.218761,15.501516 C 84.482673,15.059552 84.907465,14.654364 85.414074,14.298391 85.670788,14.140536 85.948612,13.977733 86.242199,13.788625 A 1.10011,1.10011 0 0 0 86.250011,13.782766 C 87.328585,13.075828 88.362559,12.298845 89.339855,11.452688 A 1.10011,1.10011 0 0 0 89.371105,11.425344 C 90.182239,10.666139 90.910809,9.7855846 91.503917,8.8003436 Z M 95.201183,11.267141 C 96.657956,12.955169 98.115337,14.643418 99.57423,16.331594 98.116513,17.2026 96.659343,18.074077 95.201183,18.942922 93.744029,18.072971 92.285426,17.201631 90.826183,16.331594 92.284519,14.643353 93.743176,12.954988 95.201183,11.267141 Z"
       id="path904-5" />
    <path
       style="fill:url(#linearGradient1011-8);fill-opacity:1"
       fill="#444444"
       d="M 92.466265,1.1003664 C 92.722264,2.6093664 92.929264,4.1313664 92.963264,5.6633666 92.986264,6.4483666 92.954264,7.2363666 92.838264,8.0143666 92.756264,8.5803666 92.612265,9.1383666 92.405265,9.6723666 92.045265,10.555367 91.472265,11.331367 90.848265,12.045367 90.443265,12.498367 90.018265,12.933367 89.569265,13.343367 89.447265,13.465367 89.306265,13.566367 89.169265,13.670367 88.605265,14.120367 88.041265,14.583367 87.592265,15.152367 87.319265,15.486367 87.088265,15.882367 87.062265,16.322367 87.013265,16.746367 87.185265,17.172367 87.469265,17.482367 87.639265,17.675367 87.840265,17.841367 88.055265,17.981367 90.438265,19.381367 92.819264,20.785367 95.202264,22.186367 97.583264,20.782367 99.966264,19.382367 102.34726,17.980367 102.69826,17.736367 103.03726,17.441367 103.21726,17.044367 103.40326,16.651367 103.37626,16.182367 103.20526,15.789367 103.03026,15.398367 102.75026,15.066367 102.46026,14.756367 102.00326,14.282367 101.48826,13.868367 100.96726,13.469367 100.54026,13.095367 100.14026,12.691367 99.754264,12.275367 99.060264,11.507367 98.410264,10.674367 98.013264,9.7103666 97.500264,8.4393666 97.414264,7.0483666 97.430264,5.6923666 97.467264,4.1523664 97.670264,2.6213664 97.933264,1.1043664 97.833264,2.5263664 98.018264,3.9653664 98.459264,5.3203664 98.807264,6.3863666 99.293264,7.4063666 99.890264,8.3553666 100.43026,9.2203666 101.09626,10.006367 101.85426,10.687367 103.01526,11.668367 104.23726,12.584367 105.55126,13.352367 106.22826,13.810367 106.84026,14.394367 107.22626,15.122367 107.37326,15.407367 107.49326,15.707367 107.56426,16.020367 107.73526,16.828367 107.77726,17.692367 107.49226,18.480367 107.20426,19.301367 106.58126,19.973367 105.84926,20.425367 102.30226,22.485367 98.750264,24.537367 95.200264,26.594367 91.699265,24.566367 88.196265,22.540367 84.696265,20.510367 84.267265,20.270367 83.884265,19.952367 83.556265,19.588367 83.189265,19.159367 82.918265,18.645367 82.794265,18.093367 82.670265,17.544367 82.675265,16.972367 82.765265,16.418367 82.829265,15.896367 82.999265,15.385367 83.275265,14.937367 83.650265,14.309367 84.199265,13.803367 84.794265,13.387367 85.077265,13.212367 85.365265,13.044367 85.646265,12.863367 86.685265,12.182367 87.680265,11.434367 88.619265,10.621367 89.400265,9.8903666 90.099265,9.0633666 90.639265,8.1383666 91.362265,6.9233666 91.932265,5.6073666 92.233265,4.2233664 92.462265,3.2013664 92.533265,2.1463664 92.464265,1.1013664 Z M 95.202264,9.5823666 C 93.180264,11.922367 91.159265,14.264367 89.137265,16.604367 91.160265,17.808367 93.180264,19.017367 95.201264,20.223367 97.223264,19.019367 99.244264,17.811367 101.26426,16.604367 99.241264,14.265367 97.222264,11.923367 95.202264,9.5833666 Z M 83.375265,23.282367 C 87.293265,25.608367 91.212265,27.932367 95.127264,30.261367 95.172264,30.297367 95.232264,30.298367 95.277264,30.261367 99.195264,27.937367 103.11326,25.614367 107.02626,23.282367 106.64926,22.847367 106.27626,22.407367 105.89926,21.971367 102.33226,24.125367 98.772264,26.292367 95.202264,28.441367 91.633265,26.289367 88.069265,24.130367 84.504265,21.971367 84.127265,22.407367 83.754265,22.848367 83.375265,23.282367 Z"
       id="path4-7-45" />
  </g>
</svg>
