<?xml version="1.0" encoding="UTF-8" standalone="no"?>
<!-- Generated by IcoMoon.io -->

<svg
   version="1.1"
   width="62.435986"
   height="19.844986"
   viewBox="0 0 62.435986 19.844986"
   id="svg6"
   sodipodi:docname="cc2.svg"
   inkscape:version="1.1.1 (3bf5ae0d25, 2021-09-20)"
   xmlns:inkscape="http://www.inkscape.org/namespaces/inkscape"
   xmlns:sodipodi="http://sodipodi.sourceforge.net/DTD/sodipodi-0.dtd"
   xmlns:xlink="http://www.w3.org/1999/xlink"
   xmlns="http://www.w3.org/2000/svg"
   xmlns:svg="http://www.w3.org/2000/svg"
   xmlns:rdf="http://www.w3.org/1999/02/22-rdf-syntax-ns#"
   xmlns:cc="http://creativecommons.org/ns#"
   xmlns:dc="http://purl.org/dc/elements/1.1/">
  <defs
     id="defs10">
    <linearGradient
       inkscape:collect="always"
       id="linearGradient1067">
      <stop
         style="stop-color:#b73326;stop-opacity:1"
         offset="0"
         id="stop1061" />
      <stop
         id="stop1063"
         offset="0.49997669"
         style="stop-color:#f49226;stop-opacity:1" />
      <stop
         style="stop-color:#b73326;stop-opacity:1"
         offset="1"
         id="stop1065" />
    </linearGradient>
    <linearGradient
       inkscape:collect="always"
       id="linearGradient1083">
      <stop
         style="stop-color:#86713f;stop-opacity:1"
         offset="0"
         id="stop1077" />
      <stop
         id="stop1079"
         offset="0.5"
         style="stop-color:#dfc27f;stop-opacity:1" />
      <stop
         style="stop-color:#86713f;stop-opacity:1"
         offset="1"
         id="stop1081" />
    </linearGradient>
    <linearGradient
       inkscape:collect="always"
       xlink:href="#linearGradient1083"
       id="linearGradient2412"
       x1="0.98199999"
       y1="16.0075"
       x2="31"
       y2="16.0075"
       gradientUnits="userSpaceOnUse" />
    <linearGradient
       inkscape:collect="always"
       xlink:href="#linearGradient1067"
       id="linearGradient2423"
       x1="32.199993"
       y1="16.0075"
       x2="62.217991"
       y2="16.0075"
       gradientUnits="userSpaceOnUse" />
  </defs>
  <sodipodi:namedview
     id="namedview8"
     pagecolor="#ffffff"
     bordercolor="#666666"
     borderopacity="1.0"
     inkscape:pageshadow="2"
     inkscape:pageopacity="0.0"
     inkscape:pagecheckerboard="0"
     showgrid="false"
     fit-margin-top="0"
     fit-margin-left="0"
     fit-margin-right="0"
     fit-margin-bottom="0"
     inkscape:zoom="16"
     inkscape:cx="35.8125"
     inkscape:cy="12.40625"
     inkscape:window-width="1857"
     inkscape:window-height="1177"
     inkscape:window-x="55"
     inkscape:window-y="-8"
     inkscape:window-maximized="1"
     inkscape:current-layer="svg6" />
  <title
     id="title2">cc2</title>
  <g
     id="g2593"
     transform="translate(-0.38200392,-6.0850003)"
     inkscape:export-filename="C:\Users\AFeinstein\Desktop\set-syms\CC2_R.png"
     inkscape:export-xdpi="348.29956"
     inkscape:export-ydpi="348.29956">
    <path
       style="fill:#000000;stroke:none;stroke-width:1px;stroke-linecap:butt;stroke-linejoin:miter;stroke-opacity:1"
       d="m 6.4,10.179866 0.3006711,11.167785 18.7704699,0.257718 0.04295,-11.038926 z"
       id="path2115" />
    <path
       fill="#444444"
       d="m 15.817,6.6870002 v 0 c 0.263,0.006 0.527,0.005 0.79,0.019 0.53,0.028 0.718,0.057 1.176,0.113 1.224,0.183 2.365,0.721 3.367,1.436 -0.514,0.842 -1.283,1.456 -2.066,2.0269998 C 20.109,10.093 21.063,9.6500002 21.91,9.0470002 23.483,11.022 24.626,13.466 24.526,16.039 c -0.016,0.794 -0.47,1.532 -1.1,1.993 -1.014,0.562 -2.251,0.523 -3.269,1.052 -0.039,0.103 -0.121,0.308 -0.16,0.413 -0.162,1.801 0.247,3.616 0.059,5.415 -0.322,0.429 -0.938,0.306 -1.402,0.418 -0.096,-0.972 0.01,-1.495 -0.121,-2.463 -0.098,-0.723 -0.694,-1.067 -0.788,-0.059 -0.057,0.614 -0.016,0.78 -0.03,1.394 -0.441,0.174 -0.883,0.338 -1.326,0.502 0.011,-0.806 0.122,-1.524 -0.007,-2.317 -0.105,-0.649 -0.637,-0.382 -0.684,-0.035 -0.118,0.864 -0.078,1.645 -0.133,2.515 -0.399,0.087 -0.797,0.174 -1.194,0.262 -0.242,-1.018 -0.05,-3.01 -0.586,-3.009 -0.969,0.003 -0.29,2.096 -0.491,3.168 -0.504,-0.037 -1.367,0.137 -1.47,-0.562 -0.059,-1.602 0.146,-3.2 0.158,-4.801 -0.023,-0.308 -0.002,-0.721 -0.294,-0.911 -1.139,-0.502 -2.5750001,-0.399 -3.5250001,-1.283 -1.011,-0.956 -0.822,-2.459 -0.598,-3.696 0.415,-2.093 1.5,-4.029 2.9770001,-5.5579998 0.196,0.769 0.31,1.5889998 0.74,2.2739998 0.724,0.436 1.623,0.349 2.436,0.399 -0.6,-0.349 -1.292,-0.582 -1.769,-1.103 -0.253,-0.7689998 -0.269,-1.5909998 -0.315,-2.3919998 1.294,-0.668 2.729,-0.966 4.183,-0.97 v 0 z M 24.969,19.703 v 0 c 1.948,0.016 1.036,-0.017 2.427,0.013 -0.425,1.096 -0.792,2.347 -1.326,3.394 h -5.199 c -0.004,-0.275 -0.005,-0.549 -0.012,-0.824 -0.077,-2.969 -0.039,-0.666 -0.067,-2.581 2.506,0.003 1.114,0.003 4.177,-0.002 z M 4.5229999,19.744 11.062,19.755 c -10e-4,0.415 -0.002,0.83 -0.013,1.244 -0.007,0.245 -0.023,0.489 -0.032,0.734 -0.018,0.459 -0.015,0.918 -0.018,1.377 H 5.9089999 c -0.464,-1.121 -1.001,-2.213 -1.385,-3.366 v 0 z M 29.52,13.102 c 0.473,0.972 1.092,1.902 1.48,2.911 -0.372,0.97 -0.977,1.86 -1.44,2.787 -1.897,0 -3.726,-0.008 -5.623,-0.008 0.557,-0.835 1.438,-1.623 1.356,-2.714 -0.069,-0.991 -0.161,-1.982 -0.173,-2.975 h 4.399 z m -24.9190001,-0.018 2.248,0.003 c -0.204,1.099 -0.315,2.155 -0.225,3.211 0.087,1.021 0.894,1.724 1.451,2.493 -1.938,0 -3.792,0.003 -5.728,0.003 -0.431,-0.918 -1.0299997,-1.793 -1.36499975,-2.752 C 1.3660002,15.015 1.9529999,14.058 2.4539999,13.087 l 2.147,-0.004 z m 4.35,-4.1079998 v 0 C 8.2559999,10.027 7.7119998,11.147 7.1329999,12.216 h -2.576 c 0.3699999,-1.081 0.842,-2.168 1.2769999,-3.2349998 z M 26.069,8.9740002 C 26.603,10.011 27.14,11.056 27.333,12.217 h -2.52 c -0.467,-1.03 -1.093,-2.083 -1.781,-3.1479998 -0.013,-0.02 -0.021,-0.043 -0.031,-0.065 1.022,-0.036 2.045,-0.027 3.067,-0.03 z"
       id="path4-9"
       style="fill:#000000;fill-opacity:1;stroke:#000000;stroke-width:1.2;stroke-linejoin:round;stroke-miterlimit:4;stroke-dasharray:none;stroke-opacity:1"
       sodipodi:nodetypes="cscccccccccccccccccccccccccccccccsccsscccccsccccccsccccccccccccccccccccscccccccccsc" />
    <path
       fill="#444444"
       d="m 15.817,6.687 v 0 c 0.263,0.006 0.527,0.005 0.79,0.019 0.53,0.028 0.718,0.057 1.176,0.113 1.224,0.183 2.365,0.721 3.367,1.436 -0.514,0.842 -1.283,1.456 -2.066,2.027 1.025,-0.189 1.979,-0.632 2.826,-1.235 1.573,1.975 2.716,4.419 2.616,6.992 -0.016,0.794 -0.47,1.532 -1.1,1.993 -1.014,0.562 -2.251,0.523 -3.269,1.052 -0.039,0.103 -0.121,0.308 -0.16,0.413 -0.162,1.801 0.247,3.616 0.059,5.415 -0.322,0.429 -0.938,0.306 -1.402,0.418 -0.096,-0.972 0.01,-1.495 -0.121,-2.463 -0.098,-0.723 -0.694,-1.067 -0.788,-0.059 -0.057,0.614 -0.016,0.78 -0.03,1.394 -0.441,0.174 -0.883,0.338 -1.326,0.502 0.011,-0.806 0.122,-1.524 -0.007,-2.317 -0.105,-0.649 -0.637,-0.382 -0.684,-0.035 -0.118,0.864 -0.078,1.645 -0.133,2.515 -0.399,0.087 -0.797,0.174 -1.194,0.262 -0.242,-1.018 -0.05,-3.01 -0.586,-3.009 -0.969,0.003 -0.29,2.096 -0.491,3.168 -0.504,-0.037 -1.367,0.137 -1.47,-0.562 -0.059,-1.602 0.146,-3.2 0.158,-4.801 C 11.959,19.617 11.98,19.204 11.688,19.014 10.549,18.512 9.113,18.615 8.163,17.731 7.152,16.775 7.341,15.272 7.565,14.035 c 0.415,-2.093 1.5,-4.029 2.977,-5.558 0.196,0.769 0.31,1.589 0.74,2.274 0.724,0.436 1.623,0.349 2.436,0.399 -0.6,-0.349 -1.292,-0.582 -1.769,-1.103 C 11.696,9.278 11.68,8.456 11.634,7.655 12.928,6.987 14.363,6.689 15.817,6.685 v 0 z M 15.5,16.349 c -0.904,1.256 -0.995,2.872 -0.847,4.362 0.854,-0.237 1.744,-0.249 2.6,-0.016 0.162,-1.463 0.094,-3.082 -0.836,-4.301 -0.103,1.137 -0.048,2.303 -0.402,3.404 -0.632,-1.034 -0.356,-2.303 -0.516,-3.449 v 0 z m 5.086,-3.424 c -0.205,-0.009 -0.403,0.033 -0.598,0.09 -1.31,0.397 -2.312,1.68 -2.388,3.045 -0.057,0.52 0.361,1.041 0.909,0.975 1.194,0.002 2.424,0.157 3.588,-0.162 0.804,-0.235 0.968,-1.251 0.708,-1.943 -0.326,-1.053 -1.08,-1.9 -2.219,-2.005 z m -9.299,0.019 c -0.35,0.034 -0.201,0.009 -0.45,0.059 -1.075,0.363 -1.787,1.493 -1.838,2.6 -0.039,0.628 0.395,1.251 1.036,1.338 1.13,0.208 2.296,0.114 3.438,0.087 0.737,0.037 0.961,-0.849 0.776,-1.422 -0.275,-1.174 -1.163,-2.321 -2.382,-2.602 -0.258,-0.059 -0.317,-0.049 -0.58,-0.059 z m 13.682,6.759 v 0 c 1.948,0.016 1.036,-0.017 2.427,0.013 -0.425,1.096 -0.792,2.347 -1.326,3.394 h -5.199 c -0.004,-0.275 -0.005,-0.549 -0.012,-0.824 -0.077,-2.969 -0.039,-0.666 -0.067,-2.581 2.506,0.003 1.114,0.003 4.177,-0.002 z m -20.446,0.041 6.539,0.011 c -10e-4,0.415 -0.002,0.83 -0.013,1.244 -0.007,0.245 -0.023,0.489 -0.032,0.734 -0.018,0.459 -0.015,0.918 -0.018,1.377 H 5.909 C 5.445,21.989 4.908,20.897 4.524,19.744 v 0 z M 29.52,13.102 c 0.473,0.972 1.092,1.902 1.48,2.911 -0.372,0.97 -0.977,1.86 -1.44,2.787 -1.897,0 -3.726,-0.008 -5.623,-0.008 0.557,-0.835 1.438,-1.623 1.356,-2.714 -0.069,-0.991 -0.161,-1.982 -0.173,-2.975 h 4.399 z M 4.601,13.084 6.849,13.087 c -0.204,1.099 -0.315,2.155 -0.225,3.211 0.087,1.021 0.894,1.724 1.451,2.493 -1.938,0 -3.792,0.003 -5.728,0.003 -0.431,-0.918 -1.03,-1.793 -1.365,-2.752 0.384,-1.027 0.971,-1.984 1.472,-2.955 l 2.147,-0.004 z m 4.35,-4.108 v 0 c -0.695,1.051 -1.239,2.171 -1.818,3.24 H 4.557 C 4.927,11.135 5.399,10.048 5.834,8.981 Z M 26.069,8.974 c 0.534,1.037 1.071,2.082 1.264,3.243 h -2.52 C 24.346,11.187 23.72,10.134 23.032,9.069 23.019,9.049 23.011,9.026 23.001,9.004 24.023,8.968 25.046,8.977 26.068,8.974 Z"
       id="path4"
       style="fill:url(#linearGradient2412);fill-opacity:1" />
  </g>
  <g
     id="g2588"
     transform="translate(-0.38200392,-6.0850003)"
     inkscape:export-filename="C:\Users\AFeinstein\Desktop\set-syms\CC2_M.png"
     inkscape:export-xdpi="348.29956"
     inkscape:export-ydpi="348.29956">
    <path
       style="fill:#000000;stroke:none;stroke-width:1px;stroke-linecap:butt;stroke-linejoin:miter;stroke-opacity:1"
       d="m 37.617992,10.179866 0.300671,11.167785 18.77047,0.257718 0.04295,-11.038926 z"
       id="path2115-0" />
    <path
       fill="#444444"
       d="m 47.034992,6.6870002 v 0 c 0.263,0.006 0.527,0.005 0.79,0.019 0.53,0.028 0.718,0.057 1.176,0.113 1.224,0.183 2.365,0.721 3.367,1.436 -0.514,0.842 -1.283,1.456 -2.066,2.0269998 1.025,-0.189 1.979,-0.6319998 2.826,-1.2349998 1.573,1.9749998 2.716,4.4189998 2.616,6.9919998 -0.016,0.794 -0.47,1.532 -1.1,1.993 -1.014,0.562 -2.251,0.523 -3.269,1.052 -0.039,0.103 -0.121,0.308 -0.16,0.413 -0.162,1.801 0.247,3.616 0.059,5.415 -0.322,0.429 -0.938,0.306 -1.402,0.418 -0.096,-0.972 0.01,-1.495 -0.121,-2.463 -0.098,-0.723 -0.694,-1.067 -0.788,-0.059 -0.057,0.614 -0.016,0.78 -0.03,1.394 -0.441,0.174 -0.883,0.338 -1.326,0.502 0.011,-0.806 0.122,-1.524 -0.007,-2.317 -0.105,-0.649 -0.637,-0.382 -0.684,-0.035 -0.118,0.864 -0.078,1.645 -0.133,2.515 -0.399,0.087 -0.797,0.174 -1.194,0.262 -0.242,-1.018 -0.05,-3.01 -0.586,-3.009 -0.969,0.003 -0.29,2.096 -0.491,3.168 -0.504,-0.037 -1.367,0.137 -1.47,-0.562 -0.059,-1.602 0.146,-3.2 0.158,-4.801 -0.023,-0.308 -0.002,-0.721 -0.294,-0.911 -1.139,-0.502 -2.575,-0.399 -3.525,-1.283 -1.011,-0.956 -0.822,-2.459 -0.598,-3.696 0.415,-2.093 1.5,-4.029 2.977,-5.5579998 0.196,0.769 0.31,1.5889998 0.74,2.2739998 0.724,0.436 1.623,0.349 2.436,0.399 -0.6,-0.349 -1.292,-0.582 -1.769,-1.103 -0.253,-0.7689998 -0.269,-1.5909998 -0.315,-2.3919998 1.294,-0.668 2.729,-0.966 4.183,-0.97 v 0 z m 9.152,13.0159998 v 0 c 1.948,0.016 1.036,-0.017 2.427,0.013 -0.425,1.096 -0.792,2.347 -1.326,3.394 h -5.199 c -0.004,-0.275 -0.005,-0.549 -0.012,-0.824 -0.077,-2.969 -0.039,-0.666 -0.067,-2.581 2.506,0.003 1.114,0.003 4.177,-0.002 z m -20.446,0.041 6.539,0.011 c -10e-4,0.415 -0.002,0.83 -0.013,1.244 -0.007,0.245 -0.023,0.489 -0.032,0.734 -0.018,0.459 -0.015,0.918 -0.018,1.377 h -5.09 c -0.464,-1.121 -1.001,-2.213 -1.385,-3.366 v 0 z m 24.997,-6.642 c 0.473,0.972 1.092,1.902 1.48,2.911 -0.372,0.97 -0.977,1.86 -1.44,2.787 -1.897,0 -3.726,-0.008 -5.623,-0.008 0.557,-0.835 1.438,-1.623 1.356,-2.714 -0.069,-0.991 -0.161,-1.982 -0.173,-2.975 h 4.399 z m -24.919,-0.018 2.248,0.003 c -0.204,1.099 -0.315,2.155 -0.225,3.211 0.087,1.021 0.894,1.724 1.451,2.493 -1.938,0 -3.792,0.003 -5.728,0.003 -0.431,-0.918 -1.03,-1.793 -1.365,-2.752 0.384,-1.027 0.971,-1.984 1.472,-2.955 l 2.147,-0.004 z m 4.35,-4.1079998 v 0 c -0.695,1.0509998 -1.239,2.1709998 -1.818,3.2399998 h -2.576 c 0.37,-1.081 0.842,-2.168 1.277,-3.2349998 z m 17.118,-0.002 c 0.534,1.0369998 1.071,2.0819998 1.264,3.2429998 h -2.52 c -0.467,-1.03 -1.093,-2.083 -1.781,-3.1479998 -0.013,-0.02 -0.021,-0.043 -0.031,-0.065 1.022,-0.036 2.045,-0.027 3.067,-0.03 z"
       id="path4-9-4"
       style="fill:#000000;fill-opacity:1;stroke:#000000;stroke-width:1.2;stroke-linejoin:round;stroke-miterlimit:4;stroke-dasharray:none;stroke-opacity:1"
       sodipodi:nodetypes="cscccccccccccccccccccccccccccccccsccsscccccsccccccsccccccccccccccccccccscccccccccsc" />
    <path
       fill="#444444"
       d="m 47.034992,6.687 v 0 c 0.263,0.006 0.527,0.005 0.79,0.019 0.53,0.028 0.718,0.057 1.176,0.113 1.224,0.183 2.365,0.721 3.367,1.436 -0.514,0.842 -1.283,1.456 -2.066,2.027 1.025,-0.189 1.979,-0.632 2.826,-1.235 1.573,1.975 2.716,4.419 2.616,6.992 -0.016,0.794 -0.47,1.532 -1.1,1.993 -1.014,0.562 -2.251,0.523 -3.269,1.052 -0.039,0.103 -0.121,0.308 -0.16,0.413 -0.162,1.801 0.247,3.616 0.059,5.415 -0.322,0.429 -0.938,0.306 -1.402,0.418 -0.096,-0.972 0.01,-1.495 -0.121,-2.463 -0.098,-0.723 -0.694,-1.067 -0.788,-0.059 -0.057,0.614 -0.016,0.78 -0.03,1.394 -0.441,0.174 -0.883,0.338 -1.326,0.502 0.011,-0.806 0.122,-1.524 -0.007,-2.317 -0.105,-0.649 -0.637,-0.382 -0.684,-0.035 -0.118,0.864 -0.078,1.645 -0.133,2.515 -0.399,0.087 -0.797,0.174 -1.194,0.262 -0.242,-1.018 -0.05,-3.01 -0.586,-3.009 -0.969,0.003 -0.29,2.096 -0.491,3.168 -0.504,-0.037 -1.367,0.137 -1.47,-0.562 -0.059,-1.602 0.146,-3.2 0.158,-4.801 -0.023,-0.308 -0.002,-0.721 -0.294,-0.911 -1.139,-0.502 -2.575,-0.399 -3.525,-1.283 -1.011,-0.956 -0.822,-2.459 -0.598,-3.696 0.415,-2.093 1.5,-4.029 2.977,-5.558 0.196,0.769 0.31,1.589 0.74,2.274 0.724,0.436 1.623,0.349 2.436,0.399 -0.6,-0.349 -1.292,-0.582 -1.769,-1.103 -0.253,-0.769 -0.269,-1.591 -0.315,-2.392 1.294,-0.668 2.729,-0.966 4.183,-0.97 v 0 z m -0.317,9.662 c -0.904,1.256 -0.995,2.872 -0.847,4.362 0.854,-0.237 1.744,-0.249 2.6,-0.016 0.162,-1.463 0.094,-3.082 -0.836,-4.301 -0.103,1.137 -0.048,2.303 -0.402,3.404 -0.632,-1.034 -0.356,-2.303 -0.516,-3.449 v 0 z m 5.086,-3.424 c -0.205,-0.009 -0.403,0.033 -0.598,0.09 -1.31,0.397 -2.312,1.68 -2.388,3.045 -0.057,0.52 0.361,1.041 0.909,0.975 1.194,0.002 2.424,0.157 3.588,-0.162 0.804,-0.235 0.968,-1.251 0.708,-1.943 -0.326,-1.053 -1.08,-1.9 -2.219,-2.005 z m -9.299,0.019 c -0.35,0.034 -0.201,0.009 -0.45,0.059 -1.075,0.363 -1.787,1.493 -1.838,2.6 -0.039,0.628 0.395,1.251 1.036,1.338 1.13,0.208 2.296,0.114 3.438,0.087 0.737,0.037 0.961,-0.849 0.776,-1.422 -0.275,-1.174 -1.163,-2.321 -2.382,-2.602 -0.258,-0.059 -0.317,-0.049 -0.58,-0.059 z m 13.682,6.759 v 0 c 1.948,0.016 1.036,-0.017 2.427,0.013 -0.425,1.096 -0.792,2.347 -1.326,3.394 h -5.199 c -0.004,-0.275 -0.005,-0.549 -0.012,-0.824 -0.077,-2.969 -0.039,-0.666 -0.067,-2.581 2.506,0.003 1.114,0.003 4.177,-0.002 z m -20.446,0.041 6.539,0.011 c -10e-4,0.415 -0.002,0.83 -0.013,1.244 -0.007,0.245 -0.023,0.489 -0.032,0.734 -0.018,0.459 -0.015,0.918 -0.018,1.377 h -5.09 c -0.464,-1.121 -1.001,-2.213 -1.385,-3.366 v 0 z m 24.997,-6.642 c 0.473,0.972 1.092,1.902 1.48,2.911 -0.372,0.97 -0.977,1.86 -1.44,2.787 -1.897,0 -3.726,-0.008 -5.623,-0.008 0.557,-0.835 1.438,-1.623 1.356,-2.714 -0.069,-0.991 -0.161,-1.982 -0.173,-2.975 h 4.399 z m -24.919,-0.018 2.248,0.003 c -0.204,1.099 -0.315,2.155 -0.225,3.211 0.087,1.021 0.894,1.724 1.451,2.493 -1.938,0 -3.792,0.003 -5.728,0.003 -0.431,-0.918 -1.03,-1.793 -1.365,-2.752 0.384,-1.027 0.971,-1.984 1.472,-2.955 l 2.147,-0.004 z m 4.35,-4.108 v 0 c -0.695,1.051 -1.239,2.171 -1.818,3.24 h -2.576 c 0.37,-1.081 0.842,-2.168 1.277,-3.235 z m 17.118,-0.002 c 0.534,1.037 1.071,2.082 1.264,3.243 h -2.52 c -0.467,-1.03 -1.093,-2.083 -1.781,-3.148 -0.013,-0.02 -0.021,-0.043 -0.031,-0.065 1.022,-0.036 2.045,-0.027 3.067,-0.03 z"
       id="path4-98"
       style="fill:url(#linearGradient2423);fill-opacity:1" />
  </g>
  <metadata
     id="metadata827">
    <rdf:RDF>
      <cc:Work
         rdf:about="">
        <dc:title>cc2</dc:title>
      </cc:Work>
    </rdf:RDF>
  </metadata>
</svg>
