<?xml version="1.0" encoding="UTF-8" standalone="no"?>
<svg
   class="set-header-symbol"
   focusable="false"
   aria-hidden="true"
   viewBox="0 0 4188.5586 433.90094"
   version="1.1"
   id="svg4"
   sodipodi:docname="DBL.svg"
   width="4188.5586"
   height="433.90094"
   inkscape:version="1.1.1 (3bf5ae0d25, 2021-09-20)"
   xmlns:inkscape="http://www.inkscape.org/namespaces/inkscape"
   xmlns:sodipodi="http://sodipodi.sourceforge.net/DTD/sodipodi-0.dtd"
   xmlns:xlink="http://www.w3.org/1999/xlink"
   xmlns="http://www.w3.org/2000/svg"
   xmlns:svg="http://www.w3.org/2000/svg">
  <defs
     id="defs8">
    <linearGradient
       inkscape:collect="always"
       id="linearGradient1067">
      <stop
         style="stop-color:#b73326;stop-opacity:1"
         offset="0"
         id="stop1061" />
      <stop
         id="stop1063"
         offset="0.49997669"
         style="stop-color:#f49226;stop-opacity:1" />
      <stop
         style="stop-color:#b73326;stop-opacity:1"
         offset="1"
         id="stop1065" />
    </linearGradient>
    <linearGradient
       inkscape:collect="always"
       id="linearGradient1083">
      <stop
         style="stop-color:#86713f;stop-opacity:1"
         offset="0"
         id="stop1077" />
      <stop
         id="stop1079"
         offset="0.5"
         style="stop-color:#dfc27f;stop-opacity:1" />
      <stop
         style="stop-color:#86713f;stop-opacity:1"
         offset="1"
         id="stop1081" />
    </linearGradient>
    <linearGradient
       inkscape:collect="always"
       id="linearGradient1099">
      <stop
         style="stop-color:#4c6d7a;stop-opacity:1"
         offset="0"
         id="stop1093" />
      <stop
         id="stop1095"
         offset="0.5"
         style="stop-color:#bae2ef;stop-opacity:1" />
      <stop
         style="stop-color:#4c6d7a;stop-opacity:1"
         offset="1"
         id="stop1097" />
    </linearGradient>
    <linearGradient
       inkscape:collect="always"
       xlink:href="#linearGradient1067"
       id="linearGradient1322"
       x1="3153.9099"
       y1="216.95117"
       x2="4176.061"
       y2="216.95117"
       gradientUnits="userSpaceOnUse" />
    <linearGradient
       inkscape:collect="always"
       xlink:href="#linearGradient1083"
       id="linearGradient1458"
       x1="2106.7703"
       y1="216.95117"
       x2="3128.9214"
       y2="216.95117"
       gradientUnits="userSpaceOnUse" />
    <linearGradient
       inkscape:collect="always"
       xlink:href="#linearGradient1099"
       id="linearGradient1566"
       x1="1059.6307"
       y1="216.95117"
       x2="2081.7817"
       y2="216.95117"
       gradientUnits="userSpaceOnUse" />
  </defs>
  <sodipodi:namedview
     id="namedview6"
     pagecolor="#ffffff"
     bordercolor="#666666"
     borderopacity="1.0"
     inkscape:pageshadow="2"
     inkscape:pageopacity="0.0"
     inkscape:pagecheckerboard="0"
     showgrid="false"
     fit-margin-top="0"
     fit-margin-left="0"
     fit-margin-right="0"
     fit-margin-bottom="0"
     inkscape:zoom="0.090942383"
     inkscape:cx="461.83087"
     inkscape:cy="2094.7329"
     inkscape:window-width="1857"
     inkscape:window-height="1177"
     inkscape:window-x="55"
     inkscape:window-y="-8"
     inkscape:window-maximized="1"
     inkscape:current-layer="svg4" />
  <g
     id="g1932"
     inkscape:export-filename="C:\Users\AFeinstein\Desktop\set-syms\DBL_R.png"
     inkscape:export-xdpi="15.929903"
     inkscape:export-ydpi="15.929903">
    <path
       d="m 2384.9973,128.92217 c 0,0 124.892,-65.304 281.136,-65.304 210.033,0 425.863,116.408 462.788,312.323 0,0 -110.775,-283.943 -451.499,-283.943 -153.271,0 -241.3,65.304 -241.3,65.304 l 124.892,2.889 -167.472,39.67 102.229,107.885 -130.609,-73.788 31.208,147.637 -68.134,-124.892 -90.856,164.707 53.932,-184.542 -184.542,42.498 173.169,-85.139 -110.691,-96.596 133.436,56.842 -17.007,-113.601 53.932,107.947 73.767,-136.327 -28.38,116.429 z"
       id="path2-2"
       style="fill:none;fill-opacity:1;stroke:#000000;stroke-width:25;stroke-linecap:round;stroke-linejoin:round;stroke-miterlimit:4;stroke-dasharray:none;stroke-opacity:1" />
    <path
       d="m 2384.9973,128.92217 c 0,0 124.892,-65.304 281.136,-65.304 210.033,0 425.863,116.408 462.788,312.323 0,0 -110.775,-283.943 -451.499,-283.943 -153.271,0 -241.3,65.304 -241.3,65.304 l 124.892,2.889 -167.472,39.67 102.229,107.885 -130.609,-73.788 31.208,147.637 -68.134,-124.892 -90.856,164.707 53.932,-184.542 -184.542,42.498 173.169,-85.139 -110.691,-96.596 133.436,56.842 -17.007,-113.601 53.932,107.947 73.767,-136.327 -28.38,116.429 z"
       id="path2"
       style="fill-opacity:1.0;fill:url(#linearGradient1458)" />
  </g>
  <g
     id="g1928"
     inkscape:export-filename="C:\Users\AFeinstein\Desktop\set-syms\DBL_U.png"
     inkscape:export-xdpi="15.929903"
     inkscape:export-ydpi="15.929903">
    <path
       d="m 1337.8577,128.92217 c 0,0 124.892,-65.304 281.136,-65.304 210.033,0 425.863,116.408 462.788,312.323 0,0 -110.775,-283.943 -451.499,-283.943 -153.271,0 -241.3,65.304 -241.3,65.304 l 124.892,2.889 -167.472,39.67 102.229,107.885 -130.609,-73.788 31.208,147.637 -68.134,-124.892 -90.856,164.707 53.932,-184.542 -184.542,42.498 173.169,-85.139 -110.691,-96.596 133.436,56.842 -17.007,-113.601 53.932,107.947 73.767,-136.327 -28.38,116.429 z"
       id="path2-2-4"
       style="fill:none;fill-opacity:1;stroke:#000000;stroke-width:25;stroke-linecap:round;stroke-linejoin:round;stroke-miterlimit:4;stroke-dasharray:none;stroke-opacity:1" />
    <path
       d="m 1337.8577,128.92217 c 0,0 124.892,-65.304 281.136,-65.304 210.033,0 425.863,116.408 462.788,312.323 0,0 -110.775,-283.943 -451.499,-283.943 -153.271,0 -241.3,65.304 -241.3,65.304 l 124.892,2.889 -167.472,39.67 102.229,107.885 -130.609,-73.788 31.208,147.637 -68.134,-124.892 -90.856,164.707 53.932,-184.542 -184.542,42.498 173.169,-85.139 -110.691,-96.596 133.436,56.842 -17.007,-113.601 53.932,107.947 73.767,-136.327 -28.38,116.429 z"
       id="path2-0"
       style="stroke:none;fill-opacity:1.0;fill:url(#linearGradient1566)" />
  </g>
  <g
     id="g1936"
     inkscape:export-filename="C:\Users\AFeinstein\Desktop\set-syms\DBL_M.png"
     inkscape:export-xdpi="15.929903"
     inkscape:export-ydpi="15.929903">
    <path
       d="m 3432.1369,128.92217 c 0,0 124.892,-65.304 281.136,-65.304 210.033,0 425.863,116.408 462.788,312.323 0,0 -110.775,-283.943 -451.499,-283.943 -153.271,0 -241.3,65.304 -241.3,65.304 l 124.892,2.889 -167.472,39.67 102.229,107.885 -130.609,-73.788 31.208,147.637 -68.134,-124.892 -90.856,164.707 53.932,-184.542 -184.542,42.498 173.169,-85.139 -110.691,-96.596 133.436,56.842 -17.007,-113.601 53.932,107.947 73.767,-136.327 -28.38,116.429 z"
       id="path2-2-2"
       style="fill:none;fill-opacity:1;stroke:#000000;stroke-width:25;stroke-linecap:round;stroke-linejoin:round;stroke-miterlimit:4;stroke-dasharray:none;stroke-opacity:1" />
    <path
       d="m 3432.1369,128.92217 c 0,0 124.892,-65.304 281.136,-65.304 210.033,0 425.863,116.408 462.788,312.323 0,0 -110.775,-283.943 -451.499,-283.943 -153.271,0 -241.3,65.304 -241.3,65.304 l 124.892,2.889 -167.472,39.67 102.229,107.885 -130.609,-73.788 31.208,147.637 -68.134,-124.892 -90.856,164.707 53.932,-184.542 -184.542,42.498 173.169,-85.139 -110.691,-96.596 133.436,56.842 -17.007,-113.601 53.932,107.947 73.767,-136.327 -28.38,116.429 z"
       id="path2-9"
       style="fill-opacity:1.0;fill:url(#linearGradient1322)" />
  </g>
  <g
     id="g1924"
     inkscape:export-filename="C:\Users\AFeinstein\Desktop\set-syms\DBL_C.png"
     inkscape:export-xdpi="15.929903"
     inkscape:export-ydpi="15.929903">
    <path
       d="m 290.71805,128.92217 c 0,0 124.892,-65.304 281.136,-65.304 210.033,0 425.863,116.408 462.78805,312.323 0,0 -110.77505,-283.943 -451.49905,-283.943 -153.271,0 -241.3,65.304 -241.3,65.304 l 124.892,2.889 -167.472,39.67 102.229,107.885 -130.609,-73.788 31.208,147.637 -68.134,-124.892 -90.856,164.707 53.932,-184.542 -184.541999,42.498 173.168999,-85.139 -110.690999,-96.596 133.435999,56.842 -17.007,-113.601 53.932,107.947 73.767,-136.327 -28.38,116.429 z"
       id="path2-2-9"
       style="fill:none;fill-opacity:1;stroke:#ffffff;stroke-width:25;stroke-linecap:round;stroke-linejoin:round;stroke-miterlimit:4;stroke-dasharray:none;stroke-opacity:1" />
    <path
       d="m 290.71805,128.92217 c 0,0 124.892,-65.304 281.136,-65.304 210.033,0 425.863,116.408 462.78805,312.323 0,0 -110.77505,-283.943 -451.49905,-283.943 -153.271,0 -241.3,65.304 -241.3,65.304 l 124.892,2.889 -167.472,39.67 102.229,107.885 -130.609,-73.788 31.208,147.637 -68.134,-124.892 -90.856,164.707 53.932,-184.542 -184.541999,42.498 173.168999,-85.139 -110.690999,-96.596 133.435999,56.842 -17.007,-113.601 53.932,107.947 73.767,-136.327 -28.38,116.429 z"
       id="path2-3"
       style="stroke:none;stroke-opacity:1;fill:#000000;fill-opacity:1" />
  </g>
</svg>
