<?xml version="1.0" encoding="UTF-8" standalone="no"?>
<svg
   xmlns:dc="http://purl.org/dc/elements/1.1/"
   xmlns:cc="http://creativecommons.org/ns#"
   xmlns:rdf="http://www.w3.org/1999/02/22-rdf-syntax-ns#"
   xmlns:svg="http://www.w3.org/2000/svg"
   xmlns="http://www.w3.org/2000/svg"
   xmlns:xlink="http://www.w3.org/1999/xlink"
   xmlns:sodipodi="http://sodipodi.sourceforge.net/DTD/sodipodi-0.dtd"
   xmlns:inkscape="http://www.inkscape.org/namespaces/inkscape"
   inkscape:version="1.0 (4035a4fb49, 2020-05-01)"
   sodipodi:docname="ha1.svg"
   id="svg6"
   viewBox="0 0 136.556 23.572433"
   height="23.572433"
   width="136.556"
   version="1.1">
  <metadata
     id="metadata12">
    <rdf:RDF>
      <cc:Work
         rdf:about="">
        <dc:format>image/svg+xml</dc:format>
        <dc:type
           rdf:resource="http://purl.org/dc/dcmitype/StillImage" />
        <dc:title>ha1</dc:title>
      </cc:Work>
    </rdf:RDF>
  </metadata>
  <defs
     id="defs10">
    <linearGradient
       inkscape:collect="always"
       id="linearGradient1008">
      <stop
         style="stop-color:#4c6d7a;stop-opacity:1"
         offset="0"
         id="stop1002" />
      <stop
         id="stop1004"
         offset="0.5"
         style="stop-color:#bae2ef;stop-opacity:1" />
      <stop
         style="stop-color:#4c6d7a;stop-opacity:1"
         offset="1"
         id="stop1006" />
    </linearGradient>
    <linearGradient
       inkscape:collect="always"
       id="linearGradient1000">
      <stop
         style="stop-color:#86713f;stop-opacity:1"
         offset="0"
         id="stop994" />
      <stop
         id="stop996"
         offset="0.5"
         style="stop-color:#dfc27f;stop-opacity:1" />
      <stop
         style="stop-color:#86713f;stop-opacity:1"
         offset="1"
         id="stop998" />
    </linearGradient>
    <linearGradient
       id="linearGradient909"
       inkscape:collect="always">
      <stop
         id="stop905"
         offset="0"
         style="stop-color:#b73326;stop-opacity:1" />
      <stop
         style="stop-color:#f49226;stop-opacity:1"
         offset="0.5"
         id="stop913" />
      <stop
         id="stop907"
         offset="1"
         style="stop-color:#b73326;stop-opacity:1" />
    </linearGradient>
    <linearGradient
       gradientTransform="translate(1.827109,32.748255)"
       gradientUnits="userSpaceOnUse"
       y2="31.376217"
       x2="70.799911"
       y1="10.097673"
       x1="39.048042"
       id="linearGradient911"
       xlink:href="#linearGradient1008"
       inkscape:collect="always" />
    <linearGradient
       gradientTransform="translate(70.105109,32.748255)"
       y2="31.376217"
       x2="70.799911"
       y1="10.097673"
       x1="39.048042"
       gradientUnits="userSpaceOnUse"
       id="linearGradient950"
       xlink:href="#linearGradient909"
       inkscape:collect="always" />
    <linearGradient
       gradientTransform="translate(35.966109,32.748255)"
       y2="31.376217"
       x2="70.799911"
       y1="10.097673"
       x1="39.048042"
       gradientUnits="userSpaceOnUse"
       id="linearGradient967"
       xlink:href="#linearGradient1000"
       inkscape:collect="always" />
  </defs>
  <sodipodi:namedview
     fit-margin-bottom="0"
     fit-margin-right="0"
     fit-margin-left="0"
     fit-margin-top="0"
     inkscape:current-layer="svg6"
     inkscape:window-maximized="1"
     inkscape:window-y="-8"
     inkscape:window-x="55"
     inkscape:cy="-16.309321"
     inkscape:cx="61.111806"
     inkscape:zoom="5.6679028"
     showgrid="false"
     id="namedview8"
     inkscape:window-height="1177"
     inkscape:window-width="1857"
     inkscape:pageshadow="2"
     inkscape:pageopacity="0"
     guidetolerance="10"
     gridtolerance="10"
     objecttolerance="10"
     borderopacity="1"
     bordercolor="#666666"
     pagecolor="#ffffff" />
  <title
     id="title2">ha1</title>
  <g
     inkscape:export-ydpi="230.58672"
     inkscape:export-xdpi="230.58672"
     transform="translate(-5.636153,-41.609495)"
     id="g1020">
    <path
       id="path4-0"
       d="M 49.058153,42.708928 V 42.842928 L 47.135153,43.751928 V 51.650928 H 53.394153 V 46.494928 Q 53.394153,45.481928 53.267153,44.803928 53.140153,44.125928 52.850153,43.745928 52.560153,43.365928 52.261153,43.186928 51.962153,43.007928 51.471153,42.843928 V 42.709928 H 59.653153 V 42.843928 L 57.969153,43.752928 V 60.636928 C 57.963153,61.090928 58.021153,61.539928 58.090153,61.986928 Q 58.217153,62.664928 58.507153,63.052928 58.797153,63.440928 59.096153,63.618928 59.395153,63.796928 59.886153,63.961928 V 64.080928 H 51.704153 V 63.961928 L 53.388153,62.918928 V 57.494928 L 53.393153,52.143928 51.068153,53.946928 H 47.134153 V 60.295928 Q 47.134153,61.308928 47.261153,61.987928 47.388153,62.666928 47.678153,63.053928 47.968153,63.440928 48.267153,63.619928 48.566153,63.798928 49.057153,63.962928 V 64.081928 H 40.875153 V 63.962928 L 42.559153,62.919928 V 43.754928 L 40.875153,42.845928 V 42.711928 H 49.057153 Z M 64.152153,58.495928 V 64.078928 H 67.290153 V 58.495928 H 72.814153 V 55.475928 H 67.290153 V 49.892928 H 64.152153 V 55.475928 H 58.643153 V 58.495928 Z"
       fill="#444444"
       style="fill:#000000;stroke:#000000;stroke-width:2.2;stroke-linejoin:round;stroke-miterlimit:4;stroke-dasharray:none;stroke-opacity:1" />
    <path
       id="path4-7"
       d="M 49.058153,42.708928 V 42.842928 L 47.135153,43.751928 V 51.650928 H 53.394153 V 46.494928 Q 53.394153,45.481928 53.267153,44.803928 53.140153,44.125928 52.850153,43.745928 52.560153,43.365928 52.261153,43.186928 51.962153,43.007928 51.471153,42.843928 V 42.709929 H 59.653153 V 42.843928 L 57.969153,43.752928 V 60.636928 C 57.963153,61.090928 58.021153,61.539928 58.090153,61.986928 Q 58.217153,62.664928 58.507153,63.052928 58.797153,63.440928 59.096153,63.618928 59.395153,63.796928 59.886153,63.961928 V 64.080928 H 51.704153 V 63.961928 L 53.388153,62.918928 V 57.494928 L 53.393153,52.143928 51.068153,53.946928 H 47.134153 V 60.295928 Q 47.134153,61.308928 47.261153,61.987928 47.388153,62.666928 47.678153,63.053928 47.968153,63.440928 48.267153,63.619928 48.566153,63.798928 49.057153,63.962928 V 64.081928 H 40.875153 V 63.962928 L 42.559153,62.919928 V 43.754928 L 40.875153,42.845928 V 42.711928 H 49.057153 Z M 64.152153,58.495928 V 64.078928 H 67.290153 V 58.495928 H 72.814153 V 55.475928 H 67.290153 V 49.892928 H 64.152153 V 55.475928 H 58.643153 V 58.495928 Z"
       fill="#444444"
       style="fill:url(#linearGradient911);fill-opacity:1" />
  </g>
  <g
     inkscape:export-ydpi="230.58672"
     inkscape:export-xdpi="230.58672"
     transform="translate(-5.636153,-41.609495)"
     id="g1012">
    <path
       style="fill:#000000;stroke:#000000;stroke-width:2.2;stroke-linejoin:round;stroke-miterlimit:4;stroke-dasharray:none;stroke-opacity:1"
       fill="#444444"
       d="M 117.33615,42.708928 V 42.842928 L 115.41315,43.751928 V 51.650928 H 121.67215 V 46.494928 Q 121.67215,45.481928 121.54515,44.803928 121.41815,44.125928 121.12815,43.745928 120.83815,43.365928 120.53915,43.186928 120.24015,43.007928 119.74915,42.843928 V 42.709928 H 127.93115 V 42.843928 L 126.24715,43.752928 V 60.636928 C 126.24115,61.090928 126.29915,61.539928 126.36815,61.986928 Q 126.49515,62.664928 126.78515,63.052928 127.07515,63.440928 127.37415,63.618928 127.67315,63.796928 128.16415,63.961928 V 64.080928 H 119.98215 V 63.961928 L 121.66615,62.918928 V 57.494928 L 121.67115,52.143928 119.34615,53.946928 H 115.41215 V 60.295928 Q 115.41215,61.308928 115.53915,61.987928 115.66615,62.666928 115.95615,63.053928 116.24615,63.440928 116.54515,63.619928 116.84415,63.798928 117.33515,63.962928 V 64.081928 H 109.15315 V 63.962928 L 110.83715,62.919928 V 43.754928 L 109.15315,42.845928 V 42.711928 H 117.33515 Z M 132.43015,58.495928 V 64.078928 H 135.56815 V 58.495928 H 141.09215 V 55.475928 H 135.56815 V 49.892928 H 132.43015 V 55.475928 H 126.92115 V 58.495928 Z"
       id="path4-0-4" />
    <path
       style="fill:url(#linearGradient950);fill-opacity:1"
       fill="#444444"
       d="M 117.33615,42.708928 V 42.842928 L 115.41315,43.751928 V 51.650928 H 121.67215 V 46.494928 Q 121.67215,45.481928 121.54515,44.803928 121.41815,44.125928 121.12815,43.745928 120.83815,43.365928 120.53915,43.186928 120.24015,43.007928 119.74915,42.843928 V 42.709929 H 127.93115 V 42.843928 L 126.24715,43.752928 V 60.636928 C 126.24115,61.090928 126.29915,61.539928 126.36815,61.986928 Q 126.49515,62.664928 126.78515,63.052928 127.07515,63.440928 127.37415,63.618928 127.67315,63.796928 128.16415,63.961928 V 64.080928 H 119.98215 V 63.961928 L 121.66615,62.918928 V 57.494928 L 121.67115,52.143928 119.34615,53.946928 H 115.41215 V 60.295928 Q 115.41215,61.308928 115.53915,61.987928 115.66615,62.666928 115.95615,63.053928 116.24615,63.440928 116.54515,63.619928 116.84415,63.798928 117.33515,63.962928 V 64.081928 H 109.15315 V 63.962928 L 110.83715,62.919928 V 43.754928 L 109.15315,42.845928 V 42.711928 H 117.33515 Z M 132.43015,58.495928 V 64.078928 H 135.56815 V 58.495928 H 141.09215 V 55.475928 H 135.56815 V 49.892928 H 132.43015 V 55.475928 H 126.92115 V 58.495928 Z"
       id="path4-7-4" />
  </g>
  <g
     inkscape:export-ydpi="230.58672"
     inkscape:export-xdpi="230.58672"
     transform="translate(-5.636153,-41.609495)"
     id="g1016">
    <path
       style="fill:#000000;stroke:#000000;stroke-width:2.2;stroke-linejoin:round;stroke-miterlimit:4;stroke-dasharray:none;stroke-opacity:1"
       fill="#444444"
       d="M 83.197153,42.708928 V 42.842928 L 81.274153,43.751928 V 51.650928 H 87.533153 V 46.494928 Q 87.533153,45.481928 87.406153,44.803928 87.279153,44.125928 86.989153,43.745928 86.699153,43.365928 86.400153,43.186928 86.101153,43.007928 85.610153,42.843928 V 42.709928 H 93.792153 V 42.843928 L 92.108153,43.752928 V 60.636928 C 92.102153,61.090928 92.160153,61.539928 92.229153,61.986928 Q 92.356153,62.664928 92.646153,63.052928 92.936153,63.440928 93.235153,63.618928 93.534153,63.796928 94.025153,63.961928 V 64.080928 H 85.843153 V 63.961928 L 87.527153,62.918928 V 57.494928 L 87.532153,52.143928 85.207153,53.946928 H 81.273153 V 60.295928 Q 81.273153,61.308928 81.400153,61.987928 81.527153,62.666928 81.817153,63.053928 82.107153,63.440928 82.406153,63.619928 82.705153,63.798928 83.196153,63.962928 V 64.081928 H 75.014153 V 63.962928 L 76.698153,62.919928 V 43.754928 L 75.014153,42.845928 V 42.711928 H 83.196153 Z M 98.291153,58.495928 V 64.078928 H 101.42915 V 58.495928 H 106.95315 V 55.475928 H 101.42915 V 49.892928 H 98.291153 V 55.475928 H 92.782153 V 58.495928 Z"
       id="path4-0-0" />
    <path
       style="fill:url(#linearGradient967);fill-opacity:1"
       fill="#444444"
       d="M 83.197153,42.708928 V 42.842928 L 81.274153,43.751928 V 51.650928 H 87.533153 V 46.494928 Q 87.533153,45.481928 87.406153,44.803928 87.279153,44.125928 86.989153,43.745928 86.699153,43.365928 86.400153,43.186928 86.101153,43.007928 85.610153,42.843928 V 42.709929 H 93.792153 V 42.843928 L 92.108153,43.752928 V 60.636928 C 92.102153,61.090928 92.160153,61.539928 92.229153,61.986928 Q 92.356153,62.664928 92.646153,63.052928 92.936153,63.440928 93.235153,63.618928 93.534153,63.796928 94.025153,63.961928 V 64.080928 H 85.843153 V 63.961928 L 87.527153,62.918928 V 57.494928 L 87.532153,52.143928 85.207153,53.946928 H 81.273153 V 60.295928 Q 81.273153,61.308928 81.400153,61.987928 81.527153,62.666928 81.817153,63.053928 82.107153,63.440928 82.406153,63.619928 82.705153,63.798928 83.196153,63.962928 V 64.081928 H 75.014153 V 63.962928 L 76.698153,62.919928 V 43.754928 L 75.014153,42.845928 V 42.711928 H 83.196153 Z M 98.291153,58.495928 V 64.078928 H 101.42915 V 58.495928 H 106.95315 V 55.475928 H 101.42915 V 49.892928 H 98.291153 V 55.475928 H 92.782153 V 58.495928 Z"
       id="path4-7-6" />
  </g>
  <g
     inkscape:export-ydpi="230.58672"
     inkscape:export-xdpi="230.58672"
     transform="translate(-5.636153,-41.609495)"
     id="g1024">
    <path
       style="fill:#ffffff;stroke:#ffffff;stroke-width:2.2;stroke-linejoin:round;stroke-miterlimit:4;stroke-dasharray:none;stroke-opacity:1"
       fill="#444444"
       d="M 14.919153,42.708928 V 42.842928 L 12.996153,43.751928 V 51.650928 H 19.255153 V 46.494928 Q 19.255153,45.481928 19.128153,44.803928 19.001153,44.125928 18.711153,43.745928 18.421153,43.365928 18.122153,43.186928 17.823153,43.007928 17.332153,42.843928 V 42.709928 H 25.514153 V 42.843928 L 23.830153,43.752928 V 60.636928 C 23.824153,61.090928 23.882153,61.539928 23.951153,61.986928 Q 24.078153,62.664928 24.368153,63.052928 24.658153,63.440928 24.957153,63.618928 25.256153,63.796928 25.747153,63.961928 V 64.080928 H 17.565153 V 63.961928 L 19.249153,62.918928 V 57.494928 L 19.254153,52.143928 16.929153,53.946928 H 12.995153 V 60.295928 Q 12.995153,61.308928 13.122153,61.987928 13.249153,62.666928 13.539153,63.053928 13.829153,63.440928 14.128153,63.619928 14.427153,63.798928 14.918153,63.962928 V 64.081928 H 6.736153 V 63.962928 L 8.420153,62.919928 V 43.754928 L 6.736153,42.845928 V 42.711928 H 14.918153 Z M 30.013153,58.495928 V 64.078928 H 33.151153 V 58.495928 H 38.675153 V 55.475928 H 33.151153 V 49.892928 H 30.013153 V 55.475928 H 24.504153 V 58.495928 Z"
       id="path4-0-8" />
    <path
       style="fill:#000000;fill-opacity:1"
       fill="#444444"
       d="M 14.919153,42.708928 V 42.842928 L 12.996153,43.751928 V 51.650928 H 19.255153 V 46.494928 Q 19.255153,45.481928 19.128153,44.803928 19.001153,44.125928 18.711153,43.745928 18.421153,43.365928 18.122153,43.186928 17.823153,43.007928 17.332153,42.843928 V 42.709929 H 25.514153 V 42.843928 L 23.830153,43.752928 V 60.636928 C 23.824153,61.090928 23.882153,61.539928 23.951153,61.986928 Q 24.078153,62.664928 24.368153,63.052928 24.658153,63.440928 24.957153,63.618928 25.256153,63.796928 25.747153,63.961928 V 64.080928 H 17.565153 V 63.961928 L 19.249153,62.918928 V 57.494928 L 19.254153,52.143928 16.929153,53.946928 H 12.995153 V 60.295928 Q 12.995153,61.308928 13.122153,61.987928 13.249153,62.666928 13.539153,63.053928 13.829153,63.440928 14.128153,63.619928 14.427153,63.798928 14.918153,63.962928 V 64.081928 H 6.736153 V 63.962928 L 8.420153,62.919928 V 43.754928 L 6.736153,42.845928 V 42.711928 H 14.918153 Z M 30.013153,58.495928 V 64.078928 H 33.151153 V 58.495928 H 38.675153 V 55.475928 H 33.151153 V 49.892928 H 30.013153 V 55.475928 H 24.504153 V 58.495928 Z"
       id="path4-7-2" />
  </g>
</svg>
