<?xml version="1.0" encoding="UTF-8" standalone="no"?>
<svg
   class="set-header-symbol"
   focusable="false"
   aria-hidden="true"
   viewBox="0 0 706.38928 216"
   version="1.1"
   id="svg4"
   sodipodi:docname="ncc.svg"
   width="706.38928"
   height="216"
   inkscape:version="1.1 (c68e22c387, 2021-05-23)"
   xmlns:inkscape="http://www.inkscape.org/namespaces/inkscape"
   xmlns:sodipodi="http://sodipodi.sourceforge.net/DTD/sodipodi-0.dtd"
   xmlns:xlink="http://www.w3.org/1999/xlink"
   xmlns="http://www.w3.org/2000/svg"
   xmlns:svg="http://www.w3.org/2000/svg">
  <defs
     id="defs8">
    <linearGradient
       inkscape:collect="always"
       id="linearGradient1067">
      <stop
         style="stop-color:#b73326;stop-opacity:1"
         offset="0"
         id="stop1061" />
      <stop
         id="stop1063"
         offset="0.49997669"
         style="stop-color:#f49226;stop-opacity:1" />
      <stop
         style="stop-color:#b73326;stop-opacity:1"
         offset="1"
         id="stop1065" />
    </linearGradient>
    <linearGradient
       inkscape:collect="always"
       id="linearGradient1083">
      <stop
         style="stop-color:#86713f;stop-opacity:1"
         offset="0"
         id="stop1077" />
      <stop
         id="stop1079"
         offset="0.5"
         style="stop-color:#dfc27f;stop-opacity:1" />
      <stop
         style="stop-color:#86713f;stop-opacity:1"
         offset="1"
         id="stop1081" />
    </linearGradient>
    <linearGradient
       inkscape:collect="always"
       id="linearGradient1099">
      <stop
         style="stop-color:#4c6d7a;stop-opacity:1"
         offset="0"
         id="stop1093" />
      <stop
         id="stop1095"
         offset="0.5"
         style="stop-color:#bae2ef;stop-opacity:1" />
      <stop
         style="stop-color:#4c6d7a;stop-opacity:1"
         offset="1"
         id="stop1097" />
    </linearGradient>
    <linearGradient
       inkscape:collect="always"
       xlink:href="#linearGradient1067"
       id="linearGradient2114"
       x1="-285.52246"
       y1="92.115685"
       x2="-141.96448"
       y2="92.115685"
       gradientUnits="userSpaceOnUse" />
    <linearGradient
       inkscape:collect="always"
       xlink:href="#linearGradient1083"
       id="linearGradient2439"
       gradientUnits="userSpaceOnUse"
       x1="-285.52246"
       y1="92.115685"
       x2="-141.96448"
       y2="92.115685"
       gradientTransform="translate(-186.01999,-7.1546132)" />
    <linearGradient
       inkscape:collect="always"
       xlink:href="#linearGradient1099"
       id="linearGradient2476"
       gradientUnits="userSpaceOnUse"
       x1="-285.52246"
       y1="92.115685"
       x2="-141.96448"
       y2="92.115685"
       gradientTransform="translate(-355.94213,-0.89432404)" />
  </defs>
  <sodipodi:namedview
     id="namedview6"
     pagecolor="#ffffff"
     bordercolor="#666666"
     borderopacity="1.0"
     inkscape:pageshadow="2"
     inkscape:pageopacity="0.0"
     inkscape:pagecheckerboard="0"
     showgrid="false"
     fit-margin-top="0"
     fit-margin-left="0"
     fit-margin-right="0"
     fit-margin-bottom="0"
     inkscape:zoom="0.70710678"
     inkscape:cx="301.93459"
     inkscape:cy="294.86353"
     inkscape:window-width="1858"
     inkscape:window-height="1177"
     inkscape:window-x="54"
     inkscape:window-y="-8"
     inkscape:window-maximized="1"
     inkscape:current-layer="svg4" />
  <g
     id="g2389"
     transform="translate(831.83482,15.88432)"
     inkscape:export-filename="D:\git\Mtgjson2Familiar\symbols\NCC_M.png"
     inkscape:export-xdpi="32"
     inkscape:export-ydpi="32">
    <path
       d="m -226.20347,188.12368 -0.283,-0.245 v -64.572 c 0,-8.492 4.248,-13.063 12.743,-13.712 l 0.347,0.029 c 8.264,0.746 12.396,5.307 12.396,13.683 v 64.572 l -0.283,0.245 c -3.144,2.661 -7.297,3.992 -12.46,3.992 -5.163,0 -9.316,-1.33 -12.46,-3.992 z m -10.854,-66.853 c 2.097,2.226 4.194,4.74 6.29,7.543 v 53.78 c -2.3,-0.26 -4.396,-1.302 -6.29,-3.127 z m 46.626,0 v 58.196 c -1.894,1.825 -3.99,2.867 -6.29,3.127 v -53.78 c 2.096,-2.803 4.193,-5.317 6.29,-7.543 z m -58,-6.002 c 2.143,0 4.286,0.667 6.43,2.003 v 57.692 c -2.51,-0.993 -4.652,-2.617 -6.43,-4.872 z m 69.373,0 v 54.823 c -1.777,2.255 -3.92,3.879 -6.428,4.872 v -57.692 c 2.143,-1.336 4.286,-2.003 6.428,-2.003 z m -97.99,-6.146 c 1.819,2.845 3.957,4.473 6.415,4.884 2.458,0.411 8.295,0.832 17.51,1.262 v 47.744 c -15.636,-13.513 -26.137,-30.018 -31.503,-49.516 3.071,-0.136 5.598,-1.594 7.579,-4.374 z m 126.607,0 c 1.981,2.78 4.508,4.238 7.579,4.374 -5.366,19.498 -15.867,36.003 -31.504,49.516 v -47.744 c 9.216,-0.43 15.053,-0.85 17.511,-1.262 2.458,-0.41 4.596,-2.039 6.414,-4.884 z m -80.325,11.283 c -2.68,-2.968 -4.636,-4.98 -5.868,-6.033 l -0.144,-0.128 -0.293,-0.255 c -2.513,-2.157 -5.614,-4.004 -12.68,-4.004 -6.647,0 -15.289,-0.32 -18.353,-1.251 -6.371,-2.102 -9.806,-7.81 -10.306,-17.124998 6.615,3.28 13.952,5.43 22.012,6.448 2.885,0.265 2.669,-2.22 0.334,-2.797 -12.849,-3.644 -21.084,-6.873 -24.707,-9.687 -6.116,-4.55 -8.48,-12.63 -7.092,-24.24 9.317,7.32 17.115,12.293 23.393,14.916 4.7,2.224 5.395,-1.492 0,-4.293 -16,-9.073 -25.185,-16.86 -27.556,-23.36 -2.371,-6.503 -2.676,-12.998 -0.916,-19.486 16.045,12.99 31.111,23.143 45.195,30.46 2.59,1.363 4.204,2.55 4.838,3.563 0.861,1.573 0.907,3.812 0.907,5.963 0,10.108 12.896,21.138 28.258,21.138 l 0.46,-0.003 c 15.158,-0.217 27.798,-11.128 27.798,-21.135 0,-2.151 0.046,-4.39 0.907,-5.963 0.634,-1.012 2.247,-2.2 4.838,-3.563 14.085,-7.317 29.15,-17.47 45.196,-30.46 1.76,6.49 1.454,12.984 -0.917,19.485 -2.371,6.501 -11.557,14.288 -27.556,23.361 -5.395,2.801 -4.7,6.517 0,4.293 6.278,-2.623 14.076,-7.595 23.393,-14.917 1.388,11.611 -0.976,19.691 -7.092,24.241 -3.623,2.814 -11.858,6.043 -24.707,9.687 -2.335,0.577 -2.551,3.062 0.334,2.797 8.06,-1.019 15.397,-3.168 22.012,-6.448 -0.5,9.314998 -3.935,15.022998 -10.306,17.124998 -2.023,0.615 -6.474,0.963 -11.179,1.129 l -0.857,0.028 c -2.15,0.065 -4.323,0.094 -6.317,0.094 -7.482,0 -10.518,2.07 -13.117,4.387 -1.232,1.054 -3.187,3.065 -5.868,6.033 -0.95,-9.386 -6.623,-14.418 -17.022,-15.098 -10.399,0.68 -16.073,5.712 -17.022,15.098 z m 4.551,-37.881998 -0.272,-0.194 v -85.997 c 2.953,-2.716 6.898,-4.12 11.835,-4.213 l 0.452,-0.004 0.457,0.002 0.457,-0.002 0.452,0.004 c 4.937,0.093 8.882,1.497 11.834,4.213 v 85.997 l -0.272,0.194 c -2.944,2.033 -7.1,3.05 -12.471,3.05 -5.37,0 -9.527,-1.017 -12.47,-3.05 z m -4.551,-74.61 v 71.29 c -3.016,-2.193 -5.112,-6.024 -6.291,-11.491 v -49.598 c 0.93,-4.874 3.027,-8.274 6.29,-10.2 z m 34.044,0 c 3.264,1.927 5.361,5.327 6.291,10.2 v 49.599 c -1.179,5.467 -3.275,9.298 -6.29,11.492 v -71.29 z m -45.28,16.895 v 32.652 a 375.803,375.803 0 0 0 -6.428,-4.285 v -17.827 c 0,-4.968 2.142,-8.48 6.428,-10.54 z m 56.516,0 c 4.286,2.06 6.428,5.572 6.428,10.54 v 17.827 a 375.803,375.803 0 0 0 -6.428,4.285 z m -45.279,-26.221 v 4.285 c -6.605,2.95 -10.35,8.284 -11.236,16.001 -7.36,3.886 -11.032,8.946 -11.012,15.178 l 0.004,0.33 v 16.65 c -11.44,-6.328 -21.927,-13.22 -31.458,-20.677 l -1.055,-0.831 v -13.353 c 13.98,-9.288 32.232,-15.15 54.757,-17.584 z m 34.044,0 c 22.525,2.434 40.777,8.296 54.757,17.584 v 13.352 l -1.055,0.83 c -9.531,7.458 -20.018,14.35 -31.458,20.677 v -16.65 l 0.004,-0.329 c 0.02,-6.232 -3.651,-11.292 -11.012,-15.178 -0.886,-7.717 -4.631,-13.05 -11.236,-16 v -4.287 z"
       fill="#000000"
       fill-rule="nonzero"
       id="path2-0"
       style="fill:none;stroke:#000000;stroke-width:16;stroke-linecap:butt;stroke-linejoin:round;stroke-miterlimit:4;stroke-dasharray:none;stroke-opacity:1" />
    <path
       d="m -226.20347,188.12368 -0.283,-0.245 v -64.572 c 0,-8.492 4.248,-13.063 12.743,-13.712 l 0.347,0.029 c 8.264,0.746 12.396,5.307 12.396,13.683 v 64.572 l -0.283,0.245 c -3.144,2.661 -7.297,3.992 -12.46,3.992 -5.163,0 -9.316,-1.33 -12.46,-3.992 z m -10.854,-66.853 c 2.097,2.226 4.194,4.74 6.29,7.543 v 53.78 c -2.3,-0.26 -4.396,-1.302 -6.29,-3.127 z m 46.626,0 v 58.196 c -1.894,1.825 -3.99,2.867 -6.29,3.127 v -53.78 c 2.096,-2.803 4.193,-5.317 6.29,-7.543 z m -58,-6.002 c 2.143,0 4.286,0.667 6.43,2.003 v 57.692 c -2.51,-0.993 -4.652,-2.617 -6.43,-4.872 z m 69.373,0 v 54.823 c -1.777,2.255 -3.92,3.879 -6.428,4.872 v -57.692 c 2.143,-1.336 4.286,-2.003 6.428,-2.003 z m -97.99,-6.146 c 1.819,2.845 3.957,4.473 6.415,4.884 2.458,0.411 8.295,0.832 17.51,1.262 v 47.744 c -15.636,-13.513 -26.137,-30.018 -31.503,-49.516 3.071,-0.136 5.598,-1.594 7.579,-4.374 z m 126.607,0 c 1.981,2.78 4.508,4.238 7.579,4.374 -5.366,19.498 -15.867,36.003 -31.504,49.516 v -47.744 c 9.216,-0.43 15.053,-0.85 17.511,-1.262 2.458,-0.41 4.596,-2.039 6.414,-4.884 z m -75.774,-26.598996 -0.272,-0.194 v -85.997 c 2.953,-2.716 6.898,-4.12 11.835,-4.213 l 0.452,-0.004 0.457,0.002 0.457,-0.002 0.452,0.004 c 4.937,0.093 8.882,1.497 11.834,4.213 v 85.997 l -0.272,0.194 c -2.944,2.033 -7.1,3.05 -12.471,3.05 -5.37,0 -9.527,-1.017 -12.47,-3.05 z m -4.551,-74.61 v 71.29 c -3.016,-2.193 -5.112,-6.024 -6.291,-11.491 v -49.598 c 0.93,-4.874 3.027,-8.274 6.29,-10.2 z m 34.044,0 c 3.264,1.927 5.361,5.327 6.291,10.2 v 49.599 c -1.179,5.467 -3.275,9.298 -6.29,11.492 v -71.29 z m -45.28,16.895 v 32.652 c -2.12793,-1.450319 -4.27071,-2.878728 -6.428,-4.285 v -17.827 c 0,-4.968 2.142,-8.48 6.428,-10.54 z m 56.516,0 c 4.286,2.06 6.428,5.572 6.428,10.54 v 17.827 c -2.15729,1.406272 -4.30007,2.834681 -6.428,4.285 z m -45.279,-26.221 v 4.285 c -6.605,2.95 -10.35,8.284 -11.236,16.001 -7.36,3.886 -11.032,8.946 -11.012,15.178 l 0.004,0.33 v 16.65 c -11.44,-6.328 -21.927,-13.22 -31.458,-20.677 l -1.055,-0.831 v -13.353 c 13.98,-9.288 32.232,-15.15 54.757,-17.584 z m 34.044,0 c 22.525,2.434 40.777,8.296 54.757,17.584 v 13.352 l -1.055,0.83 c -9.531,7.458 -20.018,14.35 -31.458,20.677 v -16.65 l 0.004,-0.329 c 0.02,-6.232 -3.651,-11.292 -11.012,-15.178 -0.886,-7.717 -4.631,-13.05 -11.236,-16 v -4.287 z"
       fill="#000000"
       fill-rule="nonzero"
       id="path2-2"
       sodipodi:nodetypes="ccsccsccsccccccccccccccccccccccsccccccccccccccccccccccscccccccccccccccccsccsccccccccccccccccccccccccc"
       style="fill:url(#linearGradient2114);fill-opacity:1" />
    <path
       style="fill:#fffffd;fill-opacity:1"
       d="m -230.76647,120.40568 c -2.68,-2.968 -4.636,-4.98 -5.868,-6.033 l -0.144,-0.128 -0.293,-0.255 c -2.513,-2.157 -5.614,-4.004 -12.68,-4.004 -6.647,0 -15.289,-0.32 -18.353,-1.251 -6.371,-2.102 -9.806,-7.81 -10.306,-17.124996 6.615,3.28 13.952,5.429996 22.012,6.447996 2.885,0.265 2.669,-2.219996 0.334,-2.796996 -12.849,-3.644 -21.084,-6.873 -24.707,-9.687 -6.116,-4.55 -8.48,-12.63 -7.092,-24.24 9.317,7.32 17.115,12.293 23.393,14.916 4.7,2.224 5.395,-1.492 0,-4.293 -16,-9.073 -25.185,-16.86 -27.556,-23.36 -2.371,-6.503 -2.676,-12.998 -0.916,-19.486 16.045,12.99 31.111,23.143 45.195,30.46 2.59,1.363 4.204,2.55 4.838,3.563 0.861,1.573 0.907,3.812 0.907,5.963 0,10.108 12.896,21.138 28.258,21.138 l 0.46,-0.003 c 15.158,-0.217 27.798,-11.128 27.798,-21.135 0,-2.151 0.046,-4.39 0.907,-5.963 0.634,-1.012 2.247,-2.2 4.838,-3.563 14.085,-7.317 29.15,-17.47 45.196,-30.46 1.76,6.49 1.454,12.984 -0.917,19.485 -2.371,6.501 -11.557,14.288 -27.556,23.361 -5.395,2.801 -4.7,6.517 0,4.293 6.278,-2.623 14.076,-7.595 23.393,-14.917 1.388,11.611 -0.976,19.691 -7.092,24.241 -3.623,2.814 -11.858,6.043 -24.707,9.687 -2.335,0.577 -2.551,3.061996 0.334,2.796996 8.06,-1.019 15.397,-3.167996 22.012,-6.447996 -0.5,9.314996 -3.935,15.022996 -10.306,17.124996 -2.023,0.615 -6.474,0.963 -11.179,1.129 l -0.857,0.028 c -2.15,0.065 -4.323,0.094 -6.317,0.094 -7.482,0 -10.518,2.07 -13.117,4.387 -1.232,1.054 -3.187,3.065 -5.868,6.033 -0.95,-9.386 -6.623,-14.418 -17.022,-15.098 -10.399,0.68 -16.073,5.712 -17.022,15.098 z"
       id="path1447" />
  </g>
  <g
     id="g2528"
     transform="translate(841.25749,23.038931)"
     inkscape:export-filename="D:\git\Mtgjson2Familiar\symbols\NCC_R.png"
     inkscape:export-xdpi="32"
     inkscape:export-ydpi="32">
    <path
       d="m -412.22346,180.96907 -0.283,-0.245 v -64.572 c 0,-8.492 4.248,-13.063 12.743,-13.712 l 0.347,0.029 c 8.264,0.746 12.396,5.307 12.396,13.683 v 64.572 l -0.283,0.245 c -3.144,2.661 -7.297,3.992 -12.46,3.992 -5.163,0 -9.316,-1.33 -12.46,-3.992 z m -10.854,-66.853 c 2.097,2.226 4.194,4.74 6.29,7.543 v 53.78 c -2.3,-0.26 -4.396,-1.302 -6.29,-3.127 z m 46.626,0 v 58.196 c -1.894,1.825 -3.99,2.867 -6.29,3.127 v -53.78 c 2.096,-2.803 4.193,-5.317 6.29,-7.543 z m -58,-6.002 c 2.143,0 4.286,0.667 6.43,2.003 v 57.692 c -2.51,-0.993 -4.652,-2.617 -6.43,-4.872 z m 69.373,0 v 54.823 c -1.777,2.255 -3.92,3.879 -6.428,4.872 v -57.692 c 2.143,-1.336 4.286,-2.003 6.428,-2.003 z m -97.99,-6.146 c 1.819,2.845 3.957,4.473 6.415,4.884 2.458,0.411 8.295,0.832 17.51,1.262 v 47.744 c -15.636,-13.513 -26.137,-30.018 -31.503,-49.516 3.071,-0.136 5.598,-1.594 7.579,-4.374 z m 126.607,0 c 1.981,2.78 4.508,4.238 7.579,4.374 -5.366,19.498 -15.867,36.003 -31.504,49.516 v -47.744 c 9.216,-0.43 15.053,-0.85 17.511,-1.262 2.458,-0.41 4.596,-2.039 6.414,-4.884 z m -80.325,11.283 c -2.68,-2.968 -4.636,-4.98 -5.868,-6.033 l -0.144,-0.128 -0.293,-0.255 c -2.513,-2.157 -5.614,-4.004 -12.68,-4.004 -6.647,0 -15.289,-0.32 -18.353,-1.251 -6.371,-2.102003 -9.806,-7.810003 -10.306,-17.125001 6.615,3.28 13.952,5.43 22.012,6.448 2.885,0.265 2.669,-2.22 0.334,-2.797 -12.849,-3.644 -21.084,-6.873 -24.707,-9.687 -6.116,-4.55 -8.48,-12.63 -7.092,-24.24 9.317,7.32 17.115,12.293 23.393,14.916 4.7,2.224 5.395,-1.492 0,-4.293 -16,-9.073 -25.185,-16.86 -27.556,-23.36 -2.371,-6.503 -2.676,-12.998 -0.916,-19.486 16.045,12.99 31.111,23.143 45.195,30.46 2.59,1.363 4.204,2.55 4.838,3.563 0.861,1.573 0.907,3.812 0.907,5.963 0,10.108 12.896,21.138 28.258,21.138 l 0.46,-0.003 c 15.158,-0.217 27.798,-11.128 27.798,-21.135 0,-2.151 0.046,-4.39 0.907,-5.963 0.634,-1.012 2.247,-2.2 4.838,-3.563 14.085,-7.317 29.15,-17.47 45.196,-30.46 1.76,6.49 1.454,12.984 -0.917,19.485 -2.371,6.501 -11.557,14.288 -27.556,23.361 -5.395,2.801 -4.7,6.517 0,4.293 6.278,-2.623 14.076,-7.595 23.393,-14.917 1.388,11.611 -0.976,19.691 -7.092,24.241 -3.623,2.814 -11.858,6.043 -24.707,9.687 -2.335,0.577 -2.551,3.062 0.334,2.797 8.06,-1.019 15.397,-3.168 22.012,-6.448 -0.5,9.314998 -3.935,15.022998 -10.306,17.125001 -2.023,0.615 -6.474,0.963 -11.179,1.129 l -0.857,0.028 c -2.15,0.065 -4.323,0.094 -6.317,0.094 -7.482,0 -10.518,2.07 -13.117,4.387 -1.232,1.054 -3.187,3.065 -5.868,6.033 -0.95,-9.386 -6.623,-14.418003 -17.022,-15.098003 -10.399,0.68 -16.073,5.712003 -17.022,15.098003 z m 4.551,-37.882001 -0.272,-0.194 v -85.997 c 2.953,-2.716 6.898,-4.12 11.835,-4.213 l 0.452,-0.004 0.457,0.002 0.457,-0.002 0.452,0.004 c 4.937,0.093 8.882,1.497 11.834,4.213 v 85.997 l -0.272,0.194 c -2.944,2.033 -7.1,3.05 -12.471,3.05 -5.37,0 -9.527,-1.017 -12.47,-3.05 z m -4.551,-74.6100002 V 72.049069 c -3.016,-2.193 -5.112,-6.024 -6.291,-11.491 v -49.598 c 0.93,-4.8740002 3.027,-8.2740002 6.29,-10.2000002 z m 34.044,0 c 3.264,1.927 5.361,5.327 6.291,10.2000002 v 49.599 c -1.179,5.467 -3.275,9.298 -6.29,11.492 V 0.7600688 Z m -45.28,16.8950002 v 32.652 a 375.803,375.803 0 0 0 -6.428,-4.285 v -17.827 c 0,-4.968 2.142,-8.48 6.428,-10.54 z m 56.516,0 c 4.286,2.06 6.428,5.572 6.428,10.54 v 17.827 a 375.803,375.803 0 0 0 -6.428,4.285 z m -45.279,-26.2210002 v 4.285 c -6.605,2.95 -10.35,8.284 -11.236,16.0010002 -7.36,3.886 -11.032,8.946 -11.012,15.178 l 0.004,0.33 v 16.65 c -11.44,-6.328 -21.927,-13.22 -31.458,-20.677 l -1.055,-0.831 V 9.0160688 c 13.98,-9.288 32.232,-15.15 54.757,-17.584 z m 34.044,0 c 22.525,2.434 40.777,8.296 54.757,17.584 V 22.369069 l -1.055,0.83 c -9.531,7.458 -20.018,14.35 -31.458,20.677 v -16.65 l 0.004,-0.329 c 0.02,-6.232 -3.651,-11.292 -11.012,-15.178 -0.886,-7.7170002 -4.631,-13.0500002 -11.236,-16.0000002 v -4.287 z"
       fill="#000000"
       fill-rule="nonzero"
       id="path2-0-5"
       style="fill:none;stroke:#000000;stroke-width:16;stroke-linecap:butt;stroke-linejoin:round;stroke-miterlimit:4;stroke-dasharray:none;stroke-opacity:1" />
    <path
       d="m -412.22346,180.96907 -0.283,-0.245 v -64.572 c 0,-8.492 4.248,-13.063 12.743,-13.712 l 0.347,0.029 c 8.264,0.746 12.396,5.307 12.396,13.683 v 64.572 l -0.283,0.245 c -3.144,2.661 -7.297,3.992 -12.46,3.992 -5.163,0 -9.316,-1.33 -12.46,-3.992 z m -10.854,-66.853 c 2.097,2.226 4.194,4.74 6.29,7.543 v 53.78 c -2.3,-0.26 -4.396,-1.302 -6.29,-3.127 z m 46.626,0 v 58.196 c -1.894,1.825 -3.99,2.867 -6.29,3.127 v -53.78 c 2.096,-2.803 4.193,-5.317 6.29,-7.543 z m -58,-6.002 c 2.143,0 4.286,0.667 6.43,2.003 v 57.692 c -2.51,-0.993 -4.652,-2.617 -6.43,-4.872 z m 69.373,0 v 54.823 c -1.777,2.255 -3.92,3.879 -6.428,4.872 v -57.692 c 2.143,-1.336 4.286,-2.003 6.428,-2.003 z m -97.99,-6.146 c 1.819,2.845 3.957,4.473 6.415,4.884 2.458,0.411 8.295,0.832 17.51,1.262 v 47.744 c -15.636,-13.513 -26.137,-30.018 -31.503,-49.516 3.071,-0.136 5.598,-1.594 7.579,-4.374 z m 126.607,0 c 1.981,2.78 4.508,4.238 7.579,4.374 -5.366,19.498 -15.867,36.003 -31.504,49.516 v -47.744 c 9.216,-0.43 15.053,-0.85 17.511,-1.262 2.458,-0.41 4.596,-2.039 6.414,-4.884 z m -75.774,-26.598999 -0.272,-0.194 v -85.997 c 2.953,-2.716 6.898,-4.12 11.835,-4.213 l 0.452,-0.004 0.457,0.002 0.457,-0.002 0.452,0.004 c 4.937,0.093 8.882,1.497 11.834,4.213 v 85.997 l -0.272,0.194 c -2.944,2.033 -7.1,3.05 -12.471,3.05 -5.37,0 -9.527,-1.017 -12.47,-3.05 z m -4.551,-74.6100002 V 72.049071 c -3.016,-2.193 -5.112,-6.024 -6.291,-11.491 v -49.598 c 0.93,-4.8740002 3.027,-8.2740002 6.29,-10.2000002 z m 34.044,0 c 3.264,1.927 5.361,5.327 6.291,10.2000002 v 49.599 c -1.179,5.467 -3.275,9.298 -6.29,11.492 V 0.7600708 Z m -45.28,16.8950002 v 32.652 c -2.12793,-1.450319 -4.27071,-2.878728 -6.428,-4.285 v -17.827 c 0,-4.968 2.142,-8.48 6.428,-10.54 z m 56.516,0 c 4.286,2.06 6.428,5.572 6.428,10.54 v 17.827 c -2.15729,1.406272 -4.30007,2.834681 -6.428,4.285 z m -45.279,-26.2210002 v 4.285 c -6.605,2.95 -10.35,8.284 -11.236,16.0010002 -7.36,3.886 -11.032,8.946 -11.012,15.178 l 0.004,0.33 v 16.65 c -11.44,-6.328 -21.927,-13.22 -31.458,-20.677 l -1.055,-0.831 V 9.0160708 c 13.98,-9.288 32.232,-15.15 54.757,-17.584 z m 34.044,0 c 22.525,2.434 40.777,8.296 54.757,17.584 V 22.369071 l -1.055,0.83 c -9.531,7.458 -20.018,14.35 -31.458,20.677 v -16.65 l 0.004,-0.329 c 0.02,-6.232 -3.651,-11.292 -11.012,-15.178 -0.886,-7.7170002 -4.631,-13.0500002 -11.236,-16.0000002 v -4.287 z"
       fill="#000000"
       fill-rule="nonzero"
       id="path2-2-9"
       sodipodi:nodetypes="ccsccsccsccccccccccccccccccccccsccccccccccccccccccccccscccccccccccccccccsccsccccccccccccccccccccccccc"
       style="fill:url(#linearGradient2439);fill-opacity:1" />
    <path
       style="fill:#fffffd;fill-opacity:1"
       d="m -416.78646,113.25107 c -2.68,-2.968 -4.636,-4.98 -5.868,-6.033 l -0.144,-0.128 -0.293,-0.255 c -2.513,-2.157 -5.614,-4.004 -12.68,-4.004 -6.647,0 -15.289,-0.32 -18.353,-1.251 -6.371,-2.102003 -9.806,-7.810003 -10.306,-17.124999 6.615,3.28 13.952,5.429996 22.012,6.447996 2.885,0.265 2.669,-2.219996 0.334,-2.796996 -12.849,-3.644 -21.084,-6.873 -24.707,-9.687 -6.116,-4.55 -8.48,-12.63 -7.092,-24.24 9.317,7.32 17.115,12.293 23.393,14.916 4.7,2.224 5.395,-1.492 0,-4.293 -16,-9.073 -25.185,-16.86 -27.556,-23.36 -2.371,-6.503 -2.676,-12.998 -0.916,-19.486 16.045,12.99 31.111,23.143 45.195,30.46 2.59,1.363 4.204,2.55 4.838,3.563 0.861,1.573 0.907,3.812 0.907,5.963 0,10.108 12.896,21.138 28.258,21.138 l 0.46,-0.003 c 15.158,-0.217 27.798,-11.128 27.798,-21.135 0,-2.151 0.046,-4.39 0.907,-5.963 0.634,-1.012 2.247,-2.2 4.838,-3.563 14.085,-7.317 29.15,-17.47 45.196,-30.46 1.76,6.49 1.454,12.984 -0.917,19.485 -2.371,6.501 -11.557,14.288 -27.556,23.361 -5.395,2.801 -4.7,6.517 0,4.293 6.278,-2.623 14.076,-7.595 23.393,-14.917 1.388,11.611 -0.976,19.691 -7.092,24.241 -3.623,2.814 -11.858,6.043 -24.707,9.687 -2.335,0.577 -2.551,3.061996 0.334,2.796996 8.06,-1.019 15.397,-3.167996 22.012,-6.447996 -0.5,9.314996 -3.935,15.022996 -10.306,17.124999 -2.023,0.615 -6.474,0.963 -11.179,1.129 l -0.857,0.028 c -2.15,0.065 -4.323,0.094 -6.317,0.094 -7.482,0 -10.518,2.07 -13.117,4.387 -1.232,1.054 -3.187,3.065 -5.868,6.033 -0.95,-9.386 -6.623,-14.418003 -17.022,-15.098003 -10.399,0.68 -16.073,5.712003 -17.022,15.098003 z"
       id="path1447-7" />
  </g>
  <g
     id="g2533"
     transform="translate(834.5823,16.778642)"
     inkscape:export-filename="D:\git\Mtgjson2Familiar\symbols\NCC_U.png"
     inkscape:export-xdpi="32"
     inkscape:export-ydpi="32">
    <path
       d="m -582.1456,187.22936 -0.283,-0.245 v -64.572 c 0,-8.492 4.248,-13.063 12.743,-13.712 l 0.347,0.029 c 8.264,0.746 12.396,5.307 12.396,13.683 v 64.572 l -0.283,0.245 c -3.144,2.661 -7.297,3.992 -12.46,3.992 -5.163,0 -9.316,-1.33 -12.46,-3.992 z m -10.854,-66.853 c 2.097,2.226 4.194,4.74 6.29,7.543 v 53.78 c -2.3,-0.26 -4.396,-1.302 -6.29,-3.127 z m 46.626,0 v 58.196 c -1.894,1.825 -3.99,2.867 -6.29,3.127 v -53.78 c 2.096,-2.803 4.193,-5.317 6.29,-7.543 z m -58,-6.002 c 2.143,0 4.286,0.667 6.43,2.003 v 57.692 c -2.51,-0.993 -4.652,-2.617 -6.43,-4.872 z m 69.373,0 v 54.823 c -1.777,2.255 -3.92,3.879 -6.428,4.872 v -57.692 c 2.143,-1.336 4.286,-2.003 6.428,-2.003 z m -97.99,-6.146 c 1.819,2.845 3.957,4.473 6.415,4.884 2.458,0.411 8.295,0.832 17.51,1.262 v 47.744 c -15.636,-13.513 -26.137,-30.018 -31.503,-49.516 3.071,-0.136 5.598,-1.594 7.579,-4.374 z m 126.607,0 c 1.981,2.78 4.508,4.238 7.579,4.374 -5.366,19.498 -15.867,36.003 -31.504,49.516 v -47.744 c 9.216,-0.43 15.053,-0.85 17.511,-1.262 2.458,-0.41 4.596,-2.039 6.414,-4.884 z m -80.325,11.283 c -2.68,-2.968 -4.636,-4.98 -5.868,-6.033 l -0.144,-0.128 -0.293,-0.255 c -2.513,-2.157 -5.614,-4.004 -12.68,-4.004 -6.647,0 -15.289,-0.32 -18.353,-1.251 -6.371,-2.102 -9.806,-7.81 -10.306,-17.125002 6.615,3.28 13.952,5.43 22.012,6.448 2.885,0.265 2.669,-2.22 0.334,-2.797 -12.849,-3.644 -21.084,-6.873 -24.707,-9.687 -6.116,-4.55 -8.48,-12.63 -7.092,-24.24 9.317,7.32 17.115,12.293 23.393,14.916 4.7,2.224 5.395,-1.492 0,-4.293 -16,-9.073 -25.185,-16.86 -27.556,-23.36 -2.371,-6.503 -2.676,-12.998 -0.916,-19.486 16.045,12.99 31.111,23.143 45.195,30.46 2.59,1.363 4.204,2.55 4.838,3.563 0.861,1.573 0.907,3.812 0.907,5.963 0,10.108 12.896,21.138 28.258,21.138 l 0.46,-0.003 c 15.158,-0.217 27.798,-11.128 27.798,-21.135 0,-2.151 0.046,-4.39 0.907,-5.963 0.634,-1.012 2.247,-2.2 4.838,-3.563 14.085,-7.317 29.15,-17.47 45.196,-30.46 1.76,6.49 1.454,12.984 -0.917,19.485 -2.371,6.501 -11.557,14.288 -27.556,23.361 -5.395,2.801 -4.7,6.517 0,4.293 6.278,-2.623 14.076,-7.595 23.393,-14.917 1.388,11.611 -0.976,19.691 -7.092,24.241 -3.623,2.814 -11.858,6.043 -24.707,9.687 -2.335,0.577 -2.551,3.062 0.334,2.797 8.06,-1.019 15.397,-3.168 22.012,-6.448 -0.5,9.315002 -3.935,15.023002 -10.306,17.125002 -2.023,0.615 -6.474,0.963 -11.179,1.129 l -0.857,0.028 c -2.15,0.065 -4.323,0.094 -6.317,0.094 -7.482,0 -10.518,2.07 -13.117,4.387 -1.232,1.054 -3.187,3.065 -5.868,6.033 -0.95,-9.386 -6.623,-14.418 -17.022,-15.098 -10.399,0.68 -16.073,5.712 -17.022,15.098 z m 4.551,-37.882002 -0.272,-0.194 v -85.997 c 2.953,-2.716 6.898,-4.12 11.835,-4.213 l 0.452,-0.004 0.457,0.002 0.457,-0.002 0.452,0.004 c 4.937,0.093 8.882,1.497 11.834,4.213 v 85.997 l -0.272,0.194 c -2.944,2.033 -7.1,3.05 -12.471,3.05 -5.37,0 -9.527,-1.017 -12.47,-3.05 z m -4.551,-74.61 v 71.29 c -3.016,-2.193 -5.112,-6.024 -6.291,-11.491 v -49.598 c 0.93,-4.874 3.027,-8.274 6.29,-10.2 z m 34.044,0 c 3.264,1.927 5.361,5.327 6.291,10.2 v 49.599 c -1.179,5.467 -3.275,9.298 -6.29,11.492 v -71.29 z m -45.28,16.895 v 32.652 a 375.803,375.803 0 0 0 -6.428,-4.285 v -17.827 c 0,-4.968 2.142,-8.48 6.428,-10.54 z m 56.516,0 c 4.286,2.06 6.428,5.572 6.428,10.54 v 17.827 a 375.803,375.803 0 0 0 -6.428,4.285 z m -45.279,-26.221 v 4.285 c -6.605,2.95 -10.35,8.284 -11.236,16.001 -7.36,3.886 -11.032,8.946 -11.012,15.178 l 0.004,0.33 v 16.65 c -11.44,-6.328 -21.927,-13.22 -31.458,-20.677 l -1.055,-0.831 v -13.353 c 13.98,-9.288 32.232,-15.15000004 54.757,-17.584 z m 34.044,0 c 22.525,2.43399996 40.777,8.296 54.757,17.584 v 13.352 l -1.055,0.83 c -9.531,7.458 -20.018,14.35 -31.458,20.677 v -16.65 l 0.004,-0.329 c 0.02,-6.232 -3.651,-11.292 -11.012,-15.178 -0.886,-7.717 -4.631,-13.05 -11.236,-16 v -4.287 z"
       fill="#000000"
       fill-rule="nonzero"
       id="path2-0-2"
       style="fill:none;stroke:#000000;stroke-width:16;stroke-linecap:butt;stroke-linejoin:round;stroke-miterlimit:4;stroke-dasharray:none;stroke-opacity:1" />
    <path
       d="m -582.1456,187.22936 -0.283,-0.245 v -64.572 c 0,-8.492 4.248,-13.063 12.743,-13.712 l 0.347,0.029 c 8.264,0.746 12.396,5.307 12.396,13.683 v 64.572 l -0.283,0.245 c -3.144,2.661 -7.297,3.992 -12.46,3.992 -5.163,0 -9.316,-1.33 -12.46,-3.992 z m -10.854,-66.853 c 2.097,2.226 4.194,4.74 6.29,7.543 v 53.78 c -2.3,-0.26 -4.396,-1.302 -6.29,-3.127 z m 46.626,0 v 58.196 c -1.894,1.825 -3.99,2.867 -6.29,3.127 v -53.78 c 2.096,-2.803 4.193,-5.317 6.29,-7.543 z m -58,-6.002 c 2.143,0 4.286,0.667 6.43,2.003 v 57.692 c -2.51,-0.993 -4.652,-2.617 -6.43,-4.872 z m 69.373,0 v 54.823 c -1.777,2.255 -3.92,3.879 -6.428,4.872 v -57.692 c 2.143,-1.336 4.286,-2.003 6.428,-2.003 z m -97.99,-6.146 c 1.819,2.845 3.957,4.473 6.415,4.884 2.458,0.411 8.295,0.832 17.51,1.262 v 47.744 c -15.636,-13.513 -26.137,-30.018 -31.503,-49.516 3.071,-0.136 5.598,-1.594 7.579,-4.374 z m 126.607,0 c 1.981,2.78 4.508,4.238 7.579,4.374 -5.366,19.498 -15.867,36.003 -31.504,49.516 v -47.744 c 9.216,-0.43 15.053,-0.85 17.511,-1.262 2.458,-0.41 4.596,-2.039 6.414,-4.884 z m -75.774,-26.599 -0.272,-0.194 v -85.997 c 2.953,-2.716 6.898,-4.12 11.835,-4.213 l 0.452,-0.004 0.457,0.002 0.457,-0.002 0.452,0.004 c 4.937,0.093 8.882,1.497 11.834,4.213 v 85.997 l -0.272,0.194 c -2.944,2.033 -7.1,3.05 -12.471,3.05 -5.37,0 -9.527,-1.017 -12.47,-3.05 z m -4.551,-74.61 v 71.29 c -3.016,-2.193 -5.112,-6.024 -6.291,-11.491 v -49.598 c 0.93,-4.874 3.027,-8.274 6.29,-10.2 z m 34.044,0 c 3.264,1.927 5.361,5.327 6.291,10.2 v 49.599 c -1.179,5.467 -3.275,9.298 -6.29,11.492 v -71.29 z m -45.28,16.895 v 32.652 c -2.12793,-1.450319 -4.27071,-2.878728 -6.428,-4.285 v -17.827 c 0,-4.968 2.142,-8.48 6.428,-10.54 z m 56.516,0 c 4.286,2.06 6.428,5.572 6.428,10.54 v 17.827 c -2.15729,1.406272 -4.30007,2.834681 -6.428,4.285 z m -45.279,-26.221 v 4.285 c -6.605,2.95 -10.35,8.284 -11.236,16.001 -7.36,3.886 -11.032,8.946 -11.012,15.178 l 0.004,0.33 v 16.65 c -11.44,-6.328 -21.927,-13.22 -31.458,-20.677 l -1.055,-0.831 v -13.353 c 13.98,-9.288 32.232,-15.15000004 54.757,-17.584 z m 34.044,0 c 22.525,2.43399996 40.777,8.296 54.757,17.584 v 13.352 l -1.055,0.83 c -9.531,7.458 -20.018,14.35 -31.458,20.677 v -16.65 l 0.004,-0.329 c 0.02,-6.232 -3.651,-11.292 -11.012,-15.178 -0.886,-7.717 -4.631,-13.05 -11.236,-16 v -4.287 z"
       fill="#000000"
       fill-rule="nonzero"
       id="path2-2-8"
       sodipodi:nodetypes="ccsccsccsccccccccccccccccccccccsccccccccccccccccccccccscccccccccccccccccsccsccccccccccccccccccccccccc"
       style="fill:url(#linearGradient2476);fill-opacity:1" />
    <path
       style="fill:#fffffd;fill-opacity:1"
       d="m -586.7086,119.51136 c -2.68,-2.968 -4.636,-4.98 -5.868,-6.033 l -0.144,-0.128 -0.293,-0.255 c -2.513,-2.157 -5.614,-4.004 -12.68,-4.004 -6.647,0 -15.289,-0.32 -18.353,-1.251 -6.371,-2.102 -9.806,-7.81 -10.306,-17.125 6.615,3.28 13.952,5.429996 22.012,6.447996 2.885,0.265 2.669,-2.219996 0.334,-2.796996 -12.849,-3.644 -21.084,-6.873 -24.707,-9.687 -6.116,-4.55 -8.48,-12.63 -7.092,-24.24 9.317,7.32 17.115,12.293 23.393,14.916 4.7,2.224 5.395,-1.492 0,-4.293 -16,-9.073 -25.185,-16.86 -27.556,-23.36 -2.371,-6.503 -2.676,-12.998 -0.916,-19.486 16.045,12.99 31.111,23.143 45.195,30.46 2.59,1.363 4.204,2.55 4.838,3.563 0.861,1.573 0.907,3.812 0.907,5.963 0,10.108 12.896,21.138 28.258,21.138 l 0.46,-0.003 c 15.158,-0.217 27.798,-11.128 27.798,-21.135 0,-2.151 0.046,-4.39 0.907,-5.963 0.634,-1.012 2.247,-2.2 4.838,-3.563 14.085,-7.317 29.15,-17.47 45.196,-30.46 1.76,6.49 1.454,12.984 -0.917,19.485 -2.371,6.501 -11.557,14.288 -27.556,23.361 -5.395,2.801 -4.7,6.517 0,4.293 6.278,-2.623 14.076,-7.595 23.393,-14.917 1.388,11.611 -0.976,19.691 -7.092,24.241 -3.623,2.814 -11.858,6.043 -24.707,9.687 -2.335,0.577 -2.551,3.061996 0.334,2.796996 8.06,-1.019 15.397,-3.167996 22.012,-6.447996 -0.5,9.315 -3.935,15.023 -10.306,17.125 -2.023,0.615 -6.474,0.963 -11.179,1.129 l -0.857,0.028 c -2.15,0.065 -4.323,0.094 -6.317,0.094 -7.482,0 -10.518,2.07 -13.117,4.387 -1.232,1.054 -3.187,3.065 -5.868,6.033 -0.95,-9.386 -6.623,-14.418 -17.022,-15.098 -10.399,0.68 -16.073,5.712 -17.022,15.098 z"
       id="path1447-8" />
  </g>
  <g
     id="g1907"
     inkscape:export-filename="D:\git\Mtgjson2Familiar\symbols\NCC_C.png"
     inkscape:export-xdpi="32"
     inkscape:export-ydpi="32">
    <path
       d="m 75.83938,204.008 -0.283,-0.245 v -64.572 c 0,-8.492 4.248,-13.063 12.743,-13.712 l 0.347,0.029 c 8.264,0.746 12.396,5.307 12.396,13.683 v 64.572 l -0.283,0.245 c -3.144,2.661 -7.297,3.992 -12.46,3.992 -5.163,0 -9.316,-1.33 -12.46,-3.992 z m -10.854,-66.853 c 2.097,2.226 4.194,4.74 6.29,7.543 v 53.78 c -2.3,-0.26 -4.396,-1.302 -6.29,-3.127 z m 46.626,0 v 58.196 c -1.894,1.825 -3.99,2.867 -6.29,3.127 v -53.78 c 2.096,-2.803 4.193,-5.317 6.29,-7.543 z m -58,-6.002 c 2.143,0 4.286,0.667 6.43,2.003 v 57.692 c -2.51,-0.993 -4.652,-2.617 -6.43,-4.872 z m 69.373,0 v 54.823 c -1.777,2.255 -3.92,3.879 -6.428,4.872 v -57.692 c 2.143,-1.336 4.286,-2.003 6.428,-2.003 z m -97.99,-6.146 c 1.819,2.845 3.957,4.473 6.415,4.884 2.458,0.411 8.295,0.832 17.51,1.262 v 47.744 c -15.636,-13.513 -26.137,-30.018 -31.503,-49.516 3.071,-0.136 5.598,-1.594 7.579,-4.374 z m 126.607,0 c 1.981,2.78 4.508,4.238 7.579,4.374 -5.366,19.498 -15.867,36.003 -31.504,49.516 v -47.744 c 9.216,-0.43 15.053,-0.85 17.511,-1.262 2.458,-0.41 4.596,-2.039 6.414,-4.884 z m -80.325,11.283 c -2.68,-2.968 -4.636,-4.98 -5.868,-6.033 l -0.144,-0.128 -0.293,-0.255 c -2.513,-2.157 -5.614,-4.004 -12.68,-4.004 -6.647,0 -15.289,-0.32 -18.353,-1.251 -6.371,-2.102 -9.806,-7.81 -10.306,-17.125 6.615,3.28 13.952,5.43 22.012,6.448 2.885,0.265 2.669,-2.22 0.334,-2.797 -12.849,-3.644 -21.084,-6.873 -24.707,-9.687 -6.116,-4.549998 -8.48,-12.629998 -7.092,-24.239998 9.317,7.32 17.115,12.293 23.393,14.916 4.7,2.224 5.395,-1.492 0,-4.293 -16,-9.073 -25.185,-16.86 -27.556,-23.36 -2.371,-6.503 -2.676,-12.998 -0.916,-19.486 16.045,12.99 31.111,23.143 45.195,30.46 2.59,1.363 4.204,2.55 4.838,3.563 0.861,1.573 0.907,3.812 0.907,5.963 0,10.108 12.896,21.137998 28.258,21.137998 l 0.46,-0.003 c 15.158,-0.217 27.798,-11.127998 27.798,-21.134998 0,-2.151 0.046,-4.39 0.907,-5.963 0.634,-1.012 2.247,-2.2 4.838,-3.563 14.085,-7.317 29.15,-17.47 45.196,-30.46 1.76,6.49 1.454,12.984 -0.917,19.485 -2.371,6.501 -11.557,14.288 -27.556,23.361 -5.395,2.801 -4.7,6.517 0,4.293 6.278,-2.623 14.076,-7.595 23.393,-14.917 1.388,11.611 -0.976,19.691 -7.092,24.240998 -3.623,2.814 -11.858,6.043 -24.707,9.687 -2.335,0.577 -2.551,3.062 0.334,2.797 8.06,-1.019 15.397,-3.168 22.012,-6.448 -0.5,9.315 -3.935,15.023 -10.306,17.125 -2.023,0.615 -6.474,0.963 -11.179,1.129 l -0.857,0.028 c -2.15,0.065 -4.323,0.094 -6.317,0.094 -7.482,0 -10.518,2.07 -13.117,4.387 -1.232,1.054 -3.187,3.065 -5.868,6.033 -0.95,-9.386 -6.623,-14.418 -17.022,-15.098 -10.399,0.68 -16.073,5.712 -17.022,15.098 z m 4.551,-37.881998 -0.272,-0.194 v -85.997 c 2.953,-2.716 6.898,-4.12 11.835,-4.213 l 0.452,-0.004 0.457,0.002 0.457,-0.002 0.452,0.004 c 4.937,0.093 8.882,1.497 11.834,4.213 v 85.997 l -0.272,0.194 c -2.944,2.032998 -7.1,3.049998 -12.471,3.049998 -5.37,0 -9.527,-1.017 -12.47,-3.049998 z m -4.551,-74.61 v 71.29 c -3.016,-2.193 -5.112,-6.024 -6.291,-11.491 v -49.598 c 0.93,-4.874 3.027,-8.274 6.29,-10.2 z m 34.044,0 c 3.264,1.927 5.361,5.327 6.291,10.2 v 49.599 c -1.179,5.467 -3.275,9.298 -6.29,11.492 v -71.29 z m -45.28,16.895 v 32.652 a 375.803,375.803 0 0 0 -6.428,-4.285 v -17.827 c 0,-4.968 2.142,-8.48 6.428,-10.54 z m 56.516,0 c 4.286,2.06 6.428,5.572 6.428,10.54 v 17.827 a 375.803,375.803 0 0 0 -6.428,4.285 z m -45.279,-26.221 v 4.285 c -6.605,2.95 -10.35,8.284 -11.236,16.001 -7.36,3.886 -11.032,8.946 -11.012,15.178 l 0.004,0.33 v 16.65 c -11.44,-6.328 -21.927,-13.22 -31.458,-20.677 l -1.055,-0.831 v -13.353 c 13.98,-9.288 32.232,-15.15 54.757,-17.584 z m 34.044,0 c 22.525,2.434 40.777,8.296 54.757,17.584 v 13.352 l -1.055,0.83 c -9.531,7.458 -20.018,14.35 -31.458,20.677 v -16.65 l 0.004,-0.329 c 0.02,-6.232 -3.651,-11.292 -11.012,-15.178 -0.886,-7.717 -4.631,-13.05 -11.236,-16 v -4.287 z"
       fill="#000000"
       fill-rule="nonzero"
       id="path2-0-0"
       style="fill:none;stroke:#ffffff;stroke-width:16;stroke-linecap:butt;stroke-linejoin:round;stroke-miterlimit:4;stroke-dasharray:none;stroke-opacity:1" />
    <path
       d="m 75.83938,204.008 -0.283,-0.245 v -64.572 c 0,-8.492 4.248,-13.063 12.743,-13.712 l 0.347,0.029 c 8.264,0.746 12.396,5.307 12.396,13.683 v 64.572 l -0.283,0.245 c -3.144,2.661 -7.297,3.992 -12.46,3.992 -5.163,0 -9.316,-1.33 -12.46,-3.992 z m -10.854,-66.853 c 2.097,2.226 4.194,4.74 6.29,7.543 v 53.78 c -2.3,-0.26 -4.396,-1.302 -6.29,-3.127 z m 46.626,0 v 58.196 c -1.894,1.825 -3.99,2.867 -6.29,3.127 v -53.78 c 2.096,-2.803 4.193,-5.317 6.29,-7.543 z m -58,-6.002 c 2.143,0 4.286,0.667 6.43,2.003 v 57.692 c -2.51,-0.993 -4.652,-2.617 -6.43,-4.872 z m 69.373,0 v 54.823 c -1.777,2.255 -3.92,3.879 -6.428,4.872 v -57.692 c 2.143,-1.336 4.286,-2.003 6.428,-2.003 z m -97.99,-6.146 c 1.819,2.845 3.957,4.473 6.415,4.884 2.458,0.411 8.295,0.832 17.51,1.262 v 47.744 c -15.636,-13.513 -26.137,-30.018 -31.503,-49.516 3.071,-0.136 5.598,-1.594 7.579,-4.374 z m 126.607,0 c 1.981,2.78 4.508,4.238 7.579,4.374 -5.366,19.498 -15.867,36.003 -31.504,49.516 v -47.744 c 9.216,-0.43 15.053,-0.85 17.511,-1.262 2.458,-0.41 4.596,-2.039 6.414,-4.884 z m -75.774,-26.598996 -0.272,-0.194 v -85.997 c 2.953,-2.716 6.898,-4.12 11.835,-4.213 l 0.452,-0.004 0.457,0.002 0.457,-0.002 0.452,0.004 c 4.937,0.093 8.882,1.497 11.834,4.213 v 85.997 l -0.272,0.194 c -2.944,2.032996 -7.1,3.049996 -12.471,3.049996 -5.37,0 -9.527,-1.017 -12.47,-3.049996 z m -4.551,-74.61 v 71.29 c -3.016,-2.193 -5.112,-6.024 -6.291,-11.491 v -49.598 c 0.93,-4.874 3.027,-8.274 6.29,-10.2 z m 34.044,0 c 3.264,1.927 5.361,5.327 6.291,10.2 v 49.599 c -1.179,5.467 -3.275,9.298 -6.29,11.492 v -71.29 z m -45.28,16.895 v 32.652 c -2.12793,-1.450319 -4.27071,-2.878728 -6.428,-4.285 v -17.827 c 0,-4.968 2.142,-8.48 6.428,-10.54 z m 56.516,0 c 4.286,2.06 6.428,5.572 6.428,10.54 v 17.827 c -2.15729,1.406272 -4.30007,2.834681 -6.428,4.285 z m -45.279,-26.221 v 4.285 c -6.605,2.95 -10.35,8.284 -11.236,16.001 -7.36,3.886 -11.032,8.946 -11.012,15.178 l 0.004,0.33 v 16.65 c -11.44,-6.328 -21.927,-13.22 -31.458,-20.677 l -1.055,-0.831 v -13.353 c 13.98,-9.288 32.232,-15.15 54.757,-17.584 z m 34.044,0 c 22.525,2.434 40.777,8.296 54.757,17.584 v 13.352 l -1.055,0.83 c -9.531,7.458 -20.018,14.35 -31.458,20.677 v -16.65 l 0.004,-0.329 c 0.02,-6.232 -3.651,-11.292 -11.012,-15.178 -0.886,-7.717 -4.631,-13.05 -11.236,-16 v -4.287 z"
       fill="#000000"
       fill-rule="nonzero"
       id="path2-2-0"
       sodipodi:nodetypes="ccsccsccsccccccccccccccccccccccsccccccccccccccccccccccscccccccccccccccccsccsccccccccccccccccccccccccc"
       style="fill:#000000;fill-opacity:1" />
    <path
       style="fill:#000000;fill-opacity:1"
       d="m 71.27638,136.29 c -2.68,-2.968 -4.636,-4.98 -5.868,-6.033 l -0.144,-0.128 -0.293,-0.255 c -2.513,-2.157 -5.614,-4.004 -12.68,-4.004 -6.647,0 -15.289,-0.32 -18.353,-1.251 -6.371,-2.102 -9.806,-7.81 -10.306,-17.125 6.615,3.28 13.952,5.43 22.012,6.448 2.885,0.265 2.669,-2.22 0.334,-2.797 -12.849,-3.644 -21.084,-6.873 -24.707,-9.687 -6.116,-4.549996 -8.48,-12.629996 -7.092,-24.239996 9.317,7.32 17.115,12.293 23.393,14.916 4.7,2.224 5.395,-1.492 0,-4.293 -16,-9.073 -25.185,-16.86 -27.556,-23.36 -2.371,-6.503 -2.676,-12.998 -0.916,-19.486 16.045,12.99 31.111,23.143 45.195,30.46 2.59,1.363 4.204,2.55 4.838,3.563 0.861,1.573 0.907,3.812 0.907,5.963 0,10.108 12.896,21.137996 28.258,21.137996 l 0.46,-0.003 c 15.158,-0.217 27.798,-11.127996 27.798,-21.134996 0,-2.151 0.046,-4.39 0.907,-5.963 0.634,-1.012 2.247,-2.2 4.838,-3.563 14.085,-7.317 29.15,-17.47 45.196,-30.46 1.76,6.49 1.454,12.984 -0.917,19.485 -2.371,6.501 -11.557,14.288 -27.556,23.361 -5.395,2.801 -4.7,6.517 0,4.293 6.278,-2.623 14.076,-7.595 23.393,-14.917 1.388,11.611 -0.976,19.691 -7.092,24.240996 -3.623,2.814 -11.858,6.043 -24.707,9.687 -2.335,0.577 -2.551,3.062 0.334,2.797 8.06,-1.019 15.397,-3.168 22.012,-6.448 -0.5,9.315 -3.935,15.023 -10.306,17.125 -2.023,0.615 -6.474,0.963 -11.179,1.129 l -0.857,0.028 c -2.15,0.065 -4.323,0.094 -6.317,0.094 -7.482,0 -10.518,2.07 -13.117,4.387 -1.232,1.054 -3.187,3.065 -5.868,6.033 -0.95,-9.386 -6.623,-14.418 -17.022,-15.098 -10.399,0.68 -16.073,5.712 -17.022,15.098 z"
       id="path1447-5" />
    <path
       style="color:#000000;fill:#ffffff;fill-opacity:1;-inkscape-stroke:none"
       d="m 12.316406,52.904297 c 14.011737,10.898415 27.35791,19.765455 39.990235,26.330078 2.250414,1.184291 3.282585,2.319049 3.09375,1.976562 0.08559,0.235053 0.36914,1.755584 0.36914,3.769532 0,6.87028 4.117215,13.118701 10.009766,17.724611 5.892551,4.60591 13.816373,7.68555 22.519531,7.68555 h 0.01367 l 0.490234,-0.004 h 0.01758 c 8.586434,-0.12292 16.380078,-3.22892 22.173828,-7.82031 5.79376,-4.591394 9.83398,-10.784249 9.83399,-17.585941 0,-2.012911 0.28143,-3.531197 0.36718,-3.767578 -0.18759,0.340053 0.84368,-0.794861 3.09375,-1.978516 12.63352,-6.564771 25.97982,-15.431516 39.99219,-26.330078 0.0531,3.339544 -0.4601,6.678285 -1.71289,10.113281 -1.53049,4.19643 -9.95334,12.205654 -25.65039,21.107422 l 0.13867,-0.07422 c -1.72478,0.895477 -3.10507,1.912251 -4.18164,3.140625 -1.07657,1.228374 -2.09469,2.697291 -1.89063,5.048828 0.10204,1.175769 0.71642,2.543175 1.68946,3.421875 0.97304,0.878701 2.11449,1.251168 3.08398,1.371094 1.91331,0.236678 3.42598,-0.262635 5.0293,-1.015625 5.13907,-2.161901 11.15737,-6.012443 17.68945,-10.712891 -0.32215,6.21713 -2.32055,10.211552 -5.70117,12.726563 l -0.0352,0.02734 -0.0351,0.02734 c -2.39693,1.861702 -10.57928,5.357171 -23.25196,8.951171 l 0.14063,-0.0391 c -2.52391,0.62368 -5.11295,2.47493 -5.03516,5.95703 0.0389,1.74105 1.21883,3.59513 2.63477,4.42578 1.41594,0.83064 2.82853,0.93587 4.15039,0.81445 l 0.0723,-0.008 0.0723,-0.008 c 5.53594,-0.69989 10.75675,-1.96894 15.70508,-3.70313 -0.27692,0.70507 -0.50556,1.52657 -0.83984,2.08203 -1.22559,2.03652 -2.70818,3.21565 -4.98633,3.97852 -0.81699,0.23986 -5.46497,0.77955 -10.02735,0.94141 l -0.85742,0.0293 c -2.09761,0.0633 -4.22883,0.0918 -6.17773,0.0918 -8.2347,0 -13.02307,2.86825 -15.91602,5.43555 -0.24213,0.20757 -0.69939,0.74288 -0.96094,0.98437 -1.04865,-2.19116 -2.44351,-4.14463 -4.24023,-5.73828 -3.73445,-3.31238 -8.777809,-4.9701 -14.611328,-5.35156 l -0.277344,-0.0176 -0.279297,0.0176 c -5.833508,0.38146 -10.87476,2.03918 -14.609375,5.35156 -1.796798,1.59365 -3.193544,3.54703 -4.242187,5.73828 -0.268351,-0.24766 -0.736302,-0.79773 -0.984375,-1.00976 l -0.09766,-0.0879 -0.322265,-0.2793 -0.0098,-0.01 c -2.916297,-2.50316 -7.65265,-5.0332 -15.46289,-5.0332 -3.254961,0 -7.016693,-0.0801 -10.271485,-0.26953 -3.229713,-0.18796 -6.161606,-0.60831 -6.787109,-0.79102 -2.279726,-0.76283 -3.764153,-1.94312 -4.990235,-3.98047 -0.334338,-0.55556 -0.562886,-1.37681 -0.839843,-2.08203 4.948646,1.73462 10.170256,3.00382 15.707031,3.70313 l 0.07227,0.008 0.07227,0.008 c 1.321856,0.12142 2.732499,0.0162 4.148438,-0.81445 1.415938,-0.83065 2.597823,-2.68473 2.636718,-4.42578 0.07779,-3.4821 -2.513196,-5.33335 -5.037109,-5.95703 l 0.142578,0.0391 c -12.672678,-3.594 -20.856982,-7.089469 -23.253906,-8.951171 l -0.03516,-0.02734 -0.03516,-0.02734 c -3.380984,-2.515282 -5.377391,-6.508693 -5.699218,-12.726563 6.529777,4.698271 12.543532,8.548741 17.68164,10.710938 1.606125,0.754984 3.118851,1.254626 5.035157,1.017578 0.969488,-0.119926 2.110943,-0.492393 3.083984,-1.371094 0.973041,-0.8787 1.589376,-2.246106 1.691406,-3.421875 0.204061,-2.351537 -0.816011,-3.820454 -1.892578,-5.048828 -1.076567,-1.228374 -2.454911,-2.245148 -4.179687,-3.140625 L 39.679687,84.125 C 23.981731,75.223278 15.559767,67.2133 14.029297,63.017578 12.776572,59.581697 12.263184,56.243691 12.316406,52.904297 Z"
       id="path1447-5-3"
       sodipodi:nodetypes="cccssscccsscccsccsssscccccccssccccscccsccscccscccccsscsccccsscccccccsssscccc" />
  </g>
</svg>
