<?xml version="1.0" encoding="UTF-8" standalone="no"?>
<svg
   class="set-header-symbol"
   focusable="false"
   aria-hidden="true"
   viewBox="0 0 706.38928 216"
   version="1.1"
   id="svg4"
   sodipodi:docname="ncc.svg"
   width="706.38928"
   height="216"
   inkscape:version="1.1 (c68e22c387, 2021-05-23)"
   xmlns:inkscape="http://www.inkscape.org/namespaces/inkscape"
   xmlns:sodipodi="http://sodipodi.sourceforge.net/DTD/sodipodi-0.dtd"
   xmlns:xlink="http://www.w3.org/1999/xlink"
   xmlns="http://www.w3.org/2000/svg"
   xmlns:svg="http://www.w3.org/2000/svg">
  <defs
     id="defs8">
    <linearGradient
       inkscape:collect="always"
       id="linearGradient1067">
      <stop
         style="stop-color:#b73326;stop-opacity:1"
         offset="0"
         id="stop1061" />
      <stop
         id="stop1063"
         offset="0.49997669"
         style="stop-color:#f49226;stop-opacity:1" />
      <stop
         style="stop-color:#b73326;stop-opacity:1"
         offset="1"
         id="stop1065" />
    </linearGradient>
    <linearGradient
       inkscape:collect="always"
       id="linearGradient1083">
      <stop
         style="stop-color:#86713f;stop-opacity:1"
         offset="0"
         id="stop1077" />
      <stop
         id="stop1079"
         offset="0.5"
         style="stop-color:#dfc27f;stop-opacity:1" />
      <stop
         style="stop-color:#86713f;stop-opacity:1"
         offset="1"
         id="stop1081" />
    </linearGradient>
    <linearGradient
       inkscape:collect="always"
       id="linearGradient1099">
      <stop
         style="stop-color:#4c6d7a;stop-opacity:1"
         offset="0"
         id="stop1093" />
      <stop
         id="stop1095"
         offset="0.5"
         style="stop-color:#bae2ef;stop-opacity:1" />
      <stop
         style="stop-color:#4c6d7a;stop-opacity:1"
         offset="1"
         id="stop1097" />
    </linearGradient>
    <linearGradient
       inkscape:collect="always"
       xlink:href="#linearGradient1067"
       id="linearGradient2114"
       x1="-285.52246"
       y1="92.115685"
       x2="-141.96448"
       y2="92.115685"
       gradientUnits="userSpaceOnUse" />
    <linearGradient
       inkscape:collect="always"
       xlink:href="#linearGradient1083"
       id="linearGradient2439"
       gradientUnits="userSpaceOnUse"
       x1="-285.52246"
       y1="92.115685"
       x2="-141.96448"
       y2="92.115685"
       gradientTransform="translate(-186.01999,-7.1546132)" />
    <linearGradient
       inkscape:collect="always"
       xlink:href="#linearGradient1099"
       id="linearGradient2476"
       gradientUnits="userSpaceOnUse"
       x1="-285.52246"
       y1="92.115685"
       x2="-141.96448"
       y2="92.115685"
       gradientTransform="translate(-355.94213,-0.89432404)" />
  </defs>
  <sodipodi:namedview
     id="namedview6"
     pagecolor="#ffffff"
     bordercolor="#666666"
     borderopacity="1.0"
     inkscape:pageshadow="2"
     inkscape:pageopacity="0.0"
     inkscape:pagecheckerboard="0"
     showgrid="false"
     fit-margin-top="0"
     fit-margin-left="0"
     fit-margin-right="0"
     fit-margin-bottom="0"
     inkscape:zoom="1.1181592"
     inkscape:cx="340.29143"
     inkscape:cy="63.050056"
     inkscape:window-width="1858"
     inkscape:window-height="1177"
     inkscape:window-x="54"
     inkscape:window-y="-8"
     inkscape:window-maximized="1"
     inkscape:current-layer="svg4" />
  <g
     id="g2389"
     transform="translate(831.83482,15.88432)"
     inkscape:export-filename="D:\git\Mtgjson2Familiar\symbols\NCC_M.png"
     inkscape:export-xdpi="32"
     inkscape:export-ydpi="32">
    <path
       d="m -226.20347,188.12368 -0.283,-0.245 v -64.572 c 0,-8.492 4.248,-13.063 12.743,-13.712 l 0.347,0.029 c 8.264,0.746 12.396,5.307 12.396,13.683 v 64.572 l -0.283,0.245 c -3.144,2.661 -7.297,3.992 -12.46,3.992 -5.163,0 -9.316,-1.33 -12.46,-3.992 z m -10.854,-66.853 c 2.097,2.226 4.194,4.74 6.29,7.543 v 53.78 c -2.3,-0.26 -4.396,-1.302 -6.29,-3.127 z m 46.626,0 v 58.196 c -1.894,1.825 -3.99,2.867 -6.29,3.127 v -53.78 c 2.096,-2.803 4.193,-5.317 6.29,-7.543 z m -58,-6.002 c 2.143,0 4.286,0.667 6.43,2.003 v 57.692 c -2.51,-0.993 -4.652,-2.617 -6.43,-4.872 z m 69.373,0 v 54.823 c -1.777,2.255 -3.92,3.879 -6.428,4.872 v -57.692 c 2.143,-1.336 4.286,-2.003 6.428,-2.003 z m -97.99,-6.146 c 1.819,2.845 3.957,4.473 6.415,4.884 2.458,0.411 8.295,0.832 17.51,1.262 v 47.744 c -15.636,-13.513 -26.137,-30.018 -31.503,-49.516 3.071,-0.136 5.598,-1.594 7.579,-4.374 z m 126.607,0 c 1.981,2.78 4.508,4.238 7.579,4.374 -5.366,19.498 -15.867,36.003 -31.504,49.516 v -47.744 c 9.216,-0.43 15.053,-0.85 17.511,-1.262 2.458,-0.41 4.596,-2.039 6.414,-4.884 z m -80.325,11.283 c -2.68,-2.968 -4.636,-4.98 -5.868,-6.033 l -0.144,-0.128 -0.293,-0.255 c -2.513,-2.157 -5.614,-4.004 -12.68,-4.004 -6.647,0 -15.289,-0.32 -18.353,-1.251 -6.371,-2.102 -9.806,-7.81 -10.306,-17.124998 6.615,3.28 13.952,5.43 22.012,6.448 2.885,0.265 2.669,-2.22 0.334,-2.797 -12.849,-3.644 -21.084,-6.873 -24.707,-9.687 -6.116,-4.55 -8.48,-12.63 -7.092,-24.24 9.317,7.32 17.115,12.293 23.393,14.916 4.7,2.224 5.395,-1.492 0,-4.293 -16,-9.073 -25.185,-16.86 -27.556,-23.36 -2.371,-6.503 -2.676,-12.998 -0.916,-19.486 16.045,12.99 31.111,23.143 45.195,30.46 2.59,1.363 4.204,2.55 4.838,3.563 0.861,1.573 0.907,3.812 0.907,5.963 0,10.108 12.896,21.138 28.258,21.138 l 0.46,-0.003 c 15.158,-0.217 27.798,-11.128 27.798,-21.135 0,-2.151 0.046,-4.39 0.907,-5.963 0.634,-1.012 2.247,-2.2 4.838,-3.563 14.085,-7.317 29.15,-17.47 45.196,-30.46 1.76,6.49 1.454,12.984 -0.917,19.485 -2.371,6.501 -11.557,14.288 -27.556,23.361 -5.395,2.801 -4.7,6.517 0,4.293 6.278,-2.623 14.076,-7.595 23.393,-14.917 1.388,11.611 -0.976,19.691 -7.092,24.241 -3.623,2.814 -11.858,6.043 -24.707,9.687 -2.335,0.577 -2.551,3.062 0.334,2.797 8.06,-1.019 15.397,-3.168 22.012,-6.448 -0.5,9.314998 -3.935,15.022998 -10.306,17.124998 -2.023,0.615 -6.474,0.963 -11.179,1.129 l -0.857,0.028 c -2.15,0.065 -4.323,0.094 -6.317,0.094 -7.482,0 -10.518,2.07 -13.117,4.387 -1.232,1.054 -3.187,3.065 -5.868,6.033 -0.95,-9.386 -6.623,-14.418 -17.022,-15.098 -10.399,0.68 -16.073,5.712 -17.022,15.098 z m 4.551,-37.881998 -0.272,-0.194 v -85.997 c 2.953,-2.716 6.898,-4.12 11.835,-4.213 l 0.452,-0.004 0.457,0.002 0.457,-0.002 0.452,0.004 c 4.937,0.093 8.882,1.497 11.834,4.213 v 85.997 l -0.272,0.194 c -2.944,2.033 -7.1,3.05 -12.471,3.05 -5.37,0 -9.527,-1.017 -12.47,-3.05 z m -4.551,-74.61 v 71.29 c -3.016,-2.193 -5.112,-6.024 -6.291,-11.491 v -49.598 c 0.93,-4.874 3.027,-8.274 6.29,-10.2 z m 34.044,0 c 3.264,1.927 5.361,5.327 6.291,10.2 v 49.599 c -1.179,5.467 -3.275,9.298 -6.29,11.492 v -71.29 z m -45.28,16.895 v 32.652 a 375.803,375.803 0 0 0 -6.428,-4.285 v -17.827 c 0,-4.968 2.142,-8.48 6.428,-10.54 z m 56.516,0 c 4.286,2.06 6.428,5.572 6.428,10.54 v 17.827 a 375.803,375.803 0 0 0 -6.428,4.285 z m -45.279,-26.221 v 4.285 c -6.605,2.95 -10.35,8.284 -11.236,16.001 -7.36,3.886 -11.032,8.946 -11.012,15.178 l 0.004,0.33 v 16.65 c -11.44,-6.328 -21.927,-13.22 -31.458,-20.677 l -1.055,-0.831 v -13.353 c 13.98,-9.288 32.232,-15.15 54.757,-17.584 z m 34.044,0 c 22.525,2.434 40.777,8.296 54.757,17.584 v 13.352 l -1.055,0.83 c -9.531,7.458 -20.018,14.35 -31.458,20.677 v -16.65 l 0.004,-0.329 c 0.02,-6.232 -3.651,-11.292 -11.012,-15.178 -0.886,-7.717 -4.631,-13.05 -11.236,-16 v -4.287 z"
       fill="#000000"
       fill-rule="nonzero"
       id="path2-0"
       style="fill:none;stroke:#000000;stroke-width:16;stroke-linecap:butt;stroke-linejoin:round;stroke-miterlimit:4;stroke-dasharray:none;stroke-opacity:1" />
    <path
       d="m -226.20347,188.12368 -0.283,-0.245 v -64.572 c 0,-8.492 4.248,-13.063 12.743,-13.712 l 0.347,0.029 c 8.264,0.746 12.396,5.307 12.396,13.683 v 64.572 l -0.283,0.245 c -3.144,2.661 -7.297,3.992 -12.46,3.992 -5.163,0 -9.316,-1.33 -12.46,-3.992 z m -10.854,-66.853 c 2.097,2.226 4.194,4.74 6.29,7.543 v 53.78 c -2.3,-0.26 -4.396,-1.302 -6.29,-3.127 z m 46.626,0 v 58.196 c -1.894,1.825 -3.99,2.867 -6.29,3.127 v -53.78 c 2.096,-2.803 4.193,-5.317 6.29,-7.543 z m -58,-6.002 c 2.143,0 4.286,0.667 6.43,2.003 v 57.692 c -2.51,-0.993 -4.652,-2.617 -6.43,-4.872 z m 69.373,0 v 54.823 c -1.777,2.255 -3.92,3.879 -6.428,4.872 v -57.692 c 2.143,-1.336 4.286,-2.003 6.428,-2.003 z m -97.99,-6.146 c 1.819,2.845 3.957,4.473 6.415,4.884 2.458,0.411 8.295,0.832 17.51,1.262 v 47.744 c -15.636,-13.513 -26.137,-30.018 -31.503,-49.516 3.071,-0.136 5.598,-1.594 7.579,-4.374 z m 126.607,0 c 1.981,2.78 4.508,4.238 7.579,4.374 -5.366,19.498 -15.867,36.003 -31.504,49.516 v -47.744 c 9.216,-0.43 15.053,-0.85 17.511,-1.262 2.458,-0.41 4.596,-2.039 6.414,-4.884 z m -75.774,-26.598996 -0.272,-0.194 v -85.997 c 2.953,-2.716 6.898,-4.12 11.835,-4.213 l 0.452,-0.004 0.457,0.002 0.457,-0.002 0.452,0.004 c 4.937,0.093 8.882,1.497 11.834,4.213 v 85.997 l -0.272,0.194 c -2.944,2.033 -7.1,3.05 -12.471,3.05 -5.37,0 -9.527,-1.017 -12.47,-3.05 z m -4.551,-74.61 v 71.29 c -3.016,-2.193 -5.112,-6.024 -6.291,-11.491 v -49.598 c 0.93,-4.874 3.027,-8.274 6.29,-10.2 z m 34.044,0 c 3.264,1.927 5.361,5.327 6.291,10.2 v 49.599 c -1.179,5.467 -3.275,9.298 -6.29,11.492 v -71.29 z m -45.28,16.895 v 32.652 c -2.12793,-1.450319 -4.27071,-2.878728 -6.428,-4.285 v -17.827 c 0,-4.968 2.142,-8.48 6.428,-10.54 z m 56.516,0 c 4.286,2.06 6.428,5.572 6.428,10.54 v 17.827 c -2.15729,1.406272 -4.30007,2.834681 -6.428,4.285 z m -45.279,-26.221 v 4.285 c -6.605,2.95 -10.35,8.284 -11.236,16.001 -7.36,3.886 -11.032,8.946 -11.012,15.178 l 0.004,0.33 v 16.65 c -11.44,-6.328 -21.927,-13.22 -31.458,-20.677 l -1.055,-0.831 v -13.353 c 13.98,-9.288 32.232,-15.15 54.757,-17.584 z m 34.044,0 c 22.525,2.434 40.777,8.296 54.757,17.584 v 13.352 l -1.055,0.83 c -9.531,7.458 -20.018,14.35 -31.458,20.677 v -16.65 l 0.004,-0.329 c 0.02,-6.232 -3.651,-11.292 -11.012,-15.178 -0.886,-7.717 -4.631,-13.05 -11.236,-16 v -4.287 z"
       fill="#000000"
       fill-rule="nonzero"
       id="path2-2"
       sodipodi:nodetypes="ccsccsccsccccccccccccccccccccccsccccccccccccccccccccccscccccccccccccccccsccsccccccccccccccccccccccccc"
       style="fill:url(#linearGradient2114);fill-opacity:1" />
    <path
       style="fill:#fffffd;fill-opacity:1"
       d="m -230.76647,120.40568 c -2.68,-2.968 -4.636,-4.98 -5.868,-6.033 l -0.144,-0.128 -0.293,-0.255 c -2.513,-2.157 -5.614,-4.004 -12.68,-4.004 -6.647,0 -15.289,-0.32 -18.353,-1.251 -6.371,-2.102 -9.806,-7.81 -10.306,-17.124996 6.615,3.28 13.952,5.429996 22.012,6.447996 2.885,0.265 2.669,-2.219996 0.334,-2.796996 -12.849,-3.644 -21.084,-6.873 -24.707,-9.687 -6.116,-4.55 -8.48,-12.63 -7.092,-24.24 9.317,7.32 17.115,12.293 23.393,14.916 4.7,2.224 5.395,-1.492 0,-4.293 -16,-9.073 -25.185,-16.86 -27.556,-23.36 -2.371,-6.503 -2.676,-12.998 -0.916,-19.486 16.045,12.99 31.111,23.143 45.195,30.46 2.59,1.363 4.204,2.55 4.838,3.563 0.861,1.573 0.907,3.812 0.907,5.963 0,10.108 12.896,21.138 28.258,21.138 l 0.46,-0.003 c 15.158,-0.217 27.798,-11.128 27.798,-21.135 0,-2.151 0.046,-4.39 0.907,-5.963 0.634,-1.012 2.247,-2.2 4.838,-3.563 14.085,-7.317 29.15,-17.47 45.196,-30.46 1.76,6.49 1.454,12.984 -0.917,19.485 -2.371,6.501 -11.557,14.288 -27.556,23.361 -5.395,2.801 -4.7,6.517 0,4.293 6.278,-2.623 14.076,-7.595 23.393,-14.917 1.388,11.611 -0.976,19.691 -7.092,24.241 -3.623,2.814 -11.858,6.043 -24.707,9.687 -2.335,0.577 -2.551,3.061996 0.334,2.796996 8.06,-1.019 15.397,-3.167996 22.012,-6.447996 -0.5,9.314996 -3.935,15.022996 -10.306,17.124996 -2.023,0.615 -6.474,0.963 -11.179,1.129 l -0.857,0.028 c -2.15,0.065 -4.323,0.094 -6.317,0.094 -7.482,0 -10.518,2.07 -13.117,4.387 -1.232,1.054 -3.187,3.065 -5.868,6.033 -0.95,-9.386 -6.623,-14.418 -17.022,-15.098 -10.399,0.68 -16.073,5.712 -17.022,15.098 z"
       id="path1447" />
  </g>
  <g
     id="g2528"
     transform="translate(841.25749,23.038931)"
     inkscape:export-filename="D:\git\Mtgjson2Familiar\symbols\NCC_R.png"
     inkscape:export-xdpi="32"
     inkscape:export-ydpi="32">
    <path
       d="m -412.22346,180.96907 -0.283,-0.245 v -64.572 c 0,-8.492 4.248,-13.063 12.743,-13.712 l 0.347,0.029 c 8.264,0.746 12.396,5.307 12.396,13.683 v 64.572 l -0.283,0.245 c -3.144,2.661 -7.297,3.992 -12.46,3.992 -5.163,0 -9.316,-1.33 -12.46,-3.992 z m -10.854,-66.853 c 2.097,2.226 4.194,4.74 6.29,7.543 v 53.78 c -2.3,-0.26 -4.396,-1.302 -6.29,-3.127 z m 46.626,0 v 58.196 c -1.894,1.825 -3.99,2.867 -6.29,3.127 v -53.78 c 2.096,-2.803 4.193,-5.317 6.29,-7.543 z m -58,-6.002 c 2.143,0 4.286,0.667 6.43,2.003 v 57.692 c -2.51,-0.993 -4.652,-2.617 -6.43,-4.872 z m 69.373,0 v 54.823 c -1.777,2.255 -3.92,3.879 -6.428,4.872 v -57.692 c 2.143,-1.336 4.286,-2.003 6.428,-2.003 z m -97.99,-6.146 c 1.819,2.845 3.957,4.473 6.415,4.884 2.458,0.411 8.295,0.832 17.51,1.262 v 47.744 c -15.636,-13.513 -26.137,-30.018 -31.503,-49.516 3.071,-0.136 5.598,-1.594 7.579,-4.374 z m 126.607,0 c 1.981,2.78 4.508,4.238 7.579,4.374 -5.366,19.498 -15.867,36.003 -31.504,49.516 v -47.744 c 9.216,-0.43 15.053,-0.85 17.511,-1.262 2.458,-0.41 4.596,-2.039 6.414,-4.884 z m -80.325,11.283 c -2.68,-2.968 -4.636,-4.98 -5.868,-6.033 l -0.144,-0.128 -0.293,-0.255 c -2.513,-2.157 -5.614,-4.004 -12.68,-4.004 -6.647,0 -15.289,-0.32 -18.353,-1.251 -6.371,-2.102003 -9.806,-7.810003 -10.306,-17.125001 6.615,3.28 13.952,5.43 22.012,6.448 2.885,0.265 2.669,-2.22 0.334,-2.797 -12.849,-3.644 -21.084,-6.873 -24.707,-9.687 -6.116,-4.55 -8.48,-12.63 -7.092,-24.24 9.317,7.32 17.115,12.293 23.393,14.916 4.7,2.224 5.395,-1.492 0,-4.293 -16,-9.073 -25.185,-16.86 -27.556,-23.36 -2.371,-6.503 -2.676,-12.998 -0.916,-19.486 16.045,12.99 31.111,23.143 45.195,30.46 2.59,1.363 4.204,2.55 4.838,3.563 0.861,1.573 0.907,3.812 0.907,5.963 0,10.108 12.896,21.138 28.258,21.138 l 0.46,-0.003 c 15.158,-0.217 27.798,-11.128 27.798,-21.135 0,-2.151 0.046,-4.39 0.907,-5.963 0.634,-1.012 2.247,-2.2 4.838,-3.563 14.085,-7.317 29.15,-17.47 45.196,-30.46 1.76,6.49 1.454,12.984 -0.917,19.485 -2.371,6.501 -11.557,14.288 -27.556,23.361 -5.395,2.801 -4.7,6.517 0,4.293 6.278,-2.623 14.076,-7.595 23.393,-14.917 1.388,11.611 -0.976,19.691 -7.092,24.241 -3.623,2.814 -11.858,6.043 -24.707,9.687 -2.335,0.577 -2.551,3.062 0.334,2.797 8.06,-1.019 15.397,-3.168 22.012,-6.448 -0.5,9.314998 -3.935,15.022998 -10.306,17.125001 -2.023,0.615 -6.474,0.963 -11.179,1.129 l -0.857,0.028 c -2.15,0.065 -4.323,0.094 -6.317,0.094 -7.482,0 -10.518,2.07 -13.117,4.387 -1.232,1.054 -3.187,3.065 -5.868,6.033 -0.95,-9.386 -6.623,-14.418003 -17.022,-15.098003 -10.399,0.68 -16.073,5.712003 -17.022,15.098003 z m 4.551,-37.882001 -0.272,-0.194 v -85.997 c 2.953,-2.716 6.898,-4.12 11.835,-4.213 l 0.452,-0.004 0.457,0.002 0.457,-0.002 0.452,0.004 c 4.937,0.093 8.882,1.497 11.834,4.213 v 85.997 l -0.272,0.194 c -2.944,2.033 -7.1,3.05 -12.471,3.05 -5.37,0 -9.527,-1.017 -12.47,-3.05 z m -4.551,-74.6100002 V 72.049069 c -3.016,-2.193 -5.112,-6.024 -6.291,-11.491 v -49.598 c 0.93,-4.8740002 3.027,-8.2740002 6.29,-10.2000002 z m 34.044,0 c 3.264,1.927 5.361,5.327 6.291,10.2000002 v 49.599 c -1.179,5.467 -3.275,9.298 -6.29,11.492 V 0.7600688 Z m -45.28,16.8950002 v 32.652 a 375.803,375.803 0 0 0 -6.428,-4.285 v -17.827 c 0,-4.968 2.142,-8.48 6.428,-10.54 z m 56.516,0 c 4.286,2.06 6.428,5.572 6.428,10.54 v 17.827 a 375.803,375.803 0 0 0 -6.428,4.285 z m -45.279,-26.2210002 v 4.285 c -6.605,2.95 -10.35,8.284 -11.236,16.0010002 -7.36,3.886 -11.032,8.946 -11.012,15.178 l 0.004,0.33 v 16.65 c -11.44,-6.328 -21.927,-13.22 -31.458,-20.677 l -1.055,-0.831 V 9.0160688 c 13.98,-9.288 32.232,-15.15 54.757,-17.584 z m 34.044,0 c 22.525,2.434 40.777,8.296 54.757,17.584 V 22.369069 l -1.055,0.83 c -9.531,7.458 -20.018,14.35 -31.458,20.677 v -16.65 l 0.004,-0.329 c 0.02,-6.232 -3.651,-11.292 -11.012,-15.178 -0.886,-7.7170002 -4.631,-13.0500002 -11.236,-16.0000002 v -4.287 z"
       fill="#000000"
       fill-rule="nonzero"
       id="path2-0-5"
       style="fill:none;stroke:#000000;stroke-width:16;stroke-linecap:butt;stroke-linejoin:round;stroke-miterlimit:4;stroke-dasharray:none;stroke-opacity:1" />
    <path
       d="m -412.22346,180.96907 -0.283,-0.245 v -64.572 c 0,-8.492 4.248,-13.063 12.743,-13.712 l 0.347,0.029 c 8.264,0.746 12.396,5.307 12.396,13.683 v 64.572 l -0.283,0.245 c -3.144,2.661 -7.297,3.992 -12.46,3.992 -5.163,0 -9.316,-1.33 -12.46,-3.992 z m -10.854,-66.853 c 2.097,2.226 4.194,4.74 6.29,7.543 v 53.78 c -2.3,-0.26 -4.396,-1.302 -6.29,-3.127 z m 46.626,0 v 58.196 c -1.894,1.825 -3.99,2.867 -6.29,3.127 v -53.78 c 2.096,-2.803 4.193,-5.317 6.29,-7.543 z m -58,-6.002 c 2.143,0 4.286,0.667 6.43,2.003 v 57.692 c -2.51,-0.993 -4.652,-2.617 -6.43,-4.872 z m 69.373,0 v 54.823 c -1.777,2.255 -3.92,3.879 -6.428,4.872 v -57.692 c 2.143,-1.336 4.286,-2.003 6.428,-2.003 z m -97.99,-6.146 c 1.819,2.845 3.957,4.473 6.415,4.884 2.458,0.411 8.295,0.832 17.51,1.262 v 47.744 c -15.636,-13.513 -26.137,-30.018 -31.503,-49.516 3.071,-0.136 5.598,-1.594 7.579,-4.374 z m 126.607,0 c 1.981,2.78 4.508,4.238 7.579,4.374 -5.366,19.498 -15.867,36.003 -31.504,49.516 v -47.744 c 9.216,-0.43 15.053,-0.85 17.511,-1.262 2.458,-0.41 4.596,-2.039 6.414,-4.884 z m -75.774,-26.598999 -0.272,-0.194 v -85.997 c 2.953,-2.716 6.898,-4.12 11.835,-4.213 l 0.452,-0.004 0.457,0.002 0.457,-0.002 0.452,0.004 c 4.937,0.093 8.882,1.497 11.834,4.213 v 85.997 l -0.272,0.194 c -2.944,2.033 -7.1,3.05 -12.471,3.05 -5.37,0 -9.527,-1.017 -12.47,-3.05 z m -4.551,-74.6100002 V 72.049071 c -3.016,-2.193 -5.112,-6.024 -6.291,-11.491 v -49.598 c 0.93,-4.8740002 3.027,-8.2740002 6.29,-10.2000002 z m 34.044,0 c 3.264,1.927 5.361,5.327 6.291,10.2000002 v 49.599 c -1.179,5.467 -3.275,9.298 -6.29,11.492 V 0.7600708 Z m -45.28,16.8950002 v 32.652 c -2.12793,-1.450319 -4.27071,-2.878728 -6.428,-4.285 v -17.827 c 0,-4.968 2.142,-8.48 6.428,-10.54 z m 56.516,0 c 4.286,2.06 6.428,5.572 6.428,10.54 v 17.827 c -2.15729,1.406272 -4.30007,2.834681 -6.428,4.285 z m -45.279,-26.2210002 v 4.285 c -6.605,2.95 -10.35,8.284 -11.236,16.0010002 -7.36,3.886 -11.032,8.946 -11.012,15.178 l 0.004,0.33 v 16.65 c -11.44,-6.328 -21.927,-13.22 -31.458,-20.677 l -1.055,-0.831 V 9.0160708 c 13.98,-9.288 32.232,-15.15 54.757,-17.584 z m 34.044,0 c 22.525,2.434 40.777,8.296 54.757,17.584 V 22.369071 l -1.055,0.83 c -9.531,7.458 -20.018,14.35 -31.458,20.677 v -16.65 l 0.004,-0.329 c 0.02,-6.232 -3.651,-11.292 -11.012,-15.178 -0.886,-7.7170002 -4.631,-13.0500002 -11.236,-16.0000002 v -4.287 z"
       fill="#000000"
       fill-rule="nonzero"
       id="path2-2-9"
       sodipodi:nodetypes="ccsccsccsccccccccccccccccccccccsccccccccccccccccccccccscccccccccccccccccsccsccccccccccccccccccccccccc"
       style="fill:url(#linearGradient2439);fill-opacity:1" />
    <path
       style="fill:#fffffd;fill-opacity:1"
       d="m -416.78646,113.25107 c -2.68,-2.968 -4.636,-4.98 -5.868,-6.033 l -0.144,-0.128 -0.293,-0.255 c -2.513,-2.157 -5.614,-4.004 -12.68,-4.004 -6.647,0 -15.289,-0.32 -18.353,-1.251 -6.371,-2.102003 -9.806,-7.810003 -10.306,-17.124999 6.615,3.28 13.952,5.429996 22.012,6.447996 2.885,0.265 2.669,-2.219996 0.334,-2.796996 -12.849,-3.644 -21.084,-6.873 -24.707,-9.687 -6.116,-4.55 -8.48,-12.63 -7.092,-24.24 9.317,7.32 17.115,12.293 23.393,14.916 4.7,2.224 5.395,-1.492 0,-4.293 -16,-9.073 -25.185,-16.86 -27.556,-23.36 -2.371,-6.503 -2.676,-12.998 -0.916,-19.486 16.045,12.99 31.111,23.143 45.195,30.46 2.59,1.363 4.204,2.55 4.838,3.563 0.861,1.573 0.907,3.812 0.907,5.963 0,10.108 12.896,21.138 28.258,21.138 l 0.46,-0.003 c 15.158,-0.217 27.798,-11.128 27.798,-21.135 0,-2.151 0.046,-4.39 0.907,-5.963 0.634,-1.012 2.247,-2.2 4.838,-3.563 14.085,-7.317 29.15,-17.47 45.196,-30.46 1.76,6.49 1.454,12.984 -0.917,19.485 -2.371,6.501 -11.557,14.288 -27.556,23.361 -5.395,2.801 -4.7,6.517 0,4.293 6.278,-2.623 14.076,-7.595 23.393,-14.917 1.388,11.611 -0.976,19.691 -7.092,24.241 -3.623,2.814 -11.858,6.043 -24.707,9.687 -2.335,0.577 -2.551,3.061996 0.334,2.796996 8.06,-1.019 15.397,-3.167996 22.012,-6.447996 -0.5,9.314996 -3.935,15.022996 -10.306,17.124999 -2.023,0.615 -6.474,0.963 -11.179,1.129 l -0.857,0.028 c -2.15,0.065 -4.323,0.094 -6.317,0.094 -7.482,0 -10.518,2.07 -13.117,4.387 -1.232,1.054 -3.187,3.065 -5.868,6.033 -0.95,-9.386 -6.623,-14.418003 -17.022,-15.098003 -10.399,0.68 -16.073,5.712003 -17.022,15.098003 z"
       id="path1447-7" />
  </g>
  <g
     id="g2533"
     transform="translate(834.5823,16.778642)"
     inkscape:export-filename="D:\git\Mtgjson2Familiar\symbols\NCC_U.png"
     inkscape:export-xdpi="32"
     inkscape:export-ydpi="32">
    <path
       d="m -582.1456,187.22936 -0.283,-0.245 v -64.572 c 0,-8.492 4.248,-13.063 12.743,-13.712 l 0.347,0.029 c 8.264,0.746 12.396,5.307 12.396,13.683 v 64.572 l -0.283,0.245 c -3.144,2.661 -7.297,3.992 -12.46,3.992 -5.163,0 -9.316,-1.33 -12.46,-3.992 z m -10.854,-66.853 c 2.097,2.226 4.194,4.74 6.29,7.543 v 53.78 c -2.3,-0.26 -4.396,-1.302 -6.29,-3.127 z m 46.626,0 v 58.196 c -1.894,1.825 -3.99,2.867 -6.29,3.127 v -53.78 c 2.096,-2.803 4.193,-5.317 6.29,-7.543 z m -58,-6.002 c 2.143,0 4.286,0.667 6.43,2.003 v 57.692 c -2.51,-0.993 -4.652,-2.617 -6.43,-4.872 z m 69.373,0 v 54.823 c -1.777,2.255 -3.92,3.879 -6.428,4.872 v -57.692 c 2.143,-1.336 4.286,-2.003 6.428,-2.003 z m -97.99,-6.146 c 1.819,2.845 3.957,4.473 6.415,4.884 2.458,0.411 8.295,0.832 17.51,1.262 v 47.744 c -15.636,-13.513 -26.137,-30.018 -31.503,-49.516 3.071,-0.136 5.598,-1.594 7.579,-4.374 z m 126.607,0 c 1.981,2.78 4.508,4.238 7.579,4.374 -5.366,19.498 -15.867,36.003 -31.504,49.516 v -47.744 c 9.216,-0.43 15.053,-0.85 17.511,-1.262 2.458,-0.41 4.596,-2.039 6.414,-4.884 z m -80.325,11.283 c -2.68,-2.968 -4.636,-4.98 -5.868,-6.033 l -0.144,-0.128 -0.293,-0.255 c -2.513,-2.157 -5.614,-4.004 -12.68,-4.004 -6.647,0 -15.289,-0.32 -18.353,-1.251 -6.371,-2.102 -9.806,-7.81 -10.306,-17.125002 6.615,3.28 13.952,5.43 22.012,6.448 2.885,0.265 2.669,-2.22 0.334,-2.797 -12.849,-3.644 -21.084,-6.873 -24.707,-9.687 -6.116,-4.55 -8.48,-12.63 -7.092,-24.24 9.317,7.32 17.115,12.293 23.393,14.916 4.7,2.224 5.395,-1.492 0,-4.293 -16,-9.073 -25.185,-16.86 -27.556,-23.36 -2.371,-6.503 -2.676,-12.998 -0.916,-19.486 16.045,12.99 31.111,23.143 45.195,30.46 2.59,1.363 4.204,2.55 4.838,3.563 0.861,1.573 0.907,3.812 0.907,5.963 0,10.108 12.896,21.138 28.258,21.138 l 0.46,-0.003 c 15.158,-0.217 27.798,-11.128 27.798,-21.135 0,-2.151 0.046,-4.39 0.907,-5.963 0.634,-1.012 2.247,-2.2 4.838,-3.563 14.085,-7.317 29.15,-17.47 45.196,-30.46 1.76,6.49 1.454,12.984 -0.917,19.485 -2.371,6.501 -11.557,14.288 -27.556,23.361 -5.395,2.801 -4.7,6.517 0,4.293 6.278,-2.623 14.076,-7.595 23.393,-14.917 1.388,11.611 -0.976,19.691 -7.092,24.241 -3.623,2.814 -11.858,6.043 -24.707,9.687 -2.335,0.577 -2.551,3.062 0.334,2.797 8.06,-1.019 15.397,-3.168 22.012,-6.448 -0.5,9.315002 -3.935,15.023002 -10.306,17.125002 -2.023,0.615 -6.474,0.963 -11.179,1.129 l -0.857,0.028 c -2.15,0.065 -4.323,0.094 -6.317,0.094 -7.482,0 -10.518,2.07 -13.117,4.387 -1.232,1.054 -3.187,3.065 -5.868,6.033 -0.95,-9.386 -6.623,-14.418 -17.022,-15.098 -10.399,0.68 -16.073,5.712 -17.022,15.098 z m 4.551,-37.882002 -0.272,-0.194 v -85.997 c 2.953,-2.716 6.898,-4.12 11.835,-4.213 l 0.452,-0.004 0.457,0.002 0.457,-0.002 0.452,0.004 c 4.937,0.093 8.882,1.497 11.834,4.213 v 85.997 l -0.272,0.194 c -2.944,2.033 -7.1,3.05 -12.471,3.05 -5.37,0 -9.527,-1.017 -12.47,-3.05 z m -4.551,-74.61 v 71.29 c -3.016,-2.193 -5.112,-6.024 -6.291,-11.491 v -49.598 c 0.93,-4.874 3.027,-8.274 6.29,-10.2 z m 34.044,0 c 3.264,1.927 5.361,5.327 6.291,10.2 v 49.599 c -1.179,5.467 -3.275,9.298 -6.29,11.492 v -71.29 z m -45.28,16.895 v 32.652 a 375.803,375.803 0 0 0 -6.428,-4.285 v -17.827 c 0,-4.968 2.142,-8.48 6.428,-10.54 z m 56.516,0 c 4.286,2.06 6.428,5.572 6.428,10.54 v 17.827 a 375.803,375.803 0 0 0 -6.428,4.285 z m -45.279,-26.221 v 4.285 c -6.605,2.95 -10.35,8.284 -11.236,16.001 -7.36,3.886 -11.032,8.946 -11.012,15.178 l 0.004,0.33 v 16.65 c -11.44,-6.328 -21.927,-13.22 -31.458,-20.677 l -1.055,-0.831 v -13.353 c 13.98,-9.288 32.232,-15.15000004 54.757,-17.584 z m 34.044,0 c 22.525,2.43399996 40.777,8.296 54.757,17.584 v 13.352 l -1.055,0.83 c -9.531,7.458 -20.018,14.35 -31.458,20.677 v -16.65 l 0.004,-0.329 c 0.02,-6.232 -3.651,-11.292 -11.012,-15.178 -0.886,-7.717 -4.631,-13.05 -11.236,-16 v -4.287 z"
       fill="#000000"
       fill-rule="nonzero"
       id="path2-0-2"
       style="fill:none;stroke:#000000;stroke-width:16;stroke-linecap:butt;stroke-linejoin:round;stroke-miterlimit:4;stroke-dasharray:none;stroke-opacity:1" />
    <path
       d="m -582.1456,187.22936 -0.283,-0.245 v -64.572 c 0,-8.492 4.248,-13.063 12.743,-13.712 l 0.347,0.029 c 8.264,0.746 12.396,5.307 12.396,13.683 v 64.572 l -0.283,0.245 c -3.144,2.661 -7.297,3.992 -12.46,3.992 -5.163,0 -9.316,-1.33 -12.46,-3.992 z m -10.854,-66.853 c 2.097,2.226 4.194,4.74 6.29,7.543 v 53.78 c -2.3,-0.26 -4.396,-1.302 -6.29,-3.127 z m 46.626,0 v 58.196 c -1.894,1.825 -3.99,2.867 -6.29,3.127 v -53.78 c 2.096,-2.803 4.193,-5.317 6.29,-7.543 z m -58,-6.002 c 2.143,0 4.286,0.667 6.43,2.003 v 57.692 c -2.51,-0.993 -4.652,-2.617 -6.43,-4.872 z m 69.373,0 v 54.823 c -1.777,2.255 -3.92,3.879 -6.428,4.872 v -57.692 c 2.143,-1.336 4.286,-2.003 6.428,-2.003 z m -97.99,-6.146 c 1.819,2.845 3.957,4.473 6.415,4.884 2.458,0.411 8.295,0.832 17.51,1.262 v 47.744 c -15.636,-13.513 -26.137,-30.018 -31.503,-49.516 3.071,-0.136 5.598,-1.594 7.579,-4.374 z m 126.607,0 c 1.981,2.78 4.508,4.238 7.579,4.374 -5.366,19.498 -15.867,36.003 -31.504,49.516 v -47.744 c 9.216,-0.43 15.053,-0.85 17.511,-1.262 2.458,-0.41 4.596,-2.039 6.414,-4.884 z m -75.774,-26.599 -0.272,-0.194 v -85.997 c 2.953,-2.716 6.898,-4.12 11.835,-4.213 l 0.452,-0.004 0.457,0.002 0.457,-0.002 0.452,0.004 c 4.937,0.093 8.882,1.497 11.834,4.213 v 85.997 l -0.272,0.194 c -2.944,2.033 -7.1,3.05 -12.471,3.05 -5.37,0 -9.527,-1.017 -12.47,-3.05 z m -4.551,-74.61 v 71.29 c -3.016,-2.193 -5.112,-6.024 -6.291,-11.491 v -49.598 c 0.93,-4.874 3.027,-8.274 6.29,-10.2 z m 34.044,0 c 3.264,1.927 5.361,5.327 6.291,10.2 v 49.599 c -1.179,5.467 -3.275,9.298 -6.29,11.492 v -71.29 z m -45.28,16.895 v 32.652 c -2.12793,-1.450319 -4.27071,-2.878728 -6.428,-4.285 v -17.827 c 0,-4.968 2.142,-8.48 6.428,-10.54 z m 56.516,0 c 4.286,2.06 6.428,5.572 6.428,10.54 v 17.827 c -2.15729,1.406272 -4.30007,2.834681 -6.428,4.285 z m -45.279,-26.221 v 4.285 c -6.605,2.95 -10.35,8.284 -11.236,16.001 -7.36,3.886 -11.032,8.946 -11.012,15.178 l 0.004,0.33 v 16.65 c -11.44,-6.328 -21.927,-13.22 -31.458,-20.677 l -1.055,-0.831 v -13.353 c 13.98,-9.288 32.232,-15.15000004 54.757,-17.584 z m 34.044,0 c 22.525,2.43399996 40.777,8.296 54.757,17.584 v 13.352 l -1.055,0.83 c -9.531,7.458 -20.018,14.35 -31.458,20.677 v -16.65 l 0.004,-0.329 c 0.02,-6.232 -3.651,-11.292 -11.012,-15.178 -0.886,-7.717 -4.631,-13.05 -11.236,-16 v -4.287 z"
       fill="#000000"
       fill-rule="nonzero"
       id="path2-2-8"
       sodipodi:nodetypes="ccsccsccsccccccccccccccccccccccsccccccccccccccccccccccscccccccccccccccccsccsccccccccccccccccccccccccc"
       style="fill:url(#linearGradient2476);fill-opacity:1" />
    <path
       style="fill:#fffffd;fill-opacity:1"
       d="m -586.7086,119.51136 c -2.68,-2.968 -4.636,-4.98 -5.868,-6.033 l -0.144,-0.128 -0.293,-0.255 c -2.513,-2.157 -5.614,-4.004 -12.68,-4.004 -6.647,0 -15.289,-0.32 -18.353,-1.251 -6.371,-2.102 -9.806,-7.81 -10.306,-17.125 6.615,3.28 13.952,5.429996 22.012,6.447996 2.885,0.265 2.669,-2.219996 0.334,-2.796996 -12.849,-3.644 -21.084,-6.873 -24.707,-9.687 -6.116,-4.55 -8.48,-12.63 -7.092,-24.24 9.317,7.32 17.115,12.293 23.393,14.916 4.7,2.224 5.395,-1.492 0,-4.293 -16,-9.073 -25.185,-16.86 -27.556,-23.36 -2.371,-6.503 -2.676,-12.998 -0.916,-19.486 16.045,12.99 31.111,23.143 45.195,30.46 2.59,1.363 4.204,2.55 4.838,3.563 0.861,1.573 0.907,3.812 0.907,5.963 0,10.108 12.896,21.138 28.258,21.138 l 0.46,-0.003 c 15.158,-0.217 27.798,-11.128 27.798,-21.135 0,-2.151 0.046,-4.39 0.907,-5.963 0.634,-1.012 2.247,-2.2 4.838,-3.563 14.085,-7.317 29.15,-17.47 45.196,-30.46 1.76,6.49 1.454,12.984 -0.917,19.485 -2.371,6.501 -11.557,14.288 -27.556,23.361 -5.395,2.801 -4.7,6.517 0,4.293 6.278,-2.623 14.076,-7.595 23.393,-14.917 1.388,11.611 -0.976,19.691 -7.092,24.241 -3.623,2.814 -11.858,6.043 -24.707,9.687 -2.335,0.577 -2.551,3.061996 0.334,2.796996 8.06,-1.019 15.397,-3.167996 22.012,-6.447996 -0.5,9.315 -3.935,15.023 -10.306,17.125 -2.023,0.615 -6.474,0.963 -11.179,1.129 l -0.857,0.028 c -2.15,0.065 -4.323,0.094 -6.317,0.094 -7.482,0 -10.518,2.07 -13.117,4.387 -1.232,1.054 -3.187,3.065 -5.868,6.033 -0.95,-9.386 -6.623,-14.418 -17.022,-15.098 -10.399,0.68 -16.073,5.712 -17.022,15.098 z"
       id="path1447-8" />
  </g>
  <g
     id="g3085"
     inkscape:export-filename="D:\git\Mtgjson2Familiar\symbols\NCC_C.png"
     inkscape:export-xdpi="32"
     inkscape:export-ydpi="32">
    <path
       d="m 75.83938,204.008 -0.283,-0.245 v -64.572 c 0,-8.492 4.248,-13.063 12.743,-13.712 l 0.347,0.029 c 8.264,0.746 12.396,5.307 12.396,13.683 v 64.572 l -0.283,0.245 c -3.144,2.661 -7.297,3.992 -12.46,3.992 -5.163,0 -9.316,-1.33 -12.46,-3.992 z m -10.854,-66.853 c 2.097,2.226 4.194,4.74 6.29,7.543 v 53.78 c -2.3,-0.26 -4.396,-1.302 -6.29,-3.127 z m 46.626,0 v 58.196 c -1.894,1.825 -3.99,2.867 -6.29,3.127 v -53.78 c 2.096,-2.803 4.193,-5.317 6.29,-7.543 z m -58,-6.002 c 2.143,0 4.286,0.667 6.43,2.003 v 57.692 c -2.51,-0.993 -4.652,-2.617 -6.43,-4.872 z m 69.373,0 v 54.823 c -1.777,2.255 -3.92,3.879 -6.428,4.872 v -57.692 c 2.143,-1.336 4.286,-2.003 6.428,-2.003 z m -97.99,-6.146 c 1.819,2.845 3.957,4.473 6.415,4.884 2.458,0.411 8.295,0.832 17.51,1.262 v 47.744 c -15.636,-13.513 -26.137,-30.018 -31.503,-49.516 3.071,-0.136 5.598,-1.594 7.579,-4.374 z m 126.607,0 c 1.981,2.78 4.508,4.238 7.579,4.374 -5.366,19.498 -15.867,36.003 -31.504,49.516 v -47.744 c 9.216,-0.43 15.053,-0.85 17.511,-1.262 2.458,-0.41 4.596,-2.039 6.414,-4.884 z m -80.325,11.283 c -2.68,-2.968 -4.636,-4.98 -5.868,-6.033 l -0.144,-0.128 -0.293,-0.255 c -2.513,-2.157 -5.614,-4.004 -12.68,-4.004 -6.647,0 -15.289,-0.32 -18.353,-1.251 -6.371,-2.102 -9.806,-7.81 -10.306,-17.125 6.615,3.28 13.952,5.43 22.012,6.448 2.885,0.265 2.669,-2.22 0.334,-2.797 -12.849,-3.644 -21.084,-6.873 -24.707,-9.687 -6.116,-4.549998 -8.48,-12.629998 -7.092,-24.239998 9.317,7.32 17.115,12.293 23.393,14.916 4.7,2.224 5.395,-1.492 0,-4.293 -16,-9.073 -25.185,-16.86 -27.556,-23.36 -2.371,-6.503 -2.676,-12.998 -0.916,-19.486 16.045,12.99 31.111,23.143 45.195,30.46 2.59,1.363 4.204,2.55 4.838,3.563 0.861,1.573 0.907,3.812 0.907,5.963 0,10.108 12.896,21.137998 28.258,21.137998 l 0.46,-0.003 c 15.158,-0.217 27.798,-11.127998 27.798,-21.134998 0,-2.151 0.046,-4.39 0.907,-5.963 0.634,-1.012 2.247,-2.2 4.838,-3.563 14.085,-7.317 29.15,-17.47 45.196,-30.46 1.76,6.49 1.454,12.984 -0.917,19.485 -2.371,6.501 -11.557,14.288 -27.556,23.361 -5.395,2.801 -4.7,6.517 0,4.293 6.278,-2.623 14.076,-7.595 23.393,-14.917 1.388,11.611 -0.976,19.691 -7.092,24.240998 -3.623,2.814 -11.858,6.043 -24.707,9.687 -2.335,0.577 -2.551,3.062 0.334,2.797 8.06,-1.019 15.397,-3.168 22.012,-6.448 -0.5,9.315 -3.935,15.023 -10.306,17.125 -2.023,0.615 -6.474,0.963 -11.179,1.129 l -0.857,0.028 c -2.15,0.065 -4.323,0.094 -6.317,0.094 -7.482,0 -10.518,2.07 -13.117,4.387 -1.232,1.054 -3.187,3.065 -5.868,6.033 -0.95,-9.386 -6.623,-14.418 -17.022,-15.098 -10.399,0.68 -16.073,5.712 -17.022,15.098 z m 4.551,-37.881998 -0.272,-0.194 v -85.997 c 2.953,-2.716 6.898,-4.12 11.835,-4.213 l 0.452,-0.004 0.457,0.002 0.457,-0.002 0.452,0.004 c 4.937,0.093 8.882,1.497 11.834,4.213 v 85.997 l -0.272,0.194 c -2.944,2.032998 -7.1,3.049998 -12.471,3.049998 -5.37,0 -9.527,-1.017 -12.47,-3.049998 z m -4.551,-74.61 v 71.29 c -3.016,-2.193 -5.112,-6.024 -6.291,-11.491 v -49.598 c 0.93,-4.874 3.027,-8.274 6.29,-10.2 z m 34.044,0 c 3.264,1.927 5.361,5.327 6.291,10.2 v 49.599 c -1.179,5.467 -3.275,9.298 -6.29,11.492 v -71.29 z m -45.28,16.895 v 32.652 a 375.803,375.803 0 0 0 -6.428,-4.285 v -17.827 c 0,-4.968 2.142,-8.48 6.428,-10.54 z m 56.516,0 c 4.286,2.06 6.428,5.572 6.428,10.54 v 17.827 a 375.803,375.803 0 0 0 -6.428,4.285 z m -45.279,-26.221 v 4.285 c -6.605,2.95 -10.35,8.284 -11.236,16.001 -7.36,3.886 -11.032,8.946 -11.012,15.178 l 0.004,0.33 v 16.65 c -11.44,-6.328 -21.927,-13.22 -31.458,-20.677 l -1.055,-0.831 v -13.353 c 13.98,-9.288 32.232,-15.15 54.757,-17.584 z m 34.044,0 c 22.525,2.434 40.777,8.296 54.757,17.584 v 13.352 l -1.055,0.83 c -9.531,7.458 -20.018,14.35 -31.458,20.677 v -16.65 l 0.004,-0.329 c 0.02,-6.232 -3.651,-11.292 -11.012,-15.178 -0.886,-7.717 -4.631,-13.05 -11.236,-16 v -4.287 z"
       fill="#000000"
       fill-rule="nonzero"
       id="path2-0-0"
       style="fill:none;stroke:#ffffff;stroke-width:16;stroke-linecap:butt;stroke-linejoin:round;stroke-miterlimit:4;stroke-dasharray:none;stroke-opacity:1" />
    <path
       d="m 75.83938,204.008 -0.283,-0.245 v -64.572 c 0,-8.492 4.248,-13.063 12.743,-13.712 l 0.347,0.029 c 8.264,0.746 12.396,5.307 12.396,13.683 v 64.572 l -0.283,0.245 c -3.144,2.661 -7.297,3.992 -12.46,3.992 -5.163,0 -9.316,-1.33 -12.46,-3.992 z m -10.854,-66.853 c 2.097,2.226 4.194,4.74 6.29,7.543 v 53.78 c -2.3,-0.26 -4.396,-1.302 -6.29,-3.127 z m 46.626,0 v 58.196 c -1.894,1.825 -3.99,2.867 -6.29,3.127 v -53.78 c 2.096,-2.803 4.193,-5.317 6.29,-7.543 z m -58,-6.002 c 2.143,0 4.286,0.667 6.43,2.003 v 57.692 c -2.51,-0.993 -4.652,-2.617 -6.43,-4.872 z m 69.373,0 v 54.823 c -1.777,2.255 -3.92,3.879 -6.428,4.872 v -57.692 c 2.143,-1.336 4.286,-2.003 6.428,-2.003 z m -97.99,-6.146 c 1.819,2.845 3.957,4.473 6.415,4.884 2.458,0.411 8.295,0.832 17.51,1.262 v 47.744 c -15.636,-13.513 -26.137,-30.018 -31.503,-49.516 3.071,-0.136 5.598,-1.594 7.579,-4.374 z m 126.607,0 c 1.981,2.78 4.508,4.238 7.579,4.374 -5.366,19.498 -15.867,36.003 -31.504,49.516 v -47.744 c 9.216,-0.43 15.053,-0.85 17.511,-1.262 2.458,-0.41 4.596,-2.039 6.414,-4.884 z m -75.774,-26.598996 -0.272,-0.194 v -85.997 c 2.953,-2.716 6.898,-4.12 11.835,-4.213 l 0.452,-0.004 0.457,0.002 0.457,-0.002 0.452,0.004 c 4.937,0.093 8.882,1.497 11.834,4.213 v 85.997 l -0.272,0.194 c -2.944,2.032996 -7.1,3.049996 -12.471,3.049996 -5.37,0 -9.527,-1.017 -12.47,-3.049996 z m -4.551,-74.61 v 71.29 c -3.016,-2.193 -5.112,-6.024 -6.291,-11.491 v -49.598 c 0.93,-4.874 3.027,-8.274 6.29,-10.2 z m 34.044,0 c 3.264,1.927 5.361,5.327 6.291,10.2 v 49.599 c -1.179,5.467 -3.275,9.298 -6.29,11.492 v -71.29 z m -45.28,16.895 v 32.652 c -2.12793,-1.450319 -4.27071,-2.878728 -6.428,-4.285 v -17.827 c 0,-4.968 2.142,-8.48 6.428,-10.54 z m 56.516,0 c 4.286,2.06 6.428,5.572 6.428,10.54 v 17.827 c -2.15729,1.406272 -4.30007,2.834681 -6.428,4.285 z m -45.279,-26.221 v 4.285 c -6.605,2.95 -10.35,8.284 -11.236,16.001 -7.36,3.886 -11.032,8.946 -11.012,15.178 l 0.004,0.33 v 16.65 c -11.44,-6.328 -21.927,-13.22 -31.458,-20.677 l -1.055,-0.831 v -13.353 c 13.98,-9.288 32.232,-15.15 54.757,-17.584 z m 34.044,0 c 22.525,2.434 40.777,8.296 54.757,17.584 v 13.352 l -1.055,0.83 c -9.531,7.458 -20.018,14.35 -31.458,20.677 v -16.65 l 0.004,-0.329 c 0.02,-6.232 -3.651,-11.292 -11.012,-15.178 -0.886,-7.717 -4.631,-13.05 -11.236,-16 v -4.287 z"
       fill="#000000"
       fill-rule="nonzero"
       id="path2-2-0"
       sodipodi:nodetypes="ccsccsccsccccccccccccccccccccccsccccccccccccccccccccccscccccccccccccccccsccsccccccccccccccccccccccccc"
       style="fill:#000000;fill-opacity:1" />
    <path
       style="fill:#000000;fill-opacity:1"
       d="m 71.27638,136.29 c -2.68,-2.968 -4.636,-4.98 -5.868,-6.033 l -0.144,-0.128 -0.293,-0.255 c -2.513,-2.157 -5.614,-4.004 -12.68,-4.004 -6.647,0 -15.289,-0.32 -18.353,-1.251 -6.371,-2.102 -9.806,-7.81 -10.306,-17.125 6.615,3.28 13.952,5.43 22.012,6.448 2.885,0.265 2.669,-2.22 0.334,-2.797 -12.849,-3.644 -21.084,-6.873 -24.707,-9.687 -6.116,-4.549996 -8.48,-12.629996 -7.092,-24.239996 9.317,7.32 17.115,12.293 23.393,14.916 4.7,2.224 5.395,-1.492 0,-4.293 -16,-9.073 -25.185,-16.86 -27.556,-23.36 -2.371,-6.503 -2.676,-12.998 -0.916,-19.486 16.045,12.99 31.111,23.143 45.195,30.46 2.59,1.363 4.204,2.55 4.838,3.563 0.861,1.573 0.907,3.812 0.907,5.963 0,10.108 12.896,21.137996 28.258,21.137996 l 0.46,-0.003 c 15.158,-0.217 27.798,-11.127996 27.798,-21.134996 0,-2.151 0.046,-4.39 0.907,-5.963 0.634,-1.012 2.247,-2.2 4.838,-3.563 14.085,-7.317 29.15,-17.47 45.196,-30.46 1.76,6.49 1.454,12.984 -0.917,19.485 -2.371,6.501 -11.557,14.288 -27.556,23.361 -5.395,2.801 -4.7,6.517 0,4.293 6.278,-2.623 14.076,-7.595 23.393,-14.917 1.388,11.611 -0.976,19.691 -7.092,24.240996 -3.623,2.814 -11.858,6.043 -24.707,9.687 -2.335,0.577 -2.551,3.062 0.334,2.797 8.06,-1.019 15.397,-3.168 22.012,-6.448 -0.5,9.315 -3.935,15.023 -10.306,17.125 -2.023,0.615 -6.474,0.963 -11.179,1.129 l -0.857,0.028 c -2.15,0.065 -4.323,0.094 -6.317,0.094 -7.482,0 -10.518,2.07 -13.117,4.387 -1.232,1.054 -3.187,3.065 -5.868,6.033 -0.95,-9.386 -6.623,-14.418 -17.022,-15.098 -10.399,0.68 -16.073,5.712 -17.022,15.098 z"
       id="path1447-5" />
  </g>
</svg>
