<?xml version="1.0" encoding="UTF-8" standalone="no"?>
<svg
   class="set-header-symbol"
   focusable="false"
   aria-hidden="true"
   viewBox="0 0 694.69073 124.19363"
   version="1.1"
   id="svg4"
   sodipodi:docname="NEC.svg"
   inkscape:version="1.1.1 (3bf5ae0d25, 2021-09-20)"
   width="694.69073"
   height="124.19363"
   xmlns:inkscape="http://www.inkscape.org/namespaces/inkscape"
   xmlns:sodipodi="http://sodipodi.sourceforge.net/DTD/sodipodi-0.dtd"
   xmlns:xlink="http://www.w3.org/1999/xlink"
   xmlns="http://www.w3.org/2000/svg"
   xmlns:svg="http://www.w3.org/2000/svg">
  <defs
     id="defs8">
    <linearGradient
       inkscape:collect="always"
       id="linearGradient1067">
      <stop
         style="stop-color:#b73326;stop-opacity:1"
         offset="0"
         id="stop1061" />
      <stop
         id="stop1063"
         offset="0.49997669"
         style="stop-color:#f49226;stop-opacity:1" />
      <stop
         style="stop-color:#b73326;stop-opacity:1"
         offset="1"
         id="stop1065" />
    </linearGradient>
    <linearGradient
       inkscape:collect="always"
       id="linearGradient1083">
      <stop
         style="stop-color:#86713f;stop-opacity:1"
         offset="0"
         id="stop1077" />
      <stop
         id="stop1079"
         offset="0.5"
         style="stop-color:#dfc27f;stop-opacity:1" />
      <stop
         style="stop-color:#86713f;stop-opacity:1"
         offset="1"
         id="stop1081" />
    </linearGradient>
    <linearGradient
       inkscape:collect="always"
       id="linearGradient1099">
      <stop
         style="stop-color:#4c6d7a;stop-opacity:1"
         offset="0"
         id="stop1093" />
      <stop
         id="stop1095"
         offset="0.5"
         style="stop-color:#bae2ef;stop-opacity:1" />
      <stop
         style="stop-color:#4c6d7a;stop-opacity:1"
         offset="1"
         id="stop1097" />
    </linearGradient>
    <linearGradient
       inkscape:collect="always"
       xlink:href="#linearGradient1067"
       id="linearGradient8776"
       x1="906.50214"
       y1="56.973999"
       x2="1068.915"
       y2="56.973999"
       gradientUnits="userSpaceOnUse" />
    <linearGradient
       inkscape:collect="always"
       xlink:href="#linearGradient1083"
       id="linearGradient8786"
       x1="732.82947"
       y1="56.973999"
       x2="895.24243"
       y2="56.973999"
       gradientUnits="userSpaceOnUse" />
    <linearGradient
       inkscape:collect="always"
       xlink:href="#linearGradient1099"
       id="linearGradient8794"
       x1="559.15674"
       y1="56.973999"
       x2="721.56976"
       y2="56.973999"
       gradientUnits="userSpaceOnUse" />
  </defs>
  <sodipodi:namedview
     id="namedview6"
     pagecolor="#ffffff"
     bordercolor="#666666"
     borderopacity="1.0"
     inkscape:pageshadow="2"
     inkscape:pageopacity="0.0"
     inkscape:pagecheckerboard="0"
     showgrid="false"
     inkscape:zoom="1"
     inkscape:cx="357"
     inkscape:cy="-1.5"
     inkscape:window-width="1271"
     inkscape:window-height="969"
     inkscape:window-x="323"
     inkscape:window-y="192"
     inkscape:window-maximized="0"
     inkscape:current-layer="svg4"
     fit-margin-top="0"
     fit-margin-left="0"
     fit-margin-right="0"
     fit-margin-bottom="0" />
  <g
     id="g8878"
     transform="translate(-379.85412,3.7050003)"
     inkscape:export-filename="C:\Users\AFeinstein\Desktop\set-syms\NEC_U.png"
     inkscape:export-xdpi="55.655025"
     inkscape:export-ydpi="55.655025">
    <path
       style="fill:#000000;fill-opacity:1;stroke:#000000;stroke-width:8;stroke-linecap:butt;stroke-linejoin:miter;stroke-miterlimit:4;stroke-dasharray:none;stroke-opacity:1"
       d="m 640.36326,115.83329 38.63672,-23.003907 16.90234,-58.296883 6.375,-9.1875 10.56244,0.003 8.73,-25.053 h -40.715 l -3.68681,10.423 H 603.55467 L 599.87176,0.295 h -40.715 l 8.731,25.053 10.56144,0.001 6.35156,9.15234 16.92188,58.324223 z"
       id="path8689"
       sodipodi:nodetypes="cccccccccccccccc" />
    <path
       d="m 610.73776,77.091 25.935,36.562 -33.743,-20.098 z m 59.251,0 7.808,16.464 -33.742,20.098 z m -60.34,-48.88 27.024,81.132 -56.224,-81.131 h 29.2 z m 29.337,-11.907 v 93.04 l -17.92,-55.341 17.92,-37.7 z m 61.291,11.909 -56.223,81.13 27.023,-81.13 z m -58.537,-11.91 17.92,37.701 -17.92,55.34 v -93.04 z m -54.5,26.603 21.476,31.204 -7.603,16.595 -13.87,-47.799 z m 106.245,0 -13.87,47.799 -7.604,-16.595 z m -55,-32.187 -18.683,40.077 -13.125,-40.078 h 31.81 z m 35.564,0 -13.123,40.077 -18.685,-40.078 h 31.81 z m -74.177,-10.424 8.843,25.053 h -40.827 l -8.731,-25.053 z m 121.698,0 -8.73,25.053 h -40.828 l 8.843,-25.053 z"
       fill="#000000"
       fill-rule="evenodd"
       id="path2"
       style="fill:url(#linearGradient8794);fill-opacity:1" />
  </g>
  <g
     id="g8882"
     transform="translate(-379.85412,3.7050003)"
     inkscape:export-filename="C:\Users\AFeinstein\Desktop\set-syms\NEC_R.png"
     inkscape:export-xdpi="55.655025"
     inkscape:export-ydpi="55.655025">
    <path
       style="fill:#000000;fill-opacity:1;stroke:#000000;stroke-width:8;stroke-linecap:butt;stroke-linejoin:miter;stroke-miterlimit:4;stroke-dasharray:none;stroke-opacity:1"
       d="m 814.03595,115.83329 38.63672,-23.003907 16.90234,-58.296883 6.375,-9.1875 10.56244,0.003 8.73,-25.053 h -40.715 l -3.68681,10.423 H 777.22736 L 773.54445,0.295 h -40.715 l 8.731,25.053 10.56144,0.001 6.35156,9.15234 16.92188,58.324223 z"
       id="path8689-1"
       sodipodi:nodetypes="cccccccccccccccc" />
    <path
       d="m 784.41045,77.091 25.935,36.562 -33.743,-20.098 z m 59.251,0 7.808,16.464 -33.742,20.098 z m -60.34,-48.88 27.024,81.132 -56.224,-81.131 h 29.2 z m 29.337,-11.907 v 93.04 l -17.92,-55.341 17.92,-37.7 z m 61.291,11.909 -56.223,81.13 27.023,-81.13 z m -58.537,-11.91 17.92,37.701 -17.92,55.34 v -93.04 z m -54.5,26.603 21.476,31.204 -7.603,16.595 -13.87,-47.799 z m 106.245,0 -13.87,47.799 -7.604,-16.595 z m -55,-32.187 -18.683,40.077 -13.125,-40.078 h 31.81 z m 35.564,0 -13.123,40.077 -18.685,-40.078 h 31.81 z m -74.177,-10.424 8.843,25.053 h -40.827 l -8.731,-25.053 z m 121.698,0 -8.73,25.053 h -40.828 l 8.843,-25.053 z"
       fill="#000000"
       fill-rule="evenodd"
       id="path2-3"
       style="fill:url(#linearGradient8786);fill-opacity:1" />
  </g>
  <g
     id="g8886"
     transform="translate(-379.85412,3.7050003)"
     inkscape:export-filename="C:\Users\AFeinstein\Desktop\set-syms\NEC_M.png"
     inkscape:export-xdpi="55.655025"
     inkscape:export-ydpi="55.655025">
    <path
       style="fill:#000000;fill-opacity:1;stroke:#000000;stroke-width:8;stroke-linecap:butt;stroke-linejoin:miter;stroke-miterlimit:4;stroke-dasharray:none;stroke-opacity:1"
       d="m 987.70864,115.83329 38.63676,-23.003907 16.9023,-58.296883 6.375,-9.1875 10.5624,0.003 8.73,-25.053 h -40.715 l -3.6868,10.423 H 950.90005 L 947.21714,0.295 h -40.715 l 8.731,25.053 10.56144,0.001 6.35156,9.15234 16.92188,58.324223 z"
       id="path8689-63"
       sodipodi:nodetypes="cccccccccccccccc" />
    <path
       d="m 958.08314,77.091 25.935,36.562 -33.743,-20.098 z m 59.25096,0 7.808,16.464 -33.74196,20.098 z m -60.33996,-48.88 27.024,81.132 -56.224,-81.131 h 29.2 z m 29.337,-11.907 v 93.04 l -17.92,-55.341 17.92,-37.7 z m 61.29096,11.909 -56.22296,81.13 27.02296,-81.13 z m -58.53696,-11.91 17.91996,37.701 -17.91996,55.34 v -93.04 z m -54.5,26.603 21.476,31.204 -7.603,16.595 -13.87,-47.799 z m 106.24496,0 -13.87,47.799 -7.604,-16.595 z m -54.99996,-32.187 -18.683,40.077 -13.125,-40.078 h 31.81 z m 35.56396,0 -13.123,40.077 -18.68496,-40.078 h 31.80996 z m -74.17696,-10.424 8.843,25.053 h -40.827 l -8.731,-25.053 z m 121.69796,0 -8.73,25.053 h -40.828 l 8.843,-25.053 z"
       fill="#000000"
       fill-rule="evenodd"
       id="path2-7"
       style="fill:url(#linearGradient8776);fill-opacity:1" />
  </g>
  <g
     id="g1294"
     transform="translate(-379.85412,3.7050003)"
     inkscape:export-filename="C:\Users\AFeinstein\Desktop\set-syms\NEC_C.png"
     inkscape:export-xdpi="55.655025"
     inkscape:export-ydpi="55.655025">
    <path
       style="fill:#ffffff;fill-opacity:1;stroke:#ffffff;stroke-width:8;stroke-linecap:butt;stroke-linejoin:miter;stroke-miterlimit:4;stroke-dasharray:none;stroke-opacity:1"
       d="m 466.69057,115.83329 38.63672,-23.003908 16.90234,-58.296883 6.375,-9.1875 10.56244,0.003 8.73,-25.05299933 h -40.715 L 503.49526,10.717999 H 429.88198 L 426.19907,0.29499967 h -40.715 l 8.731,25.05299933 10.56144,10e-4 6.35156,9.15234 16.92188,58.324223 z"
       id="path8689-6"
       sodipodi:nodetypes="cccccccccccccccc" />
    <path
       d="m 437.06507,77.090999 25.935,36.562001 -33.743,-20.098001 z m 59.251,0 7.808,16.464 -33.742,20.098001 z m -60.34,-48.88 27.024,81.132001 -56.224,-81.131001 h 29.2 z m 29.337,-11.907 V 109.344 l -17.92,-55.341001 17.92,-37.7 z m 61.291,11.909 -56.223,81.130001 27.023,-81.130001 z m -58.537,-11.91 17.92,37.701 -17.92,55.340001 V 16.303999 Z m -54.5,26.603 21.476,31.204 -7.603,16.595 -13.87,-47.799 z m 106.245,0 -13.87,47.799 -7.604,-16.595 z m -55,-32.187 -18.683,40.077 -13.125,-40.078 h 31.81 z m 35.564,0 -13.123,40.077 -18.685,-40.078 h 31.81 z m -74.177,-10.42399933 8.843,25.05299933 h -40.827 l -8.731,-25.05299933 z m 121.698,0 -8.73,25.05299933 h -40.828 l 8.843,-25.05299933 z"
       fill="#000000"
       fill-rule="evenodd"
       id="path2-1" />
  </g>
</svg>
