<?xml version="1.0" encoding="UTF-8" standalone="no"?>
<!-- Generated by IcoMoon.io -->

<svg
   version="1.1"
   width="139.78279"
   height="16.700916"
   viewBox="0 0 139.78279 16.700916"
   id="svg6"
   sodipodi:docname="neo.svg"
   inkscape:version="1.1.1 (3bf5ae0d25, 2021-09-20)"
   xmlns:inkscape="http://www.inkscape.org/namespaces/inkscape"
   xmlns:sodipodi="http://sodipodi.sourceforge.net/DTD/sodipodi-0.dtd"
   xmlns:xlink="http://www.w3.org/1999/xlink"
   xmlns="http://www.w3.org/2000/svg"
   xmlns:svg="http://www.w3.org/2000/svg"
   xmlns:rdf="http://www.w3.org/1999/02/22-rdf-syntax-ns#"
   xmlns:cc="http://creativecommons.org/ns#"
   xmlns:dc="http://purl.org/dc/elements/1.1/">
  <defs
     id="defs10">
    <linearGradient
       inkscape:collect="always"
       id="linearGradient1099">
      <stop
         style="stop-color:#4c6d7a;stop-opacity:1"
         offset="0"
         id="stop1093" />
      <stop
         id="stop1095"
         offset="0.5"
         style="stop-color:#bae2ef;stop-opacity:1" />
      <stop
         style="stop-color:#4c6d7a;stop-opacity:1"
         offset="1"
         id="stop1097" />
    </linearGradient>
    <linearGradient
       inkscape:collect="always"
       id="linearGradient1083">
      <stop
         style="stop-color:#86713f;stop-opacity:1"
         offset="0"
         id="stop1077" />
      <stop
         id="stop1079"
         offset="0.5"
         style="stop-color:#dfc27f;stop-opacity:1" />
      <stop
         style="stop-color:#86713f;stop-opacity:1"
         offset="1"
         id="stop1081" />
    </linearGradient>
    <linearGradient
       inkscape:collect="always"
       id="linearGradient1067">
      <stop
         style="stop-color:#b73326;stop-opacity:1"
         offset="0"
         id="stop1061" />
      <stop
         id="stop1063"
         offset="0.49997669"
         style="stop-color:#f49226;stop-opacity:1" />
      <stop
         style="stop-color:#b73326;stop-opacity:1"
         offset="1"
         id="stop1065" />
    </linearGradient>
    <linearGradient
       inkscape:collect="always"
       xlink:href="#linearGradient1099"
       id="linearGradient3456"
       x1="37.171234"
       y1="66.627762"
       x2="69.227234"
       y2="66.627762"
       gradientUnits="userSpaceOnUse" />
    <linearGradient
       inkscape:collect="always"
       xlink:href="#linearGradient1083"
       id="linearGradient3464"
       x1="72.116936"
       y1="66.627762"
       x2="104.17293"
       y2="66.627762"
       gradientUnits="userSpaceOnUse" />
    <linearGradient
       inkscape:collect="always"
       xlink:href="#linearGradient1067"
       id="linearGradient3472"
       x1="107.06263"
       y1="66.627762"
       x2="139.11864"
       y2="66.627762"
       gradientUnits="userSpaceOnUse" />
  </defs>
  <sodipodi:namedview
     id="namedview8"
     pagecolor="#ffffff"
     bordercolor="#666666"
     borderopacity="1.0"
     inkscape:pageshadow="2"
     inkscape:pageopacity="0.0"
     inkscape:pagecheckerboard="0"
     showgrid="false"
     inkscape:zoom="1"
     inkscape:cx="69"
     inkscape:cy="131"
     inkscape:window-width="975"
     inkscape:window-height="1168"
     inkscape:window-x="936"
     inkscape:window-y="0"
     inkscape:window-maximized="0"
     inkscape:current-layer="svg6"
     fit-margin-top="0"
     fit-margin-left="0"
     fit-margin-right="0"
     fit-margin-bottom="0" />
  <title
     id="title2">neo</title>
  <g
     id="g3858"
     transform="translate(-0.7771502,-58.294356)"
     inkscape:export-filename="C:\Users\AFeinstein\Desktop\set-syms\NEO_U.png"
     inkscape:export-xdpi="413.87"
     inkscape:export-ydpi="413.87">
    <path
       fill="#444444"
       d="m 56.242235,59.915958 c 1.033,-0.747 2.338,-1.115 3.609,-1.001 1.674,0.124 3.258,1.091 4.131,2.525 0.569,0.908 0.854,1.99 0.816,3.059 -0.05,1.201 -0.502,2.386 -1.289,3.298 -1.191,-1.192 -2.383,-2.383 -3.575,-3.575 -0.585,0.561 -1.169,1.125 -1.748,1.694 -1.251,-1.243 -2.491,-2.496 -3.743,-3.737 0.361,-0.908 1.011,-1.691 1.798,-2.263 z m -19.071,14.445 h 2.543 l 5.122,-5.11 3.331,3.33 1.277,-1.278 -1.666,-1.695 1.668,-1.644 -1.661,-1.703 3.721,-3.683 2.065,1.957 -1.773,1.814 1.666,1.665 -1.667,1.671 1.274,1.276 1.767,-1.709 2.063,2.057 -1.633,1.623 1.357,1.428 2.573,-0.001 -1.399,-1.498 1.625,-1.623 -1.631,-1.631 2.075,-2.076 3.764,3.764 -1.624,1.623 1.241,1.231 1.684,-1.68 1.829281,1.892 h 2.464719 l -9.298,-9.364 -1.749,1.694 -6.672,-6.669 z"
       id="path4-7"
       sodipodi:nodetypes="ccccccccccccccccccccccccccccccccccccccccccc"
       style="fill:none;stroke:#000000;stroke-width:1.2;stroke-miterlimit:4;stroke-dasharray:none;stroke-opacity:1" />
    <path
       fill="#444444"
       d="m 56.242235,59.915958 c 1.033,-0.747 2.338,-1.115 3.609,-1.001 1.674,0.124 3.258,1.091 4.131,2.525 0.569,0.908 0.854,1.99 0.816,3.059 -0.05,1.201 -0.502,2.386 -1.289,3.298 -1.191,-1.192 -2.383,-2.383 -3.575,-3.575 -0.585,0.561 -1.169,1.125 -1.748,1.694 -1.251,-1.243 -2.491,-2.496 -3.743,-3.737 0.361,-0.908 1.011,-1.691 1.798,-2.263 z m -19.071,14.445 h 2.543 l 5.122,-5.11 3.331,3.33 1.277,-1.278 -1.666,-1.695 1.668,-1.644 -1.661,-1.703 3.721,-3.683 2.065,1.957 -1.773,1.814 1.666,1.665 -1.667,1.671 1.274,1.276 1.767,-1.709 2.063,2.057 -1.633,1.623 1.357,1.428 2.573,-0.001 -1.399,-1.498 1.625,-1.623 -1.631,-1.631 2.075,-2.076 3.764,3.764 -1.624,1.623 1.241,1.231 1.684,-1.68 1.829281,1.892 h 2.464719 l -9.298,-9.364 -1.749,1.694 -6.672,-6.669 z"
       id="path4"
       sodipodi:nodetypes="ccccccccccccccccccccccccccccccccccccccccccc"
       style="fill:url(#linearGradient3456);fill-opacity:1" />
  </g>
  <g
     id="g3854"
     transform="translate(-0.7771502,-58.294356)"
     inkscape:export-filename="C:\Users\AFeinstein\Desktop\set-syms\NEO_C.png"
     inkscape:export-xdpi="413.87"
     inkscape:export-ydpi="413.87">
    <path
       fill="#444444"
       d="m 21.296535,59.915958 c 1.033001,-0.747 2.338001,-1.115 3.609,-1.001 1.674,0.124 3.258,1.091 4.131,2.525 0.569,0.908 0.854,1.99 0.816,3.059 -0.05,1.201 -0.502,2.386 -1.289,3.298 -1.191,-1.192 -2.383,-2.383 -3.575,-3.575 -0.585,0.561 -1.169,1.125 -1.748,1.694 -1.251,-1.243 -2.491,-2.496 -3.743,-3.737 0.361,-0.908 1.011,-1.691 1.798,-2.263 z m -19.0709995,14.445 h 2.543 l 5.122,-5.11 3.3310005,3.33 1.276999,-1.278 -1.666,-1.695 1.668,-1.644 -1.661,-1.703 3.721,-3.683 2.065,1.957 -1.773,1.814 1.666,1.665 -1.667,1.671 1.274,1.276 1.767,-1.709 2.063,2.057 -1.633,1.623 1.357,1.428 2.573,-0.001 -1.399,-1.498 1.625,-1.623 -1.631,-1.631 2.075,-2.076 3.764,3.764 -1.624,1.623 1.241,1.231 1.684,-1.68 1.829281,1.892 h 2.464719 l -9.298,-9.364 -1.749,1.694 -6.672,-6.669 z"
       id="path4-7-2"
       sodipodi:nodetypes="ccccccccccccccccccccccccccccccccccccccccccc"
       style="fill:none;stroke:#fffff9;stroke-width:1.2;stroke-miterlimit:4;stroke-dasharray:none;stroke-opacity:1" />
    <path
       fill="#444444"
       d="m 21.296535,59.915958 c 1.033001,-0.747 2.338001,-1.115 3.609,-1.001 1.674,0.124 3.258,1.091 4.131,2.525 0.569,0.908 0.854,1.99 0.816,3.059 -0.05,1.201 -0.502,2.386 -1.289,3.298 -1.191,-1.192 -2.383,-2.383 -3.575,-3.575 -0.585,0.561 -1.169,1.125 -1.748,1.694 -1.251,-1.243 -2.491,-2.496 -3.743,-3.737 0.361,-0.908 1.011,-1.691 1.798,-2.263 z m -19.0709995,14.445 h 2.543 l 5.122,-5.11 3.3310005,3.33 1.276999,-1.278 -1.666,-1.695 1.668,-1.644 -1.661,-1.703 3.721,-3.683 2.065,1.957 -1.773,1.814 1.666,1.665 -1.667,1.671 1.274,1.276 1.767,-1.709 2.063,2.057 -1.633,1.623 1.357,1.428 2.573,-0.001 -1.399,-1.498 1.625,-1.623 -1.631,-1.631 2.075,-2.076 3.764,3.764 -1.624,1.623 1.241,1.231 1.684,-1.68 1.829281,1.892 h 2.464719 l -9.298,-9.364 -1.749,1.694 -6.672,-6.669 z"
       id="path4-0"
       sodipodi:nodetypes="ccccccccccccccccccccccccccccccccccccccccccc"
       style="fill:#000000;fill-opacity:1" />
  </g>
  <g
     id="g3862"
     transform="translate(-0.7771502,-58.294356)"
     inkscape:export-filename="C:\Users\AFeinstein\Desktop\set-syms\NEO_R.png"
     inkscape:export-xdpi="413.87"
     inkscape:export-ydpi="413.87">
    <path
       fill="#444444"
       d="m 91.187935,59.915958 c 1.033,-0.747 2.338,-1.115 3.609,-1.001 1.674,0.124 3.258,1.091 4.131,2.525 0.569,0.908 0.854,1.99 0.816,3.059 -0.05,1.201 -0.502,2.386 -1.289,3.298 -1.191,-1.192 -2.383,-2.383 -3.575,-3.575 -0.585,0.561 -1.169,1.125 -1.748,1.694 -1.251,-1.243 -2.491,-2.496 -3.743,-3.737 0.361,-0.908 1.011,-1.691 1.798,-2.263 z m -19.071,14.445 h 2.543 l 5.122,-5.11 3.331,3.33 1.277,-1.278 -1.666,-1.695 1.668,-1.644 -1.661,-1.703 3.721,-3.683 2.065,1.957 -1.773,1.814 1.666,1.665 -1.667,1.671 1.274,1.276 1.767,-1.709 2.063,2.057 -1.633,1.623 1.357,1.428 2.573,-0.001 -1.399,-1.498 1.625,-1.623 -1.631,-1.631 2.075,-2.076 3.764,3.764 -1.624,1.623 1.241,1.231 1.684,-1.68 1.829285,1.892 h 2.46471 l -9.297995,-9.364 -1.749,1.694 -6.672,-6.669 z"
       id="path4-7-9"
       sodipodi:nodetypes="ccccccccccccccccccccccccccccccccccccccccccc"
       style="fill:none;stroke:#000000;stroke-width:1.2;stroke-miterlimit:4;stroke-dasharray:none;stroke-opacity:1" />
    <path
       fill="#444444"
       d="m 91.187935,59.915958 c 1.033,-0.747 2.338,-1.115 3.609,-1.001 1.674,0.124 3.258,1.091 4.131,2.525 0.569,0.908 0.854,1.99 0.816,3.059 -0.05,1.201 -0.502,2.386 -1.289,3.298 -1.191,-1.192 -2.383,-2.383 -3.575,-3.575 -0.585,0.561 -1.169,1.125 -1.748,1.694 -1.251,-1.243 -2.491,-2.496 -3.743,-3.737 0.361,-0.908 1.011,-1.691 1.798,-2.263 z m -19.071,14.445 h 2.543 l 5.122,-5.11 3.331,3.33 1.277,-1.278 -1.666,-1.695 1.668,-1.644 -1.661,-1.703 3.721,-3.683 2.065,1.957 -1.773,1.814 1.666,1.665 -1.667,1.671 1.274,1.276 1.767,-1.709 2.063,2.057 -1.633,1.623 1.357,1.428 2.573,-0.001 -1.399,-1.498 1.625,-1.623 -1.631,-1.631 2.075,-2.076 3.764,3.764 -1.624,1.623 1.241,1.231 1.684,-1.68 1.829285,1.892 h 2.46471 l -9.297995,-9.364 -1.749,1.694 -6.672,-6.669 z"
       id="path4-9"
       sodipodi:nodetypes="ccccccccccccccccccccccccccccccccccccccccccc"
       style="fill:url(#linearGradient3464);fill-opacity:1" />
  </g>
  <g
     id="g3866"
     transform="translate(-0.7771502,-58.294356)"
     inkscape:export-filename="C:\Users\AFeinstein\Desktop\set-syms\NEO_M.png"
     inkscape:export-xdpi="413.87"
     inkscape:export-ydpi="413.87">
    <path
       fill="#444444"
       d="m 126.13363,59.915958 c 1.033,-0.747 2.338,-1.115 3.609,-1.001 1.674,0.124 3.258,1.091 4.131,2.525 0.569,0.908 0.854,1.99 0.816,3.059 -0.05,1.201 -0.502,2.386 -1.289,3.298 -1.191,-1.192 -2.383,-2.383 -3.575,-3.575 -0.585,0.561 -1.169,1.125 -1.748,1.694 -1.251,-1.243 -2.491,-2.496 -3.743,-3.737 0.361,-0.908 1.011,-1.691 1.798,-2.263 z m -19.071,14.445 h 2.543 l 5.122,-5.11 3.331,3.33 1.277,-1.278 -1.666,-1.695 1.668,-1.644 -1.661,-1.703 3.721,-3.683 2.065,1.957 -1.773,1.814 1.666,1.665 -1.667,1.671 1.274,1.276 1.767,-1.709 2.063,2.057 -1.633,1.623 1.357,1.428 2.573,-0.001 -1.399,-1.498 1.625,-1.623 -1.631,-1.631 2.075,-2.076 3.764,3.764 -1.624,1.623 1.241,1.231 1.684,-1.68 1.82928,1.892 h 2.46472 l -9.298,-9.364 -1.749,1.694 -6.672,-6.669 z"
       id="path4-7-6"
       sodipodi:nodetypes="ccccccccccccccccccccccccccccccccccccccccccc"
       style="fill:none;stroke:#000000;stroke-width:1.2;stroke-miterlimit:4;stroke-dasharray:none;stroke-opacity:1" />
    <path
       fill="#444444"
       d="m 126.13363,59.915958 c 1.033,-0.747 2.338,-1.115 3.609,-1.001 1.674,0.124 3.258,1.091 4.131,2.525 0.569,0.908 0.854,1.99 0.816,3.059 -0.05,1.201 -0.502,2.386 -1.289,3.298 -1.191,-1.192 -2.383,-2.383 -3.575,-3.575 -0.585,0.561 -1.169,1.125 -1.748,1.694 -1.251,-1.243 -2.491,-2.496 -3.743,-3.737 0.361,-0.908 1.011,-1.691 1.798,-2.263 z m -19.071,14.445 h 2.543 l 5.122,-5.11 3.331,3.33 1.277,-1.278 -1.666,-1.695 1.668,-1.644 -1.661,-1.703 3.721,-3.683 2.065,1.957 -1.773,1.814 1.666,1.665 -1.667,1.671 1.274,1.276 1.767,-1.709 2.063,2.057 -1.633,1.623 1.357,1.428 2.573,-0.001 -1.399,-1.498 1.625,-1.623 -1.631,-1.631 2.075,-2.076 3.764,3.764 -1.624,1.623 1.241,1.231 1.684,-1.68 1.82928,1.892 h 2.46472 l -9.298,-9.364 -1.749,1.694 -6.672,-6.669 z"
       id="path4-5"
       sodipodi:nodetypes="ccccccccccccccccccccccccccccccccccccccccccc"
       style="fill:url(#linearGradient3472);fill-opacity:1" />
  </g>
  <metadata
     id="metadata827">
    <rdf:RDF>
      <cc:Work
         rdf:about="">
        <dc:title>neo</dc:title>
      </cc:Work>
    </rdf:RDF>
  </metadata>
</svg>
