<?xml version="1.0" encoding="UTF-8" standalone="no"?>
<svg
   xmlns:dc="http://purl.org/dc/elements/1.1/"
   xmlns:cc="http://creativecommons.org/ns#"
   xmlns:rdf="http://www.w3.org/1999/02/22-rdf-syntax-ns#"
   xmlns:svg="http://www.w3.org/2000/svg"
   xmlns="http://www.w3.org/2000/svg"
   xmlns:xlink="http://www.w3.org/1999/xlink"
   xmlns:sodipodi="http://sodipodi.sourceforge.net/DTD/sodipodi-0.dtd"
   xmlns:inkscape="http://www.inkscape.org/namespaces/inkscape"
   inkscape:version="1.0 (4035a4fb49, 2020-05-01)"
   sodipodi:docname="parl3.svg"
   id="svg6"
   viewBox="0 0 136.32812 26.966797"
   height="26.966797"
   width="136.32812"
   version="1.1">
  <metadata
     id="metadata12">
    <rdf:RDF>
      <cc:Work
         rdf:about="">
        <dc:format>image/svg+xml</dc:format>
        <dc:type
           rdf:resource="http://purl.org/dc/dcmitype/StillImage" />
        <dc:title>parl3</dc:title>
      </cc:Work>
    </rdf:RDF>
  </metadata>
  <defs
     id="defs10">
    <linearGradient
       inkscape:collect="always"
       id="linearGradient993">
      <stop
         style="stop-color:#86713f;stop-opacity:1"
         offset="0"
         id="stop987" />
      <stop
         id="stop989"
         offset="0.5"
         style="stop-color:#dfc27f;stop-opacity:1" />
      <stop
         style="stop-color:#86713f;stop-opacity:1"
         offset="1"
         id="stop991" />
    </linearGradient>
    <linearGradient
       inkscape:collect="always"
       id="linearGradient985">
      <stop
         style="stop-color:#4c6d7a;stop-opacity:1"
         offset="0"
         id="stop979" />
      <stop
         id="stop981"
         offset="0.5"
         style="stop-color:#bae2ef;stop-opacity:1" />
      <stop
         style="stop-color:#4c6d7a;stop-opacity:1"
         offset="1"
         id="stop983" />
    </linearGradient>
    <linearGradient
       id="linearGradient894"
       inkscape:collect="always">
      <stop
         id="stop890"
         offset="0"
         style="stop-color:#b73326;stop-opacity:1" />
      <stop
         style="stop-color:#f49226;stop-opacity:1"
         offset="0.5"
         id="stop898" />
      <stop
         id="stop892"
         offset="1"
         style="stop-color:#b73326;stop-opacity:1" />
    </linearGradient>
    <linearGradient
       gradientTransform="translate(-24.728516,-1.8613281)"
       y2="27.657528"
       x2="82.23098"
       y1="2.962029"
       x1="71.27298"
       gradientUnits="userSpaceOnUse"
       id="linearGradient935"
       xlink:href="#linearGradient985"
       inkscape:collect="always" />
    <linearGradient
       gradientTransform="translate(9.353515,-1.8613281)"
       y2="27.657528"
       x2="82.23098"
       y1="2.962029"
       x1="71.27298"
       gradientUnits="userSpaceOnUse"
       id="linearGradient952"
       xlink:href="#linearGradient993"
       inkscape:collect="always" />
    <linearGradient
       gradientTransform="translate(43.435543,-1.8613281)"
       y2="27.657528"
       x2="82.23098"
       y1="2.962029"
       x1="71.27298"
       gradientUnits="userSpaceOnUse"
       id="linearGradient969"
       xlink:href="#linearGradient894"
       inkscape:collect="always" />
  </defs>
  <sodipodi:namedview
     fit-margin-bottom="0"
     fit-margin-right="0"
     fit-margin-left="0"
     fit-margin-top="0"
     inkscape:current-layer="svg6"
     inkscape:window-maximized="1"
     inkscape:window-y="-8"
     inkscape:window-x="55"
     inkscape:cy="-15.272988"
     inkscape:cx="41.43326"
     inkscape:zoom="5.6568543"
     showgrid="false"
     id="namedview8"
     inkscape:window-height="1177"
     inkscape:window-width="1857"
     inkscape:pageshadow="2"
     inkscape:pageopacity="0"
     guidetolerance="10"
     gridtolerance="10"
     objecttolerance="10"
     borderopacity="1"
     bordercolor="#666666"
     pagecolor="#ffffff" />
  <title
     id="title2">parl3</title>
  <g
     inkscape:export-ydpi="256.32001"
     inkscape:export-xdpi="256.32001"
     id="g1017">
    <path
       id="path883"
       style="fill:#ffffff;fill-opacity:1;stroke:none;stroke-width:1px;stroke-linecap:butt;stroke-linejoin:miter;stroke-opacity:1"
       d="M 12.462891,0 A 1.10011,1.10011 0 0 0 11.710937,0.2988281 C 11.35971,0.6279376 10.999323,1.2574568 11.162109,1.90625 11.255399,2.2780602 11.446616,2.5322365 11.667969,2.7304688 L 11.685547,3.1074219 11.101562,4.5742188 C 11.072867,3.8801175 10.964668,3.3713099 10.804687,3 10.720621,2.8048851 10.623948,2.6437685 10.523437,2.5175781 10.422927,2.3913878 10.232422,2.2402344 10.232422,2.2402344 A 1.10011,1.10011 0 0 0 9.603515,2.0429688 H 9.599609 A 1.10011,1.10011 0 0 0 8.970703,2.2402344 C 8.970703,2.2402344 8.78215,2.3913878 8.681641,2.5175781 8.58113,2.6437685 8.482503,2.8048851 8.398437,3 8.230305,3.3902299 8.112672,3.9170237 8.091797,4.6679688 8.083245,4.9714726 8.070456,4.7824238 8.060547,5.0625 8.028838,4.9531142 8.008562,4.850052 7.917969,4.6992188 7.792217,4.4898484 7.426821,4.0946548 6.875,4.0957031 6.296538,4.0986395 5.955098,4.507287 5.833984,4.7128907 5.712435,4.9192343 5.675153,5.0642152 5.636719,5.2128907 5.559851,5.5102416 5.521053,5.8133023 5.484375,6.171875 5.430282,6.7006902 5.396882,7.4010067 5.359375,8.0859375 5.34845,8.0223778 5.341937,7.9520718 5.328125,7.8886719 5.305152,7.7832256 5.286821,7.6827036 5.210937,7.5136719 5.172995,7.4291561 5.124587,7.3226274 4.986328,7.1738281 4.848069,7.0250293 4.5416,6.8085938 4.154297,6.8085938 3.61719,6.8085938 3.336087,7.1235179 3.212891,7.2871094 3.089694,7.4507009 3.044474,7.5696145 3,7.6855469 2.911051,7.9174116 2.858856,8.1436899 2.806641,8.4355469 2.702209,9.0192599 2.619291,9.8417899 2.566406,11.017578 2.463462,13.304339 2.439453,13.744141 2.439453,13.744141 A 1.10011,1.10011 0 0 0 3.164062,14.837891 C 3.164062,14.837891 4.276168,15.321965 5.318359,16.267578 A 1.10011,1.10011 0 0 0 4.751953,16.654297 C 4.703963,16.700017 4.654597,16.680925 4.613281,16.738281 4.365468,17.082304 4.382705,17.34202 4.376953,17.458984 A 1.10011,1.10011 0 0 0 4.375,17.513672 C 4.375,19.293826 2.906683,21.264008 0.476562,24.398438 0.246879,24.61079 0,24.92777 0,25.439453 0,26.043603 0.422089,26.453154 0.712891,26.634766 A 1.10011,1.10011 0 0 0 1.294922,26.800781 H 8.53125 C 8.889752,26.800781 9.357976,26.599647 9.59375,26.28711 9.829523,25.974572 9.870229,25.69645 9.849609,25.416016 A 1.10011,1.10011 0 0 0 9.847656,25.402344 C 9.832719,25.227847 9.789294,25.048576 9.771484,24.873047 A 1.10011,1.10011 0 0 0 9.798828,24.869141 C 9.798828,24.869141 10.174973,24.786811 10.453125,24.560547 10.731277,24.334283 10.984456,23.91779 11.048828,23.462891 A 1.10011,1.10011 0 0 0 11.048828,23.460938 C 11.081767,23.226034 11.140348,22.675748 11.349609,21.720703 11.558871,20.765659 11.905491,19.501089 12.464844,18.160156 A 1.10011,1.10011 0 0 0 12.466797,18.160156 C 13.429563,15.846582 16.041016,14.837891 16.041015,14.837891 A 1.10011,1.10011 0 0 0 16.765625,13.742188 C 16.765625,13.742188 16.724638,12.837942 16.710937,12.554688 16.71801,12.570295 16.723398,12.582047 16.730469,12.597656 17.845366,15.059188 18.935041,17.549083 19.740234,19.496094 20.142831,20.469599 20.473961,21.310162 20.699219,21.929688 20.811848,22.239451 20.899109,22.495376 20.951172,22.671875 20.977203,22.760125 20.989906,22.846537 20.996094,22.884766 20.983177,23.542767 20.807274,24.109818 20.425781,24.673828 A 1.10011,1.10011 0 0 0 20.263672,25.044922 C 20.189645,25.36879 20.121523,25.769161 20.384765,26.25 20.64801,26.73084 21.267392,26.966797 21.652344,26.966797 H 32.822265 C 33.040251,26.966797 33.379632,26.916068 33.677734,26.648438 33.975836,26.380808 34.082031,25.974793 34.082031,25.722656 34.082031,25.218382 33.927928,25.016229 33.783203,24.75586 A 1.10011,1.10011 0 0 0 33.585937,24.498047 C 32.389916,23.343126 29.622849,19.38921 23.207031,3.1386719 23.192346,2.8650183 23.211921,2.739466 23.269531,2.6953125 A 1.10011,1.10011 0 0 0 23.699219,1.8710938 C 23.721835,1.3509191 23.546686,0.7545755 23.160156,0.3457031 A 1.10011,1.10011 0 0 0 22.361328,0 Z M 14.113281,2.2011719 H 21.136719 C 21.017392,2.6111055 20.960756,3.0479454 21.007812,3.4726563 A 1.10011,1.10011 0 0 0 21.078125,3.7558594 C 26.44955,17.390634 29.204297,22.435958 30.982422,24.767578 H 22.597656 C 22.852364,24.126107 23.201172,23.51047 23.201172,22.810547 23.201172,22.436811 23.133751,22.297 23.060547,22.048828 22.987343,21.800657 22.889672,21.513528 22.767578,21.177734 22.523391,20.506147 22.183247,19.647198 21.773437,18.65625 20.953818,16.674354 19.857227,14.168547 18.734375,11.689453 17.611523,9.2103599 16.463744,6.7603221 15.535156,4.8867188 15.070862,3.9499171 14.663034,3.1605648 14.332031,2.5683594 14.25087,2.4231526 14.185912,2.3231272 14.113281,2.2011719 Z M 9.601562,12.464844 A 1.10011,1.10011 0 0 0 10.449219,13.054688 L 11.296875,13.154297 A 1.10011,1.10011 0 0 0 12.164062,12.876953 1.10011,1.10011 0 0 0 12.810547,13.431641 L 13.576172,13.679688 C 12.479734,14.376599 11.204189,15.466696 10.435547,17.3125 10.016641,18.31674 9.833056,19.118518 9.605469,19.957031 9.374515,19.119115 9.187658,18.317102 8.769531,17.314453 V 17.3125 C 8.000293,15.466827 6.723205,14.376562 5.626953,13.679688 L 6.394531,13.431641 A 1.10011,1.10011 0 0 0 7.039062,12.875 1.10011,1.10011 0 0 0 7.908203,13.154297 L 8.753906,13.054688 A 1.10011,1.10011 0 0 0 9.601562,12.464844 Z M 6.191406,19.66211 C 6.234186,19.74889 6.308435,19.865561 6.339844,19.933594 6.99712,21.359204 7.314353,22.962353 7.513672,24.601563 H 3.052734 C 4.41545,22.848251 5.641057,21.250848 6.191406,19.66211 Z" />
    <path
       id="path860"
       d="M 22.36043,1.1007008 C 22.53343,1.2837008 22.61343,1.5237008 22.60043,1.8227008 22.18943,2.1377008 22.02343,2.6477008 22.10143,3.3517008 28.61343,19.881701 31.36743,23.884701 32.82243,25.289701 33.03643,25.674701 33.03643,25.866701 32.82243,25.866701 H 21.65243 C 21.35343,25.866701 21.24843,25.674701 21.33643,25.289701 21.84643,24.535701 22.10143,23.708701 22.10143,22.809701 22.10143,21.459701 13.57843,2.6097008 12.72243,2.1347008 12.15143,1.8177008 12.06543,1.4727008 12.46243,1.1007008 Z M 5.62443,17.324701 C 5.50243,17.344701 5.48143,17.391701 5.47543,17.513701 5.47543,19.848701 3.75243,21.970701 1.29543,25.138701 1.03443,25.351701 1.03443,25.538701 1.29543,25.701701 H 8.53043 C 8.72143,25.701701 8.75743,25.564701 8.75243,25.496701 8.57643,23.440701 8.20943,21.359701 7.33943,19.472701 7.06843,18.885701 6.37043,17.481701 5.62443,17.323701 Z M 9.60043,3.1427008 C 9.60043,3.1427008 9.22743,3.4027008 9.19143,4.6977012 9.03743,10.169701 8.62443,11.961701 8.62443,11.961701 L 7.77843,12.061701 C 7.77843,12.061701 7.41643,10.917701 7.31443,8.8527009 7.21143,6.7857012 7.16043,5.1917012 6.87943,5.1937012 6.59543,5.1937012 6.51743,6.8877012 6.41243,8.8277009 6.31243,10.767701 6.05543,12.385701 6.05543,12.385701 L 5.13143,12.684701 C 5.13143,12.684701 4.76943,11.416701 4.56443,10.297701 4.35943,9.1767009 4.30743,7.9077012 4.15343,7.9077012 3.99943,7.9077012 3.76743,8.7777009 3.66443,11.067701 3.56143,13.355701 3.53743,13.802701 3.53743,13.802701 3.53743,13.802701 6.57143,14.898701 7.75343,17.736701 8.93643,20.572701 9.23643,23.034701 9.24543,23.308701 9.26043,23.732701 9.60243,23.786701 9.60243,23.786701 9.60243,23.786701 9.89943,23.732701 9.95943,23.308701 9.99743,23.037701 10.26743,20.572701 11.45043,17.736701 12.63143,14.898701 15.66643,13.802701 15.66643,13.802701 15.66643,13.802701 15.64143,13.355701 15.53943,11.067701 15.43643,8.7767009 15.20443,7.9077012 15.05043,7.9077012 14.89443,7.9077012 14.84543,9.1767009 14.63943,10.297701 14.43443,11.415701 14.07243,12.684701 14.07243,12.684701 L 13.14843,12.385701 C 13.14843,12.385701 12.88943,10.766701 12.78643,8.8277009 12.68643,6.8877012 12.60843,5.1937012 12.32243,5.1937012 12.04343,5.1917012 11.98943,6.7867012 11.88743,8.8527009 11.78443,10.917701 11.42543,12.061701 11.42543,12.061701 L 10.57743,11.961701 C 10.57743,11.961701 10.16643,10.169701 10.01243,4.6977012 9.97643,3.4027008 9.60343,3.1427008 9.60343,3.1427008 Z"
       style="color:#000000;font-style:normal;font-variant:normal;font-weight:normal;font-stretch:normal;font-size:medium;line-height:normal;font-family:sans-serif;font-variant-ligatures:normal;font-variant-position:normal;font-variant-caps:normal;font-variant-numeric:normal;font-variant-alternates:normal;font-variant-east-asian:normal;font-feature-settings:normal;font-variation-settings:normal;text-indent:0;text-align:start;text-decoration:none;text-decoration-line:none;text-decoration-style:solid;text-decoration-color:#000000;letter-spacing:normal;word-spacing:normal;text-transform:none;writing-mode:lr-tb;direction:ltr;text-orientation:mixed;dominant-baseline:auto;baseline-shift:baseline;text-anchor:start;white-space:normal;shape-padding:0;shape-margin:0;inline-size:0;clip-rule:nonzero;display:inline;overflow:visible;visibility:visible;isolation:auto;mix-blend-mode:normal;color-interpolation:sRGB;color-interpolation-filters:linearRGB;solid-color:#000000;solid-opacity:1;vector-effect:none;fill:#000000;fill-opacity:1;fill-rule:nonzero;stroke:none;stroke-width:2.2;stroke-linecap:butt;stroke-linejoin:round;stroke-miterlimit:4;stroke-dasharray:none;stroke-dashoffset:0;stroke-opacity:1;color-rendering:auto;image-rendering:auto;shape-rendering:auto;text-rendering:auto;enable-background:accumulate;stop-color:#000000" />
  </g>
  <g
     inkscape:export-ydpi="256.32001"
     inkscape:export-xdpi="256.32001"
     id="g1013">
    <path
       d="M 46.544922,0 A 1.10011,1.10011 0 0 0 45.792968,0.2988281 C 45.441741,0.6279376 45.081354,1.2574568 45.24414,1.90625 45.33743,2.2780602 45.528647,2.5322365 45.75,2.7304688 L 45.767578,3.1074219 45.183593,4.5742188 C 45.154898,3.8801175 45.046699,3.3713099 44.886718,3 44.802652,2.8048851 44.705979,2.6437685 44.605468,2.5175781 44.504958,2.3913878 44.314453,2.2402344 44.314453,2.2402344 A 1.10011,1.10011 0 0 0 43.685546,2.0429688 H 43.68164 A 1.10011,1.10011 0 0 0 43.052734,2.2402344 C 43.052734,2.2402344 42.864181,2.3913878 42.763672,2.5175781 42.663161,2.6437685 42.564534,2.8048851 42.480468,3 42.312336,3.3902299 42.194703,3.9170237 42.173828,4.6679688 42.165276,4.9714726 42.152487,4.7824238 42.142578,5.0625 42.110869,4.9531142 42.090593,4.850052 42,4.6992188 41.874248,4.4898484 41.508852,4.0946548 40.957031,4.0957031 40.378569,4.0986395 40.037129,4.507287 39.916015,4.7128907 39.794466,4.9192343 39.757184,5.0642152 39.71875,5.2128907 39.641882,5.5102416 39.603084,5.8133023 39.566406,6.171875 39.512313,6.7006902 39.478913,7.4010067 39.441406,8.0859375 39.430481,8.0223778 39.423968,7.9520718 39.410156,7.8886719 39.387183,7.7832256 39.368852,7.6827036 39.292968,7.5136719 39.255026,7.4291561 39.206618,7.3226274 39.068359,7.1738281 38.9301,7.0250293 38.623631,6.8085938 38.236328,6.8085938 37.699221,6.8085938 37.418118,7.1235179 37.294922,7.2871094 37.171725,7.4507009 37.126505,7.5696145 37.082031,7.6855469 36.993082,7.9174116 36.940887,8.1436899 36.888672,8.4355469 36.78424,9.0192599 36.701322,9.8417899 36.648437,11.017578 36.545493,13.304339 36.521484,13.744141 36.521484,13.744141 A 1.10011,1.10011 0 0 0 37.246093,14.837891 C 37.246093,14.837891 38.358199,15.321965 39.40039,16.267578 A 1.10011,1.10011 0 0 0 38.833984,16.654297 C 38.785994,16.700017 38.736628,16.680925 38.695312,16.738281 38.447499,17.082304 38.464736,17.34202 38.458984,17.458984 A 1.10011,1.10011 0 0 0 38.457031,17.513672 C 38.457031,19.293826 36.988714,21.264008 34.558593,24.398438 34.32891,24.61079 34.082031,24.92777 34.082031,25.439453 34.082031,26.043603 34.50412,26.453154 34.794922,26.634766 A 1.10011,1.10011 0 0 0 35.376953,26.800781 H 42.613281 C 42.971783,26.800781 43.440007,26.599647 43.675781,26.28711 43.911554,25.974572 43.95226,25.69645 43.93164,25.416016 A 1.10011,1.10011 0 0 0 43.929687,25.402344 C 43.91475,25.227847 43.871325,25.048576 43.853515,24.873047 A 1.10011,1.10011 0 0 0 43.880859,24.869141 C 43.880859,24.869141 44.257004,24.786811 44.535156,24.560547 44.813308,24.334283 45.066487,23.91779 45.130859,23.462891 A 1.10011,1.10011 0 0 0 45.130859,23.460938 C 45.163798,23.226034 45.222379,22.675748 45.43164,21.720703 45.640902,20.765659 45.987522,19.501089 46.546875,18.160156 A 1.10011,1.10011 0 0 0 46.548828,18.160156 C 47.511594,15.846582 50.123047,14.837891 50.123046,14.837891 A 1.10011,1.10011 0 0 0 50.847656,13.742188 C 50.847656,13.742188 50.806669,12.837942 50.792968,12.554688 50.800041,12.570295 50.805429,12.582047 50.8125,12.597656 51.927397,15.059188 53.017072,17.549083 53.822265,19.496094 54.224862,20.469599 54.555992,21.310162 54.78125,21.929688 54.893879,22.239451 54.98114,22.495376 55.033203,22.671875 55.059234,22.760125 55.071937,22.846537 55.078125,22.884766 55.065208,23.542767 54.889305,24.109818 54.507812,24.673828 A 1.10011,1.10011 0 0 0 54.345703,25.044922 C 54.271676,25.36879 54.203554,25.769161 54.466796,26.25 54.730041,26.73084 55.349423,26.966797 55.734375,26.966797 H 66.904296 C 67.122282,26.966797 67.461663,26.916068 67.759765,26.648438 68.057867,26.380808 68.164062,25.974793 68.164062,25.722656 68.164062,25.218382 68.009959,25.016229 67.865234,24.75586 A 1.10011,1.10011 0 0 0 67.667968,24.498047 C 66.471947,23.343126 63.70488,19.38921 57.289062,3.1386719 57.274377,2.8650183 57.293952,2.739466 57.351562,2.6953125 A 1.10011,1.10011 0 0 0 57.78125,1.8710938 C 57.803866,1.3509191 57.628717,0.7545755 57.242187,0.3457031 A 1.10011,1.10011 0 0 0 56.443359,0 Z M 48.195312,2.2011719 H 55.21875 C 55.099423,2.6111055 55.042787,3.0479454 55.089843,3.4726563 A 1.10011,1.10011 0 0 0 55.160156,3.7558594 C 60.531581,17.390634 63.286328,22.435958 65.064453,24.767578 H 56.679687 C 56.934395,24.126107 57.283203,23.51047 57.283203,22.810547 57.283203,22.436811 57.215782,22.297 57.142578,22.048828 57.069374,21.800657 56.971703,21.513528 56.849609,21.177734 56.605422,20.506147 56.265278,19.647198 55.855468,18.65625 55.035849,16.674354 53.939258,14.168547 52.816406,11.689453 51.693554,9.2103599 50.545775,6.7603221 49.617187,4.8867188 49.152893,3.9499171 48.745065,3.1605648 48.414062,2.5683594 48.332901,2.4231526 48.267943,2.3231272 48.195312,2.2011719 Z M 43.683593,12.464844 A 1.10011,1.10011 0 0 0 44.53125,13.054688 L 45.378906,13.154297 A 1.10011,1.10011 0 0 0 46.246093,12.876953 1.10011,1.10011 0 0 0 46.892578,13.431641 L 47.658203,13.679688 C 46.561765,14.376599 45.28622,15.466696 44.517578,17.3125 44.098672,18.31674 43.915087,19.118518 43.6875,19.957031 43.456546,19.119115 43.269689,18.317102 42.851562,17.314453 V 17.3125 C 42.082324,15.466827 40.805236,14.376562 39.708984,13.679688 L 40.476562,13.431641 A 1.10011,1.10011 0 0 0 41.121093,12.875 1.10011,1.10011 0 0 0 41.990234,13.154297 L 42.835937,13.054688 A 1.10011,1.10011 0 0 0 43.683593,12.464844 Z M 40.273437,19.66211 C 40.316217,19.74889 40.390466,19.865561 40.421875,19.933594 41.079151,21.359204 41.396384,22.962353 41.595703,24.601563 H 37.134765 C 38.497481,22.848251 39.723088,21.250848 40.273437,19.66211 Z"
       style="fill:#000000;fill-opacity:1;stroke:none;stroke-width:1px;stroke-linecap:butt;stroke-linejoin:miter;stroke-opacity:1"
       id="path883-0" />
    <path
       style="color:#000000;font-style:normal;font-variant:normal;font-weight:normal;font-stretch:normal;font-size:medium;line-height:normal;font-family:sans-serif;font-variant-ligatures:normal;font-variant-position:normal;font-variant-caps:normal;font-variant-numeric:normal;font-variant-alternates:normal;font-variant-east-asian:normal;font-feature-settings:normal;font-variation-settings:normal;text-indent:0;text-align:start;text-decoration:none;text-decoration-line:none;text-decoration-style:solid;text-decoration-color:#000000;letter-spacing:normal;word-spacing:normal;text-transform:none;writing-mode:lr-tb;direction:ltr;text-orientation:mixed;dominant-baseline:auto;baseline-shift:baseline;text-anchor:start;white-space:normal;shape-padding:0;shape-margin:0;inline-size:0;clip-rule:nonzero;display:inline;overflow:visible;visibility:visible;isolation:auto;mix-blend-mode:normal;color-interpolation:sRGB;color-interpolation-filters:linearRGB;solid-color:#000000;solid-opacity:1;vector-effect:none;fill:url(#linearGradient935);fill-opacity:1;fill-rule:nonzero;stroke:none;stroke-width:2.2;stroke-linecap:butt;stroke-linejoin:round;stroke-miterlimit:4;stroke-dasharray:none;stroke-dashoffset:0;stroke-opacity:1;color-rendering:auto;image-rendering:auto;shape-rendering:auto;text-rendering:auto;enable-background:accumulate;stop-color:#000000"
       d="M 56.442461,1.1007008 C 56.615461,1.2837008 56.695461,1.5237008 56.682461,1.8227008 56.271461,2.1377008 56.105461,2.6477008 56.183461,3.3517008 62.695461,19.881701 65.449461,23.884701 66.904461,25.289701 67.118461,25.674701 67.118461,25.866701 66.904461,25.866701 H 55.734461 C 55.435461,25.866701 55.330461,25.674701 55.418461,25.289701 55.928461,24.535701 56.183461,23.708701 56.183461,22.809701 56.183461,21.459701 47.660461,2.6097008 46.804461,2.1347008 46.233461,1.8177008 46.147461,1.4727008 46.544461,1.1007008 Z M 39.706461,17.324701 C 39.584461,17.344701 39.563461,17.391701 39.557461,17.513701 39.557461,19.848701 37.834461,21.970701 35.377461,25.138701 35.116461,25.351701 35.116461,25.538701 35.377461,25.701701 H 42.612461 C 42.803461,25.701701 42.839461,25.564701 42.834461,25.496701 42.658461,23.440701 42.291461,21.359701 41.421461,19.472701 41.150461,18.885701 40.452461,17.481701 39.706461,17.323701 Z M 43.682461,3.1427008 C 43.682461,3.1427008 43.309461,3.4027008 43.273461,4.6977012 43.119461,10.169701 42.706461,11.961701 42.706461,11.961701 L 41.860461,12.061701 C 41.860461,12.061701 41.498461,10.917701 41.396461,8.8527009 41.293461,6.7857012 41.242461,5.1917012 40.961461,5.1937012 40.677461,5.1937012 40.599461,6.8877012 40.494461,8.8277009 40.394461,10.767701 40.137461,12.385701 40.137461,12.385701 L 39.213461,12.684701 C 39.213461,12.684701 38.851461,11.416701 38.646461,10.297701 38.441461,9.1767009 38.389461,7.9077012 38.235461,7.9077012 38.081461,7.9077012 37.849461,8.7777009 37.746461,11.067701 37.643461,13.355701 37.619461,13.802701 37.619461,13.802701 37.619461,13.802701 40.653461,14.898701 41.835461,17.736701 43.018461,20.572701 43.318461,23.034701 43.327461,23.308701 43.342461,23.732701 43.684461,23.786701 43.684461,23.786701 43.684461,23.786701 43.981461,23.732701 44.041461,23.308701 44.079461,23.037701 44.349461,20.572701 45.532461,17.736701 46.713461,14.898701 49.748461,13.802701 49.748461,13.802701 49.748461,13.802701 49.723461,13.355701 49.621461,11.067701 49.518461,8.7767009 49.286461,7.9077012 49.132461,7.9077012 48.976461,7.9077012 48.927461,9.1767009 48.721461,10.297701 48.516461,11.415701 48.154461,12.684701 48.154461,12.684701 L 47.230461,12.385701 C 47.230461,12.385701 46.971461,10.766701 46.868461,8.8277009 46.768461,6.8877012 46.690461,5.1937012 46.404461,5.1937012 46.125461,5.1917012 46.071461,6.7867012 45.969461,8.8527009 45.866461,10.917701 45.507461,12.061701 45.507461,12.061701 L 44.659461,11.961701 C 44.659461,11.961701 44.248461,10.169701 44.094461,4.6977012 44.058461,3.4027008 43.685461,3.1427008 43.685461,3.1427008 Z"
       id="path860-4" />
  </g>
  <g
     inkscape:export-ydpi="256.32001"
     inkscape:export-xdpi="256.32001"
     id="g1009">
    <path
       d="M 80.626953,0 A 1.10011,1.10011 0 0 0 79.874999,0.2988281 C 79.523772,0.6279376 79.163385,1.2574568 79.326171,1.90625 79.419461,2.2780602 79.610678,2.5322365 79.832031,2.7304688 L 79.849609,3.1074219 79.265624,4.5742188 C 79.236929,3.8801175 79.12873,3.3713099 78.968749,3 78.884683,2.8048851 78.78801,2.6437685 78.687499,2.5175781 78.586989,2.3913878 78.396484,2.2402344 78.396484,2.2402344 A 1.10011,1.10011 0 0 0 77.767577,2.0429688 H 77.763671 A 1.10011,1.10011 0 0 0 77.134765,2.2402344 C 77.134765,2.2402344 76.946212,2.3913878 76.845703,2.5175781 76.745192,2.6437685 76.646565,2.8048851 76.562499,3 76.394367,3.3902299 76.276734,3.9170237 76.255859,4.6679688 76.247307,4.9714726 76.234518,4.7824238 76.224609,5.0625 76.1929,4.9531142 76.172624,4.850052 76.082031,4.6992188 75.956279,4.4898484 75.590883,4.0946548 75.039062,4.0957031 74.4606,4.0986395 74.11916,4.507287 73.998046,4.7128907 73.876497,4.9192343 73.839215,5.0642152 73.800781,5.2128907 73.723913,5.5102416 73.685115,5.8133023 73.648437,6.171875 73.594344,6.7006902 73.560944,7.4010067 73.523437,8.0859375 73.512512,8.0223778 73.505999,7.9520718 73.492187,7.8886719 73.469214,7.7832256 73.450883,7.6827036 73.374999,7.5136719 73.337057,7.4291561 73.288649,7.3226274 73.15039,7.1738281 73.012131,7.0250293 72.705662,6.8085938 72.318359,6.8085938 71.781252,6.8085938 71.500149,7.1235179 71.376953,7.2871094 71.253756,7.4507009 71.208536,7.5696145 71.164062,7.6855469 71.075113,7.9174116 71.022918,8.1436899 70.970703,8.4355469 70.866271,9.0192599 70.783353,9.8417899 70.730468,11.017578 70.627524,13.304339 70.603515,13.744141 70.603515,13.744141 A 1.10011,1.10011 0 0 0 71.328124,14.837891 C 71.328124,14.837891 72.44023,15.321965 73.482421,16.267578 A 1.10011,1.10011 0 0 0 72.916015,16.654297 C 72.868025,16.700017 72.818659,16.680925 72.777343,16.738281 72.52953,17.082304 72.546767,17.34202 72.541015,17.458984 A 1.10011,1.10011 0 0 0 72.539062,17.513672 C 72.539062,19.293826 71.070745,21.264008 68.640624,24.398438 68.410941,24.61079 68.164062,24.92777 68.164062,25.439453 68.164062,26.043603 68.586151,26.453154 68.876953,26.634766 A 1.10011,1.10011 0 0 0 69.458984,26.800781 H 76.695312 C 77.053814,26.800781 77.522038,26.599647 77.757812,26.28711 77.993585,25.974572 78.034291,25.69645 78.013671,25.416016 A 1.10011,1.10011 0 0 0 78.011718,25.402344 C 77.996781,25.227847 77.953356,25.048576 77.935546,24.873047 A 1.10011,1.10011 0 0 0 77.96289,24.869141 C 77.96289,24.869141 78.339035,24.786811 78.617187,24.560547 78.895339,24.334283 79.148518,23.91779 79.21289,23.462891 A 1.10011,1.10011 0 0 0 79.21289,23.460938 C 79.245829,23.226034 79.30441,22.675748 79.513671,21.720703 79.722933,20.765659 80.069553,19.501089 80.628906,18.160156 A 1.10011,1.10011 0 0 0 80.630859,18.160156 C 81.593625,15.846582 84.205078,14.837891 84.205077,14.837891 A 1.10011,1.10011 0 0 0 84.929687,13.742188 C 84.929687,13.742188 84.8887,12.837942 84.874999,12.554688 84.882072,12.570295 84.88746,12.582047 84.894531,12.597656 86.009428,15.059188 87.099103,17.549083 87.904296,19.496094 88.306893,20.469599 88.638023,21.310162 88.863281,21.929688 88.97591,22.239451 89.063171,22.495376 89.115234,22.671875 89.141265,22.760125 89.153968,22.846537 89.160156,22.884766 89.147239,23.542767 88.971336,24.109818 88.589843,24.673828 A 1.10011,1.10011 0 0 0 88.427734,25.044922 C 88.353707,25.36879 88.285585,25.769161 88.548827,26.25 88.812072,26.73084 89.431454,26.966797 89.816406,26.966797 H 100.98633 C 101.20431,26.966797 101.54369,26.916068 101.8418,26.648438 102.1399,26.380808 102.24609,25.974793 102.24609,25.722656 102.24609,25.218382 102.09199,25.016229 101.94727,24.75586 A 1.10011,1.10011 0 0 0 101.75,24.498047 C 100.55398,23.343126 97.786911,19.38921 91.371093,3.1386719 91.356408,2.8650183 91.375983,2.739466 91.433593,2.6953125 A 1.10011,1.10011 0 0 0 91.863281,1.8710938 C 91.885897,1.3509191 91.710748,0.7545755 91.324218,0.3457031 A 1.10011,1.10011 0 0 0 90.52539,0 Z M 82.277343,2.2011719 H 89.300781 C 89.181454,2.6111055 89.124818,3.0479454 89.171874,3.4726563 A 1.10011,1.10011 0 0 0 89.242187,3.7558594 C 94.613612,17.390634 97.368359,22.435958 99.146484,24.767578 H 90.761718 C 91.016426,24.126107 91.365234,23.51047 91.365234,22.810547 91.365234,22.436811 91.297813,22.297 91.224609,22.048828 91.151405,21.800657 91.053734,21.513528 90.93164,21.177734 90.687453,20.506147 90.347309,19.647198 89.937499,18.65625 89.11788,16.674354 88.021289,14.168547 86.898437,11.689453 85.775585,9.2103599 84.627806,6.7603221 83.699218,4.8867188 83.234924,3.9499171 82.827096,3.1605648 82.496093,2.5683594 82.414932,2.4231526 82.349974,2.3231272 82.277343,2.2011719 Z M 77.765624,12.464844 A 1.10011,1.10011 0 0 0 78.613281,13.054688 L 79.460937,13.154297 A 1.10011,1.10011 0 0 0 80.328124,12.876953 1.10011,1.10011 0 0 0 80.974609,13.431641 L 81.740234,13.679688 C 80.643796,14.376599 79.368251,15.466696 78.599609,17.3125 78.180703,18.31674 77.997118,19.118518 77.769531,19.957031 77.538577,19.119115 77.35172,18.317102 76.933593,17.314453 V 17.3125 C 76.164355,15.466827 74.887267,14.376562 73.791015,13.679688 L 74.558593,13.431641 A 1.10011,1.10011 0 0 0 75.203124,12.875 1.10011,1.10011 0 0 0 76.072265,13.154297 L 76.917968,13.054688 A 1.10011,1.10011 0 0 0 77.765624,12.464844 Z M 74.355468,19.66211 C 74.398248,19.74889 74.472497,19.865561 74.503906,19.933594 75.161182,21.359204 75.478415,22.962353 75.677734,24.601563 H 71.216796 C 72.579512,22.848251 73.805119,21.250848 74.355468,19.66211 Z"
       style="fill:#000000;fill-opacity:1;stroke:none;stroke-width:1px;stroke-linecap:butt;stroke-linejoin:miter;stroke-opacity:1"
       id="path883-9" />
    <path
       style="color:#000000;font-style:normal;font-variant:normal;font-weight:normal;font-stretch:normal;font-size:medium;line-height:normal;font-family:sans-serif;font-variant-ligatures:normal;font-variant-position:normal;font-variant-caps:normal;font-variant-numeric:normal;font-variant-alternates:normal;font-variant-east-asian:normal;font-feature-settings:normal;font-variation-settings:normal;text-indent:0;text-align:start;text-decoration:none;text-decoration-line:none;text-decoration-style:solid;text-decoration-color:#000000;letter-spacing:normal;word-spacing:normal;text-transform:none;writing-mode:lr-tb;direction:ltr;text-orientation:mixed;dominant-baseline:auto;baseline-shift:baseline;text-anchor:start;white-space:normal;shape-padding:0;shape-margin:0;inline-size:0;clip-rule:nonzero;display:inline;overflow:visible;visibility:visible;isolation:auto;mix-blend-mode:normal;color-interpolation:sRGB;color-interpolation-filters:linearRGB;solid-color:#000000;solid-opacity:1;vector-effect:none;fill:url(#linearGradient952);fill-opacity:1;fill-rule:nonzero;stroke:none;stroke-width:2.2;stroke-linecap:butt;stroke-linejoin:round;stroke-miterlimit:4;stroke-dasharray:none;stroke-dashoffset:0;stroke-opacity:1;color-rendering:auto;image-rendering:auto;shape-rendering:auto;text-rendering:auto;enable-background:accumulate;stop-color:#000000"
       d="M 90.524492,1.1007008 C 90.697492,1.2837008 90.777492,1.5237008 90.764492,1.8227008 90.353492,2.1377008 90.187492,2.6477008 90.265492,3.3517008 96.777492,19.881701 99.531492,23.884701 100.98649,25.289701 101.20049,25.674701 101.20049,25.866701 100.98649,25.866701 H 89.816492 C 89.517492,25.866701 89.412492,25.674701 89.500492,25.289701 90.010492,24.535701 90.265492,23.708701 90.265492,22.809701 90.265492,21.459701 81.742492,2.6097008 80.886492,2.1347008 80.315492,1.8177008 80.229492,1.4727008 80.626492,1.1007008 Z M 73.788492,17.324701 C 73.666492,17.344701 73.645492,17.391701 73.639492,17.513701 73.639492,19.848701 71.916492,21.970701 69.459492,25.138701 69.198492,25.351701 69.198492,25.538701 69.459492,25.701701 H 76.694492 C 76.885492,25.701701 76.921492,25.564701 76.916492,25.496701 76.740492,23.440701 76.373492,21.359701 75.503492,19.472701 75.232492,18.885701 74.534492,17.481701 73.788492,17.323701 Z M 77.764492,3.1427008 C 77.764492,3.1427008 77.391492,3.4027008 77.355492,4.6977012 77.201492,10.169701 76.788492,11.961701 76.788492,11.961701 L 75.942492,12.061701 C 75.942492,12.061701 75.580492,10.917701 75.478492,8.8527009 75.375492,6.7857012 75.324492,5.1917012 75.043492,5.1937012 74.759492,5.1937012 74.681492,6.8877012 74.576492,8.8277009 74.476492,10.767701 74.219492,12.385701 74.219492,12.385701 L 73.295492,12.684701 C 73.295492,12.684701 72.933492,11.416701 72.728492,10.297701 72.523492,9.1767009 72.471492,7.9077012 72.317492,7.9077012 72.163492,7.9077012 71.931492,8.7777009 71.828492,11.067701 71.725492,13.355701 71.701492,13.802701 71.701492,13.802701 71.701492,13.802701 74.735492,14.898701 75.917492,17.736701 77.100492,20.572701 77.400492,23.034701 77.409492,23.308701 77.424492,23.732701 77.766492,23.786701 77.766492,23.786701 77.766492,23.786701 78.063492,23.732701 78.123492,23.308701 78.161492,23.037701 78.431492,20.572701 79.614492,17.736701 80.795492,14.898701 83.830492,13.802701 83.830492,13.802701 83.830492,13.802701 83.805492,13.355701 83.703492,11.067701 83.600492,8.7767009 83.368492,7.9077012 83.214492,7.9077012 83.058492,7.9077012 83.009492,9.1767009 82.803492,10.297701 82.598492,11.415701 82.236492,12.684701 82.236492,12.684701 L 81.312492,12.385701 C 81.312492,12.385701 81.053492,10.766701 80.950492,8.8277009 80.850492,6.8877012 80.772492,5.1937012 80.486492,5.1937012 80.207492,5.1917012 80.153492,6.7867012 80.051492,8.8527009 79.948492,10.917701 79.589492,12.061701 79.589492,12.061701 L 78.741492,11.961701 C 78.741492,11.961701 78.330492,10.169701 78.176492,4.6977012 78.140492,3.4027008 77.767492,3.1427008 77.767492,3.1427008 Z"
       id="path860-8" />
  </g>
  <g
     inkscape:export-ydpi="256.32001"
     inkscape:export-xdpi="256.32001"
     id="g1005">
    <path
       d="M 114.70898,0 A 1.10011,1.10011 0 0 0 113.95703,0.2988281 C 113.6058,0.6279376 113.24541,1.2574568 113.4082,1.90625 113.50149,2.2780602 113.69271,2.5322365 113.91406,2.7304688 L 113.93164,3.1074219 113.34765,4.5742188 C 113.31896,3.8801175 113.21076,3.3713099 113.05078,3 112.96671,2.8048851 112.87004,2.6437685 112.76953,2.5175781 112.66902,2.3913878 112.47851,2.2402344 112.47851,2.2402344 A 1.10011,1.10011 0 0 0 111.8496,2.0429688 H 111.8457 A 1.10011,1.10011 0 0 0 111.21679,2.2402344 C 111.21679,2.2402344 111.02824,2.3913878 110.92773,2.5175781 110.82722,2.6437685 110.72859,2.8048851 110.64453,3 110.47639,3.3902299 110.35876,3.9170237 110.33789,4.6679688 110.32934,4.9714726 110.31655,4.7824238 110.30664,5.0625 110.27493,4.9531142 110.25465,4.850052 110.16406,4.6992188 110.03831,4.4898484 109.67291,4.0946548 109.12109,4.0957031 108.54263,4.0986395 108.20119,4.507287 108.08007,4.7128907 107.95853,4.9192343 107.92124,5.0642152 107.88281,5.2128907 107.80594,5.5102416 107.76714,5.8133023 107.73047,6.171875 107.67637,6.7006902 107.64297,7.4010067 107.60547,8.0859375 107.59454,8.0223778 107.58803,7.9520718 107.57422,7.8886719 107.55124,7.7832256 107.53291,7.6827036 107.45703,7.5136719 107.41908,7.4291561 107.37068,7.3226274 107.23242,7.1738281 107.09416,7.0250293 106.78769,6.8085938 106.40039,6.8085938 105.86328,6.8085938 105.58218,7.1235179 105.45898,7.2871094 105.33578,7.4507009 105.29056,7.5696145 105.24609,7.6855469 105.15714,7.9174116 105.10495,8.1436899 105.05273,8.4355469 104.9483,9.0192599 104.86538,9.8417899 104.8125,11.017578 104.70955,13.304339 104.68554,13.744141 104.68554,13.744141 A 1.10011,1.10011 0 0 0 105.41015,14.837891 C 105.41015,14.837891 106.52226,15.321965 107.56445,16.267578 A 1.10011,1.10011 0 0 0 106.99804,16.654297 C 106.95005,16.700017 106.90069,16.680925 106.85937,16.738281 106.61156,17.082304 106.62879,17.34202 106.62304,17.458984 A 1.10011,1.10011 0 0 0 106.62109,17.513672 C 106.62109,19.293826 105.15277,21.264008 102.72265,24.398438 102.49297,24.61079 102.24609,24.92777 102.24609,25.439453 102.24609,26.043603 102.66818,26.453154 102.95898,26.634766 A 1.10011,1.10011 0 0 0 103.54101,26.800781 H 110.77734 C 111.13584,26.800781 111.60407,26.599647 111.83984,26.28711 112.07561,25.974572 112.11632,25.69645 112.0957,25.416016 A 1.10011,1.10011 0 0 0 112.09375,25.402344 C 112.07881,25.227847 112.03538,25.048576 112.01757,24.873047 A 1.10011,1.10011 0 0 0 112.04492,24.869141 C 112.04492,24.869141 112.42106,24.786811 112.69922,24.560547 112.97737,24.334283 113.23055,23.91779 113.29492,23.462891 A 1.10011,1.10011 0 0 0 113.29492,23.460938 C 113.32786,23.226034 113.38644,22.675748 113.5957,21.720703 113.80496,20.765659 114.15158,19.501089 114.71093,18.160156 A 1.10011,1.10011 0 0 0 114.71289,18.160156 C 115.67565,15.846582 118.28711,14.837891 118.2871,14.837891 A 1.10011,1.10011 0 0 0 119.01172,13.742188 C 119.01172,13.742188 118.97073,12.837942 118.95703,12.554688 118.9641,12.570295 118.96949,12.582047 118.97656,12.597656 120.09146,15.059188 121.18113,17.549083 121.98632,19.496094 122.38892,20.469599 122.72005,21.310162 122.94531,21.929688 123.05794,22.239451 123.1452,22.495376 123.19726,22.671875 123.22329,22.760125 123.236,22.846537 123.24218,22.884766 123.22927,23.542767 123.05336,24.109818 122.67187,24.673828 A 1.10011,1.10011 0 0 0 122.50976,25.044922 C 122.43573,25.36879 122.36761,25.769161 122.63085,26.25 122.8941,26.73084 123.51348,26.966797 123.89843,26.966797 H 135.06835 C 135.28634,26.966797 135.62572,26.916068 135.92382,26.648438 136.22193,26.380808 136.32812,25.974793 136.32812,25.722656 136.32812,25.218382 136.17402,25.016229 136.02929,24.75586 A 1.10011,1.10011 0 0 0 135.83203,24.498047 C 134.63601,23.343126 131.86894,19.38921 125.45312,3.1386719 125.43844,2.8650183 125.45801,2.739466 125.51562,2.6953125 A 1.10011,1.10011 0 0 0 125.94531,1.8710938 C 125.96793,1.3509191 125.79278,0.7545755 125.40625,0.3457031 A 1.10011,1.10011 0 0 0 124.60742,0 Z M 116.35937,2.2011719 H 123.38281 C 123.26348,2.6111055 123.20685,3.0479454 123.2539,3.4726563 A 1.10011,1.10011 0 0 0 123.32422,3.7558594 C 128.69564,17.390634 131.45039,22.435958 133.22851,24.767578 H 124.84375 C 125.09845,24.126107 125.44726,23.51047 125.44726,22.810547 125.44726,22.436811 125.37984,22.297 125.30664,22.048828 125.23343,21.800657 125.13576,21.513528 125.01367,21.177734 124.76948,20.506147 124.42934,19.647198 124.01953,18.65625 123.19991,16.674354 122.10332,14.168547 120.98047,11.689453 119.85761,9.2103599 118.70983,6.7603221 117.78125,4.8867188 117.31695,3.9499171 116.90912,3.1605648 116.57812,2.5683594 116.49696,2.4231526 116.432,2.3231272 116.35937,2.2011719 Z M 111.84765,12.464844 A 1.10011,1.10011 0 0 0 112.69531,13.054688 L 113.54297,13.154297 A 1.10011,1.10011 0 0 0 114.41015,12.876953 1.10011,1.10011 0 0 0 115.05664,13.431641 L 115.82226,13.679688 C 114.72582,14.376599 113.45028,15.466696 112.68164,17.3125 112.26273,18.31674 112.07915,19.118518 111.85156,19.957031 111.62061,19.119115 111.43375,18.317102 111.01562,17.314453 V 17.3125 C 110.24638,15.466827 108.9693,14.376562 107.87304,13.679688 L 108.64062,13.431641 A 1.10011,1.10011 0 0 0 109.28515,12.875 1.10011,1.10011 0 0 0 110.15429,13.154297 L 111,13.054688 A 1.10011,1.10011 0 0 0 111.84765,12.464844 Z M 108.4375,19.66211 C 108.48028,19.74889 108.55453,19.865561 108.58593,19.933594 109.24321,21.359204 109.56044,22.962353 109.75976,24.601563 H 105.29882 C 106.66154,22.848251 107.88715,21.250848 108.4375,19.66211 Z"
       style="fill:#000000;fill-opacity:1;stroke:none;stroke-width:1px;stroke-linecap:butt;stroke-linejoin:miter;stroke-opacity:1"
       id="path883-00" />
    <path
       style="color:#000000;font-style:normal;font-variant:normal;font-weight:normal;font-stretch:normal;font-size:medium;line-height:normal;font-family:sans-serif;font-variant-ligatures:normal;font-variant-position:normal;font-variant-caps:normal;font-variant-numeric:normal;font-variant-alternates:normal;font-variant-east-asian:normal;font-feature-settings:normal;font-variation-settings:normal;text-indent:0;text-align:start;text-decoration:none;text-decoration-line:none;text-decoration-style:solid;text-decoration-color:#000000;letter-spacing:normal;word-spacing:normal;text-transform:none;writing-mode:lr-tb;direction:ltr;text-orientation:mixed;dominant-baseline:auto;baseline-shift:baseline;text-anchor:start;white-space:normal;shape-padding:0;shape-margin:0;inline-size:0;clip-rule:nonzero;display:inline;overflow:visible;visibility:visible;isolation:auto;mix-blend-mode:normal;color-interpolation:sRGB;color-interpolation-filters:linearRGB;solid-color:#000000;solid-opacity:1;vector-effect:none;fill:url(#linearGradient969);fill-opacity:1;fill-rule:nonzero;stroke:none;stroke-width:2.2;stroke-linecap:butt;stroke-linejoin:round;stroke-miterlimit:4;stroke-dasharray:none;stroke-dashoffset:0;stroke-opacity:1;color-rendering:auto;image-rendering:auto;shape-rendering:auto;text-rendering:auto;enable-background:accumulate;stop-color:#000000"
       d="M 124.60652,1.1007008 C 124.77952,1.2837008 124.85952,1.5237008 124.84652,1.8227008 124.43552,2.1377008 124.26952,2.6477008 124.34752,3.3517008 130.85952,19.881701 133.61352,23.884701 135.06852,25.289701 135.28252,25.674701 135.28252,25.866701 135.06852,25.866701 H 123.89852 C 123.59952,25.866701 123.49452,25.674701 123.58252,25.289701 124.09252,24.535701 124.34752,23.708701 124.34752,22.809701 124.34752,21.459701 115.82452,2.6097008 114.96852,2.1347008 114.39752,1.8177008 114.31152,1.4727008 114.70852,1.1007008 Z M 107.87052,17.324701 C 107.74852,17.344701 107.72752,17.391701 107.72152,17.513701 107.72152,19.848701 105.99852,21.970701 103.54152,25.138701 103.28052,25.351701 103.28052,25.538701 103.54152,25.701701 H 110.77652 C 110.96752,25.701701 111.00352,25.564701 110.99852,25.496701 110.82252,23.440701 110.45552,21.359701 109.58552,19.472701 109.31452,18.885701 108.61652,17.481701 107.87052,17.323701 Z M 111.84652,3.1427008 C 111.84652,3.1427008 111.47352,3.4027008 111.43752,4.6977012 111.28352,10.169701 110.87052,11.961701 110.87052,11.961701 L 110.02452,12.061701 C 110.02452,12.061701 109.66252,10.917701 109.56052,8.8527009 109.45752,6.7857012 109.40652,5.1917012 109.12552,5.1937012 108.84152,5.1937012 108.76352,6.8877012 108.65852,8.8277009 108.55852,10.767701 108.30152,12.385701 108.30152,12.385701 L 107.37752,12.684701 C 107.37752,12.684701 107.01552,11.416701 106.81052,10.297701 106.60552,9.1767009 106.55352,7.9077012 106.39952,7.9077012 106.24552,7.9077012 106.01352,8.7777009 105.91052,11.067701 105.80752,13.355701 105.78352,13.802701 105.78352,13.802701 105.78352,13.802701 108.81752,14.898701 109.99952,17.736701 111.18252,20.572701 111.48252,23.034701 111.49152,23.308701 111.50652,23.732701 111.84852,23.786701 111.84852,23.786701 111.84852,23.786701 112.14552,23.732701 112.20552,23.308701 112.24352,23.037701 112.51352,20.572701 113.69652,17.736701 114.87752,14.898701 117.91252,13.802701 117.91252,13.802701 117.91252,13.802701 117.88752,13.355701 117.78552,11.067701 117.68252,8.7767009 117.45052,7.9077012 117.29652,7.9077012 117.14052,7.9077012 117.09152,9.1767009 116.88552,10.297701 116.68052,11.415701 116.31852,12.684701 116.31852,12.684701 L 115.39452,12.385701 C 115.39452,12.385701 115.13552,10.766701 115.03252,8.8277009 114.93252,6.8877012 114.85452,5.1937012 114.56852,5.1937012 114.28952,5.1917012 114.23552,6.7867012 114.13352,8.8527009 114.03052,10.917701 113.67152,12.061701 113.67152,12.061701 L 112.82352,11.961701 C 112.82352,11.961701 112.41252,10.169701 112.25852,4.6977012 112.22252,3.4027008 111.84952,3.1427008 111.84952,3.1427008 Z"
       id="path860-1" />
  </g>
</svg>
