<?xml version="1.0" encoding="UTF-8" standalone="no"?>
<svg
   class="set-header-symbol"
   focusable="false"
   aria-hidden="true"
   viewBox="0 0 223.33998 101.71385"
   version="1.1"
   id="svg4"
   sodipodi:docname="phed.svg"
   width="223.33998"
   height="101.71385"
   inkscape:version="1.1 (c68e22c387, 2021-05-23)"
   xmlns:inkscape="http://www.inkscape.org/namespaces/inkscape"
   xmlns:sodipodi="http://sodipodi.sourceforge.net/DTD/sodipodi-0.dtd"
   xmlns:xlink="http://www.w3.org/1999/xlink"
   xmlns="http://www.w3.org/2000/svg"
   xmlns:svg="http://www.w3.org/2000/svg">
  <defs
     id="defs8">
    <linearGradient
       inkscape:collect="always"
       id="linearGradient960">
      <stop
         style="stop-color:#4c6d7a;stop-opacity:1"
         offset="0"
         id="stop954" />
      <stop
         id="stop956"
         offset="0.5"
         style="stop-color:#bae2ef;stop-opacity:1" />
      <stop
         style="stop-color:#4c6d7a;stop-opacity:1"
         offset="1"
         id="stop958" />
    </linearGradient>
    <linearGradient
       inkscape:collect="always"
       id="linearGradient952">
      <stop
         style="stop-color:#86713f;stop-opacity:1"
         offset="0"
         id="stop946" />
      <stop
         id="stop948"
         offset="0.5"
         style="stop-color:#dfc27f;stop-opacity:1" />
      <stop
         style="stop-color:#86713f;stop-opacity:1"
         offset="1"
         id="stop950" />
    </linearGradient>
    <linearGradient
       id="linearGradient867"
       inkscape:collect="always">
      <stop
         id="stop863"
         offset="0"
         style="stop-color:#b73326;stop-opacity:1" />
      <stop
         style="stop-color:#f49226;stop-opacity:1"
         offset="0.5"
         id="stop871" />
      <stop
         id="stop865"
         offset="1"
         style="stop-color:#b73326;stop-opacity:1" />
    </linearGradient>
    <linearGradient
       inkscape:collect="always"
       xlink:href="#linearGradient960"
       id="linearGradient4791"
       x1="62.96014"
       y1="47.608456"
       x2="116.79514"
       y2="47.608456"
       gradientUnits="userSpaceOnUse" />
    <linearGradient
       inkscape:collect="always"
       xlink:href="#linearGradient952"
       id="linearGradient4833"
       gradientUnits="userSpaceOnUse"
       x1="62.96014"
       y1="47.608456"
       x2="116.79514"
       y2="47.608456"
       gradientTransform="translate(82.313684,0.00273515)" />
    <linearGradient
       inkscape:collect="always"
       xlink:href="#linearGradient867"
       id="linearGradient4862"
       gradientUnits="userSpaceOnUse"
       x1="62.96014"
       y1="47.608456"
       x2="116.79514"
       y2="47.608456"
       gradientTransform="translate(138.15351,0.67014338)" />
  </defs>
  <sodipodi:namedview
     id="namedview6"
     pagecolor="#ffffff"
     bordercolor="#666666"
     borderopacity="1.0"
     inkscape:pageshadow="2"
     inkscape:pageopacity="0.0"
     inkscape:pagecheckerboard="0"
     showgrid="false"
     fit-margin-top="0"
     fit-margin-left="0"
     fit-margin-right="0"
     fit-margin-bottom="0"
     inkscape:zoom="2.2475"
     inkscape:cx="93.214683"
     inkscape:cy="66.073415"
     inkscape:window-width="1858"
     inkscape:window-height="1177"
     inkscape:window-x="54"
     inkscape:window-y="-8"
     inkscape:window-maximized="1"
     inkscape:current-layer="svg4" />
  <g
     id="g5112"
     transform="translate(-6.125146,3.2539447)"
     inkscape:export-filename="D:\git\Mtgjson2Familiar\symbols\PHED_U.png"
     inkscape:export-xdpi="67.959999"
     inkscape:export-ydpi="67.959999">
    <path
       d="m 62.961141,47.989955 0.156,-1.969 h -0.061 l 0.061,-0.032 2.059,-26.239 c 0,0 1.026,18.147 4.085,23.392 a 55.392,55.392 0 0 1 4.002,-1.403 c 3.306,-8.657 4.467,-34.3790001 4.467,-34.3790001 0,0 0.772,23.4340001 3.681,32.5290001 a 56.591,56.591 0 0 1 4.872,-0.51 c 3.007,-11.188 3.824,-41.6360001 3.824,-41.6360001 0,0 0.991,30.5210001 3.953,41.6730001 1.576,0.114 3.127,0.292 4.653,0.528 2.872999,-9.06 4.023999,-32.5970001 4.023999,-32.5970001 0,0 0.931,25.8640001 3.941,34.4490001 1.319,0.409 2.617,0.871 3.89,1.376 3.338,-5.179 4.513,-23.388 4.513,-23.388 l 1.592,26.224 0.067,0.034 h -0.063 l 0.118,1.947 c 0,0 -26.688999,8.691 -26.688999,49.484998 0,-40.600998 -27.146,-49.484998 -27.146,-49.484998"
       id="path2-9"
       style="fill:none;stroke:#000000;stroke-width:2;stroke-linecap:round;stroke-linejoin:round;stroke-miterlimit:4;stroke-dasharray:none;stroke-opacity:1" />
    <path
       d="m 62.961142,47.989954 0.156,-1.969 h -0.061 l 0.061,-0.032 2.059,-26.239 c 0,0 1.026,18.147 4.085,23.392 a 55.392,55.392 0 0 1 4.002,-1.403 c 3.306,-8.657 4.467,-34.3790002 4.467,-34.3790002 0,0 0.772,23.4340002 3.681,32.5290002 a 56.591,56.591 0 0 1 4.872,-0.51 c 3.007,-11.188 3.824,-41.6360002 3.824,-41.6360002 0,0 0.991,30.5210002 3.953,41.6730002 1.576,0.114 3.127,0.292 4.653,0.528 2.872998,-9.06 4.023998,-32.5970002 4.023998,-32.5970002 0,0 0.931,25.8640002 3.941,34.4490002 1.319,0.409 2.617,0.871 3.89,1.376 3.338,-5.179 4.513,-23.388 4.513,-23.388 l 1.592,26.224 0.067,0.034 h -0.063 l 0.118,1.947 c 0,0 -26.688998,8.691 -26.688998,49.485 0,-40.601 -27.146,-49.485 -27.146,-49.485"
       id="path2-0"
       style="fill:url(#linearGradient4791);fill-opacity:1" />
  </g>
  <g
     id="g5108"
     transform="translate(-24.362813,-83.066922)"
     inkscape:export-filename="D:\git\Mtgjson2Familiar\symbols\PHED_C.png"
     inkscape:export-xdpi="67.955345"
     inkscape:export-ydpi="67.955345">
    <path
       d="m 25.363813,134.31082 0.156,-1.969 h -0.061 l 0.061,-0.032 2.059,-26.239 c 0,0 1.026,18.147 4.085,23.392 a 55.392,55.392 0 0 1 4.002,-1.403 c 3.306,-8.657 4.467,-34.378999 4.467,-34.378999 0,0 0.772,23.433999 3.681,32.528999 a 56.591,56.591 0 0 1 4.872,-0.51 c 3.007,-11.188 3.824,-41.635999 3.824,-41.635999 0,0 0.991,30.520999 3.953,41.672999 1.576,0.114 3.127,0.292 4.653,0.528 2.872999,-9.06 4.023999,-32.596999 4.023999,-32.596999 0,0 0.931,25.863999 3.941,34.448999 1.319,0.409 2.617,0.871 3.89,1.376 3.338,-5.179 4.513,-23.388 4.513,-23.388 l 1.592,26.224 0.067,0.034 h -0.063 l 0.118,1.947 c 0,0 -26.688999,8.691 -26.688999,49.485 0,-40.601 -27.146,-49.485 -27.146,-49.485"
       id="path2-9-9"
       style="fill:none;stroke:#000000;stroke-width:2;stroke-linecap:round;stroke-linejoin:round;stroke-miterlimit:4;stroke-dasharray:none;stroke-opacity:1" />
    <path
       d="m 25.363814,134.31082 0.156,-1.969 h -0.061 l 0.061,-0.032 2.059,-26.239 c 0,0 1.026,18.147 4.085,23.392 a 55.392,55.392 0 0 1 4.002,-1.403 c 3.306,-8.657 4.467,-34.379 4.467,-34.379 0,0 0.772,23.434 3.681,32.529 a 56.591,56.591 0 0 1 4.872,-0.51 c 3.007,-11.188 3.824,-41.636 3.824,-41.636 0,0 0.991,30.521 3.953,41.673 1.576,0.114 3.127,0.292 4.653,0.528 2.872998,-9.06 4.023998,-32.597 4.023998,-32.597 0,0 0.931,25.864 3.941,34.449 1.319,0.409 2.617,0.871 3.89,1.376 3.338,-5.179 4.513,-23.388 4.513,-23.388 l 1.592,26.224 0.067,0.034 h -0.063 l 0.118,1.947 c 0,0 -26.688998,8.691 -26.688998,49.485 0,-40.601 -27.146,-49.485 -27.146,-49.485"
       id="path2-0-8"
       style="fill:#000000;fill-opacity:1" />
  </g>
  <g
     id="g5116"
     transform="translate(-32.60383,3.2512096)"
     inkscape:export-filename="D:\git\Mtgjson2Familiar\symbols\PHED_R.png"
     inkscape:export-xdpi="67.959999"
     inkscape:export-ydpi="67.959999">
    <path
       d="m 145.27482,47.99269 0.156,-1.969 h -0.061 l 0.061,-0.032 2.059,-26.239 c 0,0 1.026,18.147 4.085,23.392 a 55.392,55.392 0 0 1 4.002,-1.403 c 3.306,-8.657 4.467,-34.3789999 4.467,-34.3789999 0,0 0.772,23.4339999 3.681,32.5289999 a 56.591,56.591 0 0 1 4.872,-0.51 c 3.007,-11.188 3.824,-41.6359999 3.824,-41.6359999 0,0 0.991,30.5209999 3.953,41.6729999 1.576,0.114 3.127,0.292 4.653,0.528 2.873,-9.06 4.024,-32.5969999 4.024,-32.5969999 0,0 0.931,25.8639999 3.941,34.4489999 1.319,0.409 2.617,0.871 3.89,1.376 3.338,-5.179 4.513,-23.388 4.513,-23.388 l 1.592,26.224 0.067,0.034 h -0.063 l 0.118,1.947 c 0,0 -26.689,8.691 -26.689,49.484998 0,-40.600998 -27.146,-49.484998 -27.146,-49.484998"
       id="path2-9-0"
       style="fill:none;stroke:#000000;stroke-width:2;stroke-linecap:round;stroke-linejoin:round;stroke-miterlimit:4;stroke-dasharray:none;stroke-opacity:1" />
    <path
       d="m 145.27483,47.992689 0.156,-1.969 h -0.061 l 0.061,-0.032 2.059,-26.239 c 0,0 1.026,18.147 4.085,23.392 a 55.392,55.392 0 0 1 4.002,-1.403 c 3.306,-8.657 4.467,-34.3790001 4.467,-34.3790001 0,0 0.772,23.4340001 3.681,32.5290001 a 56.591,56.591 0 0 1 4.872,-0.51 c 3.007,-11.188 3.824,-41.636 3.824,-41.636 0,0 0.991,30.521 3.953,41.673 1.576,0.114 3.127,0.292 4.653,0.528 2.87299,-9.06 4.02399,-32.597 4.02399,-32.597 0,0 0.931,25.864 3.941,34.449 1.319,0.409 2.617,0.871 3.89,1.376 3.338,-5.179 4.513,-23.388 4.513,-23.388 l 1.592,26.224 0.067,0.034 h -0.063 l 0.118,1.947 c 0,0 -26.68899,8.691 -26.68899,49.485 0,-40.601 -27.146,-49.485 -27.146,-49.485"
       id="path2-0-2"
       style="fill:url(#linearGradient4833);fill-opacity:1" />
  </g>
  <g
     id="g5120"
     transform="translate(-32.608664,2.5838015)"
     inkscape:export-filename="D:\git\Mtgjson2Familiar\symbols\PHED_M.png"
     inkscape:export-xdpi="67.959999"
     inkscape:export-ydpi="67.959999">
    <path
       d="m 201.11465,48.660098 0.156,-1.969 h -0.061 l 0.061,-0.032 2.059,-26.239 c 0,0 1.026,18.147 4.085,23.392 a 55.392,55.392 0 0 1 4.002,-1.403 c 3.306,-8.657 4.467,-34.3789997 4.467,-34.3789997 0,0 0.772,23.4339997 3.681,32.5289997 a 56.591,56.591 0 0 1 4.872,-0.51 c 3.007,-11.188 3.824,-41.6359997 3.824,-41.6359997 0,0 0.991,30.5209997 3.953,41.6729997 1.576,0.114 3.127,0.292 4.653,0.528 2.873,-9.06 4.024,-32.5969997 4.024,-32.5969997 0,0 0.931,25.8639997 3.941,34.4489997 1.319,0.409 2.617,0.871 3.89,1.376 3.338,-5.179 4.513,-23.388 4.513,-23.388 l 1.592,26.224 0.067,0.034 h -0.063 l 0.118,1.947 c 0,0 -26.689,8.691 -26.689,49.484998 0,-40.600998 -27.146,-49.484998 -27.146,-49.484998"
       id="path2-9-5"
       style="fill:none;stroke:#000000;stroke-width:2;stroke-linecap:round;stroke-linejoin:round;stroke-miterlimit:4;stroke-dasharray:none;stroke-opacity:1" />
    <path
       d="m 201.11465,48.660097 0.156,-1.969 h -0.061 l 0.061,-0.032 2.059,-26.239 c 0,0 1.026,18.147 4.085,23.392 a 55.392,55.392 0 0 1 4.002,-1.403 c 3.306,-8.657 4.467,-34.3789998 4.467,-34.3789998 0,0 0.772,23.4339998 3.681,32.5289998 a 56.591,56.591 0 0 1 4.872,-0.51 c 3.007,-11.188 3.824,-41.6359998 3.824,-41.6359998 0,0 0.991,30.5209998 3.953,41.6729998 1.576,0.114 3.127,0.292 4.653,0.528 2.873,-9.06 4.024,-32.5969998 4.024,-32.5969998 0,0 0.931,25.8639998 3.941,34.4489998 1.319,0.409 2.617,0.871 3.89,1.376 3.338,-5.179 4.513,-23.388 4.513,-23.388 l 1.592,26.224 0.067,0.034 h -0.063 l 0.118,1.947 c 0,0 -26.689,8.691 -26.689,49.485 0,-40.601 -27.146,-49.485 -27.146,-49.485"
       id="path2-0-29"
       style="fill:url(#linearGradient4862);fill-opacity:1" />
  </g>
</svg>
