<?xml version="1.0" encoding="UTF-8" standalone="no"?>
<svg
   class="set-header-symbol"
   focusable="false"
   aria-hidden="true"
   viewBox="0 0 1711.8147 265.58759"
   version="1.1"
   id="svg4"
   sodipodi:docname="snc.svg"
   width="1711.8147"
   height="265.58759"
   inkscape:version="1.1 (c68e22c387, 2021-05-23)"
   xmlns:inkscape="http://www.inkscape.org/namespaces/inkscape"
   xmlns:sodipodi="http://sodipodi.sourceforge.net/DTD/sodipodi-0.dtd"
   xmlns:xlink="http://www.w3.org/1999/xlink"
   xmlns="http://www.w3.org/2000/svg"
   xmlns:svg="http://www.w3.org/2000/svg">
  <defs
     id="defs8">
    <linearGradient
       inkscape:collect="always"
       id="linearGradient1067">
      <stop
         style="stop-color:#b73326;stop-opacity:1"
         offset="0"
         id="stop1061" />
      <stop
         id="stop1063"
         offset="0.49997669"
         style="stop-color:#f49226;stop-opacity:1" />
      <stop
         style="stop-color:#b73326;stop-opacity:1"
         offset="1"
         id="stop1065" />
    </linearGradient>
    <linearGradient
       inkscape:collect="always"
       id="linearGradient1083">
      <stop
         style="stop-color:#86713f;stop-opacity:1"
         offset="0"
         id="stop1077" />
      <stop
         id="stop1079"
         offset="0.5"
         style="stop-color:#dfc27f;stop-opacity:1" />
      <stop
         style="stop-color:#86713f;stop-opacity:1"
         offset="1"
         id="stop1081" />
    </linearGradient>
    <linearGradient
       inkscape:collect="always"
       id="linearGradient1099">
      <stop
         style="stop-color:#4c6d7a;stop-opacity:1"
         offset="0"
         id="stop1093" />
      <stop
         id="stop1095"
         offset="0.5"
         style="stop-color:#bae2ef;stop-opacity:1" />
      <stop
         style="stop-color:#4c6d7a;stop-opacity:1"
         offset="1"
         id="stop1097" />
    </linearGradient>
    <linearGradient
       inkscape:collect="always"
       xlink:href="#linearGradient1099"
       id="linearGradient2246"
       x1="586.24188"
       y1="175.86147"
       x2="998.24994"
       y2="175.86147"
       gradientUnits="userSpaceOnUse"
       gradientTransform="translate(-150.3154,-43.069286)" />
    <linearGradient
       inkscape:collect="always"
       xlink:href="#linearGradient1083"
       id="linearGradient2296"
       gradientUnits="userSpaceOnUse"
       x1="586.24188"
       y1="175.86147"
       x2="998.24994"
       y2="175.86147"
       gradientTransform="translate(277.63826,-43.069286)" />
    <linearGradient
       inkscape:collect="always"
       xlink:href="#linearGradient1067"
       id="linearGradient2329"
       gradientUnits="userSpaceOnUse"
       x1="586.24188"
       y1="175.86147"
       x2="998.24994"
       y2="175.86147"
       gradientTransform="translate(705.59196,-43.069286)" />
  </defs>
  <sodipodi:namedview
     id="namedview6"
     pagecolor="#ffffff"
     bordercolor="#666666"
     borderopacity="1.0"
     inkscape:pageshadow="2"
     inkscape:pageopacity="0.0"
     inkscape:pagecheckerboard="0"
     showgrid="false"
     fit-margin-top="0"
     fit-margin-left="0"
     fit-margin-right="0"
     fit-margin-bottom="0"
     inkscape:zoom="0.32566586"
     inkscape:cx="852.10037"
     inkscape:cy="-425.28253"
     inkscape:window-width="1858"
     inkscape:window-height="1177"
     inkscape:window-x="54"
     inkscape:window-y="-8"
     inkscape:window-maximized="1"
     inkscape:current-layer="svg4" />
  <g
     id="g2474"
     inkscape:export-filename="D:\git\Mtgjson2Familiar\symbols\SNC_C.png"
     inkscape:export-xdpi="26.025312"
     inkscape:export-ydpi="26.025312">
    <path
       d="m 139.40402,219.42261 c 2.584,7.644 2.427,14.346 -0.472,20.107 2.754,2.687 7.19,5.384 13.308,8.09 -32.262,15.22 -57.730001,13.007 -76.402001,-6.638 30.547001,5.046 51.735001,-2.14 63.566001,-21.558 z m 149.146,0 c 11.83,19.42 33.019,26.605 63.566,21.56 -18.673,19.644 -44.14,21.857 -76.403,6.637 6.119,-2.706 10.555,-5.403 13.308,-8.09 -2.898,-5.76 -3.056,-12.463 -0.471,-20.106 z m -50.9,-163.425994 c 16.697,6.119998 32.546,13.280998 47.543,21.482998 -1.162,11.584 1.797,19.438 8.879,23.562996 7.082,4.124 16.272,3.726 27.572,-1.194996 16.58,12.133996 30.406,24.903996 41.479,38.311996 -8.163,20.723 -18.209,41.517 -30.136,62.381 -16.005,-5.986 -28.792,-5.956 -38.36,0.09 -14.35,9.07 -16.833,21.337 -15.592,36.724 -13.355,8.048 -36.97,14.726 -65.058,14.726 l -0.859,-0.002 c -27.71,-0.134 -50.98,-6.758 -64.2,-14.724 1.242,-15.387 -1.24,-27.654 -15.592,-36.724 -9.567,-6.046 -22.354,-6.076 -38.360001,-0.09 -11.927,-20.864 -21.972,-41.658 -30.135,-62.381 11.073,-13.408 24.9,-26.178 41.480001,-38.311996 11.298,4.920996 20.489,5.319996 27.57,1.194996 7.083,-4.124996 10.042,-11.979996 8.88,-23.562996 14.997,-8.202 30.845,-15.363 47.544,-21.482998 5.464,12.582998 13.355,18.819998 23.672,18.709998 10.317,0.11 18.207,-6.127 23.672,-18.709998 z M 40.438019,201.35861 c 16.261,8.552 32.852,11.41 49.771,8.573 11.778001,-1.82 30.132001,-14.142 44.605001,3.102 -10.216,25.346 -68.035001,39.047 -94.376001,-11.675 z m 347.076001,0 c -26.341,50.722 -84.16,37.021 -94.376,11.675 14.473,-17.244 32.826,-4.921 44.605,-3.102 16.919,2.836 33.51,-0.021 49.771,-8.573 z m -372.005001,-60.47 c 14.723,16.444 33.23,26.935 55.522,31.472 a 2694.074,2694.074 0 0 0 16.596,30.853 c -37.759,5.618 -74.096,-17.303 -72.118,-62.325 z m 396.936001,0 c 1.978,45.022 -34.36,67.943 -72.118,62.325 a 2694.074,2694.074 0 0 0 16.596,-30.853 c 22.291,-4.537 40.799,-15.028 55.522,-31.472 z m -232.761,-55.934996 h -0.204 c -16.574,0 -32.124,13.17 -31.491,32.611996 0.352,9.21 -7.147,10.595 -11.736,6.595 -4.563,-4.126 -12.215,-4.282 -14.997,-4.282 -18.405,0 -28.867001,15.465 -28.867001,30.784 0,12.702 8.565001,29.35 29.500001,29.35 22.374,0.403 28.618,-21.56 28.618,-29.35 0,-8.326 7.987,-9.494 11.768,-5.882 2.466,2.052 5.476,3.57 9.03,4.557 19.814,4.593 31.945,-6.578 35.176,-14.374 1.622,-3.907 4.12,-5.86 7.497,-5.86 l -10e-4,-0.002 0.288,0.006 c 3.231,0.109 5.634,2.06 7.21,5.856 3.231,7.796 15.362,18.967 35.176,14.374 3.554,-0.986 6.564,-2.505 9.03,-4.557 3.78,-3.612 11.768,-2.444 11.768,5.882 0,7.79 6.244,29.753 28.617,29.35 20.936,0 29.5,-16.648 29.5,-29.35 0,-15.319 -10.461,-30.784 -28.866,-30.784 -2.782,0 -10.434,0.156 -14.997,4.282 -4.59,4 -12.088,2.615 -11.736,-6.595 0.633,-19.440996 -14.917,-32.611996 -31.491,-32.611996 -6.735,0 -19.896,0.52 -27.78,16.088996 -1.646,3.509 -3.801,5.207 -6.467,5.095 l -0.251,-0.016 c -2.782,0.233 -5.021,-1.46 -6.717,-5.08 -7.885,-15.567996 -21.046,-16.087996 -27.781,-16.087996 z m -168.603001,-13.13 c 3.884,18.667 22.08,36.435996 54.588,53.306996 -3.4,3.627 -6.835,7.583 -10.304,11.87 a 871.043,871.043 0 0 0 12.484,28.821 c -49.012,-14.658 -67.93500004,-45.99 -56.768,-93.997996 z m 405.792001,0 c 11.166,48.007996 -7.756,79.339996 -56.768,93.997996 4.33,-9.521 8.49,-19.128 12.483,-28.822 -3.469,-4.286 -6.903,-8.242 -10.303,-11.869 32.508,-16.871 50.704,-34.639996 54.588,-53.306996 z M 20.379019,7.9986165 c 13.157,29.0540005 39.59,58.1879975 79.298,87.4039975 -11.423,8.155996 -21.06,16.297996 -28.912,24.427996 -51.355,-21.612996 -68.151,-58.889996 -50.386,-111.8319935 z m 387.196001,0 c 17.764,52.9419975 0.968,90.2189975 -50.386,111.8319935 -7.852,-8.13 -17.49,-16.272 -28.912,-24.427996 39.708,-29.216 66.14,-58.349997 79.298,-87.4039975 z"
       fill="#000000"
       fill-rule="evenodd"
       id="path2-8"
       style="fill:none;stroke:#ffffff;stroke-width:16;stroke-linecap:butt;stroke-linejoin:round;stroke-miterlimit:4;stroke-dasharray:none;stroke-opacity:1" />
    <path
       d="m 139.40402,219.42261 c 2.584,7.644 2.427,14.346 -0.472,20.107 2.754,2.687 7.19,5.384 13.308,8.09 -32.262,15.22 -57.730001,13.007 -76.402001,-6.638 30.547001,5.046 51.735001,-2.14 63.566001,-21.558 z m 149.146,0 c 11.83,19.42 33.019,26.605 63.566,21.56 -18.673,19.644 -44.14,21.857 -76.403,6.637 6.119,-2.706 10.555,-5.403 13.308,-8.09 -2.898,-5.76 -3.056,-12.463 -0.471,-20.106 z m -50.9,-163.425991 c 16.697,6.120005 32.546,13.281005 47.543,21.483005 -1.162,11.584 1.797,19.438 8.879,23.562996 7.082,4.12399 16.272,3.726 27.572,-1.194996 16.58,12.133996 30.406,24.903986 41.479,38.311986 -8.163,20.723 -18.209,41.517 -30.136,62.381 -16.005,-5.986 -28.792,-5.956 -38.36,0.09 -14.35,9.07 -16.833,21.337 -15.592,36.724 -13.355,8.048 -36.97,14.726 -65.058,14.726 l -0.859,-0.002 c -27.71,-0.134 -50.98,-6.758 -64.2,-14.724 1.242,-15.387 -1.24,-27.654 -15.592,-36.724 -9.567,-6.046 -22.354,-6.076 -38.360001,-0.09 -11.927,-20.864 -21.972,-41.658 -30.135,-62.381 11.073,-13.408 24.9,-26.17799 41.480001,-38.311986 11.298,4.920996 20.489,5.319996 27.57,1.194996 7.083,-4.124996 10.042,-11.979996 8.88,-23.562996 14.997,-8.202 30.845,-15.363 47.544,-21.483005 5.464,12.583005 13.355,18.820005 23.672,18.710005 10.317,0.11 18.207,-6.127 23.672,-18.710005 z M 40.438019,201.35861 c 16.261,8.552 32.852,11.41 49.771,8.573 11.778001,-1.82 30.132001,-14.142 44.605001,3.102 -10.216,25.346 -68.035001,39.047 -94.376001,-11.675 z m 347.076001,0 c -26.341,50.722 -84.16,37.021 -94.376,11.675 14.473,-17.244 32.826,-4.921 44.605,-3.102 16.919,2.836 33.51,-0.021 49.771,-8.573 z m -372.005001,-60.47 c 14.723,16.444 33.23,26.935 55.522,31.472 a 2694.074,2694.074 0 0 0 16.596,30.853 c -37.759,5.618 -74.096,-17.303 -72.118,-62.325 z m 396.936001,0 c 1.978,45.022 -34.36,67.943 -72.118,62.325 a 2694.074,2694.074 0 0 0 16.596,-30.853 c 22.291,-4.537 40.799,-15.028 55.522,-31.472 z m -232.761,-55.934986 h -0.204 c -16.574,0 -32.124,13.17 -31.491,32.611996 0.352,9.20999 -7.147,10.59499 -11.736,6.59499 -4.563,-4.12599 -12.215,-4.28199 -14.997,-4.28199 -18.405,0 -28.867001,15.46499 -28.867001,30.78399 0,12.702 8.565001,29.35 29.500001,29.35 22.374,0.403 28.618,-21.56 28.618,-29.35 0,-8.326 7.987,-9.494 11.768,-5.882 2.466,2.052 5.476,3.57 9.03,4.557 19.814,4.593 31.945,-6.578 35.176,-14.374 1.622,-3.907 4.12,-5.86 7.497,-5.86 l -10e-4,-0.002 0.288,0.006 c 3.231,0.109 5.634,2.06 7.21,5.856 3.231,7.796 15.362,18.967 35.176,14.374 3.554,-0.986 6.564,-2.505 9.03,-4.557 3.78,-3.612 11.768,-2.444 11.768,5.882 0,7.79 6.244,29.753 28.617,29.35 20.936,0 29.5,-16.648 29.5,-29.35 0,-15.319 -10.461,-30.78399 -28.866,-30.78399 -2.782,0 -10.434,0.156 -14.997,4.28199 -4.59,4 -12.088,2.615 -11.736,-6.59499 0.633,-19.440996 -14.917,-32.611996 -31.491,-32.611996 -6.735,0 -19.896,0.52 -27.78,16.088996 -1.646,3.509 -3.801,5.207 -6.467,5.095 l -0.251,-0.016 c -2.782,0.233 -5.021,-1.46 -6.717,-5.08 -7.885,-15.567996 -21.046,-16.087996 -27.781,-16.087996 z m -168.603001,-13.13 c 3.884,18.667 22.08,36.435996 54.588,53.306986 -3.4,3.627 -6.835,7.583 -10.304,11.87 a 871.043,871.043 0 0 0 12.484,28.821 c -49.012,-14.658 -67.93500004,-45.98999 -56.768,-93.997986 z m 405.792001,0 c 11.166,48.007996 -7.756,79.339986 -56.768,93.997986 4.33,-9.521 8.49,-19.128 12.483,-28.822 -3.469,-4.286 -6.903,-8.242 -10.303,-11.869 32.508,-16.87099 50.704,-34.639986 54.588,-53.306986 z M 20.379019,7.9986185 c 13.157,29.0540005 39.59,58.1880055 79.298,87.4040055 -11.423,8.155996 -21.06,16.297996 -28.912,24.427996 -51.355,-21.612996 -68.151,-58.889996 -50.386,-111.8320015 z m 387.196001,0 c 17.764,52.9420055 0.968,90.2190055 -50.386,111.8320015 -7.852,-8.13 -17.49,-16.272 -28.912,-24.427996 39.708,-29.216 66.14,-58.350005 79.298,-87.4040055 z"
       fill="#000000"
       fill-rule="evenodd"
       id="path2-6" />
  </g>
  <g
     id="g2470"
     inkscape:export-filename="D:\git\Mtgjson2Familiar\symbols\SNC_U.png"
     inkscape:export-xdpi="26.030001"
     inkscape:export-ydpi="26.030001">
    <path
       d="m 567.3577,219.42261 c 2.584,7.644 2.427,14.346 -0.472,20.107 2.754,2.687 7.19,5.384 13.308,8.09 -32.262,15.22 -57.73,13.007 -76.402,-6.638 30.547,5.046 51.735,-2.14 63.566,-21.558 z m 149.146,0 c 11.83,19.42 33.019,26.605 63.566,21.56 -18.673,19.644 -44.14,21.857 -76.403,6.637 6.119,-2.706 10.555,-5.403 13.308,-8.09 -2.898,-5.76 -3.056,-12.463 -0.471,-20.106 z m -50.9,-163.425992 c 16.697,6.119996 32.546,13.280996 47.543,21.482996 -1.162,11.584 1.797,19.438 8.879,23.562996 7.082,4.124 16.272,3.726 27.572,-1.194996 16.58,12.133996 30.406,24.903996 41.479,38.311996 -8.163,20.723 -18.209,41.517 -30.136,62.381 -16.005,-5.986 -28.792,-5.956 -38.36,0.09 -14.35,9.07 -16.833,21.337 -15.592,36.724 -13.355,8.048 -36.97,14.726 -65.058,14.726 l -0.859,-0.002 c -27.71,-0.134 -50.98,-6.758 -64.2,-14.724 1.242,-15.387 -1.24,-27.654 -15.592,-36.724 -9.567,-6.046 -22.354,-6.076 -38.36,-0.09 -11.927,-20.864 -21.972,-41.658 -30.135,-62.381 11.073,-13.408 24.9,-26.178 41.48,-38.311996 11.298,4.920996 20.489,5.319996 27.57,1.194996 7.083,-4.124996 10.042,-11.979996 8.88,-23.562996 14.997,-8.202 30.845,-15.363 47.544,-21.482996 5.464,12.582996 13.355,18.819996 23.672,18.709996 10.317,0.11 18.207,-6.127 23.672,-18.709996 z M 468.3917,201.35861 c 16.261,8.552 32.852,11.41 49.771,8.573 11.778,-1.82 30.132,-14.142 44.605,3.102 -10.216,25.346 -68.035,39.047 -94.376,-11.675 z m 347.076,0 c -26.341,50.722 -84.16,37.021 -94.376,11.675 14.473,-17.244 32.826,-4.921 44.605,-3.102 16.919,2.836 33.51,-0.021 49.771,-8.573 z m -372.005,-60.47 c 14.723,16.444 33.23,26.935 55.522,31.472 a 2694.074,2694.074 0 0 0 16.596,30.853 c -37.759,5.618 -74.096,-17.303 -72.118,-62.325 z m 396.936,0 c 1.978,45.022 -34.36,67.943 -72.118,62.325 a 2694.074,2694.074 0 0 0 16.596,-30.853 c 22.291,-4.537 40.799,-15.028 55.522,-31.472 z M 607.6377,84.953614 h -0.204 c -16.574,0 -32.124,13.17 -31.491,32.611996 0.352,9.21 -7.147,10.595 -11.736,6.595 -4.563,-4.126 -12.215,-4.282 -14.997,-4.282 -18.405,0 -28.867,15.465 -28.867,30.784 0,12.702 8.565,29.35 29.5,29.35 22.374,0.403 28.618,-21.56 28.618,-29.35 0,-8.326 7.987,-9.494 11.768,-5.882 2.466,2.052 5.476,3.57 9.03,4.557 19.814,4.593 31.945,-6.578 35.176,-14.374 1.622,-3.907 4.12,-5.86 7.497,-5.86 l -10e-4,-0.002 0.288,0.006 c 3.231,0.109 5.634,2.06 7.21,5.856 3.231,7.796 15.362,18.967 35.176,14.374 3.554,-0.986 6.564,-2.505 9.03,-4.557 3.78,-3.612 11.768,-2.444 11.768,5.882 0,7.79 6.244,29.753 28.617,29.35 20.936,0 29.5,-16.648 29.5,-29.35 0,-15.319 -10.461,-30.784 -28.866,-30.784 -2.782,0 -10.434,0.156 -14.997,4.282 -4.59,4 -12.088,2.615 -11.736,-6.595 0.633,-19.440996 -14.917,-32.611996 -31.491,-32.611996 -6.735,0 -19.896,0.52 -27.78,16.088996 -1.646,3.509 -3.801,5.207 -6.467,5.095 l -0.251,-0.016 c -2.782,0.233 -5.021,-1.46 -6.717,-5.08 -7.885,-15.567996 -21.046,-16.087996 -27.781,-16.087996 z m -168.603,-13.13 c 3.884,18.667 22.08,36.435996 54.588,53.306996 -3.4,3.627 -6.835,7.583 -10.304,11.87 a 871.043,871.043 0 0 0 12.484,28.821 c -49.012,-14.658 -67.935,-45.99 -56.768,-93.997996 z m 405.792,0 c 11.166,48.007996 -7.756,79.339996 -56.768,93.997996 4.33,-9.521 8.49,-19.128 12.483,-28.822 -3.469,-4.286 -6.903,-8.242 -10.303,-11.869 32.508,-16.871 50.704,-34.639996 54.588,-53.306996 z M 448.3327,7.9986185 c 13.157,29.0540005 39.59,58.1879955 79.298,87.4039955 -11.423,8.155996 -21.06,16.297996 -28.912,24.427996 -51.355,-21.612996 -68.151,-58.889996 -50.386,-111.8319915 z m 387.196,0 c 17.764,52.9419955 0.968,90.2189955 -50.386,111.8319915 -7.852,-8.13 -17.49,-16.272 -28.912,-24.427996 39.708,-29.216 66.14,-58.349995 79.298,-87.4039955 z"
       fill="#000000"
       fill-rule="evenodd"
       id="path2-8-1"
       style="fill:none;stroke:#000000;stroke-width:16;stroke-linecap:butt;stroke-linejoin:round;stroke-miterlimit:4;stroke-dasharray:none;stroke-opacity:1" />
    <path
       d="m 567.3577,219.42261 c 2.584,7.644 2.427,14.346 -0.472,20.107 2.754,2.687 7.19,5.384 13.308,8.09 -32.262,15.22 -57.73,13.007 -76.402,-6.638 30.547,5.046 51.735,-2.14 63.566,-21.558 z m 149.146,0 c 11.83,19.42 33.019,26.605 63.566,21.56 -18.673,19.644 -44.14,21.857 -76.403,6.637 6.119,-2.706 10.555,-5.403 13.308,-8.09 -2.898,-5.76 -3.056,-12.463 -0.471,-20.106 z m -50.9,-163.425989 c 16.697,6.120003 32.546,13.281003 47.543,21.483003 -1.162,11.584 1.797,19.438 8.879,23.562996 7.082,4.124 16.272,3.726 27.572,-1.194996 16.58,12.133996 30.406,24.903986 41.479,38.311986 -8.163,20.723 -18.209,41.517 -30.136,62.381 -16.005,-5.986 -28.792,-5.956 -38.36,0.09 -14.35,9.07 -16.833,21.337 -15.592,36.724 -13.355,8.048 -36.97,14.726 -65.058,14.726 l -0.859,-0.002 c -27.71,-0.134 -50.98,-6.758 -64.2,-14.724 1.242,-15.387 -1.24,-27.654 -15.592,-36.724 -9.567,-6.046 -22.354,-6.076 -38.36,-0.09 -11.927,-20.864 -21.972,-41.658 -30.135,-62.381 11.073,-13.408 24.9,-26.17799 41.48,-38.311986 11.298,4.920996 20.489,5.319996 27.57,1.194996 7.083,-4.124996 10.042,-11.979996 8.88,-23.562996 14.997,-8.202 30.845,-15.363 47.544,-21.483003 5.464,12.583003 13.355,18.820003 23.672,18.710003 10.317,0.11 18.207,-6.127 23.672,-18.710003 z M 468.3917,201.35861 c 16.261,8.552 32.852,11.41 49.771,8.573 11.778,-1.82 30.132,-14.142 44.605,3.102 -10.216,25.346 -68.035,39.047 -94.376,-11.675 z m 347.076,0 c -26.341,50.722 -84.16,37.021 -94.376,11.675 14.473,-17.244 32.826,-4.921 44.605,-3.102 16.919,2.836 33.51,-0.021 49.771,-8.573 z m -372.005,-60.47 c 14.723,16.444 33.23,26.935 55.522,31.472 a 2694.074,2694.074 0 0 0 16.596,30.853 c -37.759,5.618 -74.096,-17.303 -72.118,-62.325 z m 396.936,0 c 1.978,45.022 -34.36,67.943 -72.118,62.325 a 2694.074,2694.074 0 0 0 16.596,-30.853 c 22.291,-4.537 40.799,-15.028 55.522,-31.472 z M 607.6377,84.953624 h -0.204 c -16.574,0 -32.124,13.17 -31.491,32.611996 0.352,9.20999 -7.147,10.59499 -11.736,6.59499 -4.563,-4.12599 -12.215,-4.28199 -14.997,-4.28199 -18.405,0 -28.867,15.46499 -28.867,30.78399 0,12.702 8.565,29.35 29.5,29.35 22.374,0.403 28.618,-21.56 28.618,-29.35 0,-8.326 7.987,-9.494 11.768,-5.882 2.466,2.052 5.476,3.57 9.03,4.557 19.814,4.593 31.945,-6.578 35.176,-14.374 1.622,-3.907 4.12,-5.86 7.497,-5.86 l -10e-4,-0.002 0.288,0.006 c 3.231,0.109 5.634,2.06 7.21,5.856 3.231,7.796 15.362,18.967 35.176,14.374 3.554,-0.986 6.564,-2.505 9.03,-4.557 3.78,-3.612 11.768,-2.444 11.768,5.882 0,7.79 6.244,29.753 28.617,29.35 20.936,0 29.5,-16.648 29.5,-29.35 0,-15.319 -10.461,-30.78399 -28.866,-30.78399 -2.782,0 -10.434,0.156 -14.997,4.28199 -4.59,4 -12.088,2.615 -11.736,-6.59499 0.633,-19.440996 -14.917,-32.611996 -31.491,-32.611996 -6.735,0 -19.896,0.52 -27.78,16.088996 -1.646,3.509 -3.801,5.207 -6.467,5.095 l -0.251,-0.016 c -2.782,0.233 -5.021,-1.46 -6.717,-5.08 -7.885,-15.567996 -21.046,-16.087996 -27.781,-16.087996 z m -168.603,-13.13 c 3.884,18.667 22.08,36.435996 54.588,53.306986 -3.4,3.627 -6.835,7.583 -10.304,11.87 a 871.043,871.043 0 0 0 12.484,28.821 c -49.012,-14.658 -67.935,-45.98999 -56.768,-93.997986 z m 405.792,0 c 11.166,48.007996 -7.756,79.339986 -56.768,93.997986 4.33,-9.521 8.49,-19.128 12.483,-28.822 -3.469,-4.286 -6.903,-8.242 -10.303,-11.869 32.508,-16.87099 50.704,-34.639986 54.588,-53.306986 z M 448.3327,7.9986205 c 13.157,29.0540005 39.59,58.1880035 79.298,87.4040035 -11.423,8.155996 -21.06,16.297996 -28.912,24.427996 -51.355,-21.612996 -68.151,-58.889996 -50.386,-111.8319995 z m 387.196,0 c 17.764,52.9420035 0.968,90.2190035 -50.386,111.8319995 -7.852,-8.13 -17.49,-16.272 -28.912,-24.427996 39.708,-29.216 66.14,-58.350003 79.298,-87.4040035 z"
       fill="#000000"
       fill-rule="evenodd"
       id="path2-6-7"
       style="fill:url(#linearGradient2246);fill-opacity:1" />
  </g>
  <g
     id="g2466"
     inkscape:export-filename="D:\git\Mtgjson2Familiar\symbols\SNC_R.png"
     inkscape:export-xdpi="26.030001"
     inkscape:export-ydpi="26.030001">
    <path
       d="m 995.3114,219.42261 c 2.584,7.644 2.427,14.346 -0.472,20.107 2.754,2.687 7.19,5.384 13.308,8.09 -32.262,15.22 -57.73,13.007 -76.402,-6.638 30.547,5.046 51.735,-2.14 63.566,-21.558 z m 149.146,0 c 11.83,19.42 33.019,26.605 63.566,21.56 -18.673,19.644 -44.14,21.857 -76.403,6.637 6.119,-2.706 10.555,-5.403 13.308,-8.09 -2.898,-5.76 -3.056,-12.463 -0.471,-20.106 z m -50.9,-163.425996 c 16.697,6.12 32.546,13.281 47.543,21.483 -1.162,11.584 1.797,19.438 8.879,23.562996 7.082,4.124 16.272,3.726 27.572,-1.194996 16.58,12.133996 30.406,24.903996 41.479,38.311996 -8.163,20.723 -18.209,41.517 -30.136,62.381 -16.005,-5.986 -28.792,-5.956 -38.36,0.09 -14.35,9.07 -16.833,21.337 -15.592,36.724 -13.355,8.048 -36.97,14.726 -65.058,14.726 l -0.859,-0.002 c -27.71,-0.134 -50.98,-6.758 -64.2,-14.724 1.242,-15.387 -1.24,-27.654 -15.592,-36.724 -9.567,-6.046 -22.354,-6.076 -38.36,-0.09 -11.927,-20.864 -21.972,-41.658 -30.135,-62.381 11.073,-13.408 24.9,-26.178 41.48,-38.311996 11.298,4.920996 20.489,5.319996 27.57,1.194996 7.083,-4.124996 10.042,-11.979996 8.88,-23.562996 14.997,-8.202 30.845,-15.363 47.544,-21.483 5.464,12.583 13.355,18.82 23.672,18.71 10.317,0.11 18.207,-6.127 23.672,-18.71 z M 896.3454,201.35861 c 16.261,8.552 32.852,11.41 49.771,8.573 11.778,-1.82 30.132,-14.142 44.605,3.102 -10.216,25.346 -68.035,39.047 -94.376,-11.675 z m 347.076,0 c -26.341,50.722 -84.16,37.021 -94.376,11.675 14.473,-17.244 32.826,-4.921 44.605,-3.102 16.919,2.836 33.51,-0.021 49.771,-8.573 z m -372.005,-60.47 c 14.723,16.444 33.23,26.935 55.522,31.472 a 2694.074,2694.074 0 0 0 16.596,30.853 c -37.759,5.618 -74.096,-17.303 -72.118,-62.325 z m 396.936,0 c 1.978,45.022 -34.36,67.943 -72.118,62.325 a 2694.074,2694.074 0 0 0 16.596,-30.853 c 22.291,-4.537 40.799,-15.028 55.522,-31.472 z m -232.761,-55.934996 h -0.204 c -16.574,0 -32.124,13.17 -31.491,32.611996 0.352,9.21 -7.147,10.595 -11.736,6.595 -4.563,-4.126 -12.215,-4.282 -14.997,-4.282 -18.405,0 -28.867,15.465 -28.867,30.784 0,12.702 8.565,29.35 29.5,29.35 22.374,0.403 28.618,-21.56 28.618,-29.35 0,-8.326 7.987,-9.494 11.768,-5.882 2.466,2.052 5.476,3.57 9.03,4.557 19.814,4.593 31.945,-6.578 35.176,-14.374 1.622,-3.907 4.12,-5.86 7.497,-5.86 l -10e-4,-0.002 0.288,0.006 c 3.231,0.109 5.634,2.06 7.21,5.856 3.231,7.796 15.362,18.967 35.176,14.374 3.554,-0.986 6.564,-2.505 9.03,-4.557 3.78,-3.612 11.768,-2.444 11.768,5.882 0,7.79 6.244,29.753 28.617,29.35 20.936,0 29.5,-16.648 29.5,-29.35 0,-15.319 -10.461,-30.784 -28.866,-30.784 -2.782,0 -10.434,0.156 -14.997,4.282 -4.59,4 -12.088,2.615 -11.736,-6.595 0.633,-19.440996 -14.917,-32.611996 -31.491,-32.611996 -6.735,0 -19.896,0.52 -27.78,16.088996 -1.646,3.509 -3.801,5.207 -6.467,5.095 l -0.251,-0.016 c -2.782,0.233 -5.021,-1.46 -6.717,-5.08 -7.885,-15.567996 -21.046,-16.087996 -27.781,-16.087996 z m -168.603,-13.13 c 3.884,18.667 22.08,36.435996 54.588,53.306996 -3.4,3.627 -6.835,7.583 -10.304,11.87 a 871.043,871.043 0 0 0 12.484,28.821 c -49.012,-14.658 -67.935,-45.99 -56.768,-93.997996 z m 405.792,0 c 11.166,48.007996 -7.756,79.339996 -56.768,93.997996 4.33,-9.521 8.49,-19.128 12.483,-28.822 -3.469,-4.286 -6.903,-8.242 -10.303,-11.869 32.508,-16.871 50.704,-34.639996 54.588,-53.306996 z M 876.2864,7.9986185 c 13.157,29.0540005 39.59,58.1879955 79.298,87.4039955 -11.423,8.155996 -21.06,16.297996 -28.912,24.427996 -51.355,-21.612996 -68.151,-58.889996 -50.386,-111.8319915 z m 387.196,0 c 17.764,52.9419955 0.968,90.2189955 -50.386,111.8319915 -7.852,-8.13 -17.49,-16.272 -28.912,-24.427996 39.708,-29.216 66.14,-58.349995 79.298,-87.4039955 z"
       fill="#000000"
       fill-rule="evenodd"
       id="path2-8-1-3"
       style="fill:none;stroke:#000000;stroke-width:16;stroke-linecap:butt;stroke-linejoin:round;stroke-miterlimit:4;stroke-dasharray:none;stroke-opacity:1" />
    <path
       d="m 995.3114,219.42261 c 2.584,7.644 2.427,14.346 -0.472,20.107 2.754,2.687 7.19,5.384 13.308,8.09 -32.262,15.22 -57.73,13.007 -76.402,-6.638 30.547,5.046 51.735,-2.14 63.566,-21.558 z m 149.146,0 c 11.83,19.42 33.019,26.605 63.566,21.56 -18.673,19.644 -44.14,21.857 -76.403,6.637 6.119,-2.706 10.555,-5.403 13.308,-8.09 -2.898,-5.76 -3.056,-12.463 -0.471,-20.106 z m -50.9,-163.425986 c 16.697,6.12 32.546,13.281 47.543,21.483 -1.162,11.584 1.797,19.438 8.879,23.562996 7.082,4.124 16.272,3.726 27.572,-1.194996 16.58,12.133996 30.406,24.903986 41.479,38.311986 -8.163,20.723 -18.209,41.517 -30.136,62.381 -16.005,-5.986 -28.792,-5.956 -38.36,0.09 -14.35,9.07 -16.833,21.337 -15.592,36.724 -13.355,8.048 -36.97,14.726 -65.058,14.726 l -0.859,-0.002 c -27.71,-0.134 -50.98,-6.758 -64.2,-14.724 1.242,-15.387 -1.24,-27.654 -15.592,-36.724 -9.567,-6.046 -22.354,-6.076 -38.36,-0.09 -11.927,-20.864 -21.972,-41.658 -30.135,-62.381 11.073,-13.408 24.9,-26.17799 41.48,-38.311986 11.298,4.920996 20.489,5.319996 27.57,1.194996 7.083,-4.124996 10.042,-11.979996 8.88,-23.562996 14.997,-8.202 30.845,-15.363 47.544,-21.483 5.464,12.583 13.355,18.82 23.672,18.71 10.317,0.11 18.207,-6.127 23.672,-18.71 z M 896.3454,201.35861 c 16.261,8.552 32.852,11.41 49.771,8.573 11.778,-1.82 30.132,-14.142 44.605,3.102 -10.216,25.346 -68.035,39.047 -94.376,-11.675 z m 347.076,0 c -26.341,50.722 -84.16,37.021 -94.376,11.675 14.473,-17.244 32.826,-4.921 44.605,-3.102 16.919,2.836 33.51,-0.021 49.771,-8.573 z m -372.005,-60.47 c 14.723,16.444 33.23,26.935 55.522,31.472 a 2694.074,2694.074 0 0 0 16.596,30.853 c -37.759,5.618 -74.096,-17.303 -72.118,-62.325 z m 396.936,0 c 1.978,45.022 -34.36,67.943 -72.118,62.325 a 2694.074,2694.074 0 0 0 16.596,-30.853 c 22.291,-4.537 40.799,-15.028 55.522,-31.472 z m -232.761,-55.934986 h -0.204 c -16.574,0 -32.124,13.17 -31.491,32.611996 0.352,9.20999 -7.147,10.59499 -11.736,6.59499 -4.563,-4.12599 -12.215,-4.28199 -14.997,-4.28199 -18.405,0 -28.867,15.46499 -28.867,30.78399 0,12.702 8.565,29.35 29.5,29.35 22.374,0.403 28.618,-21.56 28.618,-29.35 0,-8.326 7.987,-9.494 11.768,-5.882 2.466,2.052 5.476,3.57 9.03,4.557 19.814,4.593 31.945,-6.578 35.176,-14.374 1.622,-3.907 4.12,-5.86 7.497,-5.86 l -10e-4,-0.002 0.288,0.006 c 3.231,0.109 5.634,2.06 7.21,5.856 3.231,7.796 15.362,18.967 35.176,14.374 3.554,-0.986 6.564,-2.505 9.03,-4.557 3.78,-3.612 11.768,-2.444 11.768,5.882 0,7.79 6.244,29.753 28.617,29.35 20.936,0 29.5,-16.648 29.5,-29.35 0,-15.319 -10.461,-30.78399 -28.866,-30.78399 -2.782,0 -10.434,0.156 -14.997,4.28199 -4.59,4 -12.088,2.615 -11.736,-6.59499 0.633,-19.440996 -14.917,-32.611996 -31.491,-32.611996 -6.735,0 -19.896,0.52 -27.78,16.088996 -1.646,3.509 -3.801,5.207 -6.467,5.095 l -0.251,-0.016 c -2.782,0.233 -5.021,-1.46 -6.717,-5.08 -7.885,-15.567996 -21.046,-16.087996 -27.781,-16.087996 z m -168.603,-13.13 c 3.884,18.667 22.08,36.435996 54.588,53.306986 -3.4,3.627 -6.835,7.583 -10.304,11.87 a 871.043,871.043 0 0 0 12.484,28.821 c -49.012,-14.658 -67.935,-45.98999 -56.768,-93.997986 z m 405.792,0 c 11.166,48.007996 -7.756,79.339986 -56.768,93.997986 4.33,-9.521 8.49,-19.128 12.483,-28.822 -3.469,-4.286 -6.903,-8.242 -10.303,-11.869 32.508,-16.87099 50.704,-34.639986 54.588,-53.306986 z M 876.2864,7.9986205 c 13.157,29.0540005 39.59,58.1880035 79.298,87.4040035 -11.423,8.155996 -21.06,16.297996 -28.912,24.427996 -51.355,-21.612996 -68.151,-58.889996 -50.386,-111.8319995 z m 387.196,0 c 17.764,52.9420035 0.968,90.2190035 -50.386,111.8319995 -7.852,-8.13 -17.49,-16.272 -28.912,-24.427996 39.708,-29.216 66.14,-58.350003 79.298,-87.4040035 z"
       fill="#000000"
       fill-rule="evenodd"
       id="path2-6-7-2"
       style="fill:url(#linearGradient2296);fill-opacity:1" />
  </g>
  <g
     id="g2462"
     inkscape:export-filename="D:\git\Mtgjson2Familiar\symbols\SNC_M.png"
     inkscape:export-xdpi="26.030001"
     inkscape:export-ydpi="26.030001">
    <path
       d="m 1423.2651,219.42261 c 2.5839,7.644 2.427,14.346 -0.472,20.107 2.754,2.687 7.19,5.384 13.308,8.09 -32.262,15.22 -57.73,13.007 -76.402,-6.638 30.547,5.046 51.7349,-2.14 63.566,-21.558 z m 149.146,0 c 11.83,19.42 33.019,26.605 63.566,21.56 -18.673,19.644 -44.14,21.857 -76.403,6.637 6.1189,-2.706 10.555,-5.403 13.308,-8.09 -2.898,-5.76 -3.056,-12.463 -0.471,-20.106 z m -50.9,-163.425989 c 16.697,6.119993 32.546,13.280993 47.543,21.482993 -1.162,11.584 1.797,19.438 8.879,23.562996 7.082,4.124 16.272,3.726 27.572,-1.194996 16.58,12.133996 30.406,24.903996 41.479,38.311996 -8.163,20.723 -18.209,41.517 -30.136,62.38101 -16.005,-5.986 -28.792,-5.95601 -38.36,0.09 -14.35,9.07 -16.833,21.337 -15.592,36.724 -13.355,8.048 -36.97,14.726 -65.058,14.726 l -0.859,-0.002 c -27.7101,-0.134 -50.98,-6.758 -64.2,-14.724 1.2419,-15.387 -1.2401,-27.654 -15.592,-36.724 -9.567,-6.046 -22.354,-6.07599 -38.3601,-0.09 -11.9269,-20.86401 -21.9719,-41.65801 -30.1349,-62.38101 11.073,-13.40799 24.9,-26.178 41.48,-38.311996 11.298,4.920996 20.489,5.319996 27.57,1.194996 7.083,-4.124996 10.042,-11.979986 8.88,-23.562996 14.997,-8.202 30.845,-15.363 47.544,-21.482993 5.464,12.582993 13.355,18.819993 23.672,18.709993 10.317,0.11 18.207,-6.127 23.672,-18.709993 z m -197.212,145.361989 c 16.261,8.552 32.852,11.41 49.7709,8.573 11.7781,-1.82 30.132,-14.142 44.605,3.102 -10.2159,25.346 -68.0349,39.047 -94.3759,-11.675 z m 347.076,0 c -26.341,50.722 -84.16,37.021 -94.376,11.675 14.4729,-17.244 32.826,-4.921 44.605,-3.102 16.919,2.836 33.51,-0.021 49.771,-8.573 z m -372.005,-60.47 c 14.723,16.444 33.23,26.935 55.522,31.47201 a 2694.074,2694.074 0 0 0 16.596,30.853 c -37.759,5.618 -74.096,-17.303 -72.118,-62.32501 z m 396.936,0 c 1.9779,45.022 -34.36,67.943 -72.118,62.325 a 2694.074,2694.074 0 0 0 16.596,-30.853 c 22.291,-4.537 40.799,-15.028 55.522,-31.472 z m -232.761,-55.934996 h -0.204 c -16.574,0 -32.124,13.17 -31.491,32.611996 0.3519,9.21 -7.147,10.595 -11.736,6.595 -4.563,-4.126 -12.215,-4.282 -14.997,-4.282 -18.405,0 -28.867,15.465 -28.867,30.784 0,12.702 8.565,29.35 29.5,29.35 22.374,0.403 28.618,-21.56 28.618,-29.35 0,-8.326 7.987,-9.494 11.768,-5.882 2.466,2.052 5.476,3.57 9.03,4.557 19.814,4.593 31.945,-6.578 35.176,-14.374 1.622,-3.907 4.12,-5.86 7.497,-5.86 v -0.002 l 0.288,0.006 c 3.231,0.109 5.634,2.06 7.21,5.856 3.231,7.796 15.362,18.967 35.176,14.374 3.554,-0.986 6.564,-2.505 9.03,-4.557 3.78,-3.612 11.768,-2.444 11.768,5.882 0,7.79 6.244,29.753 28.617,29.35 20.936,0 29.5,-16.648 29.5,-29.35 0,-15.319 -10.461,-30.784 -28.866,-30.784 -2.782,0 -10.434,0.156 -14.997,4.282 -4.59,4 -12.088,2.615 -11.736,-6.595 0.633,-19.440996 -14.917,-32.611996 -31.491,-32.611996 -6.735,0 -19.896,0.52 -27.78,16.088996 -1.646,3.509 -3.801,5.207 -6.467,5.095 l -0.251,-0.016 c -2.782,0.233 -5.021,-1.46 -6.717,-5.08 -7.885,-15.567996 -21.046,-16.087996 -27.781,-16.087996 z m -168.6031,-13.13 c 3.8841,18.667 22.0801,36.436006 54.588,53.306996 -3.4,3.627 -6.835,7.58301 -10.304,11.87 a 871.043,871.043 0 0 0 12.4841,28.82101 c -49.012,-14.658 -67.935,-45.99 -56.7681,-93.998006 z m 405.792,0 c 11.166,48.008006 -7.756,79.340006 -56.768,93.997996 4.3301,-9.521 8.49,-19.128 12.483,-28.822 -3.469,-4.286 -6.903,-8.242 -10.303,-11.869 32.508,-16.871 50.704,-34.639996 54.588,-53.306996 z M 1304.24,7.9986205 c 13.1571,29.0540005 39.5901,58.1879935 79.2981,87.4039935 -11.4231,8.155996 -21.06,16.297996 -28.9121,24.427996 C 1303.271,98.217614 1286.4751,60.940624 1304.24,7.9986205 Z m 387.1961,0 c 17.764,52.9420035 0.968,90.2189935 -50.386,111.8319895 -7.852,-8.13 -17.49,-16.272 -28.912,-24.427996 39.708,-29.216 66.14,-58.349993 79.298,-87.4039935 z"
       fill="#000000"
       fill-rule="evenodd"
       id="path2-8-1-9"
       style="fill:none;stroke:#000000;stroke-width:16;stroke-linecap:butt;stroke-linejoin:round;stroke-miterlimit:4;stroke-dasharray:none;stroke-opacity:1" />
    <path
       d="m 1423.2651,219.42261 c 2.5839,7.644 2.427,14.346 -0.472,20.107 2.754,2.687 7.19,5.384 13.308,8.09 -32.262,15.22 -57.73,13.007 -76.402,-6.638 30.547,5.046 51.7349,-2.14 63.566,-21.558 z m 149.146,0 c 11.83,19.42 33.019,26.605 63.566,21.56 -18.673,19.644 -44.14,21.857 -76.403,6.637 6.1189,-2.706 10.555,-5.403 13.308,-8.09 -2.898,-5.76 -3.056,-12.463 -0.471,-20.106 z m -50.9,-163.425989 c 16.697,6.120003 32.546,13.281003 47.543,21.483003 -1.162,11.584 1.797,19.438 8.879,23.562996 7.082,4.124 16.272,3.726 27.572,-1.194996 16.58,12.133996 30.406,24.903986 41.479,38.311986 -8.163,20.723 -18.209,41.517 -30.136,62.381 -16.005,-5.986 -28.792,-5.956 -38.36,0.09 -14.35,9.07 -16.833,21.337 -15.592,36.724 -13.355,8.048 -36.97,14.726 -65.058,14.726 l -0.859,-0.002 c -27.7101,-0.134 -50.98,-6.758 -64.2,-14.724 1.2419,-15.387 -1.2401,-27.654 -15.592,-36.724 -9.567,-6.046 -22.354,-6.07599 -38.3601,-0.09 -11.9269,-20.86401 -21.9719,-41.65801 -30.1349,-62.38101 11.073,-13.40799 24.9,-26.17798 41.48,-38.311976 11.298,4.920986 20.489,5.319986 27.57,1.194986 7.083,-4.124996 10.042,-11.979996 8.88,-23.562996 14.997,-8.202 30.845,-15.363 47.544,-21.483003 5.464,12.583013 13.355,18.820003 23.672,18.710003 10.317,0.11 18.207,-6.12699 23.672,-18.710003 z m -197.212,145.361989 c 16.261,8.552 32.852,11.41 49.7709,8.573 11.7781,-1.82 30.132,-14.142 44.605,3.102 -10.2159,25.346 -68.0349,39.047 -94.3759,-11.675 z m 347.076,0 c -26.341,50.722 -84.16,37.021 -94.376,11.675 14.4729,-17.244 32.826,-4.921 44.605,-3.102 16.919,2.836 33.51,-0.021 49.771,-8.573 z m -372.005,-60.47 c 14.723,16.444 33.23,26.935 55.522,31.47201 a 2694.074,2694.074 0 0 0 16.596,30.853 c -37.759,5.618 -74.096,-17.303 -72.118,-62.32501 z m 396.936,0 c 1.9779,45.022 -34.36,67.943 -72.118,62.325 a 2694.074,2694.074 0 0 0 16.596,-30.853 c 22.291,-4.537 40.799,-15.028 55.522,-31.472 z m -232.761,-55.934986 h -0.204 c -16.574,0 -32.124,13.17 -31.491,32.611996 0.3519,9.20999 -7.147,10.59499 -11.736,6.59499 -4.563,-4.12599 -12.215,-4.28199 -14.997,-4.28199 -18.405,0 -28.867,15.46499 -28.867,30.78399 0,12.702 8.565,29.35 29.5,29.35 22.374,0.403 28.618,-21.56 28.618,-29.35 0,-8.326 7.987,-9.494 11.768,-5.882 2.466,2.052 5.476,3.57 9.03,4.557 19.814,4.593 31.945,-6.578 35.176,-14.374 1.622,-3.907 4.12,-5.86 7.497,-5.86 v -0.002 l 0.288,0.006 c 3.231,0.109 5.634,2.06 7.21,5.856 3.231,7.796 15.362,18.967 35.176,14.374 3.554,-0.986 6.564,-2.505 9.03,-4.557 3.78,-3.612 11.768,-2.444 11.768,5.882 0,7.79 6.244,29.753 28.617,29.35 20.936,0 29.5,-16.648 29.5,-29.35 0,-15.319 -10.461,-30.78399 -28.866,-30.78399 -2.782,0 -10.434,0.156 -14.997,4.28199 -4.59,4 -12.088,2.615 -11.736,-6.59499 0.633,-19.440996 -14.917,-32.611996 -31.491,-32.611996 -6.735,0 -19.896,0.52 -27.78,16.088996 -1.646,3.509 -3.801,5.207 -6.467,5.095 l -0.251,-0.016 c -2.782,0.233 -5.021,-1.46 -6.717,-5.08 -7.885,-15.567996 -21.046,-16.087996 -27.781,-16.087996 z M 1294.942,71.823634 c 3.8841,18.66699 22.0801,36.435986 54.588,53.306976 -3.4,3.627 -6.835,7.58301 -10.304,11.87 a 871.043,871.043 0 0 0 12.4841,28.82101 c -49.012,-14.658 -67.935,-45.99 -56.7681,-93.997986 z m 405.792,0 c 11.166,48.007986 -7.756,79.339986 -56.768,93.997976 4.3301,-9.521 8.49,-19.128 12.483,-28.822 -3.469,-4.286 -6.903,-8.242 -10.303,-11.869 32.508,-16.87099 50.704,-34.639986 54.588,-53.306976 z M 1304.24,7.9986225 c 13.1571,29.0540005 39.5901,58.1880115 79.2981,87.4040115 -11.4231,8.155996 -21.06,16.297996 -28.9121,24.427996 C 1303.271,98.217634 1286.4751,60.940634 1304.24,7.9986225 Z m 387.1961,0 c 17.764,52.9420015 0.968,90.2190115 -50.386,111.8320075 -7.852,-8.13 -17.49,-16.272 -28.912,-24.427996 39.708,-29.216 66.14,-58.350011 79.298,-87.4040115 z"
       fill="#000000"
       fill-rule="evenodd"
       id="path2-6-7-3"
       style="fill:url(#linearGradient2329);fill-opacity:1" />
  </g>
</svg>
