<?xml version="1.0" encoding="UTF-8" standalone="no"?>
<!-- Generated by IcoMoon.io -->

<svg
   version="1.1"
   width="58.460594"
   height="30.000257"
   viewBox="0 0 58.460594 30.000257"
   id="svg6"
   sodipodi:docname="ss3.svg"
   inkscape:version="1.1.1 (3bf5ae0d25, 2021-09-20)"
   xmlns:inkscape="http://www.inkscape.org/namespaces/inkscape"
   xmlns:sodipodi="http://sodipodi.sourceforge.net/DTD/sodipodi-0.dtd"
   xmlns:xlink="http://www.w3.org/1999/xlink"
   xmlns="http://www.w3.org/2000/svg"
   xmlns:svg="http://www.w3.org/2000/svg"
   xmlns:rdf="http://www.w3.org/1999/02/22-rdf-syntax-ns#"
   xmlns:cc="http://creativecommons.org/ns#"
   xmlns:dc="http://purl.org/dc/elements/1.1/">
  <defs
     id="defs10">
    <linearGradient
       inkscape:collect="always"
       id="linearGradient1067">
      <stop
         style="stop-color:#b73326;stop-opacity:1"
         offset="0"
         id="stop1061" />
      <stop
         id="stop1063"
         offset="0.49997669"
         style="stop-color:#f49226;stop-opacity:1" />
      <stop
         style="stop-color:#b73326;stop-opacity:1"
         offset="1"
         id="stop1065" />
    </linearGradient>
    <linearGradient
       inkscape:collect="always"
       id="linearGradient1083">
      <stop
         style="stop-color:#86713f;stop-opacity:1"
         offset="0"
         id="stop1077" />
      <stop
         id="stop1079"
         offset="0.5"
         style="stop-color:#dfc27f;stop-opacity:1" />
      <stop
         style="stop-color:#86713f;stop-opacity:1"
         offset="1"
         id="stop1081" />
    </linearGradient>
    <linearGradient
       inkscape:collect="always"
       xlink:href="#linearGradient1083"
       id="linearGradient1287"
       x1="44.831833"
       y1="21.991947"
       x2="74.062126"
       y2="21.991947"
       gradientUnits="userSpaceOnUse"
       gradientTransform="translate(-44.831832,-6.9918176)" />
    <linearGradient
       inkscape:collect="always"
       xlink:href="#linearGradient1067"
       id="linearGradient1297"
       x1="74.062126"
       y1="21.991947"
       x2="103.29242"
       y2="21.991947"
       gradientUnits="userSpaceOnUse"
       gradientTransform="translate(-44.831832,-6.9918176)" />
  </defs>
  <sodipodi:namedview
     id="namedview8"
     pagecolor="#ffffff"
     bordercolor="#666666"
     borderopacity="1.0"
     inkscape:pageshadow="2"
     inkscape:pageopacity="0.0"
     inkscape:pagecheckerboard="0"
     showgrid="false"
     inkscape:zoom="0.72753906"
     inkscape:cx="-299.64027"
     inkscape:cy="-83.157047"
     inkscape:window-width="1857"
     inkscape:window-height="1177"
     inkscape:window-x="55"
     inkscape:window-y="-8"
     inkscape:window-maximized="1"
     inkscape:current-layer="svg6"
     fit-margin-top="0"
     fit-margin-left="0"
     fit-margin-right="0"
     fit-margin-bottom="0" />
  <title
     id="title2">ss3</title>
  <path
     fill="#444444"
     d="m 40.261295,0 c 0.463,0.1579999 0.89,0.4019999 1.32,0.6349999 1.313,0.725 2.503,1.674 3.482,2.8130005 2.878,-1.0290004 5.854,-1.9150005 8.925,-2.0710005 1.123,-0.1069999 2.247003,0.006 3.371003,0.031 0.012,0.515 0.002,1.03 0.006,1.544 0.363,-0.049 0.727,-0.089 1.089,-0.149 0.013,7.5860001 10e-4,15.1720001 0.006,22.7580001 -4.072003,1.419 -8.141003,2.851 -12.211003,4.274 -0.215,0.072 -0.427,0.178 -0.659,0.164 -1.183,-0.002 -2.366,-0.002 -3.549,-10e-4 -0.216,0.004 -0.411,-0.098 -0.61,-0.162 -4.066,-1.427 -8.135,-2.847 -12.201,-4.275 0.002,-7.583 0,-15.165 10e-4,-22.748 0.369,0.039 0.734,0.103 1.103,0.141 0.002,-0.517 -0.003,-1.033 0.003,-1.549 0.5,0.003 0.997,-0.04 1.496,-0.06 3.534,-0.128 7.011,0.762 10.316,1.9400004 C 41.734295,2.086 41.139295,0.929 40.262295,0 Z"
     id="path4-9"
     sodipodi:nodetypes="cccccccccccccccccccc"
     style="fill:url(#linearGradient1297);fill-opacity:1"
     inkscape:export-filename="C:\Users\AFeinstein\Desktop\set-syms\SS3_M.png"
     inkscape:export-xdpi="230.39801"
     inkscape:export-ydpi="230.39801" />
  <path
     fill="#444"
     d="m 40.261295,0 c 0.463,0.158 0.89,0.402 1.32,0.635 1.313,0.725 2.503,1.674 3.482,2.8130004 2.878,-1.0290004 5.854,-1.9150004 8.925,-2.0710004 1.123,-0.107 2.247003,0.006 3.371003,0.031 0.012,0.515 0.002,1.03 0.006,1.544 0.363,-0.049 0.727,-0.089 1.089,-0.149 0.013,7.586 10e-4,15.172 0.006,22.758 -4.072003,1.419 -8.141003,2.851 -12.211003,4.274 -0.215,0.072 -0.427,0.178 -0.659,0.164 -1.183,-0.002 -2.366,-0.002 -3.549,-10e-4 -0.216,0.004 -0.411,-0.098 -0.61,-0.162 -4.066,-1.427 -8.135,-2.847 -12.201,-4.275 0.002,-7.583 0,-15.165 10e-4,-22.748 0.369,0.039 0.734,0.103 1.103,0.141 0.002,-0.517 -0.003,-1.033 0.003,-1.549 0.5,0.003 0.997,-0.04 1.496,-0.06 3.534,-0.128 7.011,0.762 10.316,1.9400004 C 41.734295,2.086 41.139295,0.929 40.262295,0 Z m -9.241,2.07 c 0.004,7.5400004 0.011,15.081 -0.003,22.621 2.811,-0.015 5.671,0.174 8.352,1.083 1.361,0.471 2.711,1.114 3.723,2.164 -0.518,-1.786 -0.613,-3.735 -0.032,-5.518 0.549,-1.743 1.744,-3.217 3.171,-4.329 1.811,-1.368 3.567,-2.863 4.911,-4.709 0.665,-0.949 1.277,-2.01 1.344,-3.194 0.654,1.379 0.984,2.912 0.95,4.438 -0.034,1.414 -0.421,2.824 -1.147,4.04 -0.729,1.245 -1.767,2.285 -2.93,3.127 -1.348,0.97 -2.628,2.052 -3.705,3.323 -0.796,0.97 -1.51,2.104 -1.594,3.389 1.007,-1.18 2.356,-2.017 3.798,-2.559 2.788,-1.058 5.812,-1.285 8.769003,-1.249 -0.02,-2.98 -0.003,-5.959 -0.008,-8.938 0.004,-4.539 -0.009,-9.0779996 0.006,-13.617 -0.097,-0.01 -0.192,-0.024 -0.286,-0.045 -1.993003,-0.14 -4.009003,0.002 -5.958003,0.455 -1.667,0.388 -3.31,0.8730004 -4.94,1.3930004 0.866,1.185 1.522,2.545 1.758,4.001 1.021,-0.96 1.543,-2.415 1.342,-3.806 0.899,1.606 1.221,3.552 0.803,5.352 -0.35,1.5019996 -1.205,2.8519996 -2.306,3.9169996 -0.634,0.605 -1.288,1.19 -1.882,1.837 -1.018,1.128 -1.952,2.376 -2.471,3.818 -0.258,0.723 -0.425,1.503 -0.3,2.271 -1.027,-0.897 -1.643,-2.175 -1.96,-3.482 -0.329,0.602 -0.506,1.277 -0.607,1.953 -0.2,1.437 0.044,2.905 0.563,4.252 -2.283,-1.102 -4.165,-3.085 -5.014,-5.488 -0.664,-1.89 -0.764,-4.018 -0.053,-5.909 0.586,-1.536 1.603,-2.9299996 2.948,-3.8839996 -0.403,0.679 -0.698,1.5049996 -0.45,2.2919996 0.225,0.801 1.044,1.393 1.879,1.313 0.768,-0.045 1.41,-0.574 1.837,-1.18 0.694,-1.019 0.939,-2.2589996 1.068,-3.4629996 0.101,-1.235 0.062,-2.491 -0.237,-3.698 -1.1,-0.356 -2.181,-0.78 -3.306,-1.0530004 -1.435,-0.375 -2.891,-0.684 -4.368,-0.827 -1.217,-0.133 -2.443,-0.114 -3.665,-0.091 z"
     id="path4"
     style="fill:#000000"
     inkscape:export-filename="C:\Users\AFeinstein\Desktop\set-syms\SS3_M.png"
     inkscape:export-xdpi="230.39801"
     inkscape:export-ydpi="230.39801" />
  <path
     fill="#444444"
     d="m 11.031,0 c 0.463,0.1579999 0.89,0.4019999 1.32,0.6349999 1.313,0.725 2.503,1.674 3.482,2.8130005 2.878,-1.0290004 5.854,-1.9150005 8.925,-2.0710005 1.123,-0.1069999 2.247,0.006 3.371,0.031 0.012,0.515 0.002,1.03 0.006,1.544 0.363,-0.049 0.727,-0.089 1.089,-0.149 C 29.237,10.389 29.225,17.975 29.23,25.561 25.158,26.98 21.089,28.412 17.019,29.835 16.804,29.907 16.592,30.013 16.36,29.999 15.177,29.997 13.994,29.997 12.811,29.998 12.595,30.002 12.4,29.9 12.201,29.836 8.135,28.409 4.066,26.989 0,25.561 0.002,17.978 0,10.396 10e-4,2.813 0.37,2.852 0.735,2.916 1.104,2.954 1.106,2.437 1.101,1.921 1.107,1.405 1.607,1.408 2.104,1.365 2.603,1.345 6.137,1.217 9.614,2.107 12.919,3.2850004 12.504,2.086 11.909,0.929 11.032,0 Z"
     id="path4-9-3"
     sodipodi:nodetypes="cccccccccccccccccccc"
     style="fill:url(#linearGradient1287);fill-opacity:1"
     inkscape:export-filename="C:\Users\AFeinstein\Desktop\set-syms\SS3_R.png"
     inkscape:export-xdpi="230.39801"
     inkscape:export-ydpi="230.39801" />
  <path
     fill="#444"
     d="m 11.031,0 c 0.463,0.158 0.89,0.402 1.32,0.635 1.313,0.725 2.503,1.674 3.482,2.8130004 C 18.711,2.419 21.687,1.533 24.758,1.377 c 1.123,-0.107 2.247,0.006 3.371,0.031 0.012,0.515 0.002,1.03 0.006,1.544 0.363,-0.049 0.727,-0.089 1.089,-0.149 0.013,7.586 0.001,15.172 0.006,22.758 -4.072,1.419 -8.141,2.851 -12.211,4.274 -0.215,0.072 -0.427,0.178 -0.659,0.164 C 15.177,29.997 13.994,29.997 12.811,29.998 12.595,30.002 12.4,29.9 12.201,29.836 8.135,28.409 4.066,26.989 0,25.561 0.002,17.978 0,10.396 10e-4,2.813 0.37,2.852 0.735,2.916 1.104,2.954 1.106,2.437 1.101,1.921 1.107,1.405 1.607,1.408 2.104,1.365 2.603,1.345 6.137,1.217 9.614,2.107 12.919,3.2850004 12.504,2.086 11.909,0.929 11.032,0 Z M 1.79,2.07 c 0.004,7.5400004 0.011,15.081 -0.003,22.621 2.811,-0.015 5.671,0.174 8.352,1.083 1.361,0.471 2.711,1.114 3.723,2.164 -0.518,-1.786 -0.613,-3.735 -0.032,-5.518 0.549,-1.743 1.744,-3.217 3.171,-4.329 1.811,-1.368 3.567,-2.863 4.911,-4.709 0.665,-0.949 1.277,-2.01 1.344,-3.194 0.654,1.379 0.984,2.912 0.95,4.438 -0.034,1.414 -0.421,2.824 -1.147,4.04 -0.729,1.245 -1.767,2.285 -2.93,3.127 -1.348,0.97 -2.628,2.052 -3.705,3.323 -0.796,0.97 -1.51,2.104 -1.594,3.389 1.007,-1.18 2.356,-2.017 3.798,-2.559 2.788,-1.058 5.812,-1.285 8.769,-1.249 -0.02,-2.98 -0.003,-5.959 -0.008,-8.938 C 27.393,11.22 27.38,6.6810004 27.395,2.142 27.298,2.132 27.203,2.118 27.109,2.097 25.116,1.957 23.1,2.099 21.151,2.552 c -1.667,0.388 -3.31,0.8730004 -4.94,1.3930004 0.866,1.185 1.522,2.545 1.758,4.001 1.021,-0.96 1.543,-2.415 1.342,-3.806 0.899,1.606 1.221,3.552 0.803,5.352 C 19.764,10.994 18.909,12.344 17.808,13.409 c -0.634,0.605 -1.288,1.19 -1.882,1.837 -1.018,1.128 -1.952,2.376 -2.471,3.818 -0.258,0.723 -0.425,1.503 -0.3,2.271 -1.027,-0.897 -1.643,-2.175 -1.96,-3.482 -0.329,0.602 -0.506,1.277 -0.607,1.953 -0.2,1.437 0.044,2.905 0.563,4.252 C 8.868,22.956 6.986,20.973 6.137,18.57 5.473,16.68 5.373,14.552 6.084,12.661 6.67,11.125 7.687,9.7310004 9.032,8.7770004 8.629,9.4560004 8.334,10.282 8.582,11.069 c 0.225,0.801 1.044,1.393 1.879,1.313 0.768,-0.045 1.41,-0.574 1.837,-1.18 0.694,-1.019 0.939,-2.2589996 1.068,-3.4629996 0.101,-1.235 0.062,-2.491 -0.237,-3.698 -1.1,-0.356 -2.181,-0.78 -3.306,-1.0530004 C 8.388,2.613 6.932,2.304 5.455,2.161 4.238,2.028 3.012,2.047 1.79,2.07 Z"
     id="path4-4"
     style="fill:#000000"
     inkscape:export-filename="C:\Users\AFeinstein\Desktop\set-syms\SS3_R.png"
     inkscape:export-xdpi="230.39801"
     inkscape:export-ydpi="230.39801" />
  <metadata
     id="metadata827">
    <rdf:RDF>
      <cc:Work
         rdf:about="">
        <dc:title>ss3</dc:title>
      </cc:Work>
    </rdf:RDF>
  </metadata>
</svg>
