<?xml version="1.0" encoding="UTF-8" standalone="no"?>
<!-- Generated by IcoMoon.io -->

<svg
   version="1.1"
   width="688.71094"
   height="180.82031"
   viewBox="0 0 688.71094 180.82031"
   id="svg6"
   sodipodi:docname="td2.svg"
   inkscape:version="1.1.1 (3bf5ae0d25, 2021-09-20)"
   xmlns:inkscape="http://www.inkscape.org/namespaces/inkscape"
   xmlns:sodipodi="http://sodipodi.sourceforge.net/DTD/sodipodi-0.dtd"
   xmlns:xlink="http://www.w3.org/1999/xlink"
   xmlns="http://www.w3.org/2000/svg"
   xmlns:svg="http://www.w3.org/2000/svg"
   xmlns:rdf="http://www.w3.org/1999/02/22-rdf-syntax-ns#"
   xmlns:cc="http://creativecommons.org/ns#"
   xmlns:dc="http://purl.org/dc/elements/1.1/">
  <defs
     id="defs10">
    <linearGradient
       inkscape:collect="always"
       id="linearGradient1067">
      <stop
         style="stop-color:#b73326;stop-opacity:1"
         offset="0"
         id="stop1061" />
      <stop
         id="stop1063"
         offset="0.49997669"
         style="stop-color:#f49226;stop-opacity:1" />
      <stop
         style="stop-color:#b73326;stop-opacity:1"
         offset="1"
         id="stop1065" />
    </linearGradient>
    <linearGradient
       inkscape:collect="always"
       id="linearGradient1083">
      <stop
         style="stop-color:#86713f;stop-opacity:1"
         offset="0"
         id="stop1077" />
      <stop
         id="stop1079"
         offset="0.5"
         style="stop-color:#dfc27f;stop-opacity:1" />
      <stop
         style="stop-color:#86713f;stop-opacity:1"
         offset="1"
         id="stop1081" />
    </linearGradient>
    <linearGradient
       inkscape:collect="always"
       id="linearGradient1099">
      <stop
         style="stop-color:#4c6d7a;stop-opacity:1"
         offset="0"
         id="stop1093" />
      <stop
         id="stop1095"
         offset="0.5"
         style="stop-color:#bae2ef;stop-opacity:1" />
      <stop
         style="stop-color:#4c6d7a;stop-opacity:1"
         offset="1"
         id="stop1097" />
    </linearGradient>
    <linearGradient
       inkscape:collect="always"
       xlink:href="#linearGradient1067"
       id="linearGradient4212"
       x1="721.79486"
       y1="363.38425"
       x2="857.48431"
       y2="476.353"
       gradientUnits="userSpaceOnUse"
       gradientTransform="translate(-187.0195,-329.45751)" />
    <linearGradient
       inkscape:collect="always"
       xlink:href="#linearGradient1083"
       id="linearGradient4222"
       x1="549.61713"
       y1="363.38425"
       x2="685.30658"
       y2="476.353"
       gradientUnits="userSpaceOnUse" />
    <linearGradient
       inkscape:collect="always"
       xlink:href="#linearGradient1099"
       id="linearGradient4232"
       x1="377.43939"
       y1="363.38425"
       x2="513.12885"
       y2="476.353"
       gradientUnits="userSpaceOnUse" />
  </defs>
  <sodipodi:namedview
     id="namedview8"
     pagecolor="#ffffff"
     bordercolor="#666666"
     borderopacity="1.0"
     inkscape:pageshadow="2"
     inkscape:pageopacity="0.0"
     inkscape:pagecheckerboard="0"
     showgrid="false"
     fit-margin-top="0"
     fit-margin-left="0"
     fit-margin-right="0"
     fit-margin-bottom="0"
     inkscape:zoom="1.0288956"
     inkscape:cx="332.39524"
     inkscape:cy="30.615351"
     inkscape:window-width="1857"
     inkscape:window-height="1177"
     inkscape:window-x="55"
     inkscape:window-y="-8"
     inkscape:window-maximized="1"
     inkscape:current-layer="svg6" />
  <title
     id="title2">td2</title>
  <metadata
     id="metadata827">
    <rdf:RDF>
      <cc:Work
         rdf:about="">
        <dc:title>td2</dc:title>
      </cc:Work>
    </rdf:RDF>
  </metadata>
  <g
     id="g4953"
     inkscape:export-filename="C:\Users\AFeinstein\Desktop\set-syms\TD2_R.png"
     inkscape:export-xdpi="38.225796"
     inkscape:export-ydpi="38.225796">
    <g
       id="g4332"
       transform="translate(-187.0195,-329.45751)">
      <path
         id="path1707-7-7-2"
         style="fill:url(#linearGradient4222);fill-opacity:1;stroke:none;stroke-width:6;stroke-linecap:round;stroke-linejoin:miter;stroke-miterlimit:4;stroke-dasharray:none;stroke-opacity:1;paint-order:markers fill stroke"
         d="m 632.45696,332.87059 -82.83985,30.51367 -14.99218,86.9961 25.58007,21.29687 a 15.291275,108.92886 39.77934 0 0 -12.4375,31.9043 15.291275,108.92886 39.77934 0 0 29.11914,-18.01563 l 25.58204,21.29883 82.83789,-30.51172 14.99609,-86.99805 -25.55469,-21.27539 a 15.291275,108.92886 39.77934 0 0 12.41211,-31.92578 15.291275,108.92886 39.77934 0 0 -29.12109,18.01367 z m -8.24024,50.24023 a 32.987919,39.173153 39.77934 0 1 4.55078,0.5879 15.291275,108.92886 39.77934 0 0 -23.05664,26.38476 15.291275,108.92886 39.77934 0 0 -21.76953,27.45313 32.987919,39.173153 39.77934 0 1 8.16992,-38.77539 32.987919,39.173153 39.77934 0 1 32.10547,-15.6504 z m 26.875,18.98243 a 32.987919,39.173153 39.77934 0 1 -8.27734,38.88086 32.987919,39.173153 39.77934 0 1 -36.6543,15.0625 15.291275,108.92886 39.77934 0 0 23.05469,-26.38477 15.291275,108.92886 39.77934 0 0 21.87695,-27.55859 z" />
      <path
         id="path1707-7-7"
         style="color:#000000;fill:#000000;stroke-linecap:round;-inkscape-stroke:none;paint-order:markers fill stroke"
         d="m 633.04683,329.45751 -1.625,0.59765 -84.4668,31.11133 -15.58007,90.41016 24.89843,20.73047 c -4.73948,7.7761 -8.31465,14.4839 -10.39648,19.79101 -1.1201,2.85541 -1.8412,5.30329 -2.04883,7.5293 -0.20763,2.22602 0.0988,4.6606 2.01953,6.25976 1.92079,1.59917 4.368,1.45723 6.51953,0.84961 2.15154,-0.6076 4.42807,-1.75987 7.03321,-3.3789 4.84237,-3.00943 10.79285,-7.7395 17.58203,-13.81055 l 24.89844,20.73047 86.08789,-31.70899 15.58398,-90.41211 -24.89844,-20.73046 c 4.73949,-7.77611 8.31466,-14.48391 10.39649,-19.79102 1.1201,-2.85541 1.83925,-5.30523 2.04687,-7.53125 0.20763,-2.22601 -0.0968,-4.65669 -2.01758,-6.25586 -1.92077,-1.59916 -4.36995,-1.46112 -6.52148,-0.85351 -2.15152,0.6076 -4.42807,1.76181 -7.0332,3.38086 -4.84194,3.00914 -10.79167,7.74028 -17.58008,13.81054 z m -1.17773,6.82617 21.60742,17.99023 c -7.78638,7.25135 -16.49822,16.07033 -25.73633,26.09375 -1.1602,-0.13938 -2.32738,-0.24195 -3.50586,-0.26562 -12.23405,-0.24579 -25.23049,5.69293 -34.42773,16.74023 -10.08497,12.11391 -13.29532,27.60514 -9.33789,40.30469 -8.17877,10.89637 -15.26868,21.05769 -20.98633,30.02539 l -21.60742,-17.99023 14.40429,-83.58204 z m 53.1914,2.01758 c 0.0154,0.009 0.0524,0.0512 0.12696,0.11328 0.17245,0.14358 0.11867,0.13621 -0.1211,0.14844 0.0232,0.17399 0.058,0.40292 0.008,0.9414 -0.11921,1.27806 -0.66133,3.34525 -1.66211,5.89649 -2.00156,5.10247 -5.77136,12.19586 -10.95899,20.5664 -10.37525,16.7411 -26.42244,38.69138 -45.5957,61.72071 -19.17325,23.02933 -37.85196,42.78993 -52.43555,56.02734 -7.29179,6.6187 -13.58304,11.61078 -18.23828,14.5039 -2.32762,1.44658 -4.26276,2.35232 -5.49805,2.70118 -0.52101,0.14713 -0.75254,0.15344 -0.92773,0.16211 0.0315,0.2388 0.0496,0.29215 -0.12305,0.14843 -0.17244,-0.14355 -0.11714,-0.13655 0.12305,-0.14843 -0.0229,-0.17378 -0.0582,-0.40115 -0.008,-0.93946 0.11921,-1.27806 0.66133,-3.34524 1.66211,-5.89648 2.00156,-5.10246 5.76941,-12.19587 10.95703,-20.56641 10.37526,-16.7411 26.42245,-38.69137 45.5957,-61.7207 19.17326,-23.02933 37.85196,-42.78993 52.43555,-56.02734 7.29179,-6.61871 13.58499,-11.61078 18.24023,-14.50391 2.32762,-1.44656 4.26276,-2.35427 5.49805,-2.70313 0.52101,-0.14713 0.75285,-0.15319 0.92773,-0.1621 -0.0181,-0.13573 -0.0261,-0.27403 -0.006,-0.26172 z m -9.61718,34.26172 21.60742,17.98828 -14.40625,83.58398 -79.58789,29.31445 -21.60742,-17.98828 c 7.78293,-7.24815 16.49101,-16.06212 25.7246,-26.08008 13.20667,1.5904 27.85983,-4.37511 37.94532,-16.48828 10.08624,-12.11441 13.29637,-27.60611 9.33789,-40.30664 8.17834,-10.89579 15.2688,-21.05607 20.98633,-30.02343 z m -52.99024,13.60937 c -6.21209,6.90088 -12.59272,14.23999 -19.04687,21.99219 -6.45951,7.75862 -12.52665,15.36885 -18.19141,22.73437 -1.48828,-9.74468 1.47487,-20.93567 9.20312,-30.21875 h -0.002 c 7.72544,-9.27943 18.18766,-14.2017 28.03711,-14.50781 z m 27.25781,22.66211 c 1.48852,9.74515 -1.47383,20.93718 -9.20312,30.2207 -7.72857,9.2824 -18.1967,14.22295 -28.04883,14.52539 6.21682,-6.90567 12.60118,-14.2513 19.06055,-22.00976 6.45962,-7.75877 12.52656,-15.37069 18.1914,-22.73633 z" />
    </g>
  </g>
  <g
     id="g4958"
     inkscape:export-filename="C:\Users\AFeinstein\Desktop\set-syms\TD2_U.png"
     inkscape:export-xdpi="38.225796"
     inkscape:export-ydpi="38.225796">
    <g
       id="g4336"
       transform="translate(-187.0195,-329.45751)">
      <path
         id="path1707-7-7-2-4"
         style="fill:url(#linearGradient4232);fill-opacity:1;stroke:none;stroke-width:6;stroke-linecap:round;stroke-linejoin:miter;stroke-miterlimit:4;stroke-dasharray:none;stroke-opacity:1;paint-order:markers fill stroke"
         d="m 460.27923,332.87059 -82.83985,30.51367 -14.99218,86.9961 25.58007,21.29687 a 15.291275,108.92886 39.77934 0 0 -12.4375,31.9043 15.291275,108.92886 39.77934 0 0 29.11914,-18.01563 l 25.58204,21.29883 82.83789,-30.51172 14.99609,-86.99805 -25.55469,-21.27539 a 15.291275,108.92886 39.77934 0 0 12.41211,-31.92578 15.291275,108.92886 39.77934 0 0 -29.12109,18.01367 z m -8.24024,50.24023 a 32.987919,39.173153 39.77934 0 1 4.55078,0.5879 15.291275,108.92886 39.77934 0 0 -23.05664,26.38476 15.291275,108.92886 39.77934 0 0 -21.76953,27.45313 32.987919,39.173153 39.77934 0 1 8.16992,-38.77539 32.987919,39.173153 39.77934 0 1 32.10547,-15.6504 z m 26.875,18.98243 a 32.987919,39.173153 39.77934 0 1 -8.27734,38.88086 32.987919,39.173153 39.77934 0 1 -36.6543,15.0625 15.291275,108.92886 39.77934 0 0 23.05469,-26.38477 15.291275,108.92886 39.77934 0 0 21.87695,-27.55859 z" />
      <path
         id="path1707-7-7-3"
         style="color:#000000;fill:#000000;stroke-linecap:round;-inkscape-stroke:none;paint-order:markers fill stroke"
         d="m 460.8691,329.45751 -1.625,0.59765 -84.4668,31.11133 -15.58007,90.41016 24.89843,20.73047 c -4.73948,7.7761 -8.31465,14.4839 -10.39648,19.79101 -1.1201,2.85541 -1.8412,5.30329 -2.04883,7.5293 -0.20763,2.22602 0.0988,4.6606 2.01953,6.25976 1.92079,1.59917 4.368,1.45723 6.51953,0.84961 2.15154,-0.6076 4.42807,-1.75987 7.03321,-3.3789 4.84237,-3.00943 10.79285,-7.7395 17.58203,-13.81055 l 24.89844,20.73047 86.08789,-31.70899 15.58398,-90.41211 -24.89844,-20.73046 c 4.73949,-7.77611 8.31466,-14.48391 10.39649,-19.79102 1.1201,-2.85541 1.83925,-5.30523 2.04687,-7.53125 0.20763,-2.22601 -0.0968,-4.65669 -2.01758,-6.25586 -1.92077,-1.59916 -4.36995,-1.46112 -6.52148,-0.85351 -2.15152,0.6076 -4.42807,1.76181 -7.0332,3.38086 -4.84194,3.00914 -10.79167,7.74028 -17.58008,13.81054 z m -1.17773,6.82617 21.60742,17.99023 c -7.78638,7.25135 -16.49822,16.07033 -25.73633,26.09375 -1.1602,-0.13938 -2.32738,-0.24195 -3.50586,-0.26562 -12.23405,-0.24579 -25.23049,5.69293 -34.42773,16.74023 -10.08497,12.11391 -13.29532,27.60514 -9.33789,40.30469 -8.17877,10.89637 -15.26868,21.05769 -20.98633,30.02539 l -21.60742,-17.99023 14.40429,-83.58204 z m 53.1914,2.01758 c 0.0154,0.009 0.0524,0.0512 0.12696,0.11328 0.17245,0.14358 0.11867,0.13621 -0.1211,0.14844 0.0232,0.17399 0.058,0.40292 0.008,0.9414 -0.11921,1.27806 -0.66133,3.34525 -1.66211,5.89649 -2.00156,5.10247 -5.77136,12.19586 -10.95899,20.5664 -10.37525,16.7411 -26.42244,38.69138 -45.5957,61.72071 -19.17325,23.02933 -37.85196,42.78993 -52.43555,56.02734 -7.29179,6.6187 -13.58304,11.61078 -18.23828,14.5039 -2.32762,1.44658 -4.26276,2.35232 -5.49805,2.70118 -0.52101,0.14713 -0.75254,0.15344 -0.92773,0.16211 0.0315,0.2388 0.0496,0.29215 -0.12305,0.14843 -0.17244,-0.14355 -0.11714,-0.13655 0.12305,-0.14843 -0.0229,-0.17378 -0.0582,-0.40115 -0.008,-0.93946 0.11921,-1.27806 0.66133,-3.34524 1.66211,-5.89648 2.00156,-5.10246 5.76941,-12.19587 10.95703,-20.56641 10.37526,-16.7411 26.42245,-38.69137 45.5957,-61.7207 19.17326,-23.02933 37.85196,-42.78993 52.43555,-56.02734 7.29179,-6.61871 13.58499,-11.61078 18.24023,-14.50391 2.32762,-1.44656 4.26276,-2.35427 5.49805,-2.70313 0.52101,-0.14713 0.75285,-0.15319 0.92773,-0.1621 -0.0181,-0.13573 -0.0261,-0.27403 -0.006,-0.26172 z m -9.61718,34.26172 21.60742,17.98828 -14.40625,83.58398 -79.58789,29.31445 -21.60742,-17.98828 c 7.78293,-7.24815 16.49101,-16.06212 25.7246,-26.08008 13.20667,1.5904 27.85983,-4.37511 37.94532,-16.48828 10.08624,-12.11441 13.29637,-27.60611 9.33789,-40.30664 8.17834,-10.89579 15.2688,-21.05607 20.98633,-30.02343 z m -52.99024,13.60937 c -6.21209,6.90088 -12.59272,14.23999 -19.04687,21.99219 -6.45951,7.75862 -12.52665,15.36885 -18.19141,22.73437 -1.48828,-9.74468 1.47487,-20.93567 9.20312,-30.21875 h -0.002 c 7.72544,-9.27943 18.18766,-14.2017 28.03711,-14.50781 z m 27.25781,22.66211 c 1.48852,9.74515 -1.47383,20.93718 -9.20312,30.2207 -7.72857,9.2824 -18.1967,14.22295 -28.04883,14.52539 6.21682,-6.90567 12.60118,-14.2513 19.06055,-22.00976 6.45962,-7.75877 12.52656,-15.37069 18.1914,-22.73633 z" />
    </g>
  </g>
  <g
     id="g4963"
     inkscape:export-filename="C:\Users\AFeinstein\Desktop\set-syms\TD2_C.png"
     inkscape:export-xdpi="38.225796"
     inkscape:export-ydpi="38.225796">
    <g
       id="g4340"
       transform="translate(-187.0195,-329.45751)">
      <path
         id="path1707-7-7-2-3"
         style="fill:#000000;fill-opacity:1;stroke:none;stroke-width:6;stroke-linecap:round;stroke-linejoin:miter;stroke-miterlimit:4;stroke-dasharray:none;stroke-opacity:1;paint-order:markers fill stroke"
         d="m 288.1015,332.87059 -82.83985,30.51367 -14.99218,86.9961 25.58007,21.29687 a 15.291275,108.92886 39.77934 0 0 -12.4375,31.9043 15.291275,108.92886 39.77934 0 0 29.11914,-18.01563 l 25.58204,21.29883 82.83789,-30.51172 14.99609,-86.99805 -25.55469,-21.27539 a 15.291275,108.92886 39.77934 0 0 12.41211,-31.92578 15.291275,108.92886 39.77934 0 0 -29.12109,18.01367 z m -8.24024,50.24023 a 32.987919,39.173153 39.77934 0 1 4.55078,0.5879 15.291275,108.92886 39.77934 0 0 -23.05664,26.38476 15.291275,108.92886 39.77934 0 0 -21.76953,27.45313 32.987919,39.173153 39.77934 0 1 8.16992,-38.77539 32.987919,39.173153 39.77934 0 1 32.10547,-15.6504 z m 26.875,18.98243 a 32.987919,39.173153 39.77934 0 1 -8.27734,38.88086 32.987919,39.173153 39.77934 0 1 -36.6543,15.0625 15.291275,108.92886 39.77934 0 0 23.05469,-26.38477 15.291275,108.92886 39.77934 0 0 21.87695,-27.55859 z" />
      <path
         id="path1707-7-7-5"
         style="color:#000000;fill:#ffffff;stroke-linecap:round;-inkscape-stroke:none;paint-order:markers fill stroke"
         d="m 288.69137,329.45751 -1.625,0.59765 -84.4668,31.11133 -15.58007,90.41016 24.89843,20.73047 c -4.73948,7.7761 -8.31465,14.4839 -10.39648,19.79101 -1.1201,2.85541 -1.8412,5.30329 -2.04883,7.5293 -0.20763,2.22602 0.0988,4.6606 2.01953,6.25976 1.92079,1.59917 4.368,1.45723 6.51953,0.84961 2.15154,-0.6076 4.42807,-1.75987 7.03321,-3.3789 4.84237,-3.00943 10.79285,-7.7395 17.58203,-13.81055 l 24.89844,20.73047 86.08789,-31.70899 15.58398,-90.41211 -24.89844,-20.73046 c 4.73949,-7.77611 8.31466,-14.48391 10.39649,-19.79102 1.1201,-2.85541 1.83925,-5.30523 2.04687,-7.53125 0.20763,-2.22601 -0.0968,-4.65669 -2.01758,-6.25586 -1.92077,-1.59916 -4.36995,-1.46112 -6.52148,-0.85351 -2.15152,0.6076 -4.42807,1.76181 -7.0332,3.38086 -4.84194,3.00914 -10.79167,7.74028 -17.58008,13.81054 z m -1.17773,6.82617 21.60742,17.99023 c -7.78638,7.25135 -16.49822,16.07033 -25.73633,26.09375 -1.1602,-0.13938 -2.32738,-0.24195 -3.50586,-0.26562 -12.23405,-0.24579 -25.23049,5.69293 -34.42773,16.74023 -10.08497,12.11391 -13.29532,27.60514 -9.33789,40.30469 -8.17877,10.89637 -15.26868,21.05769 -20.98633,30.02539 l -21.60742,-17.99023 14.40429,-83.58204 z m 53.1914,2.01758 c 0.0154,0.009 0.0524,0.0512 0.12696,0.11328 0.17245,0.14358 0.11867,0.13621 -0.1211,0.14844 0.0232,0.17399 0.058,0.40292 0.008,0.9414 -0.11921,1.27806 -0.66133,3.34525 -1.66211,5.89649 -2.00156,5.10247 -5.77136,12.19586 -10.95899,20.5664 -10.37525,16.7411 -26.42244,38.69138 -45.5957,61.72071 -19.17325,23.02933 -37.85196,42.78993 -52.43555,56.02734 -7.29179,6.6187 -13.58304,11.61078 -18.23828,14.5039 -2.32762,1.44658 -4.26276,2.35232 -5.49805,2.70118 -0.52101,0.14713 -0.75254,0.15344 -0.92773,0.16211 0.0315,0.2388 0.0496,0.29215 -0.12305,0.14843 -0.17244,-0.14355 -0.11714,-0.13655 0.12305,-0.14843 -0.0229,-0.17378 -0.0582,-0.40115 -0.008,-0.93946 0.11921,-1.27806 0.66133,-3.34524 1.66211,-5.89648 2.00156,-5.10246 5.76941,-12.19587 10.95703,-20.56641 10.37526,-16.7411 26.42245,-38.69137 45.5957,-61.7207 19.17326,-23.02933 37.85196,-42.78993 52.43555,-56.02734 7.29179,-6.61871 13.58499,-11.61078 18.24023,-14.50391 2.32762,-1.44656 4.26276,-2.35427 5.49805,-2.70313 0.52101,-0.14713 0.75285,-0.15319 0.92773,-0.1621 -0.0181,-0.13573 -0.0261,-0.27403 -0.006,-0.26172 z m -9.61718,34.26172 21.60742,17.98828 -14.40625,83.58398 -79.58789,29.31445 -21.60742,-17.98828 c 7.78293,-7.24815 16.49101,-16.06212 25.7246,-26.08008 13.20667,1.5904 27.85983,-4.37511 37.94532,-16.48828 10.08624,-12.11441 13.29637,-27.60611 9.33789,-40.30664 8.17834,-10.89579 15.2688,-21.05607 20.98633,-30.02343 z m -52.99024,13.60937 c -6.21209,6.90088 -12.59272,14.23999 -19.04687,21.99219 -6.45951,7.75862 -12.52665,15.36885 -18.19141,22.73437 -1.48828,-9.74468 1.47487,-20.93567 9.20312,-30.21875 h -0.002 c 7.72544,-9.27943 18.18766,-14.2017 28.03711,-14.50781 z m 27.25781,22.66211 c 1.48852,9.74515 -1.47383,20.93718 -9.20312,30.2207 -7.72857,9.2824 -18.1967,14.22295 -28.04883,14.52539 6.21682,-6.90567 12.60118,-14.2513 19.06055,-22.00976 6.45962,-7.75877 12.52656,-15.37069 18.1914,-22.73633 z" />
    </g>
  </g>
  <g
     id="g4948"
     inkscape:export-filename="C:\Users\AFeinstein\Desktop\set-syms\TD2_M.png"
     inkscape:export-xdpi="38.225796"
     inkscape:export-ydpi="38.225796">
    <path
       id="path1707-7-7-2-0"
       style="fill:url(#linearGradient4212);fill-opacity:1;stroke:none;stroke-width:6;stroke-linecap:round;stroke-linejoin:miter;stroke-miterlimit:4;stroke-dasharray:none;stroke-opacity:1;paint-order:markers fill stroke"
       d="m 617.61519,3.41308 -82.83985,30.51367 -14.99218,86.9961 25.58007,21.29687 a 15.291275,108.92886 39.77934 0 0 -12.4375,31.9043 15.291275,108.92886 39.77934 0 0 29.11914,-18.01563 L 587.62691,177.40722 670.4648,146.8955 685.46089,59.89745 659.9062,38.62206 A 15.291275,108.92886 39.77934 0 0 672.31831,6.69628 15.291275,108.92886 39.77934 0 0 643.19722,24.70995 Z m -8.24024,50.24023 a 32.987919,39.173153 39.77934 0 1 4.55078,0.5879 15.291275,108.92886 39.77934 0 0 -23.05664,26.38476 15.291275,108.92886 39.77934 0 0 -21.76953,27.45313 32.987919,39.173153 39.77934 0 1 8.16992,-38.77539 32.987919,39.173153 39.77934 0 1 32.10547,-15.6504 z m 26.875,18.98243 a 32.987919,39.173153 39.77934 0 1 -8.27734,38.88086 32.987919,39.173153 39.77934 0 1 -36.6543,15.0625 15.291275,108.92886 39.77934 0 0 23.05469,-26.38477 15.291275,108.92886 39.77934 0 0 21.87695,-27.55859 z" />
    <path
       id="path1707-7-7-7"
       style="color:#000000;fill:#000000;stroke-linecap:round;-inkscape-stroke:none;paint-order:markers fill stroke"
       d="m 618.20506,0 -1.625,0.59765 -84.4668,31.11133 -15.58007,90.41016 24.89843,20.73047 c -4.73948,7.7761 -8.31465,14.4839 -10.39648,19.79101 -1.1201,2.85541 -1.8412,5.30329 -2.04883,7.5293 -0.20763,2.22602 0.0988,4.6606 2.01953,6.25976 1.92079,1.59917 4.368,1.45723 6.51953,0.84961 2.15154,-0.6076 4.42807,-1.75987 7.03321,-3.3789 4.84237,-3.00943 10.79285,-7.7395 17.58203,-13.81055 l 24.89844,20.73047 86.08789,-31.70899 15.58398,-90.41211 -24.89844,-20.73046 c 4.73949,-7.77611 8.31466,-14.48391 10.39649,-19.79102 1.1201,-2.85541 1.83925,-5.30523 2.04687,-7.53125 0.20763,-2.22601 -0.0968,-4.65669 -2.01758,-6.25586 -1.92077,-1.59916 -4.36995,-1.46112 -6.52148,-0.85351 -2.15152,0.6076 -4.42807,1.76181 -7.0332,3.38086 -4.84194,3.00914 -10.79167,7.74028 -17.58008,13.81054 z m -1.17773,6.82617 21.60742,17.99023 c -7.78638,7.25135 -16.49822,16.07033 -25.73633,26.09375 -1.1602,-0.13938 -2.32738,-0.24195 -3.50586,-0.26562 -12.23405,-0.24579 -25.23049,5.69293 -34.42773,16.74023 -10.08497,12.11391 -13.29532,27.60514 -9.33789,40.30469 -8.17877,10.89637 -15.26868,21.05769 -20.98633,30.02539 l -21.60742,-17.99023 14.40429,-83.58204 z m 53.1914,2.01758 c 0.0154,0.009 0.0524,0.0512 0.12696,0.11328 0.17245,0.14358 0.11867,0.13621 -0.1211,0.14844 0.0232,0.17399 0.058,0.40292 0.008,0.9414 -0.11921,1.27806 -0.66133,3.34525 -1.66211,5.89649 -2.00156,5.10247 -5.77136,12.19586 -10.95899,20.5664 -10.37525,16.7411 -26.42244,38.69138 -45.5957,61.72071 -19.17325,23.02933 -37.85196,42.78993 -52.43555,56.02734 -7.29179,6.6187 -13.58304,11.61078 -18.23828,14.5039 -2.32762,1.44658 -4.26276,2.35232 -5.49805,2.70118 -0.52101,0.14713 -0.75254,0.15344 -0.92773,0.16211 0.0315,0.2388 0.0496,0.29215 -0.12305,0.14843 -0.17244,-0.14355 -0.11714,-0.13655 0.12305,-0.14843 -0.0229,-0.17378 -0.0582,-0.40115 -0.008,-0.93946 0.11921,-1.27806 0.66133,-3.34524 1.66211,-5.89648 2.00156,-5.10246 5.76941,-12.19587 10.95703,-20.56641 10.37526,-16.7411 26.42245,-38.69137 45.5957,-61.7207 19.17326,-23.02933 37.85196,-42.78993 52.43555,-56.02734 7.29179,-6.61871 13.58499,-11.61078 18.24023,-14.50391 2.32762,-1.44656 4.26276,-2.35427 5.49805,-2.70313 0.52101,-0.14713 0.75285,-0.15319 0.92773,-0.1621 -0.0181,-0.13573 -0.0261,-0.27403 -0.006,-0.26172 z m -9.61718,34.26172 21.60742,17.98828 -14.40625,83.58398 -79.58789,29.31445 -21.60742,-17.98828 c 7.78293,-7.24815 16.49101,-16.06212 25.7246,-26.08008 13.20667,1.5904 27.85983,-4.37511 37.94532,-16.48828 10.08624,-12.11441 13.29637,-27.60611 9.33789,-40.30664 8.17834,-10.89579 15.2688,-21.05607 20.98633,-30.02343 z m -52.99024,13.60937 c -6.21209,6.90088 -12.59272,14.23999 -19.04687,21.99219 -6.45951,7.75862 -12.52665,15.36885 -18.19141,22.73437 -1.48828,-9.74468 1.47487,-20.93567 9.20312,-30.21875 h -0.002 c 7.72544,-9.27943 18.18766,-14.2017 28.03711,-14.50781 z m 27.25781,22.66211 c 1.48852,9.74515 -1.47383,20.93718 -9.20312,30.2207 -7.72857,9.2824 -18.1967,14.22295 -28.04883,14.52539 6.21682,-6.90567 12.60118,-14.2513 19.06055,-22.00976 6.45962,-7.75877 12.52656,-15.37069 18.1914,-22.73633 z" />
  </g>
</svg>
