<?xml version="1.0" encoding="UTF-8" standalone="no"?>
<!-- Generated by IcoMoon.io -->

<svg
   version="1.1"
   width="362.55521"
   height="72.000137"
   viewBox="0 0 362.55521 72.000137"
   id="svg1968"
   sodipodi:docname="parl3.svg"
   xml:space="preserve"
   inkscape:version="1.2.1 (9c6d41e410, 2022-07-14)"
   xmlns:inkscape="http://www.inkscape.org/namespaces/inkscape"
   xmlns:sodipodi="http://sodipodi.sourceforge.net/DTD/sodipodi-0.dtd"
   xmlns:xlink="http://www.w3.org/1999/xlink"
   xmlns="http://www.w3.org/2000/svg"
   xmlns:svg="http://www.w3.org/2000/svg"
   xmlns:rdf="http://www.w3.org/1999/02/22-rdf-syntax-ns#"
   xmlns:cc="http://creativecommons.org/ns#"
   xmlns:dc="http://purl.org/dc/elements/1.1/"><defs
     id="defs1972"><linearGradient
       id="linearGradient12419"
       inkscape:swatch="solid"><stop
         style="stop-color:#ffffff;stop-opacity:1;"
         offset="0"
         id="stop12417" /></linearGradient><linearGradient
       inkscape:collect="always"
       id="linearGradient960"><stop
         style="stop-color:#4c6d7a;stop-opacity:1"
         offset="0"
         id="stop954" /><stop
         id="stop956"
         offset="0.5"
         style="stop-color:#bae2ef;stop-opacity:1" /><stop
         style="stop-color:#4c6d7a;stop-opacity:1"
         offset="1"
         id="stop958" /></linearGradient><linearGradient
       inkscape:collect="always"
       xlink:href="#linearGradient960"
       id="linearGradient14797"
       x1="52.817783"
       y1="154.10953"
       x2="3.3373263"
       y2="109.0315"
       gradientUnits="userSpaceOnUse"
       gradientTransform="translate(106.25982,-97.249932)" /><linearGradient
       inkscape:collect="always"
       xlink:href="#linearGradient952"
       id="linearGradient17926"
       gradientUnits="userSpaceOnUse"
       gradientTransform="translate(196.89865,-97.249932)"
       x1="52.817783"
       y1="154.10953"
       x2="3.3373263"
       y2="109.0315" /><linearGradient
       inkscape:collect="always"
       xlink:href="#linearGradient867"
       id="linearGradient17971"
       gradientUnits="userSpaceOnUse"
       gradientTransform="translate(287.53748,-97.249932)"
       x1="52.817783"
       y1="154.10953"
       x2="3.3373263"
       y2="109.0315" /><linearGradient
       inkscape:collect="always"
       id="linearGradient952"><stop
         style="stop-color:#86713f;stop-opacity:1"
         offset="0"
         id="stop946" /><stop
         id="stop948"
         offset="0.5"
         style="stop-color:#dfc27f;stop-opacity:1" /><stop
         style="stop-color:#86713f;stop-opacity:1"
         offset="1"
         id="stop950" /></linearGradient><linearGradient
       id="linearGradient867"
       inkscape:collect="always"><stop
         id="stop863"
         offset="0"
         style="stop-color:#b73326;stop-opacity:1" /><stop
         style="stop-color:#f49226;stop-opacity:1"
         offset="0.5"
         id="stop871" /><stop
         id="stop865"
         offset="1"
         style="stop-color:#b73326;stop-opacity:1" /></linearGradient></defs><sodipodi:namedview
     id="namedview1970"
     pagecolor="#ffffff"
     bordercolor="#666666"
     borderopacity="1.0"
     inkscape:showpageshadow="2"
     inkscape:pageopacity="0.0"
     inkscape:pagecheckerboard="0"
     inkscape:deskcolor="#d1d1d1"
     showgrid="false"
     inkscape:zoom="2.8284271"
     inkscape:cx="182.08"
     inkscape:cy="39.244427"
     inkscape:window-width="1857"
     inkscape:window-height="1177"
     inkscape:window-x="55"
     inkscape:window-y="-8"
     inkscape:window-maximized="1"
     inkscape:current-layer="svg1968" /><title
     id="title1964">parl3</title><g
     id="g18899"
     inkscape:export-filename="XANA_C.png"
     inkscape:export-xdpi="95.999817"
     inkscape:export-ydpi="95.999817"><path
       style="fill:#000000;stroke:none;stroke-width:1px;stroke-linecap:butt;stroke-linejoin:miter;stroke-opacity:1"
       d="m 31.272992,4.024718 -17.03033,41.03661 7.71599,20.80438 3.625,-7 5.375,-17.125 5.625,-4.75 0.625,-16.875 4,-3.75 z"
       id="path5990"
       sodipodi:nodetypes="ccccccccc" /><path
       style="color:#000000;fill:#000000;fill-opacity:1;stroke-linejoin:round"
       d="m 25.439122,7.885238 c -0.29144,0 -1.639756,0.24578 -2.349611,1.0625 -0.709854,0.81672 -0.697945,1.32537 -0.748047,1.61328 -0.100202,0.57583 -0.08855,0.83678 -0.123046,1.45704 -0.0405,0.72821 -0.145858,1.39988 -0.195313,2.14843 -0.686317,-0.87475 -1.224147,-0.96527 -1.603516,-1.0664 -0.399702,-0.10656 -0.721365,-0.13263 -1.130859,-0.0937 a 3.0003,3.0003 0 0 0 -0.04297,0.004 c -0.04882,0.005 -0.253459,-0.0229 -0.814453,0.19531 -0.560994,0.21816 -1.350794,0.93507 -1.623047,1.47656 -0.544504,1.08298 -0.326381,1.12899 -0.33789,1.2461 -0.03077,0.31278 -0.05034,0.64792 -0.07813,1.08203 -0.05147,0.80423 -0.249457,1.72986 -0.328125,2.5957 -0.05106,-0.0693 -0.0973,-0.13135 -0.111328,-0.15039 -0.77535,-0.87292 -1.512876,-0.9608 -1.949219,-1.00977 -0.440557,-0.0494 -0.727584,-0.0122 -1.011719,0.0469 -0.284135,0.0591 -0.554134,0.14171 -0.908203,0.33789 -0.354069,0.19619 -0.88963,0.48376 -1.314453,1.41797 a 3.0003,3.0003 0 0 0 -0.002,0.002 c -9.6e-5,2.1e-4 -0.194053,0.57784 -0.208985,0.65235 -0.01493,0.0745 -0.02114,0.1072 -0.02539,0.13476 -0.0085,0.0551 -0.01115,0.0773 -0.01367,0.0977 -0.005,0.0406 -0.0072,0.0615 -0.0098,0.0859 -0.0052,0.0489 -0.0095,0.0993 -0.01563,0.16211 -0.0122,0.12568 -0.0289,0.29739 -0.04883,0.51367 -0.03985,0.43256 -0.09488,1.04213 -0.160156,1.77149 -0.130555,1.45871 -0.30066,3.39552 -0.470703,5.33203 -0.170044,1.93651 -0.339624,3.87201 -0.464844,5.32617 -0.06261,0.72708 -0.114571,1.33249 -0.150391,1.76172 -0.01791,0.21461 -0.03129,0.38568 -0.04102,0.50976 -0.0049,0.062 -0.0083,0.11081 -0.01172,0.16016 -0.0017,0.0247 -0.0036,0.0461 -0.0059,0.0918 -0.0011,0.0229 -0.003,0.0458 -0.0039,0.11914 -4.42e-4,0.0367 -0.003,0.0776 0.0039,0.20313 0.0069,0.12512 0.93553,2.0077 0.941406,2.01953 0.03577,0.0297 0.310387,0.2577 0.310547,0.25781 1.7e-4,1.2e-4 0.117323,0.0784 0.154297,0.10156 0.07395,0.0463 0.111505,0.0668 0.142578,0.084 0.06215,0.0343 0.08992,0.0488 0.113281,0.0606 0.04673,0.0234 0.06734,0.0324 0.08984,0.043 0.04501,0.0212 0.08281,0.0376 0.125,0.0566 0.08438,0.0381 0.183358,0.0829 0.292968,0.13086 0.117852,0.0515 1.281357,0.66458 1.63086,0.88282 1.995075,1.24576 3.743413,2.93513 5.037109,4.86328 1.357839,2.02376 2.638878,5.143 3.41211,8.60937 0.457242,2.05004 0.817512,4.75999 0.873046,6.37305 0.0079,0.23204 0.01347,0.40373 0.04102,0.6582 0.02754,0.25447 -0.164746,0.63335 0.660156,1.6875 l -0.636718,-1.92773 a 3.0003,3.0003 0 0 0 0.642578,1.93554 c 0.766596,0.97341 1.07058,1.20313 2.47266,1.20313 0.46442,0 1.4676,-0.21966 2.12695,-0.83594 0.65935,-0.61628 0.8248,-1.22007 0.91015,-1.55859 0.17072,-0.67705 0.12527,-0.86327 0.13672,-1.19532 0.0528,-1.53392 0.39899,-4.17093 0.83399,-6.16015 0.49603,-2.26829 1.11933,-4.18639 1.92187,-5.96875 0.49547,-1.10036 0.82372,-1.71496 1.31836,-2.49609 1.21406,-1.91717 2.91957,-3.65252 4.94727,-4.99805 0.28485,-0.18902 1.77452,-1.00169 1.89062,-1.05274 0.12454,-0.0547 0.23586,-0.10444 0.32422,-0.14453 0.0442,-0.02 0.0825,-0.0376 0.11914,-0.0547 0.0183,-0.008 0.0343,-0.0157 0.0625,-0.0293 0.0141,-0.007 0.0304,-0.0139 0.0645,-0.0312 0.034,-0.0173 0.36284,-0.21844 0.36328,-0.21875 a 3.0003,3.0003 0 0 0 0.35166,-0.2891 c 6e-5,-6e-5 0.92143,-1.9418 0.92578,-2.05469 0.004,-0.11289 0.003,-0.14713 0.002,-0.17969 -0.001,-0.0651 -0.003,-0.0869 -0.004,-0.10742 -0.002,-0.041 -0.004,-0.0606 -0.006,-0.084 -0.003,-0.0467 -0.007,-0.0952 -0.0117,-0.15625 -0.01,-0.12219 -0.0231,-0.29067 -0.041,-0.5039 -0.0358,-0.42647 -0.088,-1.0283 -0.15039,-1.75196 -0.12476,-1.44732 -0.29174,-3.37499 -0.46093,-5.30469 -0.1692,-1.92969 -0.3408,-3.86102 -0.47071,-5.31835 -0.065,-0.72867 -0.11855,-1.33962 -0.1582,-1.77344 -0.0198,-0.21692 -0.0368,-0.38781 -0.0488,-0.51367 -0.006,-0.0629 -0.0108,-0.11375 -0.0156,-0.16016 -0.002,-0.0232 -0.004,-0.045 -0.008,-0.0781 -0.002,-0.0166 -0.005,-0.0343 -0.01,-0.0723 -0.005,-0.038 -0.0721,-0.36449 -0.0723,-0.36523 a 3.0003,3.0003 0 0 0 -0.002,-0.006 c -0.095,-0.35413 -0.40079,-1.11116 -1.07422,-1.64454 -0.67041,-0.53098 -1.32742,-0.62688 -1.64453,-0.6582 -0.30381,-0.0313 -0.66259,-0.0583 -1.24024,0.11524 -0.433,0.1301 -1.05469,0.59722 -1.54296,1.27148 -0.10087,-1.07799 -0.2587,-2.19213 -0.32422,-3.22461 -0.0174,-0.27442 -0.0334,-0.4922 -0.0566,-0.70703 -0.0116,-0.10742 -0.0218,-0.20497 -0.0547,-0.38086 -0.0165,-0.0879 -0.0335,-0.18711 -0.10156,-0.40039 -0.034,-0.10664 -0.0748,-0.24137 -0.19141,-0.46875 -0.0583,-0.11369 -0.13539,-0.25225 -0.26953,-0.43164 -0.0671,-0.0897 -0.1503,-0.1906 -0.25781,-0.30078 -0.10588,-0.10851 -0.3988,-0.34021 -0.40821,-0.34766 -0.82537,-0.58844 -1.4546,-0.62099 -2.07226,-0.57422 -0.59354,0.0449 -1.37689,0.16007 -2.17774,1.16797 -0.0596,-0.90089 -0.18883,-1.76855 -0.23437,-2.62695 -0.0202,-0.38168 0.0166,-0.56503 -0.14258,-1.2207 -0.0796,-0.32784 -0.22059,-0.93753 -0.91016,-1.5879 -0.68957,-0.65036 -1.73088,-0.84375 -2.14062,-0.84375 z m 0,26.35743 c 0.0378,0.0508 0.11123,0.15614 0.11133,0.15625 a 3.0003,3.0003 0 0 0 0.0234,0.0273 c 1.4e-4,1.6e-4 0.51345,0.44125 0.51368,0.44141 2.3e-4,1.6e-4 0.24153,0.15213 0.33007,0.19727 0.17709,0.0903 0.2883,0.12978 0.375,0.16015 0.17341,0.0607 0.25486,0.0781 0.32227,0.0937 0.13482,0.0312 0.19157,0.0387 0.24414,0.0469 0.10515,0.0163 0.16623,0.0221 0.23242,0.0293 0.13238,0.0143 0.26309,0.0267 0.40821,0.0371 l -0.006,-0.002 c 0.0988,0.007 0.47864,0.0553 0.49804,0.0586 0.15192,0.026 0.28774,0.0472 0.44727,0.0644 0.0798,0.009 0.15527,0.0166 0.3125,0.0215 0.0786,0.002 0.16678,0.009 0.38281,-0.01 0.10802,-0.01 0.24438,-0.0198 0.50977,-0.0898 0.13269,-0.035 0.53842,-0.19891 0.53906,-0.19922 4.5e-4,-2.1e-4 0.38788,-0.29313 0.66602,-0.5039 a 3.0003,3.0003 0 0 0 1.55859,1.68554 l 0.12695,0.0371 c 0.0923,0.0275 0.29988,0.10427 0.47852,0.16797 -2.33461,1.70143 -4.38092,3.73901 -5.89063,6.12305 -0.63657,1.00526 -1.15265,1.98258 -1.7207,3.24414 -0.17048,0.37862 -0.24172,0.84436 -0.39844,1.23242 -0.7202,-1.81107 -1.56637,-3.47608 -2.542967,-4.93164 -1.491054,-2.22253 -3.450494,-4.08853 -5.626783,-5.66211 0.107524,-0.0394 0.186815,-0.0695 0.273437,-0.0977 a 3.0003,3.0003 0 0 0 0.002,0 c 0.128271,-0.0417 0.24396,-0.081 0.34375,-0.11523 0.04989,-0.0171 0.09211,-0.0302 0.148437,-0.0508 0.02816,-0.0103 0.05659,-0.0217 0.119141,-0.0469 0.03128,-0.0126 0.06702,-0.0257 0.154297,-0.0664 0.04364,-0.0203 0.09879,-0.0446 0.207031,-0.10547 0.05412,-0.0305 0.226386,-0.14246 0.226562,-0.14258 1.76e-4,-1.2e-4 0.503822,-0.4335 0.503907,-0.43359 a 3.0003,3.0003 0 0 0 0.08398,-0.0957 c 1.34e-4,-1.6e-4 0.312727,-0.47485 0.369141,-0.56055 0.201378,0.15387 0.407916,0.31236 0.408203,0.3125 6.49e-4,3.2e-4 0.406686,0.1686 0.541015,0.20508 0.268659,0.073 0.40873,0.0836 0.519532,0.0937 0.221602,0.0204 0.312098,0.0123 0.392578,0.01 0.160959,-0.005 0.236676,-0.0128 0.316406,-0.0215 0.159461,-0.0174 0.29227,-0.0395 0.439453,-0.0644 a 3.0003,3.0003 0 0 0 0.0039,0 c 0.02439,-0.004 0.40613,-0.0503 0.494141,-0.0566 a 3.0003,3.0003 0 0 0 0.0059,-0.002 c 0.1393,-0.0103 0.266869,-0.0203 0.390625,-0.0332 0.06188,-0.006 0.116564,-0.0118 0.210938,-0.0254 0.04719,-0.007 0.09627,-0.0132 0.21875,-0.0391 0.06124,-0.0129 0.136506,-0.0269 0.302736,-0.0801 0.0831,-0.0266 0.3705,-0.1462 0.3711,-0.14648 2.9e-4,-1.4e-4 0.3533,-0.19713 0.35351,-0.19727 2.1e-4,-1.3e-4 0.59168,-0.50573 0.5918,-0.50586 a 3.0003,3.0003 0 0 0 0.002,-0.002 c 9e-5,-1e-4 0.0726,-0.10629 0.11133,-0.1582 z m -6.191408,0.3164 c 6e-6,10e-6 0.01511,0.0113 0.01563,0.0117 0.0018,0.002 0.02147,0.0293 0.02148,0.0293 z m -6.21289,0.85938 c 10e-7,0 0.0058,0.006 0.0059,0.006 0.015,0.029 -0.0058,-0.004 0.01172,0.0293 z"
       id="path4528" /><path
       id="path10265"
       style="color:#000000;fill:#ffffff;stroke-width:3"
       d="m 43.60357,1.500045 c -13.836712,0 -15.150996,0.0023 -15.291016,0.07422 -0.389428,0.200005 -0.40079,0.793304 -0.01953,1.015625 0.36485,0.212658 1.305408,0.863828 1.691406,1.171878 0.50511,0.40307 1.481427,1.36872 1.847657,1.82812 0.542748,0.68084 0.972382,1.3893 1.74414,2.875 0.41896,0.80651 0.863462,1.68232 0.988282,1.94532 0.301628,0.63618 4.083458,9.2184 14.324218,32.50586 1.584518,3.6032 3.281905,7.43309 3.771485,8.50976 2.520934,5.54403 2.998454,6.74349 3.271484,8.20898 0.2089,1.12617 0.290266,2.62206 0.197266,3.64844 -0.19,2.09447 -0.857556,4.11704 -2.089844,6.33008 -0.27219,0.48908 -0.290462,0.62913 -0.107422,0.7832 l 0.119141,0.10352 19.11914,-0.0117 15.744141,-0.01 0.111328,-0.12696 c 0.08745,-0.0993 0.113281,-0.16147 0.113281,-0.29687 0,-0.16858 -0.01253,-0.18559 -0.603515,-0.82032 -2.576626,-2.76746 -4.724421,-5.67901 -6.330079,-8.57812 -0.819168,-1.47902 -1.040048,-1.94346 -2.484374,-5.23242 -1.845548,-4.20251 -4.936671,-11.21303 -9.007813,-20.42774 -2.180126,-4.93453 -4.746314,-10.74338 -5.701172,-12.9082 -0.954838,-2.16484 -2.022537,-4.57996 -2.373047,-5.36523 -2.069636,-4.63694 -3.022164,-7.03079 -3.289062,-8.26172 -0.46344,-2.1383 -0.144366,-4.02155 0.982422,-5.802739 0.242828,-0.384072 0.254134,-0.41518 0.240234,-0.601562 -0.01736,-0.233437 -0.125,-0.405271 -0.3125,-0.494141 -0.12105,-0.05708 -3.682456,-0.0625 -16.65625,-0.0625 z m -18.164062,9.384763 c -0.14517,0 -0.158363,0.0745 -0.226563,1.30079 -0.3025,5.43898 -0.860692,11.55174 -1.464844,16.04297 -0.210169,1.5624 -0.60937,4.12041 -0.65039,4.16601 -0.0075,0.008 -0.201031,0.0278 -0.431641,0.0449 -0.230612,0.0166 -0.584394,0.0574 -0.785156,0.0918 -0.200767,0.0345 -0.374006,0.0552 -0.384766,0.043 -0.02802,-0.0306 -0.301063,-1.68879 -0.496094,-3.01172 -0.596724,-4.0476 -1.020708,-8.37517 -1.220703,-12.46289 -0.02828,-0.57828 -0.06425,-1.04962 -0.08203,-1.07422 -0.01753,-0.0239 -0.07339,-0.0382 -0.125,-0.0332 -0.0917,0.01 -0.09414,0.0159 -0.115234,0.23047 -0.01188,0.12075 -0.04356,0.56053 -0.07031,0.97851 -0.275276,4.30095 -0.937766,9.54546 -1.738281,13.76367 -0.166119,0.87535 -0.51844,2.58357 -0.53711,2.60547 -0.0054,0.006 -0.200598,0.0733 -0.43164,0.14844 -0.231038,0.075 -0.540802,0.18615 -0.689453,0.24805 -0.148644,0.0622 -0.27505,0.10398 -0.28125,0.0918 -0.03347,-0.0637 -0.277517,-0.95068 -0.410157,-1.49023 -0.683433,-2.78008 -1.227646,-6.53715 -1.509765,-10.41992 -0.02699,-0.37152 -0.06082,-0.68853 -0.07422,-0.70313 -0.03793,-0.0434 -0.189124,-0.0117 -0.214844,0.0449 -0.0244,0.0537 -1.381501,15.50048 -1.363281,15.51758 0.0059,0.006 0.174238,0.0821 0.375,0.16992 0.460577,0.20139 1.473425,0.74617 2.017578,1.08594 2.357128,1.47183 4.403963,3.44976 5.939453,5.73828 1.646985,2.45472 3.010001,5.86108 3.84961,9.625 0.501458,2.24829 0.877659,5.01549 0.943359,6.92383 0.0141,0.41297 0.02915,0.55451 0.06445,0.59961 v 0.002 c 0.02554,0.0324 0.07819,0.0586 0.117188,0.0586 0.127,0 0.155681,-0.11087 0.175781,-0.69336 0.06292,-1.82814 0.423221,-4.51326 0.900391,-6.69532 0.533138,-2.43797 1.221349,-4.57097 2.117187,-6.56054 0.53176,-1.18096 0.953923,-1.9779 1.519531,-2.8711 1.453358,-2.29503 3.456043,-4.31915 5.824219,-5.89062 0.56329,-0.37379 1.810479,-1.06718 2.341797,-1.30078 0.22583,-0.0993 0.412922,-0.18446 0.419922,-0.18946 0.0158,-0.0151 -1.332022,-15.38877 -1.357422,-15.48437 -0.01714,-0.0639 -0.04649,-0.0887 -0.121094,-0.0957 -0.06126,-0.006 -0.104281,0.008 -0.113281,0.0351 -0.008,0.0244 -0.04147,0.42428 -0.07617,0.88868 -0.26448,3.53864 -0.725894,6.82171 -1.339844,9.54101 -0.180328,0.79858 -0.438348,1.79482 -0.542968,2.09961 l -0.0293,0.0898 -0.238282,-0.0996 c -0.219298,-0.0938 -0.732423,-0.27573 -1.033203,-0.36523 l -0.126953,-0.0371 -0.109375,-0.51562 c -1.027358,-4.78297 -1.850056,-10.89072 -2.191406,-16.26954 -0.0318,-0.50156 -0.06184,-0.7661 -0.08594,-0.7832 -0.05641,-0.0405 -0.162966,-0.0331 -0.197266,0.0137 -0.0169,0.0232 -0.03958,0.23271 -0.05078,0.46485 -0.19823,4.14719 -0.52504,7.75175 -1.06836,11.78711 -0.20332,1.51015 -0.634434,4.24398 -0.677734,4.29296 -0.01033,0.0118 -0.184006,-0.007 -0.384766,-0.041 -0.20075,-0.0344 -0.552603,-0.0747 -0.783203,-0.0918 -0.23061,-0.0166 -0.426547,-0.0388 -0.435547,-0.0488 -0.04568,-0.0507 -0.497774,-2.99701 -0.708984,-4.61718 -0.60029,-4.60505 -1.154364,-10.81494 -1.433594,-16.07813 -0.03763,-0.70939 -0.06274,-0.81055 -0.197265,-0.81055 z m -10.16211,34.18555 c -0.05139,-10e-4 -0.105448,0.0129 -0.167969,0.0391 -0.07808,0.0324 -0.158367,0.10375 -0.179687,0.15625 -0.02121,0.0526 -0.05876,0.39375 -0.08398,0.75977 -0.234447,3.38332 -1.444536,6.74319 -4.111329,11.41797 -1.848736,3.24077 -4.383972,6.77006 -7.513673,10.46094 -1.40203,1.65342 -1.60352,1.91672 -1.60352,2.08398 0,0.10811 0.0321,0.18063 0.1211,0.26953 l 0.12109,0.125 10.988285,-0.0117 10.986328,-0.0117 0.107422,-0.125 0.105468,-0.12304 -0.02734,-0.79102 c -0.06561,-1.85863 -0.210948,-3.47755 -0.466797,-5.20117 -0.999371,-6.7324 -3.555906,-12.89462 -7.65625,-18.45312 -0.326116,-0.44211 -0.464967,-0.59214 -0.619141,-0.59571 z" /><path
       style="color:#000000;fill:#000000"
       d="m 43.60357,4.5e-5 c -6.918423,0 -10.7033,3.27e-4 -12.787109,0.0098 -1.041905,0.0047 -1.654681,0.01234 -2.042969,0.02344 -0.194144,0.0055 -0.330452,0.01108 -0.466797,0.02344 -0.136345,0.01236 -0.239051,-0.04456 -0.679687,0.181641 -1.450702,0.745057 -1.485475,2.832662 -0.08984,3.646482 0.181153,0.10559 1.247274,0.83779 1.511719,1.04883 0.327979,0.26173 1.414057,1.34679 1.609375,1.5918 0.467237,0.58611 0.829286,1.17424 1.585937,2.63086 0.414496,0.79792 0.87908,1.71578 0.964844,1.89648 0.0719,0.15166 1.154987,2.58535 3.417969,7.72071 2.262981,5.13535 5.768343,13.10248 10.888671,24.74609 1.585754,3.60603 3.275666,7.41977 3.779297,8.52734 2.516769,5.53486 2.919826,6.56086 3.16211,7.86133 0.178246,0.96092 0.253716,2.42322 0.179687,3.24024 -0.169286,1.86612 -0.752804,3.65942 -1.908203,5.73437 -0.158484,0.28477 -0.324886,0.49786 -0.400391,1.04297 -0.0754,0.54432 0.35067,1.37667 0.634766,1.61719 4.14e-4,3.5e-4 0.0015,0.002 0.002,0.002 l 0.527344,0.45508 19.677734,-0.0117 16.416016,-0.0117 0.5625,-0.6289 0.0039,-0.004 c 0.20207,-0.2295 0.486328,-0.96829 0.486328,-1.28906 0,-0.11941 -0.180109,-0.8654 -0.371094,-1.125 -0.190984,-0.25961 -0.338365,-0.39846 -0.634765,-0.7168 -2.502544,-2.68791 -4.578161,-5.50793 -6.115234,-8.2832 -0.809943,-1.46236 -0.981197,-1.82427 -2.423829,-5.10938 -1.846572,-4.20484 -4.938405,-11.21643 -9.009765,-20.43164 -2.180039,-4.93434 -4.744817,-10.74247 -5.699219,-12.90625 -0.955371,-2.16604 -2.022405,-4.57676 -2.376953,-5.37109 -2.061179,-4.61799 -2.997849,-7.06707 -3.193359,-7.96875 -0.394648,-1.8209 -0.154538,-3.19817 0.785156,-4.6836 0.124808,-0.1974 0.218051,-0.3146 0.339844,-0.61719 0.121792,-0.302583 0.138877,-0.76278 0.128906,-0.896481 -0.04763,-0.640524 -0.507785,-1.426298 -1.166016,-1.738281 h -0.002 l -0.002,-0.002 C 60.575027,0.052613 60.536183,0.086535 60.470709,0.07621 60.405239,0.06589 60.366838,0.06206 60.32813,0.05863 60.25071,0.05173 60.183474,0.0483 60.103521,0.04496 59.943616,0.03826 59.73645,0.03371 59.45313,0.02933 58.886491,0.02053 58.021822,0.01408 56.755865,0.0098 54.22395,0.0012 50.09064,0 43.603521,0 Z m 0,3.000003 c 6.486688,0 10.620605,10e-4 13.142578,0.01 0.883523,0.003 1.347624,0.009 1.865235,0.0137 -0.817059,1.79609 -1.167124,3.73214 -0.728516,5.75586 0.338289,1.56017 1.308622,3.8988 3.386719,8.55468 0.346471,0.77625 1.416786,3.19575 2.371093,5.35938 0.955317,2.16585 3.519002,7.97345 5.699219,12.9082 4.070932,9.21424 7.163289,16.22561 9.007813,20.42578 1.446025,3.29284 1.716526,3.85979 2.544922,5.35547 1.429848,2.58167 3.328096,5.12982 5.482421,7.59766 l -13.207031,0.008 -17.21875,0.0117 c 0.882777,-1.86979 1.503886,-3.70671 1.673828,-5.58008 0.111971,-1.23574 0.02276,-2.76717 -0.216797,-4.05859 v -0.002 c -0.303776,-1.63054 -0.855752,-3.00149 -3.380859,-8.55468 -0.475528,-1.04577 -2.180389,-4.89178 -3.763672,-8.49219 -5.120441,-11.64387 -8.626944,-19.61111 -10.890625,-24.74805 -2.263681,-5.13694 -3.221446,-7.31233 -3.451172,-7.79687 -0.163875,-0.34529 -0.590249,-1.17904 -1.013672,-1.99414 -0.786867,-1.51479 -1.284081,-2.34163 -1.902343,-3.11719 -0.427744,-0.53657 -1.07421,-1.13015 -1.660157,-1.64648 2.119604,-0.008 5.619676,-0.01 12.259766,-0.01 z"
       id="path10234" /><path
       style="color:#000000;fill:#000000"
       d="m 15.314508,43.453168 c -0.392777,-0.009 -0.665526,0.0978 -0.824219,0.16407 -0.236628,0.0983 -0.390472,0.20141 -0.546875,0.33593 -0.156404,0.13453 -0.326513,0.24706 -0.511719,0.70313 v 0.002 l -0.002,0.002 c -0.16959,0.42089 -0.104731,0.36825 -0.117188,0.44921 -0.01246,0.081 -0.02192,0.15646 -0.03125,0.24024 -0.01865,0.16757 -0.03474,0.36009 -0.04883,0.56445 -0.213038,3.07437 -1.296484,6.16056 -3.902343,10.72852 -1.783898,3.1271 -4.262404,6.58525 -7.341794,10.21679 -0.70353,0.82968 -1.10574,1.30602 -1.37696,1.65821 -0.13561,0.17609 -0.24232,0.3171 -0.35742,0.52539 C 0.13881,69.251398 0,69.620138 0,69.988418 c 0,0.43543 0.33571,1.15436 0.59571,1.41406 l 0.58398,0.59766 11.669925,-0.0117 11.728515,-0.0137 0.587891,-0.68555 0.519531,-0.60156 -0.05078,-1.42383 c -0.06741,-1.90963 -0.218036,-3.59974 -0.482422,-5.38086 -1.037144,-6.98687 -3.706454,-13.41626 -7.955078,-19.17578 -0.234302,-0.31763 -0.346903,-0.55633 -0.830078,-0.89844 -0.241588,-0.17105 -0.658167,-0.34633 -1.052734,-0.35547 z m 0.595703,5.19336 c 3.143238,4.81678 5.199317,10.02756 6.042968,15.71094 0.216042,1.45543 0.319753,2.85808 0.392579,4.38477 l -9.5,0.0117 -8.246098,0.01 c 3.106658,-3.68182 5.657833,-7.2218 7.539066,-10.51953 2.121561,-3.719 3.187191,-6.69998 3.771485,-9.59766 z"
       id="path10228" /></g><g
     id="g17868"
     inkscape:export-filename="XANA_U.png"
     inkscape:export-xdpi="95.999817"
     inkscape:export-ydpi="95.999817"><path
       style="fill:#000000;stroke:none;stroke-width:1px;stroke-linecap:butt;stroke-linejoin:miter;stroke-opacity:1"
       d="m 121.91176,4.024718 -17.03033,41.03661 7.71599,20.80438 3.625,-7 5.375,-17.125 5.625,-4.75 0.625,-16.875 4,-3.75 z"
       id="path5990-4"
       sodipodi:nodetypes="ccccccccc" /><path
       style="color:#000000;fill:#000000;fill-opacity:1;stroke-linejoin:round"
       d="m 116.07789,7.885238 c -0.29144,0 -1.63975,0.24578 -2.34961,1.0625 -0.70985,0.81672 -0.69794,1.32537 -0.74805,1.61328 -0.1002,0.57583 -0.0886,0.83678 -0.12304,1.45704 -0.0405,0.72821 -0.14586,1.39988 -0.19531,2.14843 -0.68632,-0.87475 -1.22415,-0.96527 -1.60352,-1.0664 -0.3997,-0.10656 -0.72137,-0.13263 -1.13086,-0.0937 a 3.0003,3.0003 0 0 0 -0.043,0.004 c -0.0488,0.005 -0.25346,-0.0229 -0.81445,0.19531 -0.561,0.21816 -1.3508,0.93507 -1.62305,1.47656 -0.5445,1.08298 -0.32638,1.12899 -0.33789,1.2461 -0.0308,0.31278 -0.0503,0.64792 -0.0781,1.08203 -0.0515,0.80423 -0.24946,1.72986 -0.32812,2.5957 -0.0511,-0.0693 -0.0973,-0.13135 -0.11133,-0.15039 -0.77535,-0.87292 -1.51288,-0.9608 -1.94922,-1.00977 -0.44056,-0.0494 -0.72759,-0.0122 -1.01172,0.0469 -0.28414,0.0591 -0.55413,0.14171 -0.9082,0.33789 -0.35407,0.19619 -0.88963,0.48376 -1.31446,1.41797 a 3.0003,3.0003 0 0 0 -0.002,0.002 c -9e-5,2.1e-4 -0.19405,0.57784 -0.20898,0.65235 -0.0149,0.0745 -0.0211,0.1072 -0.0254,0.13476 -0.008,0.0551 -0.0112,0.0773 -0.0137,0.0977 -0.005,0.0406 -0.007,0.0615 -0.01,0.0859 -0.005,0.0489 -0.01,0.0993 -0.0156,0.16211 -0.0122,0.12568 -0.0289,0.29739 -0.0488,0.51367 -0.0399,0.43256 -0.0949,1.04213 -0.16016,1.77149 -0.13055,1.45871 -0.30066,3.39552 -0.4707,5.33203 -0.17004,1.93651 -0.33962,3.87201 -0.464844,5.32617 -0.06261,0.72708 -0.114571,1.33249 -0.150391,1.76172 -0.01791,0.21461 -0.03129,0.38568 -0.04102,0.50976 -0.0049,0.062 -0.0083,0.11081 -0.01172,0.16016 -0.0017,0.0247 -0.0036,0.0461 -0.0059,0.0918 -0.0011,0.0229 -0.003,0.0458 -0.0039,0.11914 -4.42e-4,0.0367 -0.003,0.0776 0.0039,0.20313 0.0069,0.12512 0.935525,2.0077 0.941405,2.01953 0.0358,0.0297 0.31039,0.2577 0.31055,0.25781 1.7e-4,1.2e-4 0.11732,0.0784 0.15429,0.10156 0.0739,0.0463 0.11151,0.0668 0.14258,0.084 0.0622,0.0343 0.0899,0.0488 0.11328,0.0606 0.0467,0.0234 0.0673,0.0324 0.0898,0.043 0.045,0.0212 0.0828,0.0376 0.125,0.0566 0.0844,0.0381 0.18336,0.0829 0.29297,0.13086 0.11785,0.0515 1.28136,0.66458 1.63086,0.88282 1.99508,1.24576 3.74341,2.93513 5.03711,4.86328 1.35784,2.02376 2.63888,5.143 3.41211,8.60937 0.45724,2.05004 0.81751,4.75999 0.87305,6.37305 0.008,0.23204 0.0135,0.40373 0.041,0.6582 0.0275,0.25447 -0.16475,0.63335 0.66015,1.6875 l -0.63672,-1.92773 a 3.0003,3.0003 0 0 0 0.64258,1.93554 c 0.7666,0.97341 1.07058,1.20313 2.47266,1.20313 0.46442,0 1.4676,-0.21966 2.12695,-0.83594 0.65935,-0.61628 0.8248,-1.22007 0.91015,-1.55859 0.17072,-0.67705 0.12527,-0.86327 0.13672,-1.19532 0.0528,-1.53392 0.39899,-4.17093 0.83399,-6.16015 0.49603,-2.26829 1.11933,-4.18639 1.92187,-5.96875 0.49547,-1.10036 0.82372,-1.71496 1.31836,-2.49609 1.21406,-1.91717 2.91957,-3.65252 4.94727,-4.99805 0.28485,-0.18902 1.77452,-1.00169 1.89062,-1.05274 0.12454,-0.0547 0.23586,-0.10444 0.32422,-0.14453 0.0442,-0.02 0.0825,-0.0376 0.11914,-0.0547 0.0183,-0.008 0.0343,-0.0157 0.0625,-0.0293 0.0141,-0.007 0.0304,-0.0139 0.0645,-0.0312 0.034,-0.0173 0.36284,-0.21844 0.36328,-0.21875 a 3.0003,3.0003 0 0 0 0.35166,-0.2891 c 6e-5,-6e-5 0.92143,-1.9418 0.92578,-2.05469 0.004,-0.11289 0.003,-0.14713 0.002,-0.17969 -0.001,-0.0651 -0.003,-0.0869 -0.004,-0.10742 -0.002,-0.041 -0.004,-0.0606 -0.006,-0.084 -0.003,-0.0467 -0.007,-0.0952 -0.0117,-0.15625 -0.01,-0.12219 -0.0231,-0.29067 -0.041,-0.5039 -0.0358,-0.42647 -0.088,-1.0283 -0.15039,-1.75196 -0.12476,-1.44732 -0.29174,-3.37499 -0.46093,-5.30469 -0.1692,-1.92969 -0.3408,-3.86102 -0.47071,-5.31835 -0.065,-0.72867 -0.11855,-1.33962 -0.1582,-1.77344 -0.0198,-0.21692 -0.0368,-0.38781 -0.0488,-0.51367 -0.006,-0.0629 -0.0108,-0.11375 -0.0156,-0.16016 -0.002,-0.0232 -0.004,-0.045 -0.008,-0.0781 -0.002,-0.0166 -0.005,-0.0343 -0.01,-0.0723 -0.005,-0.038 -0.0721,-0.36449 -0.0723,-0.36523 a 3.0003,3.0003 0 0 0 -0.002,-0.006 c -0.095,-0.35413 -0.40079,-1.11116 -1.07422,-1.64454 -0.67041,-0.53098 -1.32742,-0.62688 -1.64453,-0.6582 -0.30381,-0.0313 -0.66259,-0.0583 -1.24024,0.11524 -0.433,0.1301 -1.05469,0.59722 -1.54296,1.27148 -0.10087,-1.07799 -0.2587,-2.19213 -0.32422,-3.22461 -0.0174,-0.27442 -0.0334,-0.4922 -0.0566,-0.70703 -0.0116,-0.10742 -0.0218,-0.20497 -0.0547,-0.38086 -0.0165,-0.0879 -0.0335,-0.18711 -0.10156,-0.40039 -0.034,-0.10664 -0.0748,-0.24137 -0.19141,-0.46875 -0.0583,-0.11369 -0.13539,-0.25225 -0.26953,-0.43164 -0.0671,-0.0897 -0.1503,-0.1906 -0.25781,-0.30078 -0.10588,-0.10851 -0.3988,-0.34021 -0.40821,-0.34766 -0.82537,-0.58844 -1.4546,-0.62099 -2.07226,-0.57422 -0.59354,0.0449 -1.37689,0.16007 -2.17774,1.16797 -0.0596,-0.90089 -0.18883,-1.76855 -0.23437,-2.62695 -0.0202,-0.38168 0.0166,-0.56503 -0.14258,-1.2207 -0.0796,-0.32784 -0.22059,-0.93753 -0.91016,-1.5879 -0.68957,-0.65036 -1.73088,-0.84375 -2.14062,-0.84375 z m 0,26.35743 c 0.0378,0.0508 0.11123,0.15614 0.11133,0.15625 a 3.0003,3.0003 0 0 0 0.0234,0.0273 c 1.4e-4,1.6e-4 0.51345,0.44125 0.51368,0.44141 2.3e-4,1.6e-4 0.24153,0.15213 0.33007,0.19727 0.17709,0.0903 0.2883,0.12978 0.375,0.16015 0.17341,0.0607 0.25486,0.0781 0.32227,0.0937 0.13482,0.0312 0.19157,0.0387 0.24414,0.0469 0.10515,0.0163 0.16623,0.0221 0.23242,0.0293 0.13238,0.0143 0.26309,0.0267 0.40821,0.0371 l -0.006,-0.002 c 0.0988,0.007 0.47864,0.0553 0.49804,0.0586 0.15192,0.026 0.28774,0.0472 0.44727,0.0644 0.0798,0.009 0.15527,0.0166 0.3125,0.0215 0.0786,0.002 0.16678,0.009 0.38281,-0.01 0.10802,-0.01 0.24438,-0.0198 0.50977,-0.0898 0.13269,-0.035 0.53842,-0.19891 0.53906,-0.19922 4.5e-4,-2.1e-4 0.38788,-0.29313 0.66602,-0.5039 a 3.0003,3.0003 0 0 0 1.55859,1.68554 l 0.12695,0.0371 c 0.0923,0.0275 0.29988,0.10427 0.47852,0.16797 -2.33461,1.70143 -4.38092,3.73901 -5.89063,6.12305 -0.63657,1.00526 -1.15265,1.98258 -1.7207,3.24414 -0.17048,0.37862 -0.24172,0.84436 -0.39844,1.23242 -0.7202,-1.81107 -1.56637,-3.47608 -2.54296,-4.93164 -1.49106,-2.22253 -3.4505,-4.08853 -5.62679,-5.66211 0.10753,-0.0394 0.18682,-0.0695 0.27344,-0.0977 a 3.0003,3.0003 0 0 0 0.002,0 c 0.12827,-0.0417 0.24396,-0.081 0.34375,-0.11523 0.0499,-0.0171 0.0921,-0.0302 0.14844,-0.0508 0.0282,-0.0103 0.0566,-0.0217 0.11914,-0.0469 0.0313,-0.0126 0.067,-0.0257 0.15429,-0.0664 0.0436,-0.0203 0.0988,-0.0446 0.20704,-0.10547 0.0541,-0.0305 0.22638,-0.14246 0.22656,-0.14258 1.7e-4,-1.2e-4 0.50382,-0.4335 0.5039,-0.43359 a 3.0003,3.0003 0 0 0 0.084,-0.0957 c 1.4e-4,-1.6e-4 0.31273,-0.47485 0.36915,-0.56055 0.20137,0.15387 0.40791,0.31236 0.4082,0.3125 6.5e-4,3.2e-4 0.40668,0.1686 0.54101,0.20508 0.26866,0.073 0.40873,0.0836 0.51954,0.0937 0.2216,0.0204 0.31209,0.0123 0.39257,0.01 0.16096,-0.005 0.23668,-0.0128 0.31641,-0.0215 0.15946,-0.0174 0.29227,-0.0395 0.43945,-0.0644 a 3.0003,3.0003 0 0 0 0.004,0 c 0.0244,-0.004 0.40613,-0.0503 0.49414,-0.0566 a 3.0003,3.0003 0 0 0 0.006,-0.002 c 0.1393,-0.0103 0.26687,-0.0203 0.39063,-0.0332 0.0619,-0.006 0.11656,-0.0118 0.21094,-0.0254 0.0472,-0.007 0.0963,-0.0132 0.21875,-0.0391 0.0612,-0.0129 0.1365,-0.0269 0.30273,-0.0801 0.0831,-0.0266 0.3705,-0.1462 0.3711,-0.14648 2.9e-4,-1.4e-4 0.3533,-0.19713 0.35351,-0.19727 2.1e-4,-1.3e-4 0.59168,-0.50573 0.5918,-0.50586 a 3.0003,3.0003 0 0 0 0.002,-0.002 c 9e-5,-1e-4 0.0726,-0.10629 0.11133,-0.1582 z m -6.19141,0.3164 c 10e-6,10e-6 0.0151,0.0113 0.0156,0.0117 0.002,0.002 0.0215,0.0293 0.0215,0.0293 z m -6.21289,0.85938 c 10e-6,0 0.006,0.006 0.006,0.006 0.015,0.029 -0.006,-0.004 0.0117,0.0293 z"
       id="path4528-5" /><path
       id="path10265-4"
       style="color:#000000;fill:url(#linearGradient14797);fill-opacity:1;stroke-width:3"
       d="m 134.24234,1.500045 c -13.83671,0 -15.151,0.0023 -15.29102,0.07422 -0.38942,0.200005 -0.40079,0.793304 -0.0195,1.015625 0.36485,0.212658 1.30541,0.863828 1.69141,1.171878 0.50511,0.40307 1.48143,1.36872 1.84766,1.82812 0.54275,0.68084 0.97238,1.3893 1.74414,2.875 0.41896,0.80651 0.86346,1.68232 0.98828,1.94532 0.30163,0.63618 4.08346,9.2184 14.32422,32.50586 1.58452,3.6032 3.2819,7.43309 3.77148,8.50976 2.52094,5.54403 2.99846,6.74349 3.27149,8.20898 0.2089,1.12617 0.29026,2.62206 0.19726,3.64844 -0.19,2.09447 -0.85755,4.11704 -2.08984,6.33008 -0.27219,0.48908 -0.29046,0.62913 -0.10742,0.7832 l 0.11914,0.10352 19.11914,-0.0117 15.74414,-0.01 0.11133,-0.12696 c 0.0874,-0.0993 0.11328,-0.16147 0.11328,-0.29687 0,-0.16858 -0.0125,-0.18559 -0.60352,-0.82032 -2.57662,-2.76746 -4.72442,-5.67901 -6.33008,-8.57812 -0.81916,-1.47902 -1.04004,-1.94346 -2.48437,-5.23242 -1.84555,-4.20251 -4.93667,-11.21303 -9.00781,-20.42774 -2.18013,-4.93453 -4.74632,-10.74338 -5.70118,-12.9082 -0.95483,-2.16484 -2.02253,-4.57996 -2.37304,-5.36523 -2.06964,-4.63694 -3.02217,-7.03079 -3.28906,-8.26172 -0.46344,-2.1383 -0.14437,-4.02155 0.98242,-5.802739 0.24283,-0.384072 0.25413,-0.41518 0.24023,-0.601562 -0.0174,-0.233437 -0.125,-0.405271 -0.3125,-0.494141 -0.12105,-0.05708 -3.68245,-0.0625 -16.65625,-0.0625 z m -18.16406,9.384763 c -0.14517,0 -0.15836,0.0745 -0.22656,1.30079 -0.3025,5.43898 -0.8607,11.55174 -1.46485,16.04297 -0.21017,1.5624 -0.60937,4.12041 -0.65039,4.16601 -0.007,0.008 -0.20103,0.0278 -0.43164,0.0449 -0.23061,0.0166 -0.58439,0.0574 -0.78516,0.0918 -0.20076,0.0345 -0.374,0.0552 -0.38476,0.043 -0.028,-0.0306 -0.30106,-1.68879 -0.4961,-3.01172 -0.59672,-4.0476 -1.0207,-8.37517 -1.2207,-12.46289 -0.0283,-0.57828 -0.0643,-1.04962 -0.082,-1.07422 -0.0175,-0.0239 -0.0734,-0.0382 -0.125,-0.0332 -0.0917,0.01 -0.0941,0.0159 -0.11523,0.23047 -0.0119,0.12075 -0.0436,0.56053 -0.0703,0.97851 -0.27528,4.30095 -0.93777,9.54546 -1.73828,13.76367 -0.16612,0.87535 -0.51844,2.58357 -0.53711,2.60547 -0.005,0.006 -0.2006,0.0733 -0.43164,0.14844 -0.23104,0.075 -0.54081,0.18615 -0.68946,0.24805 -0.14864,0.0622 -0.27505,0.10398 -0.28125,0.0918 -0.0335,-0.0637 -0.27751,-0.95068 -0.41015,-1.49023 -0.68344,-2.78008 -1.22765,-6.53715 -1.50977,-10.41992 -0.027,-0.37152 -0.0608,-0.68853 -0.0742,-0.70313 -0.0379,-0.0434 -0.18912,-0.0117 -0.21484,0.0449 -0.0244,0.0537 -1.3815,15.50048 -1.36328,15.51758 0.006,0.006 0.17423,0.0821 0.375,0.16992 0.46057,0.20139 1.47342,0.74617 2.01757,1.08594 2.35713,1.47183 4.40397,3.44976 5.93946,5.73828 1.64698,2.45472 3.01,5.86108 3.84961,9.625 0.50146,2.24829 0.87766,5.01549 0.94336,6.92383 0.0141,0.41297 0.0292,0.55451 0.0645,0.59961 v 0.002 c 0.0255,0.0324 0.0782,0.0586 0.11718,0.0586 0.127,0 0.15569,-0.11087 0.17579,-0.69336 0.0629,-1.82814 0.42322,-4.51326 0.90039,-6.69532 0.53313,-2.43797 1.22135,-4.57097 2.11718,-6.56054 0.53176,-1.18096 0.95393,-1.9779 1.51953,-2.8711 1.45336,-2.29503 3.45605,-4.31915 5.82422,-5.89062 0.56329,-0.37379 1.81048,-1.06718 2.3418,-1.30078 0.22583,-0.0993 0.41292,-0.18446 0.41992,-0.18946 0.0158,-0.0151 -1.33202,-15.38877 -1.35742,-15.48437 -0.0171,-0.0639 -0.0465,-0.0887 -0.12109,-0.0957 -0.0613,-0.006 -0.10428,0.008 -0.11328,0.0351 -0.008,0.0244 -0.0415,0.42428 -0.0762,0.88868 -0.26448,3.53864 -0.7259,6.82171 -1.33985,9.54101 -0.18033,0.79858 -0.43835,1.79482 -0.54297,2.09961 l -0.0293,0.0898 -0.23828,-0.0996 c -0.2193,-0.0938 -0.73242,-0.27573 -1.0332,-0.36523 l -0.12695,-0.0371 -0.10938,-0.51562 c -1.02736,-4.78297 -1.85006,-10.89072 -2.1914,-16.26954 -0.0318,-0.50156 -0.0619,-0.7661 -0.0859,-0.7832 -0.0564,-0.0405 -0.16296,-0.0331 -0.19726,0.0137 -0.0169,0.0232 -0.0396,0.23271 -0.0508,0.46485 -0.19823,4.14719 -0.52504,7.75175 -1.06836,11.78711 -0.20332,1.51015 -0.63444,4.24398 -0.67774,4.29296 -0.0103,0.0118 -0.184,-0.007 -0.38476,-0.041 -0.20075,-0.0344 -0.5526,-0.0747 -0.7832,-0.0918 -0.23061,-0.0166 -0.42655,-0.0388 -0.43555,-0.0488 -0.0457,-0.0507 -0.49778,-2.99701 -0.70899,-4.61718 -0.60028,-4.60505 -1.15436,-10.81494 -1.43359,-16.07813 -0.0376,-0.70939 -0.0627,-0.81055 -0.19726,-0.81055 z m -10.16211,34.18555 c -0.0514,-10e-4 -0.10545,0.0129 -0.16797,0.0391 -0.0781,0.0324 -0.15837,0.10375 -0.17969,0.15625 -0.0212,0.0526 -0.0588,0.39375 -0.084,0.75977 -0.23444,3.38332 -1.44453,6.74319 -4.11133,11.41797 -1.848732,3.24077 -4.383968,6.77006 -7.513669,10.46094 -1.40203,1.65342 -1.60352,1.91672 -1.60352,2.08398 0,0.10811 0.0321,0.18063 0.1211,0.26953 l 0.12109,0.125 10.988289,-0.0117 10.98632,-0.0117 0.10743,-0.125 0.10546,-0.12304 -0.0273,-0.79102 c -0.0656,-1.85863 -0.21094,-3.47755 -0.46679,-5.20117 -0.99937,-6.7324 -3.55591,-12.89462 -7.65625,-18.45312 -0.32612,-0.44211 -0.46497,-0.59214 -0.61914,-0.59571 z" /><path
       style="color:#000000;fill:#000000"
       d="m 134.24234,4.5e-5 c -6.91842,0 -10.7033,3.27e-4 -12.78711,0.0098 -1.0419,0.0047 -1.65468,0.01234 -2.04297,0.02344 -0.19414,0.0055 -0.33045,0.01108 -0.46679,0.02344 -0.13635,0.01236 -0.23906,-0.04456 -0.67969,0.181641 -1.4507,0.745057 -1.48548,2.832662 -0.0898,3.646482 0.18115,0.10559 1.24727,0.83779 1.51172,1.04883 0.32798,0.26173 1.41405,1.34679 1.60937,1.5918 0.46724,0.58611 0.82929,1.17424 1.58594,2.63086 0.4145,0.79792 0.87908,1.71578 0.96484,1.89648 0.0719,0.15166 1.15499,2.58535 3.41797,7.72071 2.26298,5.13535 5.76835,13.10248 10.88867,24.74609 1.58576,3.60603 3.27567,7.41977 3.7793,8.52734 2.51677,5.53486 2.91983,6.56086 3.16211,7.86133 0.17825,0.96092 0.25372,2.42322 0.17969,3.24024 -0.16929,1.86612 -0.75281,3.65942 -1.90821,5.73437 -0.15848,0.28477 -0.32488,0.49786 -0.40039,1.04297 -0.0754,0.54432 0.35067,1.37667 0.63477,1.61719 4.1e-4,3.5e-4 0.001,0.002 0.002,0.002 l 0.52734,0.45508 19.67774,-0.0117 16.41601,-0.0117 0.5625,-0.6289 0.004,-0.004 c 0.20207,-0.2295 0.48633,-0.96829 0.48633,-1.28906 0,-0.11941 -0.18011,-0.8654 -0.37109,-1.125 -0.19099,-0.25961 -0.33837,-0.39846 -0.63477,-0.7168 -2.50254,-2.68791 -4.57816,-5.50793 -6.11523,-8.2832 -0.80994,-1.46236 -0.9812,-1.82427 -2.42383,-5.10938 -1.84657,-4.20484 -4.93841,-11.21643 -9.00977,-20.43164 -2.18003,-4.93434 -4.74481,-10.74247 -5.69921,-12.90625 -0.95538,-2.16604 -2.02241,-4.57676 -2.37696,-5.37109 -2.06118,-4.61799 -2.99785,-7.06707 -3.19336,-7.96875 -0.39464,-1.8209 -0.15453,-3.19817 0.78516,-4.6836 0.12481,-0.1974 0.21805,-0.3146 0.33984,-0.61719 0.1218,-0.302583 0.13888,-0.76278 0.12891,-0.896481 -0.0476,-0.640524 -0.50779,-1.426298 -1.16602,-1.738281 h -0.002 l -0.002,-0.002 C 151.2138,0.052613 151.17495,0.086535 151.10948,0.07621 151.04401,0.06589 151.00561,0.06206 150.9669,0.05863 150.88948,0.05173 150.82224,0.0483 150.74229,0.04496 150.58239,0.03826 150.37522,0.03371 150.0919,0.02933 149.52526,0.02053 148.66059,0.01408 147.39464,0.0098 144.86272,0.0012 140.72941,0 134.24229,0 Z m 0,3.000003 c 6.48669,0 10.62061,10e-4 13.14258,0.01 0.88352,0.003 1.34762,0.009 1.86523,0.0137 -0.81706,1.79609 -1.16712,3.73214 -0.72851,5.75586 0.33829,1.56017 1.30862,3.8988 3.38672,8.55468 0.34647,0.77625 1.41678,3.19575 2.37109,5.35938 0.95532,2.16585 3.519,7.97345 5.69922,12.9082 4.07093,9.21424 7.16329,16.22561 9.00781,20.42578 1.44603,3.29284 1.71653,3.85979 2.54492,5.35547 1.42985,2.58167 3.3281,5.12982 5.48242,7.59766 l -13.20703,0.008 -17.21875,0.0117 c 0.88278,-1.86979 1.50389,-3.70671 1.67383,-5.58008 0.11197,-1.23574 0.0228,-2.76717 -0.2168,-4.05859 v -0.002 c -0.30377,-1.63054 -0.85575,-3.00149 -3.38085,-8.55468 -0.47553,-1.04577 -2.18039,-4.89178 -3.76368,-8.49219 -5.12044,-11.64387 -8.62694,-19.61111 -10.89062,-24.74805 -2.26368,-5.13694 -3.22145,-7.31233 -3.45117,-7.79687 -0.16388,-0.34529 -0.59025,-1.17904 -1.01368,-1.99414 -0.78686,-1.51479 -1.28408,-2.34163 -1.90234,-3.11719 -0.42774,-0.53657 -1.07421,-1.13015 -1.66016,-1.64648 2.11961,-0.008 5.61968,-0.01 12.25977,-0.01 z"
       id="path10234-7" /><path
       style="color:#000000;fill:#000000"
       d="m 105.95328,43.453168 c -0.39278,-0.009 -0.66553,0.0978 -0.82422,0.16407 -0.23663,0.0983 -0.39047,0.20141 -0.54688,0.33593 -0.1564,0.13453 -0.32651,0.24706 -0.51171,0.70313 v 0.002 l -0.002,0.002 c -0.16959,0.42089 -0.10474,0.36825 -0.11719,0.44921 -0.0125,0.081 -0.0219,0.15646 -0.0312,0.24024 -0.0186,0.16757 -0.0347,0.36009 -0.0488,0.56445 -0.21304,3.07437 -1.29649,6.16056 -3.902345,10.72852 -1.783898,3.1271 -4.262404,6.58525 -7.341794,10.21679 -0.70353,0.82968 -1.10574,1.30602 -1.37696,1.65821 -0.13561,0.17609 -0.24232,0.3171 -0.35742,0.52539 -0.1151,0.20829 -0.25391,0.57703 -0.25391,0.94531 0,0.43543 0.33571,1.15436 0.59571,1.41406 l 0.58398,0.59766 11.669929,-0.0117 11.72851,-0.0137 0.58789,-0.68555 0.51953,-0.60156 -0.0508,-1.42383 c -0.0674,-1.90963 -0.21803,-3.59974 -0.48242,-5.38086 -1.03714,-6.98687 -3.70645,-13.41626 -7.95508,-19.17578 -0.2343,-0.31763 -0.3469,-0.55633 -0.83008,-0.89844 -0.24158,-0.17105 -0.65816,-0.34633 -1.05273,-0.35547 z m 0.5957,5.19336 c 3.14324,4.81678 5.19932,10.02756 6.04297,15.71094 0.21604,1.45543 0.31975,2.85808 0.39258,4.38477 l -9.5,0.0117 -8.246099,0.01 c 3.106658,-3.68182 5.657829,-7.2218 7.539069,-10.51953 2.12156,-3.719 3.18719,-6.69998 3.77148,-9.59766 z"
       id="path10228-7" /></g><metadata
     id="metadata15605"><rdf:RDF><cc:Work
         rdf:about=""><dc:title>parl3</dc:title></cc:Work></rdf:RDF></metadata><g
     id="g18906"
     inkscape:export-filename="XANA_R.png"
     inkscape:export-xdpi="95.999817"
     inkscape:export-ydpi="95.999817"><path
       style="fill:#000000;stroke:none;stroke-width:1px;stroke-linecap:butt;stroke-linejoin:miter;stroke-opacity:1"
       d="m 212.55059,4.024718 -17.03033,41.03661 7.71599,20.80438 3.625,-7 5.375,-17.125 5.625,-4.75 0.625,-16.875 4,-3.75 z"
       id="path5990-4-0"
       sodipodi:nodetypes="ccccccccc" /><path
       style="color:#000000;fill:#000000;fill-opacity:1;stroke-linejoin:round"
       d="m 206.71672,7.885238 c -0.29144,0 -1.63975,0.24578 -2.34961,1.0625 -0.70985,0.81672 -0.69794,1.32537 -0.74805,1.61328 -0.1002,0.57583 -0.0886,0.83678 -0.12304,1.45704 -0.0405,0.72821 -0.14586,1.39988 -0.19531,2.14843 -0.68632,-0.87475 -1.22415,-0.96527 -1.60352,-1.0664 -0.3997,-0.10656 -0.72137,-0.13263 -1.13086,-0.0937 a 3.0003,3.0003 0 0 0 -0.043,0.004 c -0.0488,0.005 -0.25346,-0.0229 -0.81445,0.19531 -0.561,0.21816 -1.3508,0.93507 -1.62305,1.47656 -0.5445,1.08298 -0.32638,1.12899 -0.33789,1.2461 -0.0308,0.31278 -0.0503,0.64792 -0.0781,1.08203 -0.0515,0.80423 -0.24946,1.72986 -0.32812,2.5957 -0.0511,-0.0693 -0.0973,-0.13135 -0.11133,-0.15039 -0.77535,-0.87292 -1.51288,-0.9608 -1.94922,-1.00977 -0.44056,-0.0494 -0.72759,-0.0122 -1.01172,0.0469 -0.28414,0.0591 -0.55413,0.14171 -0.9082,0.33789 -0.35407,0.19619 -0.88963,0.48376 -1.31446,1.41797 a 3.0003,3.0003 0 0 0 -0.002,0.002 c -9e-5,2.1e-4 -0.19405,0.57784 -0.20898,0.65235 -0.0149,0.0745 -0.0211,0.1072 -0.0254,0.13476 -0.008,0.0551 -0.0112,0.0773 -0.0137,0.0977 -0.005,0.0406 -0.007,0.0615 -0.01,0.0859 -0.005,0.0489 -0.01,0.0993 -0.0156,0.16211 -0.0122,0.12568 -0.0289,0.29739 -0.0488,0.51367 -0.0399,0.43256 -0.0949,1.04213 -0.16016,1.77149 -0.13055,1.45871 -0.30066,3.39552 -0.4707,5.33203 -0.17004,1.93651 -0.33962,3.87201 -0.46485,5.32617 -0.0626,0.72708 -0.11457,1.33249 -0.15039,1.76172 -0.0179,0.21461 -0.0313,0.38568 -0.041,0.50976 -0.005,0.062 -0.008,0.11081 -0.0117,0.16016 -0.002,0.0247 -0.004,0.0461 -0.006,0.0918 -0.001,0.0229 -0.003,0.0458 -0.004,0.11914 -4.4e-4,0.0367 -0.003,0.0776 0.004,0.20313 0.007,0.12512 0.93553,2.0077 0.94141,2.01953 0.0358,0.0297 0.31039,0.2577 0.31055,0.25781 1.7e-4,1.2e-4 0.11732,0.0784 0.15429,0.10156 0.0739,0.0463 0.11151,0.0668 0.14258,0.084 0.0622,0.0343 0.0899,0.0488 0.11328,0.0606 0.0467,0.0234 0.0673,0.0324 0.0898,0.043 0.045,0.0212 0.0828,0.0376 0.125,0.0566 0.0844,0.0381 0.18336,0.0829 0.29297,0.13086 0.11785,0.0515 1.28136,0.66458 1.63086,0.88282 1.99508,1.24576 3.74341,2.93513 5.03711,4.86328 1.35784,2.02376 2.63888,5.143 3.41211,8.60937 0.45724,2.05004 0.81751,4.75999 0.87305,6.37305 0.008,0.23204 0.0135,0.40373 0.041,0.6582 0.0275,0.25447 -0.16475,0.63335 0.66015,1.6875 l -0.63672,-1.92773 a 3.0003,3.0003 0 0 0 0.64258,1.93554 c 0.7666,0.97341 1.07058,1.20313 2.47266,1.20313 0.46442,0 1.4676,-0.21966 2.12695,-0.83594 0.65935,-0.61628 0.8248,-1.22007 0.91015,-1.55859 0.17072,-0.67705 0.12527,-0.86327 0.13672,-1.19532 0.0528,-1.53392 0.39899,-4.17093 0.83399,-6.16015 0.49603,-2.26829 1.11933,-4.18639 1.92187,-5.96875 0.49547,-1.10036 0.82372,-1.71496 1.31836,-2.49609 1.21406,-1.91717 2.91957,-3.65252 4.94727,-4.99805 0.28485,-0.18902 1.77452,-1.00169 1.89062,-1.05274 0.12454,-0.0547 0.23586,-0.10444 0.32422,-0.14453 0.0442,-0.02 0.0825,-0.0376 0.11914,-0.0547 0.0183,-0.008 0.0343,-0.0157 0.0625,-0.0293 0.0141,-0.007 0.0304,-0.0139 0.0645,-0.0312 0.034,-0.0173 0.36284,-0.21844 0.36328,-0.21875 a 3.0003,3.0003 0 0 0 0.35166,-0.2891 c 6e-5,-6e-5 0.92143,-1.9418 0.92578,-2.05469 0.004,-0.11289 0.003,-0.14713 0.002,-0.17969 -0.001,-0.0651 -0.003,-0.0869 -0.004,-0.10742 -0.002,-0.041 -0.004,-0.0606 -0.006,-0.084 -0.003,-0.0467 -0.007,-0.0952 -0.0117,-0.15625 -0.01,-0.12219 -0.0231,-0.29067 -0.041,-0.5039 -0.0358,-0.42647 -0.088,-1.0283 -0.15039,-1.75196 -0.12476,-1.44732 -0.29174,-3.37499 -0.46093,-5.30469 -0.1692,-1.92969 -0.3408,-3.86102 -0.47071,-5.31835 -0.065,-0.72867 -0.11855,-1.33962 -0.1582,-1.77344 -0.0198,-0.21692 -0.0368,-0.38781 -0.0488,-0.51367 -0.006,-0.0629 -0.0108,-0.11375 -0.0156,-0.16016 -0.002,-0.0232 -0.004,-0.045 -0.008,-0.0781 -0.002,-0.0166 -0.005,-0.0343 -0.01,-0.0723 -0.005,-0.038 -0.0721,-0.36449 -0.0723,-0.36523 a 3.0003,3.0003 0 0 0 -0.002,-0.006 c -0.095,-0.35413 -0.40079,-1.11116 -1.07422,-1.64454 -0.67041,-0.53098 -1.32742,-0.62688 -1.64453,-0.6582 -0.30381,-0.0313 -0.66259,-0.0583 -1.24024,0.11524 -0.433,0.1301 -1.05469,0.59722 -1.54296,1.27148 -0.10087,-1.07799 -0.2587,-2.19213 -0.32422,-3.22461 -0.0174,-0.27442 -0.0334,-0.4922 -0.0566,-0.70703 -0.0116,-0.10742 -0.0218,-0.20497 -0.0547,-0.38086 -0.0165,-0.0879 -0.0335,-0.18711 -0.10156,-0.40039 -0.034,-0.10664 -0.0748,-0.24137 -0.19141,-0.46875 -0.0583,-0.11369 -0.13539,-0.25225 -0.26953,-0.43164 -0.0671,-0.0897 -0.1503,-0.1906 -0.25781,-0.30078 -0.10588,-0.10851 -0.3988,-0.34021 -0.40821,-0.34766 -0.82537,-0.58844 -1.4546,-0.62099 -2.07226,-0.57422 -0.59354,0.0449 -1.37689,0.16007 -2.17774,1.16797 -0.0596,-0.90089 -0.18883,-1.76855 -0.23437,-2.62695 -0.0202,-0.38168 0.0166,-0.56503 -0.14258,-1.2207 -0.0796,-0.32784 -0.22059,-0.93753 -0.91016,-1.5879 -0.68957,-0.65036 -1.73088,-0.84375 -2.14062,-0.84375 z m 0,26.35743 c 0.0378,0.0508 0.11123,0.15614 0.11133,0.15625 a 3.0003,3.0003 0 0 0 0.0234,0.0273 c 1.4e-4,1.6e-4 0.51345,0.44125 0.51368,0.44141 2.3e-4,1.6e-4 0.24153,0.15213 0.33007,0.19727 0.17709,0.0903 0.2883,0.12978 0.375,0.16015 0.17341,0.0607 0.25486,0.0781 0.32227,0.0937 0.13482,0.0312 0.19157,0.0387 0.24414,0.0469 0.10515,0.0163 0.16623,0.0221 0.23242,0.0293 0.13238,0.0143 0.26309,0.0267 0.40821,0.0371 l -0.006,-0.002 c 0.0988,0.007 0.47864,0.0553 0.49804,0.0586 0.15192,0.026 0.28774,0.0472 0.44727,0.0644 0.0798,0.009 0.15527,0.0166 0.3125,0.0215 0.0786,0.002 0.16678,0.009 0.38281,-0.01 0.10802,-0.01 0.24438,-0.0198 0.50977,-0.0898 0.13269,-0.035 0.53842,-0.19891 0.53906,-0.19922 4.5e-4,-2.1e-4 0.38788,-0.29313 0.66602,-0.5039 a 3.0003,3.0003 0 0 0 1.55859,1.68554 l 0.12695,0.0371 c 0.0923,0.0275 0.29988,0.10427 0.47852,0.16797 -2.33461,1.70143 -4.38092,3.73901 -5.89063,6.12305 -0.63657,1.00526 -1.15265,1.98258 -1.7207,3.24414 -0.17048,0.37862 -0.24172,0.84436 -0.39844,1.23242 -0.7202,-1.81107 -1.56637,-3.47608 -2.54296,-4.93164 -1.49106,-2.22253 -3.4505,-4.08853 -5.62679,-5.66211 0.10753,-0.0394 0.18682,-0.0695 0.27344,-0.0977 a 3.0003,3.0003 0 0 0 0.002,0 c 0.12827,-0.0417 0.24396,-0.081 0.34375,-0.11523 0.0499,-0.0171 0.0921,-0.0302 0.14844,-0.0508 0.0282,-0.0103 0.0566,-0.0217 0.11914,-0.0469 0.0313,-0.0126 0.067,-0.0257 0.15429,-0.0664 0.0436,-0.0203 0.0988,-0.0446 0.20704,-0.10547 0.0541,-0.0305 0.22638,-0.14246 0.22656,-0.14258 1.7e-4,-1.2e-4 0.50382,-0.4335 0.5039,-0.43359 a 3.0003,3.0003 0 0 0 0.084,-0.0957 c 1.4e-4,-1.6e-4 0.31273,-0.47485 0.36915,-0.56055 0.20137,0.15387 0.40791,0.31236 0.4082,0.3125 6.5e-4,3.2e-4 0.40668,0.1686 0.54101,0.20508 0.26866,0.073 0.40873,0.0836 0.51954,0.0937 0.2216,0.0204 0.31209,0.0123 0.39257,0.01 0.16096,-0.005 0.23668,-0.0128 0.31641,-0.0215 0.15946,-0.0174 0.29227,-0.0395 0.43945,-0.0644 a 3.0003,3.0003 0 0 0 0.004,0 c 0.0244,-0.004 0.40613,-0.0503 0.49414,-0.0566 a 3.0003,3.0003 0 0 0 0.006,-0.002 c 0.1393,-0.0103 0.26687,-0.0203 0.39063,-0.0332 0.0619,-0.006 0.11656,-0.0118 0.21094,-0.0254 0.0472,-0.007 0.0963,-0.0132 0.21875,-0.0391 0.0612,-0.0129 0.1365,-0.0269 0.30273,-0.0801 0.0831,-0.0266 0.3705,-0.1462 0.3711,-0.14648 2.9e-4,-1.4e-4 0.3533,-0.19713 0.35351,-0.19727 2.1e-4,-1.3e-4 0.59168,-0.50573 0.5918,-0.50586 a 3.0003,3.0003 0 0 0 0.002,-0.002 c 9e-5,-1e-4 0.0726,-0.10629 0.11133,-0.1582 z m -6.19141,0.3164 c 1e-5,10e-6 0.0151,0.0113 0.0156,0.0117 0.002,0.002 0.0215,0.0293 0.0215,0.0293 z m -6.21289,0.85938 c 1e-5,0 0.006,0.006 0.006,0.006 0.015,0.029 -0.006,-0.004 0.0117,0.0293 z"
       id="path4528-5-9" /><path
       id="path10265-4-4"
       style="color:#000000;fill:url(#linearGradient17926);fill-opacity:1;stroke-width:3"
       d="m 224.88117,1.500045 c -13.83671,0 -15.151,0.0023 -15.29102,0.07422 -0.38942,0.200005 -0.40079,0.793304 -0.0195,1.015625 0.36485,0.212658 1.30541,0.863828 1.69141,1.171878 0.50511,0.40307 1.48143,1.36872 1.84766,1.82812 0.54275,0.68084 0.97238,1.3893 1.74414,2.875 0.41896,0.80651 0.86346,1.68232 0.98828,1.94532 0.30163,0.63618 4.08346,9.2184 14.32422,32.50586 1.58452,3.6032 3.2819,7.43309 3.77148,8.50976 2.52094,5.54403 2.99846,6.74349 3.27149,8.20898 0.2089,1.12617 0.29026,2.62206 0.19726,3.64844 -0.19,2.09447 -0.85755,4.11704 -2.08984,6.33008 -0.27219,0.48908 -0.29046,0.62913 -0.10742,0.7832 l 0.11914,0.10352 19.11914,-0.0117 15.74414,-0.01 0.11133,-0.12696 c 0.0874,-0.0993 0.11328,-0.16147 0.11328,-0.29687 0,-0.16858 -0.0125,-0.18559 -0.60352,-0.82032 -2.57662,-2.76746 -4.72442,-5.67901 -6.33008,-8.57812 -0.81916,-1.47902 -1.04004,-1.94346 -2.48437,-5.23242 -1.84555,-4.20251 -4.93667,-11.21303 -9.00781,-20.42774 -2.18013,-4.93453 -4.74632,-10.74338 -5.70118,-12.9082 -0.95483,-2.16484 -2.02253,-4.57996 -2.37304,-5.36523 -2.06964,-4.63694 -3.02217,-7.03079 -3.28906,-8.26172 -0.46344,-2.1383 -0.14437,-4.02155 0.98242,-5.802739 0.24283,-0.384072 0.25413,-0.41518 0.24023,-0.601562 -0.0174,-0.233437 -0.125,-0.405271 -0.3125,-0.494141 -0.12105,-0.05708 -3.68245,-0.0625 -16.65625,-0.0625 z m -18.16406,9.384763 c -0.14517,0 -0.15836,0.0745 -0.22656,1.30079 -0.3025,5.43898 -0.8607,11.55174 -1.46485,16.04297 -0.21017,1.5624 -0.60937,4.12041 -0.65039,4.16601 -0.007,0.008 -0.20103,0.0278 -0.43164,0.0449 -0.23061,0.0166 -0.58439,0.0574 -0.78516,0.0918 -0.20076,0.0345 -0.374,0.0552 -0.38476,0.043 -0.028,-0.0306 -0.30106,-1.68879 -0.4961,-3.01172 -0.59672,-4.0476 -1.0207,-8.37517 -1.2207,-12.46289 -0.0283,-0.57828 -0.0643,-1.04962 -0.082,-1.07422 -0.0175,-0.0239 -0.0734,-0.0382 -0.125,-0.0332 -0.0917,0.01 -0.0941,0.0159 -0.11523,0.23047 -0.0119,0.12075 -0.0436,0.56053 -0.0703,0.97851 -0.27528,4.30095 -0.93777,9.54546 -1.73828,13.76367 -0.16612,0.87535 -0.51844,2.58357 -0.53711,2.60547 -0.005,0.006 -0.2006,0.0733 -0.43164,0.14844 -0.23104,0.075 -0.54081,0.18615 -0.68946,0.24805 -0.14864,0.0622 -0.27505,0.10398 -0.28125,0.0918 -0.0335,-0.0637 -0.27751,-0.95068 -0.41015,-1.49023 -0.68344,-2.78008 -1.22765,-6.53715 -1.50977,-10.41992 -0.027,-0.37152 -0.0608,-0.68853 -0.0742,-0.70313 -0.0379,-0.0434 -0.18912,-0.0117 -0.21484,0.0449 -0.0244,0.0537 -1.3815,15.50048 -1.36328,15.51758 0.006,0.006 0.17423,0.0821 0.375,0.16992 0.46057,0.20139 1.47342,0.74617 2.01757,1.08594 2.35713,1.47183 4.40397,3.44976 5.93946,5.73828 1.64698,2.45472 3.01,5.86108 3.84961,9.625 0.50146,2.24829 0.87766,5.01549 0.94336,6.92383 0.0141,0.41297 0.0292,0.55451 0.0645,0.59961 v 0.002 c 0.0255,0.0324 0.0782,0.0586 0.11718,0.0586 0.127,0 0.15569,-0.11087 0.17579,-0.69336 0.0629,-1.82814 0.42322,-4.51326 0.90039,-6.69532 0.53313,-2.43797 1.22135,-4.57097 2.11718,-6.56054 0.53176,-1.18096 0.95393,-1.9779 1.51953,-2.8711 1.45336,-2.29503 3.45605,-4.31915 5.82422,-5.89062 0.56329,-0.37379 1.81048,-1.06718 2.3418,-1.30078 0.22583,-0.0993 0.41292,-0.18446 0.41992,-0.18946 0.0158,-0.0151 -1.33202,-15.38877 -1.35742,-15.48437 -0.0171,-0.0639 -0.0465,-0.0887 -0.12109,-0.0957 -0.0613,-0.006 -0.10428,0.008 -0.11328,0.0351 -0.008,0.0244 -0.0415,0.42428 -0.0762,0.88868 -0.26448,3.53864 -0.7259,6.82171 -1.33985,9.54101 -0.18033,0.79858 -0.43835,1.79482 -0.54297,2.09961 l -0.0293,0.0898 -0.23828,-0.0996 c -0.2193,-0.0938 -0.73242,-0.27573 -1.0332,-0.36523 l -0.12695,-0.0371 -0.10938,-0.51562 c -1.02736,-4.78297 -1.85006,-10.89072 -2.1914,-16.26954 -0.0318,-0.50156 -0.0619,-0.7661 -0.0859,-0.7832 -0.0564,-0.0405 -0.16296,-0.0331 -0.19726,0.0137 -0.0169,0.0232 -0.0396,0.23271 -0.0508,0.46485 -0.19823,4.14719 -0.52504,7.75175 -1.06836,11.78711 -0.20332,1.51015 -0.63444,4.24398 -0.67774,4.29296 -0.0103,0.0118 -0.184,-0.007 -0.38476,-0.041 -0.20075,-0.0344 -0.5526,-0.0747 -0.7832,-0.0918 -0.23061,-0.0166 -0.42655,-0.0388 -0.43555,-0.0488 -0.0457,-0.0507 -0.49778,-2.99701 -0.70899,-4.61718 -0.60028,-4.60505 -1.15436,-10.81494 -1.43359,-16.07813 -0.0376,-0.70939 -0.0627,-0.81055 -0.19726,-0.81055 z M 196.555,45.070358 c -0.0514,-10e-4 -0.10545,0.0129 -0.16797,0.0391 -0.0781,0.0324 -0.15837,0.10375 -0.17969,0.15625 -0.0212,0.0526 -0.0588,0.39375 -0.084,0.75977 -0.23444,3.38332 -1.44453,6.74319 -4.11133,11.41797 -1.84873,3.24077 -4.38397,6.77006 -7.51367,10.46094 -1.40203,1.65342 -1.60352,1.91672 -1.60352,2.08398 0,0.10811 0.0321,0.18063 0.1211,0.26953 l 0.12109,0.125 10.98829,-0.0117 10.98632,-0.0117 0.10743,-0.125 0.10546,-0.12304 -0.0273,-0.79102 c -0.0656,-1.85863 -0.21094,-3.47755 -0.46679,-5.20117 -0.99937,-6.7324 -3.55591,-12.89462 -7.65625,-18.45312 -0.32612,-0.44211 -0.46497,-0.59214 -0.61914,-0.59571 z" /><path
       style="color:#000000;fill:#000000"
       d="m 224.88117,4.5e-5 c -6.91842,0 -10.7033,3.27e-4 -12.78711,0.0098 -1.0419,0.0047 -1.65468,0.01234 -2.04297,0.02344 -0.19414,0.0055 -0.33045,0.01108 -0.46679,0.02344 -0.13635,0.01236 -0.23906,-0.04456 -0.67969,0.181641 -1.4507,0.745057 -1.48548,2.832662 -0.0898,3.646482 0.18115,0.10559 1.24727,0.83779 1.51172,1.04883 0.32798,0.26173 1.41405,1.34679 1.60937,1.5918 0.46724,0.58611 0.82929,1.17424 1.58594,2.63086 0.4145,0.79792 0.87908,1.71578 0.96484,1.89648 0.0719,0.15166 1.15499,2.58535 3.41797,7.72071 2.26298,5.13535 5.76835,13.10248 10.88867,24.74609 1.58576,3.60603 3.27567,7.41977 3.7793,8.52734 2.51677,5.53486 2.91983,6.56086 3.16211,7.86133 0.17825,0.96092 0.25372,2.42322 0.17969,3.24024 -0.16929,1.86612 -0.75281,3.65942 -1.90821,5.73437 -0.15848,0.28477 -0.32488,0.49786 -0.40039,1.04297 -0.0754,0.54432 0.35067,1.37667 0.63477,1.61719 4.1e-4,3.5e-4 0.001,0.002 0.002,0.002 l 0.52734,0.45508 19.67774,-0.0117 16.41601,-0.0117 0.5625,-0.6289 0.004,-0.004 c 0.20207,-0.2295 0.48633,-0.96829 0.48633,-1.28906 0,-0.11941 -0.18011,-0.8654 -0.37109,-1.125 -0.19099,-0.25961 -0.33837,-0.39846 -0.63477,-0.7168 -2.50254,-2.68791 -4.57816,-5.50793 -6.11523,-8.2832 -0.80994,-1.46236 -0.9812,-1.82427 -2.42383,-5.10938 -1.84657,-4.20484 -4.93841,-11.21643 -9.00977,-20.43164 -2.18003,-4.93434 -4.74481,-10.74247 -5.69921,-12.90625 -0.95538,-2.16604 -2.02241,-4.57676 -2.37696,-5.37109 -2.06118,-4.61799 -2.99785,-7.06707 -3.19336,-7.96875 -0.39464,-1.8209 -0.15453,-3.19817 0.78516,-4.6836 0.12481,-0.1974 0.21805,-0.3146 0.33984,-0.61719 0.1218,-0.302583 0.13888,-0.76278 0.12891,-0.896481 -0.0476,-0.640524 -0.50779,-1.426298 -1.16602,-1.738281 h -0.002 l -0.002,-0.002 c -0.32355,-0.152503 -0.3624,-0.118581 -0.42787,-0.128906 -0.0655,-0.01032 -0.10387,-0.01415 -0.14258,-0.01758 -0.0774,-0.0069 -0.14466,-0.01033 -0.22461,-0.01367 -0.1599,-0.0067 -0.36707,-0.01125 -0.65039,-0.01563 C 240.16409,0.02053 239.29942,0.01408 238.03347,0.0098 235.50155,0.0012 231.36824,0 224.88112,0 Z m 0,3.000003 c 6.48669,0 10.62061,10e-4 13.14258,0.01 0.88352,0.003 1.34762,0.009 1.86523,0.0137 -0.81706,1.79609 -1.16712,3.73214 -0.72851,5.75586 0.33829,1.56017 1.30862,3.8988 3.38672,8.55468 0.34647,0.77625 1.41678,3.19575 2.37109,5.35938 0.95532,2.16585 3.519,7.97345 5.69922,12.9082 4.07093,9.21424 7.16329,16.22561 9.00781,20.42578 1.44603,3.29284 1.71653,3.85979 2.54492,5.35547 1.42985,2.58167 3.3281,5.12982 5.48242,7.59766 l -13.20703,0.008 -17.21875,0.0117 c 0.88278,-1.86979 1.50389,-3.70671 1.67383,-5.58008 0.11197,-1.23574 0.0228,-2.76717 -0.2168,-4.05859 v -0.002 c -0.30377,-1.63054 -0.85575,-3.00149 -3.38085,-8.55468 -0.47553,-1.04577 -2.18039,-4.89178 -3.76368,-8.49219 -5.12044,-11.64387 -8.62694,-19.61111 -10.89062,-24.74805 -2.26368,-5.13694 -3.22145,-7.31233 -3.45117,-7.79687 -0.16388,-0.34529 -0.59025,-1.17904 -1.01368,-1.99414 -0.78686,-1.51479 -1.28408,-2.34163 -1.90234,-3.11719 -0.42774,-0.53657 -1.07421,-1.13015 -1.66016,-1.64648 2.11961,-0.008 5.61968,-0.01 12.25977,-0.01 z"
       id="path10234-7-0" /><path
       style="color:#000000;fill:#000000"
       d="m 196.59211,43.453168 c -0.39278,-0.009 -0.66553,0.0978 -0.82422,0.16407 -0.23663,0.0983 -0.39047,0.20141 -0.54688,0.33593 -0.1564,0.13453 -0.32651,0.24706 -0.51171,0.70313 v 0.002 l -0.002,0.002 c -0.16959,0.42089 -0.10474,0.36825 -0.11719,0.44921 -0.0125,0.081 -0.0219,0.15646 -0.0312,0.24024 -0.0186,0.16757 -0.0347,0.36009 -0.0488,0.56445 -0.21304,3.07437 -1.29649,6.16056 -3.90235,10.72852 -1.78389,3.1271 -4.2624,6.58525 -7.34179,10.21679 -0.70353,0.82968 -1.10574,1.30602 -1.37696,1.65821 -0.13561,0.17609 -0.24232,0.3171 -0.35742,0.52539 -0.1151,0.20829 -0.25391,0.57703 -0.25391,0.94531 0,0.43543 0.33571,1.15436 0.59571,1.41406 l 0.58398,0.59766 11.66993,-0.0117 11.72851,-0.0137 0.58789,-0.68555 0.51953,-0.60156 -0.0508,-1.42383 c -0.0674,-1.90963 -0.21803,-3.59974 -0.48242,-5.38086 -1.03714,-6.98687 -3.70645,-13.41626 -7.95508,-19.17578 -0.2343,-0.31763 -0.3469,-0.55633 -0.83008,-0.89844 -0.24158,-0.17105 -0.65816,-0.34633 -1.05273,-0.35547 z m 0.5957,5.19336 c 3.14324,4.81678 5.19932,10.02756 6.04297,15.71094 0.21604,1.45543 0.31975,2.85808 0.39258,4.38477 l -9.5,0.0117 -8.2461,0.01 c 3.10666,-3.68182 5.65783,-7.2218 7.53907,-10.51953 2.12156,-3.719 3.18719,-6.69998 3.77148,-9.59766 z"
       id="path10228-7-1" /></g><g
     id="g18913"
     inkscape:export-filename="XANA_M.png"
     inkscape:export-xdpi="95.999817"
     inkscape:export-ydpi="95.999817"><path
       style="fill:#000000;stroke:none;stroke-width:1px;stroke-linecap:butt;stroke-linejoin:miter;stroke-opacity:1"
       d="m 303.18942,4.024718 -17.03033,41.03661 7.71599,20.80438 3.625,-7 5.375,-17.125 5.625,-4.75 0.625,-16.875 4,-3.75 z"
       id="path5990-4-6"
       sodipodi:nodetypes="ccccccccc" /><path
       style="color:#000000;fill:#000000;fill-opacity:1;stroke-linejoin:round"
       d="m 297.35555,7.885238 c -0.29144,0 -1.63975,0.24578 -2.34961,1.0625 -0.70985,0.81672 -0.69794,1.32537 -0.74805,1.61328 -0.1002,0.57583 -0.0886,0.83678 -0.12304,1.45704 -0.0405,0.72821 -0.14586,1.39988 -0.19531,2.14843 -0.68632,-0.87475 -1.22415,-0.96527 -1.60352,-1.0664 -0.3997,-0.10656 -0.72137,-0.13263 -1.13086,-0.0937 a 3.0003,3.0003 0 0 0 -0.043,0.004 c -0.0488,0.005 -0.25346,-0.0229 -0.81445,0.19531 -0.561,0.21816 -1.3508,0.93507 -1.62305,1.47656 -0.5445,1.08298 -0.32638,1.12899 -0.33789,1.2461 -0.0308,0.31278 -0.0503,0.64792 -0.0781,1.08203 -0.0515,0.80423 -0.24946,1.72986 -0.32812,2.5957 -0.0511,-0.0693 -0.0973,-0.13135 -0.11133,-0.15039 -0.77535,-0.87292 -1.51288,-0.9608 -1.94922,-1.00977 -0.44056,-0.0494 -0.72759,-0.0122 -1.01172,0.0469 -0.28414,0.0591 -0.55413,0.14171 -0.9082,0.33789 -0.35407,0.19619 -0.88963,0.48376 -1.31446,1.41797 a 3.0003,3.0003 0 0 0 -0.002,0.002 c -9e-5,2.1e-4 -0.19405,0.57784 -0.20898,0.65235 -0.0149,0.0745 -0.0211,0.1072 -0.0254,0.13476 -0.008,0.0551 -0.0112,0.0773 -0.0137,0.0977 -0.005,0.0406 -0.007,0.0615 -0.01,0.0859 -0.005,0.0489 -0.01,0.0993 -0.0156,0.16211 -0.0122,0.12568 -0.0289,0.29739 -0.0488,0.51367 -0.0399,0.43256 -0.0949,1.04213 -0.16016,1.77149 -0.13055,1.45871 -0.30066,3.39552 -0.4707,5.33203 -0.17004,1.93651 -0.33962,3.87201 -0.46484,5.32617 -0.0626,0.72708 -0.11458,1.33249 -0.1504,1.76172 -0.0179,0.21461 -0.0313,0.38568 -0.041,0.50976 -0.005,0.062 -0.008,0.11081 -0.0117,0.16016 -0.002,0.0247 -0.004,0.0461 -0.006,0.0918 -0.001,0.0229 -0.003,0.0458 -0.004,0.11914 -4.4e-4,0.0367 -0.003,0.0776 0.004,0.20313 0.007,0.12512 0.93553,2.0077 0.94141,2.01953 0.0358,0.0297 0.31039,0.2577 0.31055,0.25781 1.7e-4,1.2e-4 0.11732,0.0784 0.15429,0.10156 0.0739,0.0463 0.11151,0.0668 0.14258,0.084 0.0622,0.0343 0.0899,0.0488 0.11328,0.0606 0.0467,0.0234 0.0673,0.0324 0.0898,0.043 0.045,0.0212 0.0828,0.0376 0.125,0.0566 0.0844,0.0381 0.18336,0.0829 0.29297,0.13086 0.11785,0.0515 1.28136,0.66458 1.63086,0.88282 1.99508,1.24576 3.74341,2.93513 5.03711,4.86328 1.35784,2.02376 2.63888,5.143 3.41211,8.60937 0.45724,2.05004 0.81751,4.75999 0.87305,6.37305 0.008,0.23204 0.0135,0.40373 0.041,0.6582 0.0275,0.25447 -0.16475,0.63335 0.66015,1.6875 l -0.63672,-1.92773 a 3.0003,3.0003 0 0 0 0.64258,1.93554 c 0.7666,0.97341 1.07058,1.20313 2.47266,1.20313 0.46442,0 1.4676,-0.21966 2.12695,-0.83594 0.65935,-0.61628 0.8248,-1.22007 0.91015,-1.55859 0.17072,-0.67705 0.12527,-0.86327 0.13672,-1.19532 0.0528,-1.53392 0.39899,-4.17093 0.83399,-6.16015 0.49603,-2.26829 1.11933,-4.18639 1.92187,-5.96875 0.49547,-1.10036 0.82372,-1.71496 1.31836,-2.49609 1.21406,-1.91717 2.91957,-3.65252 4.94727,-4.99805 0.28485,-0.18902 1.77452,-1.00169 1.89062,-1.05274 0.12454,-0.0547 0.23586,-0.10444 0.32422,-0.14453 0.0442,-0.02 0.0825,-0.0376 0.11914,-0.0547 0.0183,-0.008 0.0343,-0.0157 0.0625,-0.0293 0.0141,-0.007 0.0304,-0.0139 0.0645,-0.0312 0.034,-0.0173 0.36284,-0.21844 0.36328,-0.21875 a 3.0003,3.0003 0 0 0 0.35166,-0.2891 c 6e-5,-6e-5 0.92143,-1.9418 0.92578,-2.05469 0.004,-0.11289 0.003,-0.14713 0.002,-0.17969 -0.001,-0.0651 -0.003,-0.0869 -0.004,-0.10742 -0.002,-0.041 -0.004,-0.0606 -0.006,-0.084 -0.003,-0.0467 -0.007,-0.0952 -0.0117,-0.15625 -0.01,-0.12219 -0.0231,-0.29067 -0.041,-0.5039 -0.0358,-0.42647 -0.088,-1.0283 -0.15039,-1.75196 -0.12476,-1.44732 -0.29174,-3.37499 -0.46093,-5.30469 -0.1692,-1.92969 -0.3408,-3.86102 -0.47071,-5.31835 -0.065,-0.72867 -0.11855,-1.33962 -0.1582,-1.77344 -0.0198,-0.21692 -0.0368,-0.38781 -0.0488,-0.51367 -0.006,-0.0629 -0.0108,-0.11375 -0.0156,-0.16016 -0.002,-0.0232 -0.004,-0.045 -0.008,-0.0781 -0.002,-0.0166 -0.005,-0.0343 -0.01,-0.0723 -0.005,-0.038 -0.0721,-0.36449 -0.0723,-0.36523 a 3.0003,3.0003 0 0 0 -0.002,-0.006 c -0.095,-0.35413 -0.40079,-1.11116 -1.07422,-1.64454 -0.67041,-0.53098 -1.32742,-0.62688 -1.64453,-0.6582 -0.30381,-0.0313 -0.66259,-0.0583 -1.24024,0.11524 -0.433,0.1301 -1.05469,0.59722 -1.54296,1.27148 -0.10087,-1.07799 -0.2587,-2.19213 -0.32422,-3.22461 -0.0174,-0.27442 -0.0334,-0.4922 -0.0566,-0.70703 -0.0116,-0.10742 -0.0218,-0.20497 -0.0547,-0.38086 -0.0165,-0.0879 -0.0335,-0.18711 -0.10156,-0.40039 -0.034,-0.10664 -0.0748,-0.24137 -0.19141,-0.46875 -0.0583,-0.11369 -0.13539,-0.25225 -0.26953,-0.43164 -0.0671,-0.0897 -0.1503,-0.1906 -0.25781,-0.30078 -0.10588,-0.10851 -0.3988,-0.34021 -0.40821,-0.34766 -0.82537,-0.58844 -1.4546,-0.62099 -2.07226,-0.57422 -0.59354,0.0449 -1.37689,0.16007 -2.17774,1.16797 -0.0596,-0.90089 -0.18883,-1.76855 -0.23437,-2.62695 -0.0202,-0.38168 0.0166,-0.56503 -0.14258,-1.2207 -0.0796,-0.32784 -0.22059,-0.93753 -0.91016,-1.5879 -0.68957,-0.65036 -1.73088,-0.84375 -2.14062,-0.84375 z m 0,26.35743 c 0.0378,0.0508 0.11123,0.15614 0.11133,0.15625 a 3.0003,3.0003 0 0 0 0.0234,0.0273 c 1.4e-4,1.6e-4 0.51345,0.44125 0.51368,0.44141 2.3e-4,1.6e-4 0.24153,0.15213 0.33007,0.19727 0.17709,0.0903 0.2883,0.12978 0.375,0.16015 0.17341,0.0607 0.25486,0.0781 0.32227,0.0937 0.13482,0.0312 0.19157,0.0387 0.24414,0.0469 0.10515,0.0163 0.16623,0.0221 0.23242,0.0293 0.13238,0.0143 0.26309,0.0267 0.40821,0.0371 l -0.006,-0.002 c 0.0988,0.007 0.47864,0.0553 0.49804,0.0586 0.15192,0.026 0.28774,0.0472 0.44727,0.0644 0.0798,0.009 0.15527,0.0166 0.3125,0.0215 0.0786,0.002 0.16678,0.009 0.38281,-0.01 0.10802,-0.01 0.24438,-0.0198 0.50977,-0.0898 0.13269,-0.035 0.53842,-0.19891 0.53906,-0.19922 4.5e-4,-2.1e-4 0.38788,-0.29313 0.66602,-0.5039 a 3.0003,3.0003 0 0 0 1.55859,1.68554 l 0.12695,0.0371 c 0.0923,0.0275 0.29988,0.10427 0.47852,0.16797 -2.33461,1.70143 -4.38092,3.73901 -5.89063,6.12305 -0.63657,1.00526 -1.15265,1.98258 -1.7207,3.24414 -0.17048,0.37862 -0.24172,0.84436 -0.39844,1.23242 -0.7202,-1.81107 -1.56637,-3.47608 -2.54296,-4.93164 -1.49106,-2.22253 -3.4505,-4.08853 -5.62679,-5.66211 0.10753,-0.0394 0.18682,-0.0695 0.27344,-0.0977 a 3.0003,3.0003 0 0 0 0.002,0 c 0.12827,-0.0417 0.24396,-0.081 0.34375,-0.11523 0.0499,-0.0171 0.0921,-0.0302 0.14844,-0.0508 0.0282,-0.0103 0.0566,-0.0217 0.11914,-0.0469 0.0313,-0.0126 0.067,-0.0257 0.15429,-0.0664 0.0436,-0.0203 0.0988,-0.0446 0.20704,-0.10547 0.0541,-0.0305 0.22638,-0.14246 0.22656,-0.14258 1.7e-4,-1.2e-4 0.50382,-0.4335 0.5039,-0.43359 a 3.0003,3.0003 0 0 0 0.084,-0.0957 c 1.4e-4,-1.6e-4 0.31273,-0.47485 0.36915,-0.56055 0.20137,0.15387 0.40791,0.31236 0.4082,0.3125 6.5e-4,3.2e-4 0.40668,0.1686 0.54101,0.20508 0.26866,0.073 0.40873,0.0836 0.51954,0.0937 0.2216,0.0204 0.31209,0.0123 0.39257,0.01 0.16096,-0.005 0.23668,-0.0128 0.31641,-0.0215 0.15946,-0.0174 0.29227,-0.0395 0.43945,-0.0644 a 3.0003,3.0003 0 0 0 0.004,0 c 0.0244,-0.004 0.40613,-0.0503 0.49414,-0.0566 a 3.0003,3.0003 0 0 0 0.006,-0.002 c 0.1393,-0.0103 0.26687,-0.0203 0.39063,-0.0332 0.0619,-0.006 0.11656,-0.0118 0.21094,-0.0254 0.0472,-0.007 0.0963,-0.0132 0.21875,-0.0391 0.0612,-0.0129 0.1365,-0.0269 0.30273,-0.0801 0.0831,-0.0266 0.3705,-0.1462 0.3711,-0.14648 2.9e-4,-1.4e-4 0.3533,-0.19713 0.35351,-0.19727 2.1e-4,-1.3e-4 0.59168,-0.50573 0.5918,-0.50586 a 3.0003,3.0003 0 0 0 0.002,-0.002 c 9e-5,-1e-4 0.0726,-0.10629 0.11133,-0.1582 z m -6.19141,0.3164 c 1e-5,10e-6 0.0151,0.0113 0.0156,0.0117 0.002,0.002 0.0215,0.0293 0.0215,0.0293 z m -6.21289,0.85938 c 10e-6,0 0.006,0.006 0.006,0.006 0.015,0.029 -0.006,-0.004 0.0117,0.0293 z"
       id="path4528-5-8" /><path
       id="path10265-4-0"
       style="color:#000000;fill:url(#linearGradient17971);fill-opacity:1;stroke-width:3"
       d="m 315.52,1.500045 c -13.83671,0 -15.151,0.0023 -15.29102,0.07422 -0.38942,0.200005 -0.40079,0.793304 -0.0195,1.015625 0.36485,0.212658 1.30541,0.863828 1.69141,1.171878 0.50511,0.40307 1.48143,1.36872 1.84766,1.82812 0.54275,0.68084 0.97238,1.3893 1.74414,2.875 0.41896,0.80651 0.86346,1.68232 0.98828,1.94532 0.30163,0.63618 4.08346,9.2184 14.32422,32.50586 1.58452,3.6032 3.2819,7.43309 3.77148,8.50976 2.52094,5.54403 2.99846,6.74349 3.27149,8.20898 0.2089,1.12617 0.29026,2.62206 0.19726,3.64844 -0.19,2.09447 -0.85755,4.11704 -2.08984,6.33008 -0.27219,0.48908 -0.29046,0.62913 -0.10742,0.7832 l 0.11914,0.10352 19.11914,-0.0117 15.74414,-0.01 0.11133,-0.12696 c 0.0874,-0.0993 0.11328,-0.16147 0.11328,-0.29687 0,-0.16858 -0.0125,-0.18559 -0.60352,-0.82032 -2.57662,-2.76746 -4.72442,-5.67901 -6.33008,-8.57812 -0.81916,-1.47902 -1.04004,-1.94346 -2.48437,-5.23242 -1.84555,-4.20251 -4.93667,-11.21303 -9.00781,-20.42774 -2.18013,-4.93453 -4.74632,-10.74338 -5.70118,-12.9082 -0.95483,-2.16484 -2.02253,-4.57996 -2.37304,-5.36523 -2.06964,-4.63694 -3.02217,-7.03079 -3.28906,-8.26172 -0.46344,-2.1383 -0.14437,-4.02155 0.98242,-5.802739 0.24283,-0.384072 0.25413,-0.41518 0.24023,-0.601562 -0.0174,-0.233437 -0.125,-0.405271 -0.3125,-0.494141 -0.12105,-0.05708 -3.68245,-0.0625 -16.65625,-0.0625 z m -18.16406,9.384763 c -0.14517,0 -0.15836,0.0745 -0.22656,1.30079 -0.3025,5.43898 -0.8607,11.55174 -1.46485,16.04297 -0.21017,1.5624 -0.60937,4.12041 -0.65039,4.16601 -0.007,0.008 -0.20103,0.0278 -0.43164,0.0449 -0.23061,0.0166 -0.58439,0.0574 -0.78516,0.0918 -0.20076,0.0345 -0.374,0.0552 -0.38476,0.043 -0.028,-0.0306 -0.30106,-1.68879 -0.4961,-3.01172 -0.59672,-4.0476 -1.0207,-8.37517 -1.2207,-12.46289 -0.0283,-0.57828 -0.0643,-1.04962 -0.082,-1.07422 -0.0175,-0.0239 -0.0734,-0.0382 -0.125,-0.0332 -0.0917,0.01 -0.0941,0.0159 -0.11523,0.23047 -0.0119,0.12075 -0.0436,0.56053 -0.0703,0.97851 -0.27528,4.30095 -0.93777,9.54546 -1.73828,13.76367 -0.16612,0.87535 -0.51844,2.58357 -0.53711,2.60547 -0.005,0.006 -0.2006,0.0733 -0.43164,0.14844 -0.23104,0.075 -0.54081,0.18615 -0.68946,0.24805 -0.14864,0.0622 -0.27505,0.10398 -0.28125,0.0918 -0.0335,-0.0637 -0.27751,-0.95068 -0.41015,-1.49023 -0.68344,-2.78008 -1.22765,-6.53715 -1.50977,-10.41992 -0.027,-0.37152 -0.0608,-0.68853 -0.0742,-0.70313 -0.0379,-0.0434 -0.18912,-0.0117 -0.21484,0.0449 -0.0244,0.0537 -1.3815,15.50048 -1.36328,15.51758 0.006,0.006 0.17423,0.0821 0.375,0.16992 0.46057,0.20139 1.47342,0.74617 2.01757,1.08594 2.35713,1.47183 4.40397,3.44976 5.93946,5.73828 1.64698,2.45472 3.01,5.86108 3.84961,9.625 0.50146,2.24829 0.87766,5.01549 0.94336,6.92383 0.0141,0.41297 0.0292,0.55451 0.0645,0.59961 v 0.002 c 0.0255,0.0324 0.0782,0.0586 0.11718,0.0586 0.127,0 0.15569,-0.11087 0.17579,-0.69336 0.0629,-1.82814 0.42322,-4.51326 0.90039,-6.69532 0.53313,-2.43797 1.22135,-4.57097 2.11718,-6.56054 0.53176,-1.18096 0.95393,-1.9779 1.51953,-2.8711 1.45336,-2.29503 3.45605,-4.31915 5.82422,-5.89062 0.56329,-0.37379 1.81048,-1.06718 2.3418,-1.30078 0.22583,-0.0993 0.41292,-0.18446 0.41992,-0.18946 0.0158,-0.0151 -1.33202,-15.38877 -1.35742,-15.48437 -0.0171,-0.0639 -0.0465,-0.0887 -0.12109,-0.0957 -0.0613,-0.006 -0.10428,0.008 -0.11328,0.0351 -0.008,0.0244 -0.0415,0.42428 -0.0762,0.88868 -0.26448,3.53864 -0.7259,6.82171 -1.33985,9.54101 -0.18033,0.79858 -0.43835,1.79482 -0.54297,2.09961 l -0.0293,0.0898 -0.23828,-0.0996 c -0.2193,-0.0938 -0.73242,-0.27573 -1.0332,-0.36523 l -0.12695,-0.0371 -0.10938,-0.51562 c -1.02736,-4.78297 -1.85006,-10.89072 -2.1914,-16.26954 -0.0318,-0.50156 -0.0619,-0.7661 -0.0859,-0.7832 -0.0564,-0.0405 -0.16296,-0.0331 -0.19726,0.0137 -0.0169,0.0232 -0.0396,0.23271 -0.0508,0.46485 -0.19823,4.14719 -0.52504,7.75175 -1.06836,11.78711 -0.20332,1.51015 -0.63444,4.24398 -0.67774,4.29296 -0.0103,0.0118 -0.184,-0.007 -0.38476,-0.041 -0.20075,-0.0344 -0.5526,-0.0747 -0.7832,-0.0918 -0.23061,-0.0166 -0.42655,-0.0388 -0.43555,-0.0488 -0.0457,-0.0507 -0.49778,-2.99701 -0.70899,-4.61718 -0.60028,-4.60505 -1.15436,-10.81494 -1.43359,-16.07813 -0.0376,-0.70939 -0.0627,-0.81055 -0.19726,-0.81055 z m -10.16211,34.18555 c -0.0514,-10e-4 -0.10545,0.0129 -0.16797,0.0391 -0.0781,0.0324 -0.15837,0.10375 -0.17969,0.15625 -0.0212,0.0526 -0.0588,0.39375 -0.084,0.75977 -0.23444,3.38332 -1.44453,6.74319 -4.11133,11.41797 -1.84873,3.24077 -4.38397,6.77006 -7.51367,10.46094 -1.40203,1.65342 -1.60352,1.91672 -1.60352,2.08398 0,0.10811 0.0321,0.18063 0.1211,0.26953 l 0.12109,0.125 10.98829,-0.0117 10.98632,-0.0117 0.10743,-0.125 0.10546,-0.12304 -0.0273,-0.79102 c -0.0656,-1.85863 -0.21094,-3.47755 -0.46679,-5.20117 -0.99937,-6.7324 -3.55591,-12.89462 -7.65625,-18.45312 -0.32612,-0.44211 -0.46497,-0.59214 -0.61914,-0.59571 z" /><path
       style="color:#000000;fill:#000000"
       d="m 315.52,4.5e-5 c -6.91842,0 -10.7033,3.27e-4 -12.78711,0.0098 -1.0419,0.0047 -1.65468,0.01234 -2.04297,0.02344 -0.19414,0.0055 -0.33045,0.01108 -0.46679,0.02344 -0.13635,0.01236 -0.23906,-0.04456 -0.67969,0.181641 -1.4507,0.745057 -1.48548,2.832662 -0.0898,3.646482 0.18115,0.10559 1.24727,0.83779 1.51172,1.04883 0.32798,0.26173 1.41405,1.34679 1.60937,1.5918 0.46724,0.58611 0.82929,1.17424 1.58594,2.63086 0.4145,0.79792 0.87908,1.71578 0.96484,1.89648 0.0719,0.15166 1.15499,2.58535 3.41797,7.72071 2.26298,5.13535 5.76835,13.10248 10.88867,24.74609 1.58576,3.60603 3.27567,7.41977 3.7793,8.52734 2.51677,5.53486 2.91983,6.56086 3.16211,7.86133 0.17825,0.96092 0.25372,2.42322 0.17969,3.24024 -0.16929,1.86612 -0.75281,3.65942 -1.90821,5.73437 -0.15848,0.28477 -0.32488,0.49786 -0.40039,1.04297 -0.0754,0.54432 0.35067,1.37667 0.63477,1.61719 4.1e-4,3.5e-4 0.001,0.002 0.002,0.002 l 0.52734,0.45508 19.67774,-0.0117 16.41601,-0.0117 0.5625,-0.6289 0.004,-0.004 c 0.20207,-0.2295 0.48633,-0.96829 0.48633,-1.28906 0,-0.11941 -0.18011,-0.8654 -0.37109,-1.125 -0.19099,-0.25961 -0.33837,-0.39846 -0.63477,-0.7168 -2.50254,-2.68791 -4.57816,-5.50793 -6.11523,-8.2832 -0.80994,-1.46236 -0.9812,-1.82427 -2.42383,-5.10938 -1.84657,-4.20484 -4.93841,-11.21643 -9.00977,-20.43164 -2.18003,-4.93434 -4.74481,-10.74247 -5.69921,-12.90625 -0.95538,-2.16604 -2.02241,-4.57676 -2.37696,-5.37109 -2.06118,-4.61799 -2.99785,-7.06707 -3.19336,-7.96875 -0.39464,-1.8209 -0.15453,-3.19817 0.78516,-4.6836 0.12481,-0.1974 0.21805,-0.3146 0.33984,-0.61719 0.1218,-0.302583 0.13888,-0.76278 0.12891,-0.896481 -0.0476,-0.640524 -0.50779,-1.426298 -1.16602,-1.738281 h -0.002 l -0.002,-0.002 c -0.32355,-0.152503 -0.3624,-0.118581 -0.42787,-0.128906 -0.0655,-0.01032 -0.10387,-0.01415 -0.14258,-0.01758 -0.0774,-0.0069 -0.14466,-0.01033 -0.22461,-0.01367 -0.1599,-0.0067 -0.36707,-0.01125 -0.65039,-0.01563 C 330.80292,0.02053 329.93825,0.01408 328.6723,0.0098 326.14038,0.0012 322.00707,0 315.51995,0 Z m 0,3.000003 c 6.48669,0 10.62061,10e-4 13.14258,0.01 0.88352,0.003 1.34762,0.009 1.86523,0.0137 -0.81706,1.79609 -1.16712,3.73214 -0.72851,5.75586 0.33829,1.56017 1.30862,3.8988 3.38672,8.55468 0.34647,0.77625 1.41678,3.19575 2.37109,5.35938 0.95532,2.16585 3.519,7.97345 5.69922,12.9082 4.07093,9.21424 7.16329,16.22561 9.00781,20.42578 1.44603,3.29284 1.71653,3.85979 2.54492,5.35547 1.42985,2.58167 3.3281,5.12982 5.48242,7.59766 l -13.20703,0.008 -17.21875,0.0117 c 0.88278,-1.86979 1.50389,-3.70671 1.67383,-5.58008 0.11197,-1.23574 0.0228,-2.76717 -0.2168,-4.05859 v -0.002 c -0.30377,-1.63054 -0.85575,-3.00149 -3.38085,-8.55468 -0.47553,-1.04577 -2.18039,-4.89178 -3.76368,-8.49219 -5.12044,-11.64387 -8.62694,-19.61111 -10.89062,-24.74805 -2.26368,-5.13694 -3.22145,-7.31233 -3.45117,-7.79687 -0.16388,-0.34529 -0.59025,-1.17904 -1.01368,-1.99414 -0.78686,-1.51479 -1.28408,-2.34163 -1.90234,-3.11719 -0.42774,-0.53657 -1.07421,-1.13015 -1.66016,-1.64648 2.11961,-0.008 5.61968,-0.01 12.25977,-0.01 z"
       id="path10234-7-8" /><path
       style="color:#000000;fill:#000000"
       d="m 287.23094,43.453168 c -0.39278,-0.009 -0.66553,0.0978 -0.82422,0.16407 -0.23663,0.0983 -0.39047,0.20141 -0.54688,0.33593 -0.1564,0.13453 -0.32651,0.24706 -0.51171,0.70313 v 0.002 l -0.002,0.002 c -0.16959,0.42089 -0.10474,0.36825 -0.11719,0.44921 -0.0125,0.081 -0.0219,0.15646 -0.0312,0.24024 -0.0186,0.16757 -0.0347,0.36009 -0.0488,0.56445 -0.21304,3.07437 -1.29649,6.16056 -3.90234,10.72852 -1.7839,3.1271 -4.26241,6.58525 -7.3418,10.21679 -0.70353,0.82968 -1.10574,1.30602 -1.37696,1.65821 -0.13561,0.17609 -0.24232,0.3171 -0.35742,0.52539 -0.1151,0.20829 -0.25391,0.57703 -0.25391,0.94531 0,0.43543 0.33571,1.15436 0.59571,1.41406 l 0.58398,0.59766 11.66993,-0.0117 11.72851,-0.0137 0.58789,-0.68555 0.51953,-0.60156 -0.0508,-1.42383 c -0.0674,-1.90963 -0.21803,-3.59974 -0.48242,-5.38086 -1.03714,-6.98687 -3.70645,-13.41626 -7.95508,-19.17578 -0.2343,-0.31763 -0.3469,-0.55633 -0.83008,-0.89844 -0.24158,-0.17105 -0.65816,-0.34633 -1.05273,-0.35547 z m 0.5957,5.19336 c 3.14324,4.81678 5.19932,10.02756 6.04297,15.71094 0.21604,1.45543 0.31975,2.85808 0.39258,4.38477 l -9.5,0.0117 -8.2461,0.01 c 3.10666,-3.68182 5.65783,-7.2218 7.53907,-10.51953 2.12156,-3.719 3.18719,-6.69998 3.77148,-9.59766 z"
       id="path10228-7-6" /></g></svg>
