<?xml version="1.0" encoding="UTF-8" standalone="no"?>
<svg
   class="set-header-symbol"
   focusable="false"
   aria-hidden="true"
   viewBox="0 0 210.67166 29.736401"
   version="1.1"
   id="svg4"
   sodipodi:docname="Y22.svg"
   width="210.67166"
   height="29.736401"
   inkscape:version="1.1 (c68e22c387, 2021-05-23)"
   xmlns:inkscape="http://www.inkscape.org/namespaces/inkscape"
   xmlns:sodipodi="http://sodipodi.sourceforge.net/DTD/sodipodi-0.dtd"
   xmlns:xlink="http://www.w3.org/1999/xlink"
   xmlns="http://www.w3.org/2000/svg"
   xmlns:svg="http://www.w3.org/2000/svg">
  <defs
     id="defs8">
    <linearGradient
       inkscape:collect="always"
       id="linearGradient1000">
      <stop
         style="stop-color:#86713f;stop-opacity:1"
         offset="0"
         id="stop994" />
      <stop
         id="stop996"
         offset="0.5"
         style="stop-color:#dfc27f;stop-opacity:1" />
      <stop
         style="stop-color:#86713f;stop-opacity:1"
         offset="1"
         id="stop998" />
    </linearGradient>
    <linearGradient
       id="linearGradient909"
       inkscape:collect="always">
      <stop
         id="stop905"
         offset="0"
         style="stop-color:#b73326;stop-opacity:1" />
      <stop
         style="stop-color:#f49226;stop-opacity:1"
         offset="0.5"
         id="stop913" />
      <stop
         id="stop907"
         offset="1"
         style="stop-color:#b73326;stop-opacity:1" />
    </linearGradient>
    <linearGradient
       inkscape:collect="always"
       id="linearGradient1008">
      <stop
         style="stop-color:#4c6d7a;stop-opacity:1"
         offset="0"
         id="stop1002" />
      <stop
         id="stop1004"
         offset="0.5"
         style="stop-color:#bae2ef;stop-opacity:1" />
      <stop
         style="stop-color:#4c6d7a;stop-opacity:1"
         offset="1"
         id="stop1006" />
    </linearGradient>
    <linearGradient
       inkscape:collect="always"
       xlink:href="#linearGradient1008"
       id="linearGradient15318"
       x1="0.98382646"
       y1="15.985"
       x2="68.498924"
       y2="15.985"
       gradientUnits="userSpaceOnUse" />
    <linearGradient
       inkscape:collect="always"
       xlink:href="#linearGradient1000"
       id="linearGradient15353"
       x1="72.121017"
       y1="15.733187"
       x2="139.45934"
       y2="15.733187"
       gradientUnits="userSpaceOnUse" />
    <linearGradient
       inkscape:collect="always"
       xlink:href="#linearGradient909"
       id="linearGradient15364"
       x1="142.84013"
       y1="15.811979"
       x2="210.17847"
       y2="15.811979"
       gradientUnits="userSpaceOnUse" />
  </defs>
  <sodipodi:namedview
     id="namedview6"
     pagecolor="#ffffff"
     bordercolor="#666666"
     borderopacity="1.0"
     inkscape:pageshadow="2"
     inkscape:pageopacity="0.0"
     inkscape:pagecheckerboard="0"
     showgrid="false"
     fit-margin-top="0"
     fit-margin-left="0"
     fit-margin-right="0"
     fit-margin-bottom="0"
     inkscape:zoom="2.8284271"
     inkscape:cx="98.464619"
     inkscape:cy="61.695066"
     inkscape:window-width="1853"
     inkscape:window-height="1177"
     inkscape:window-x="59"
     inkscape:window-y="-8"
     inkscape:window-maximized="1"
     inkscape:current-layer="svg4" />
  <g
     id="g15939"
     inkscape:export-filename="C:\Users\gelak\Desktop\Y22_U.png"
     inkscape:export-xdpi="232.44238"
     inkscape:export-ydpi="232.44238">
    <path
       id="path5660-3"
       style="fill:#000000;fill-opacity:1;stroke:none;stroke-width:1px;stroke-linecap:butt;stroke-linejoin:miter;stroke-opacity:1"
       d="M 23.12322,0.00202 38.06267,29.7364 h 9.576172 L 39.097826,23.1739 32.98259,0.00202 Z m -4.07813,6.08203 -5.13867,9.78711 2.8125,2.6875 c 0,0 1.16266,-0.64477 2.35352,-1.19726 1.19086,-0.55248 4.99023,0 4.99023,0 z" />
    <path
       id="path9024"
       style="color:#000000;fill:url(#linearGradient15318);fill-opacity:1;fill-rule:evenodd;-inkscape-stroke:none"
       d="m 12.47283,0.50007 c 0.898,2.056 0.898,3.94406 0,5.66406 L 3.91814,24.95905 C 2.98714,26.87605 2.072,28.3024 1.174,29.2364 h 12.50195 c -1.394,-3.163 -1.2988,-5.57242 0.2832,-7.23242 l 5.89454,-6.14649 h -5.89454 l 5.22852,-9.69336 8.34961,18.04688 c 0.69,1.549 0.91436,3.29339 -1.05664,5.02539 h 15.212889 c -1.197,-1.21 -2.123295,-2.52246 -2.779297,-3.93946 L 30.19158,6.49616 c -0.658,-1.818 -0.658,-3.81609 0,-5.99609 z m 51.916012,0 -33.958982,0.002 -0.11524,0.29297 c -0.765,2.048 -0.72576,3.85215 0.11524,5.41016 l 7.941404,17.13672 0.154297,0.33203 c 1.765,3.708 4.308859,5.5625 7.630859,5.5625 h 18.232422 l 0.25,-0.45117 c 5.247,-9.613 5.163,-19.04216 -0.25,-28.28516 z" />
    <path
       id="path9026"
       style="color:#000000;fill:#000000;fill-rule:evenodd;-inkscape-stroke:none"
       d="m 11.70915,7e-5 0.30469,0.70117 c 0.85306,1.95311 0.84418,3.64549 0.0156,5.23242 l -0.006,0.0117 L 3.4668,24.74224 C 2.54999,26.6295 1.65338,28.01617 0.81445,28.88872 L 0,29.73638 h 14.44336 l -0.31055,-0.70117 c -0.67641,-1.53478 -0.97479,-2.85828 -0.93164,-3.95899 0.0431,-1.10009 0.40884,-1.98069 1.11914,-2.72656 v -0.002 l 6.70508,-6.99024 h -6.23047 l 4.35742,-8.07617 7.92774,17.13281 c 0.32477,0.72909 0.5182,1.46003 0.42969,2.17969 -0.0885,0.71966 -0.44352,1.46277 -1.35938,2.26758 l -0.99609,0.875 H 42.890625 L 42.048828,28.88476 C 41.82569,28.6592 41.62124,28.42767 41.417969,28.19531 c 1.369332,1.01528 2.956793,1.54102 4.738281,1.54102 h 18.527344 l 0.392578,-0.71094 h 0.002 C 70.392109,19.28975 70.307142,9.61703 64.820359,0.24805 L 64.675828,0 H 64.388719 L 30.86528,0.002 V 0 h -0.67382 z m 1.37696,1 H 29.6115 c -0.49588,2.01423 -0.52013,3.92869 0.10937,5.66797 l 0.008,0.0195 8.730464,18.82031 c 0.539583,1.16553 1.391198,2.2042 2.277344,3.22852 H 27.54332 c 0.51291,-0.66664 0.8759,-1.34397 0.95898,-2.01953 0.11974,-0.97359 -0.14258,-1.89103 -0.50781,-2.71094 l -0.002,-0.002 L 19.221,5.04882 13.12139,16.35741 h 5.56055 l -5.08398,5.30078 c -0.87092,0.91386 -1.34514,2.06887 -1.39649,3.37891 -0.0436,1.11215 0.26301,2.35907 0.77735,3.69922 H 2.07842 c 0.7665,-0.9501 1.52571,-1.98678 2.28907,-3.5586 l 0.004,-0.006 8.54493,-18.77539 c 0.86052,-1.64822 0.8246,-3.49274 0.16992,-5.39648 z m 50.980466,0 c 5.197563,9.03626 5.266298,18.13989 0.132813,27.54492 L 64.09392,28.7364 h -17.9375 c -3.134714,0 -5.465232,-1.67829 -7.177734,-5.27344 l -0.002,-0.002 v -0.002 L 38.826296,23.13084 30.87707,5.98045 30.86907,5.96675 C 30.10608,4.55325 30.06108,2.93943 30.77727,1.0019 Z M 45.162279,2.31452 c -1.06825,0 -2.128687,0.26633 -3.179687,0.79883 -0.618,0.314 -1.376188,0.96494 -1.617188,1.71094 -0.244,1.03 0.21436,1.91601 1.19336,1.91601 0.901,0 1.423953,-0.45251 1.626953,-1.22851 0.203,-0.777 0.367969,-1.26781 1.042969,-1.50781 0.248,-0.073 2.009234,-0.57205 2.865234,1.62695 0.856,2.198 -0.933766,5.60292 -2.134766,7.54492 -1.202,1.943 -2.822125,4.17316 -6.203125,8.28516 l 0.06641,0.10937 h 12.367187 v -5.82031 h -0.167969 l -1.324218,2.95508 -0.04297,0.0156 -0.03516,0.0117 H 42.98259 c 1.6657,-1.88567 3.368785,-3.738 5.107422,-5.55664 1.674,-1.748 2.65064,-3.29562 2.93164,-4.64062 0.473,-2.472 -0.402906,-4.27988 -2.628906,-5.42188 -1.085,-0.5325 -2.162219,-0.79883 -3.230469,-0.79883 z m 14.134766,0 c -1.068,0 -2.126734,0.26633 -3.177734,0.79883 -0.618,0.314 -1.377188,0.96494 -1.617188,1.71094 -0.244,1.03 0.211406,1.91601 1.191406,1.91601 0.9,0 1.424953,-0.45251 1.626953,-1.22851 0.203001,-0.777 0.368969,-1.26781 1.042969,-1.50781 0.248,-0.073 2.011188,-0.57205 2.867188,1.62695 0.857,2.198 -0.934719,5.60292 -2.136719,7.54492 -1.202,1.943 -2.822125,4.17316 -6.203125,8.28516 l 0.05078,0.082 0.01563,0.0273 H 65.324393 V 15.75 h -0.166016 l -1.326172,2.95508 -0.07813,0.0273 H 57.11931 c 1.66537,-1.88566 3.367168,-3.73799 5.105468,-5.55664 1.674,-1.748 2.652594,-3.29562 2.933594,-4.64062 0.473,-2.472 -0.403859,-4.27988 -2.630859,-5.42188 -1.085,-0.5325 -2.162469,-0.79883 -3.230469,-0.79883 z" />
  </g>
  <g
     id="g15944"
     inkscape:export-filename="C:\Users\gelak\Desktop\Y22_R.png"
     inkscape:export-xdpi="232.44238"
     inkscape:export-ydpi="232.44238">
    <path
       id="path5660-3-5"
       style="fill:#000000;fill-opacity:1;stroke:none;stroke-width:1px;stroke-linecap:butt;stroke-linejoin:miter;stroke-opacity:1"
       d="m 93.95877,0.00202 14.93945,29.73438 h 9.57617 l -8.54101,-6.5625 -6.11524,-23.17188 z m -4.07813,6.08203 -5.13867,9.78711 2.8125,2.6875 c 0,0 1.16266,-0.64477 2.35352,-1.19726 1.19086,-0.55248 4.99023,0 4.99023,0 z" />
    <path
       id="path9024-4"
       style="color:#000000;fill:url(#linearGradient15353);fill-opacity:1;fill-rule:evenodd;-inkscape-stroke:none"
       d="m 83.30838,0.50007 c 0.898,2.056 0.898,3.94406 0,5.66406 l -8.55469,18.79492 c -0.931,1.917 -1.84614,3.34335 -2.74414,4.27735 H 84.5115 c -1.394,-3.163 -1.2988,-5.57242 0.2832,-7.23242 l 5.89454,-6.14649 H 84.7947 l 5.22852,-9.69336 8.34961,18.04688 c 0.69,1.549 0.91436,3.29339 -1.05664,5.02539 h 15.21289 c -1.197,-1.21 -2.1233,-2.52246 -2.7793,-3.93946 L 101.02713,6.49616 c -0.658,-1.818 -0.658,-3.81609 0,-5.99609 z m 51.91601,0 -33.95898,0.002 -0.11524,0.29297 c -0.765,2.048 -0.72576,3.85215 0.11524,5.41016 l 7.9414,17.13672 0.1543,0.33203 c 1.765,3.708 4.30886,5.5625 7.63086,5.5625 h 18.23242 l 0.25,-0.45117 c 5.247,-9.613 5.163,-19.04216 -0.25,-28.28516 z" />
    <path
       id="path9026-9"
       style="color:#000000;fill:#000000;fill-rule:evenodd;-inkscape-stroke:none"
       d="m 82.5447,7e-5 0.30469,0.70117 c 0.85306,1.95311 0.84418,3.64549 0.0156,5.23242 l -0.006,0.0117 -8.55664,18.79688 C 73.38554,26.6295 72.48893,28.01617 71.65,28.88872 l -0.81445,0.84766 h 14.44336 l -0.31055,-0.70117 c -0.67641,-1.53478 -0.97479,-2.85828 -0.93164,-3.95899 0.0431,-1.10009 0.40884,-1.98069 1.11914,-2.72656 v -0.002 l 6.70508,-6.99024 h -6.23047 l 4.35742,-8.07617 7.92774,17.13281 c 0.32477,0.72909 0.5182,1.46003 0.42969,2.17969 -0.0885,0.71966 -0.44352,1.46277 -1.35938,2.26758 l -0.99609,0.875 h 17.73633 l -0.8418,-0.85157 c -0.22314,-0.22556 -0.42759,-0.45709 -0.63086,-0.68945 1.36933,1.01528 2.95679,1.54102 4.73828,1.54102 h 18.52734 l 0.39258,-0.71094 h 0.002 c 5.31394,-9.73564 5.22897,-19.40836 -0.25781,-28.77734 L 135.51138,0 h -0.28711 L 101.70083,0.002 V 0 h -0.67382 z m 1.37696,1 h 16.52539 c -0.49588,2.01423 -0.52013,3.92869 0.10937,5.66797 l 0.008,0.0195 8.73046,18.82031 c 0.53959,1.16553 1.3912,2.2042 2.27735,3.22852 H 98.37887 c 0.51291,-0.66664 0.8759,-1.34397 0.95898,-2.01953 0.11974,-0.97359 -0.14258,-1.89103 -0.50781,-2.71094 l -0.002,-0.002 -8.77149,-18.95508 -6.09961,11.30859 h 5.56055 l -5.08398,5.30078 c -0.87092,0.91386 -1.34514,2.06887 -1.39649,3.37891 -0.0436,1.11215 0.26301,2.35907 0.77735,3.69922 h -10.9004 c 0.7665,-0.9501 1.52571,-1.98678 2.28907,-3.5586 l 0.004,-0.006 8.54493,-18.77539 c 0.86052,-1.64822 0.8246,-3.49274 0.16992,-5.39648 z m 50.98047,0 c 5.19756,9.03626 5.26629,18.13989 0.13281,27.54492 l -0.10547,0.19141 h -17.9375 c -3.13471,0 -5.46523,-1.67829 -7.17773,-5.27344 l -0.002,-0.002 v -0.002 l -0.15039,-0.32812 -7.94923,-17.15039 -0.008,-0.0137 c -0.76299,-1.4135 -0.80799,-3.02732 -0.0918,-4.96485 z m -18.9043,1.31445 c -1.06825,0 -2.12869,0.26633 -3.17969,0.79883 -0.618,0.314 -1.37619,0.96494 -1.61719,1.71094 -0.244,1.03 0.21436,1.91601 1.19336,1.91601 0.901,0 1.42396,-0.45251 1.62696,-1.22851 0.203,-0.777 0.36797,-1.26781 1.04297,-1.50781 0.248,-0.073 2.00923,-0.57205 2.86523,1.62695 0.856,2.198 -0.93377,5.60292 -2.13477,7.54492 -1.202,1.943 -2.82212,4.17316 -6.20312,8.28516 l 0.0664,0.10937 h 12.36719 v -5.82031 h -0.16797 l -1.32422,2.95508 -0.043,0.0156 -0.0352,0.0117 h -6.63672 c 1.6657,-1.88567 3.36879,-3.738 5.10742,-5.55664 1.674,-1.748 2.65064,-3.29562 2.93164,-4.64062 0.473,-2.472 -0.4029,-4.27988 -2.6289,-5.42188 -1.085,-0.5325 -2.16222,-0.79883 -3.23047,-0.79883 z m 14.13477,0 c -1.068,0 -2.12674,0.26633 -3.17774,0.79883 -0.618,0.314 -1.37719,0.96494 -1.61719,1.71094 -0.244,1.03 0.21141,1.91601 1.19141,1.91601 0.9,0 1.42495,-0.45251 1.62695,-1.22851 0.203,-0.777 0.36897,-1.26781 1.04297,-1.50781 0.248,-0.073 2.01119,-0.57205 2.86719,1.62695 0.857,2.198 -0.93472,5.60292 -2.13672,7.54492 -1.202,1.943 -2.82212,4.17316 -6.20312,8.28516 l 0.0508,0.082 0.0156,0.0273 h 12.36718 V 15.75 h -0.16601 l -1.32617,2.95508 -0.0781,0.0273 h -6.63477 c 1.66537,-1.88566 3.36717,-3.73799 5.10547,-5.55664 1.674,-1.748 2.65259,-3.29562 2.93359,-4.64062 0.473,-2.472 -0.40386,-4.27988 -2.63086,-5.42188 -1.085,-0.5325 -2.16247,-0.79883 -3.23047,-0.79883 z" />
  </g>
  <g
     id="g15949"
     inkscape:export-filename="C:\Users\gelak\Desktop\Y22_M.png"
     inkscape:export-xdpi="232.44238"
     inkscape:export-ydpi="232.44238">
    <path
       id="path5660-3-3"
       style="fill:#000000;fill-opacity:1;stroke:none;stroke-width:1px;stroke-linecap:butt;stroke-linejoin:miter;stroke-opacity:1"
       d="m 164.79432,0.00202 14.93945,29.73438 h 9.57617 l -8.54101,-6.5625 -6.11524,-23.17188 z m -4.07813,6.08203 -5.13867,9.78711 2.8125,2.6875 c 0,0 1.16266,-0.64477 2.35352,-1.19726 1.19086,-0.55248 4.99023,0 4.99023,0 z" />
    <path
       id="path9024-7"
       style="color:#000000;fill:url(#linearGradient15364);fill-opacity:1;fill-rule:evenodd;-inkscape-stroke:none"
       d="m 154.14393,0.50007 c 0.898,2.056 0.898,3.94406 0,5.66406 l -8.55469,18.79492 c -0.931,1.917 -1.84614,3.34335 -2.74414,4.27735 h 12.50195 c -1.394,-3.163 -1.2988,-5.57242 0.2832,-7.23242 l 5.89454,-6.14649 h -5.89454 l 5.22852,-9.69336 8.34961,18.04688 c 0.69,1.549 0.91436,3.29339 -1.05664,5.02539 h 15.21289 c -1.197,-1.21 -2.1233,-2.52246 -2.7793,-3.93946 L 171.86268,6.49616 c -0.658,-1.818 -0.658,-3.81609 0,-5.99609 z m 51.91601,0 -33.95898,0.002 -0.11524,0.29297 c -0.765,2.048 -0.72576,3.85215 0.11524,5.41016 l 7.9414,17.13672 0.1543,0.33203 c 1.765,3.708 4.30886,5.5625 7.63086,5.5625 h 18.23242 l 0.25,-0.45117 c 5.247,-9.613 5.163,-19.04216 -0.25,-28.28516 z" />
    <path
       id="path9026-8"
       style="color:#000000;fill:#000000;fill-rule:evenodd;-inkscape-stroke:none"
       d="m 153.38025,7e-5 0.30469,0.70117 c 0.85306,1.95311 0.84418,3.64549 0.0156,5.23242 l -0.006,0.0117 -8.55664,18.79688 c -0.91681,1.88726 -1.81342,3.27393 -2.65235,4.14648 l -0.81445,0.84766 h 14.44336 l -0.31055,-0.70117 c -0.67641,-1.53478 -0.97479,-2.85828 -0.93164,-3.95899 0.0431,-1.10009 0.40884,-1.98069 1.11914,-2.72656 v -0.002 l 6.70508,-6.99024 h -6.23047 l 4.35742,-8.07617 7.92774,17.13281 c 0.32477,0.72909 0.5182,1.46003 0.42969,2.17969 -0.0885,0.71966 -0.44352,1.46277 -1.35938,2.26758 l -0.99609,0.875 h 17.73633 l -0.8418,-0.85157 c -0.22314,-0.22556 -0.42759,-0.45709 -0.63086,-0.68945 1.36933,1.01528 2.95679,1.54102 4.73828,1.54102 h 18.52734 l 0.39258,-0.71094 h 0.002 c 5.31394,-9.73564 5.22897,-19.40836 -0.25781,-28.77734 L 206.34693,0 h -0.28711 L 172.53638,0.002 V 0 h -0.67382 z m 1.37696,1 h 16.52539 c -0.49588,2.01423 -0.52013,3.92869 0.10937,5.66797 l 0.008,0.0195 8.73046,18.82031 c 0.53959,1.16553 1.3912,2.2042 2.27735,3.22852 h -13.19336 c 0.51291,-0.66664 0.8759,-1.34397 0.95898,-2.01953 0.11974,-0.97359 -0.14258,-1.89103 -0.50781,-2.71094 l -0.002,-0.002 -8.77149,-18.95508 -6.09961,11.30859 h 5.56055 l -5.08398,5.30078 c -0.87092,0.91386 -1.34514,2.06887 -1.39649,3.37891 -0.0436,1.11215 0.26301,2.35907 0.77735,3.69922 h -10.9004 c 0.7665,-0.9501 1.52571,-1.98678 2.28907,-3.5586 l 0.004,-0.006 8.54493,-18.77539 c 0.86052,-1.64822 0.8246,-3.49274 0.16992,-5.39648 z m 50.98047,0 c 5.19756,9.03626 5.26629,18.13989 0.13281,27.54492 l -0.10547,0.19141 h -17.9375 c -3.13471,0 -5.46523,-1.67829 -7.17773,-5.27344 l -0.002,-0.002 v -0.002 l -0.15039,-0.32812 -7.94923,-17.15039 -0.008,-0.0137 c -0.76299,-1.4135 -0.80799,-3.02732 -0.0918,-4.96485 z m -18.9043,1.31445 c -1.06825,0 -2.12869,0.26633 -3.17969,0.79883 -0.618,0.314 -1.37619,0.96494 -1.61719,1.71094 -0.244,1.03 0.21436,1.91601 1.19336,1.91601 0.901,0 1.42396,-0.45251 1.62696,-1.22851 0.203,-0.777 0.36797,-1.26781 1.04297,-1.50781 0.248,-0.073 2.00923,-0.57205 2.86523,1.62695 0.856,2.198 -0.93377,5.60292 -2.13477,7.54492 -1.202,1.943 -2.82212,4.17316 -6.20312,8.28516 l 0.0664,0.10937 h 12.36719 v -5.82031 h -0.16797 l -1.32422,2.95508 -0.043,0.0156 -0.0352,0.0117 h -6.63672 c 1.6657,-1.88567 3.36878,-3.738 5.10742,-5.55664 1.674,-1.748 2.65064,-3.29562 2.93164,-4.64062 0.473,-2.472 -0.4029,-4.27988 -2.6289,-5.42188 -1.085,-0.5325 -2.16222,-0.79883 -3.23047,-0.79883 z m 14.13476,0 c -1.06799,0 -2.12673,0.26633 -3.17773,0.79883 -0.618,0.314 -1.37719,0.96494 -1.61719,1.71094 -0.244,1.03 0.21141,1.91601 1.19141,1.91601 0.9,0 1.42495,-0.45251 1.62695,-1.22851 0.203,-0.777 0.36897,-1.26781 1.04297,-1.50781 0.248,-0.073 2.01119,-0.57205 2.86719,1.62695 0.857,2.198 -0.93472,5.60292 -2.13672,7.54492 -1.202,1.943 -2.82213,4.17316 -6.20313,8.28516 l 0.0508,0.082 0.0156,0.0273 h 12.36718 V 15.75 h -0.16601 l -1.32617,2.95508 -0.0781,0.0273 h -6.63477 c 1.66537,-1.88566 3.36717,-3.73799 5.10547,-5.55664 1.674,-1.748 2.65259,-3.29562 2.93359,-4.64062 0.473,-2.472 -0.40386,-4.27988 -2.63086,-5.42188 -1.085,-0.5325 -2.16247,-0.79883 -3.23047,-0.79883 z" />
  </g>
</svg>
