<?xml version="1.0" encoding="UTF-8" standalone="no"?>
<svg
   class="set-header-symbol"
   focusable="false"
   aria-hidden="true"
   viewBox="0 0 210.67166 29.736401"
   version="1.1"
   id="svg4"
   sodipodi:docname="YDMU.svg"
   width="210.67166"
   height="29.736401"
   inkscape:version="1.2.1 (9c6d41e410, 2022-07-14)"
   xml:space="preserve"
   xmlns:inkscape="http://www.inkscape.org/namespaces/inkscape"
   xmlns:sodipodi="http://sodipodi.sourceforge.net/DTD/sodipodi-0.dtd"
   xmlns:xlink="http://www.w3.org/1999/xlink"
   xmlns="http://www.w3.org/2000/svg"
   xmlns:svg="http://www.w3.org/2000/svg"><defs
     id="defs8"><linearGradient
       inkscape:collect="always"
       id="linearGradient1000"><stop
         style="stop-color:#86713f;stop-opacity:1"
         offset="0"
         id="stop994" /><stop
         id="stop996"
         offset="0.5"
         style="stop-color:#dfc27f;stop-opacity:1" /><stop
         style="stop-color:#86713f;stop-opacity:1"
         offset="1"
         id="stop998" /></linearGradient><linearGradient
       id="linearGradient909"
       inkscape:collect="always"><stop
         id="stop905"
         offset="0"
         style="stop-color:#b73326;stop-opacity:1" /><stop
         style="stop-color:#f49226;stop-opacity:1"
         offset="0.5"
         id="stop913" /><stop
         id="stop907"
         offset="1"
         style="stop-color:#b73326;stop-opacity:1" /></linearGradient><linearGradient
       inkscape:collect="always"
       id="linearGradient1008"><stop
         style="stop-color:#4c6d7a;stop-opacity:1"
         offset="0"
         id="stop1002" /><stop
         id="stop1004"
         offset="0.5"
         style="stop-color:#bae2ef;stop-opacity:1" /><stop
         style="stop-color:#4c6d7a;stop-opacity:1"
         offset="1"
         id="stop1006" /></linearGradient><linearGradient
       inkscape:collect="always"
       xlink:href="#linearGradient1008"
       id="linearGradient15318"
       x1="0.98382646"
       y1="15.985"
       x2="68.498924"
       y2="15.985"
       gradientUnits="userSpaceOnUse" /><linearGradient
       inkscape:collect="always"
       xlink:href="#linearGradient1000"
       id="linearGradient15353"
       x1="72.121017"
       y1="15.733187"
       x2="139.45934"
       y2="15.733187"
       gradientUnits="userSpaceOnUse" /><linearGradient
       inkscape:collect="always"
       xlink:href="#linearGradient909"
       id="linearGradient15364"
       x1="142.84013"
       y1="15.811979"
       x2="210.17847"
       y2="15.811979"
       gradientUnits="userSpaceOnUse" /></defs><sodipodi:namedview
     id="namedview6"
     pagecolor="#ffffff"
     bordercolor="#666666"
     borderopacity="1.0"
     inkscape:pageshadow="2"
     inkscape:pageopacity="0.0"
     inkscape:pagecheckerboard="0"
     showgrid="false"
     fit-margin-top="0"
     fit-margin-left="0"
     fit-margin-right="0"
     fit-margin-bottom="0"
     inkscape:zoom="2.8284271"
     inkscape:cx="35.708893"
     inkscape:cy="-69.650019"
     inkscape:window-width="1857"
     inkscape:window-height="1057"
     inkscape:window-x="55"
     inkscape:window-y="-8"
     inkscape:window-maximized="1"
     inkscape:current-layer="svg4"
     inkscape:showpageshadow="2"
     inkscape:deskcolor="#d1d1d1" /><g
     id="g2753"><path
       id="path5660-3"
       style="fill:#000000;fill-opacity:1;stroke:none;stroke-width:1px;stroke-linecap:butt;stroke-linejoin:miter;stroke-opacity:1"
       d="M 23.12322,0.00202 38.06267,29.7364 h 9.576172 L 39.097826,23.1739 32.98259,0.00202 Z m -4.07813,6.08203 -5.13867,9.78711 2.8125,2.6875 c 0,0 1.16266,-0.64477 2.35352,-1.19726 1.19086,-0.55248 4.99023,0 4.99023,0 z" /><path
       id="path9024"
       style="color:#000000;fill:url(#linearGradient15318);fill-opacity:1;fill-rule:evenodd;-inkscape-stroke:none"
       d="m 12.47283,0.50007 c 0.898,2.056 0.898,3.94406 0,5.66406 L 3.91814,24.95905 C 2.98714,26.87605 2.072,28.3024 1.174,29.2364 h 12.50195 c -1.394,-3.163 -1.2988,-5.57242 0.2832,-7.23242 l 5.89454,-6.14649 h -5.89454 l 5.22852,-9.69336 8.34961,18.04688 c 0.69,1.549 0.91436,3.29339 -1.05664,5.02539 h 15.212889 c -1.197,-1.21 -2.123295,-2.52246 -2.779297,-3.93946 L 30.19158,6.49616 c -0.658,-1.818 -0.658,-3.81609 0,-5.99609 z m 51.916012,0 -33.958982,0.002 -0.11524,0.29297 c -0.765,2.048 -0.72576,3.85215 0.11524,5.41016 l 7.941404,17.13672 0.154297,0.33203 c 1.765,3.708 4.308859,5.5625 7.630859,5.5625 h 18.232422 l 0.25,-0.45117 c 5.247,-9.613 5.163,-19.04216 -0.25,-28.28516 z" /><path
       id="path9026-2"
       style="color:#000000;fill:#000000;fill-rule:evenodd"
       d="m 30.191458,-9.51e-4 -18.482426,0.002 0.304688,0.701172 c 0.853059,1.953108 0.844204,3.645494 0.01563,5.232422 l -0.0059,0.01172 -8.5566406,18.796875 c -0.916809,1.887258 -1.813415,3.273935 -2.65234399,4.146484 L 4.840522e-5,29.737331 H 14.443407 L 14.13286,29.036159 c -0.676409,-1.534779 -0.97479,-2.858276 -0.93164,-3.958985 0.0431,-1.100089 0.408841,-1.980693 1.11914,-2.726562 v -0.0039 l 6.705079,-6.990235 H 14.79497 l 4.357422,-8.076172 7.927736,17.132813 c 0.32477,0.729089 0.5182,1.460028 0.42969,2.179687 -0.0885,0.71966 -0.44352,1.462769 -1.359379,2.267579 l -0.996094,0.875 h 17.736323 l -0.84179,-0.851563 c -0.22314,-0.22556 -0.42759,-0.457093 -0.63086,-0.689453 1.36933,1.015279 2.95679,1.541016 4.73828,1.541016 h 18.52734 l 0.39258,-0.710938 h 0.0019 c 5.31394,-9.73563 5.22898,-19.408373 -0.25781,-28.777344 l -0.14453,-0.248047 h -0.28711 l -33.52344,0.0039 v -0.0039 z M 13.085986,1.001002 h 16.525392 c -0.49588,2.014228 -0.52013,3.928691 0.10937,5.667969 l 0.0078,0.01953 8.73046,18.820313 c 0.53958,1.165529 1.39121,2.204197 2.27735,3.228516 h -13.19334 c 0.51291,-0.66664 0.8759,-1.343972 0.95898,-2.019532 0.11974,-0.973589 -0.14258,-1.891028 -0.50781,-2.710937 l -0.002,-0.0039 -8.771487,-18.955078 -6.099609,11.308593 h 5.560547 l -5.083985,5.300781 c -0.870919,0.91386 -1.345134,2.068868 -1.396484,3.378907 -0.0436,1.112149 0.263004,2.35907 0.777344,3.699219 H 2.0781734 c 0.766499,-0.9501 1.525703,-1.986776 2.289063,-3.558594 l 0.0039,-0.0059 8.5449216,-18.77539 C 13.776306,4.747798 13.740064,2.90407 13.08598,1.000967 Z m 17.691402,0 h 33.28907 c 5.19755,9.036251 5.26629,18.139902 0.13281,27.544922 l -0.10547,0.191407 h -17.9375 c -3.13471,0 -5.46524,-1.678291 -7.17773,-5.273438 l -0.002,-0.0039 v -0.002 l -0.15039,-0.328125 -7.94922,-17.150391 -0.0078,-0.01367 c -0.76299,-1.413498 -0.80799,-3.027315 -0.0918,-4.964844 z m 14.38477,1.3125 v 0.002 c -1.06825,0 -2.12869,0.266328 -3.17969,0.798828 -0.618,0.313999 -1.37619,0.964938 -1.61719,1.710937 -0.244,1.029999 0.21436,1.916016 1.19336,1.916016 0.901,0 1.42396,-0.452517 1.62696,-1.228516 0.203,-0.776999 0.36797,-1.267812 1.04297,-1.507812 0.248,-0.073 2.00923,-0.572045 2.86523,1.626953 0.856,2.197998 -0.93377,5.602924 -2.13477,7.544922 -1.20199,1.942998 -2.82212,4.17316 -6.20312,8.285156 l 0.06641,0.109375 h 12.36718 v -5.820313 h -0.16797 l -1.32421,2.955079 -0.04297,0.01563 -0.03516,0.01172 h -6.63672 c 1.6657,-1.885668 3.36879,-3.738002 5.10742,-5.55664 1.67399,-1.747999 2.65064,-3.295627 2.93164,-4.640625 0.473,-2.471998 -0.4029,-4.279876 -2.6289,-5.421875 -1.085,-0.5325 -2.16222,-0.800782 -3.23047,-0.800782 z m 13.68555,0.002 c -0.68298,3.03e-4 -1.36878,0.112971 -2.02539,0.34375 -0.96144,0.337912 -3.06927,1.573252 -3.07227,1.800781 -8.6e-4,0.06197 0.51146,0.661243 1.14062,1.330078 0.95678,1.017097 1.14635,1.149475 1.15235,0.814453 0.01407,-0.736072 0.72976,-1.969618 1.37305,-2.367187 0.53235,-0.329003 0.73901,-0.360913 1.43945,-0.22461 0.64644,0.125793 0.90433,0.286849 1.23828,0.777344 0.38033,0.558581 0.41293,0.757392 0.33203,1.992187 -0.05854,0.893535 -0.22419,1.648609 -0.47656,2.169922 -0.41418,0.855596 -1.38368,1.771044 -2.05469,1.939454 -0.22581,0.05668 -0.62976,0.185704 -0.89648,0.287109 -0.47654,0.181181 -0.46118,0.195381 0.80273,0.824219 1.8467,0.918792 3.15957,2.664182 3.19727,4.25 0.02894,1.217886 -0.35604,2.358179 -1.03907,3.076172 -0.58469,0.614584 -0.76078,0.697265 -1.4746,0.697265 -1.29342,0 -2.21672,-0.965012 -2.69141,-2.816406 l -0.19922,-0.779297 -1.20898,1.625 c -1.02933,1.382479 -1.17379,1.66317 -0.97852,1.898438 0.30439,0.366751 1.44264,0.941317 2.64453,1.335937 0.7548,0.247796 1.41423,0.308078 2.92383,0.267578 1.69339,-0.04549 2.08131,-0.114998 2.96094,-0.535156 1.36649,-0.652705 2.34518,-1.791533 2.79687,-3.253906 0.40595,-1.314282 0.42491,-1.643099 0.16406,-2.859375 -0.25955,-1.210228 -1.23048,-2.278333 -2.75195,-3.027344 l -1.19141,-0.585938 0.63086,-0.324218 c 0.73235,-0.375721 1.75157,-1.507544 2.19336,-2.435547 0.86784,-1.822944 0.59544,-3.421215 -0.79492,-4.66211 -1.14087,-1.018224 -2.63222,-1.559262 -4.13476,-1.558593 z" /></g><g
     id="g2748"><path
       id="path5660-3-5"
       style="fill:#000000;fill-opacity:1;stroke:none;stroke-width:1px;stroke-linecap:butt;stroke-linejoin:miter;stroke-opacity:1"
       d="m 93.95877,0.00202 14.93945,29.73438 h 9.57617 l -8.54101,-6.5625 -6.11524,-23.17188 z m -4.07813,6.08203 -5.13867,9.78711 2.8125,2.6875 c 0,0 1.16266,-0.64477 2.35352,-1.19726 1.19086,-0.55248 4.99023,0 4.99023,0 z" /><path
       id="path9024-4"
       style="color:#000000;fill:url(#linearGradient15353);fill-opacity:1;fill-rule:evenodd;-inkscape-stroke:none"
       d="m 83.30838,0.50007 c 0.898,2.056 0.898,3.94406 0,5.66406 l -8.55469,18.79492 c -0.931,1.917 -1.84614,3.34335 -2.74414,4.27735 H 84.5115 c -1.394,-3.163 -1.2988,-5.57242 0.2832,-7.23242 l 5.89454,-6.14649 H 84.7947 l 5.22852,-9.69336 8.34961,18.04688 c 0.69,1.549 0.91436,3.29339 -1.05664,5.02539 h 15.21289 c -1.197,-1.21 -2.1233,-2.52246 -2.7793,-3.93946 L 101.02713,6.49616 c -0.658,-1.818 -0.658,-3.81609 0,-5.99609 z m 51.91601,0 -33.95898,0.002 -0.11524,0.29297 c -0.765,2.048 -0.72576,3.85215 0.11524,5.41016 l 7.9414,17.13672 0.1543,0.33203 c 1.765,3.708 4.30886,5.5625 7.63086,5.5625 h 18.23242 l 0.25,-0.45117 c 5.247,-9.613 5.163,-19.04216 -0.25,-28.28516 z" /><path
       id="path9026-2-1"
       style="color:#000000;fill:#000000;fill-rule:evenodd"
       d="m 101.02709,-9.41e-4 -18.482423,0.002 0.30468,0.701172 c 0.85306,1.953108 0.84421,3.645494 0.0156,5.232422 l -0.006,0.01172 -8.556637,18.796875 c -0.916809,1.887258 -1.813415,3.273935 -2.652344,4.146484 l -0.814417,0.847609 h 14.443358 l -0.31055,-0.701172 c -0.6764,-1.534779 -0.97479,-2.858276 -0.93164,-3.958985 0.0431,-1.100089 0.40884,-1.980693 1.11914,-2.726562 v -0.0039 l 6.70508,-6.990235 h -6.23047 l 4.35743,-8.076172 7.92773,17.132813 c 0.32477,0.729089 0.5182,1.460028 0.42969,2.179687 -0.0885,0.71966 -0.44352,1.462769 -1.35938,2.267579 l -0.99609,0.875 h 17.736323 l -0.84179,-0.851563 c -0.22314,-0.22556 -0.42759,-0.457093 -0.63086,-0.689453 1.36933,1.015279 2.95679,1.541016 4.73828,1.541016 h 18.52734 l 0.39258,-0.710938 h 0.002 c 5.31394,-9.73563 5.22898,-19.408373 -0.25781,-28.777344 l -0.14453,-0.248047 h -0.28711 l -33.52344,0.0039 v -0.0039 z M 83.921617,1.001012 h 16.525393 c -0.495883,2.014228 -0.520133,3.928691 0.10937,5.667969 l 0.008,0.01953 8.73046,18.820313 c 0.53958,1.165529 1.39121,2.204197 2.27735,3.228516 H 98.378847 c 0.51291,-0.66664 0.8759,-1.343972 0.95898,-2.019532 0.11974,-0.973589 -0.14258,-1.891028 -0.50781,-2.710937 l -0.002,-0.0039 -8.77149,-18.955078 -6.0996,11.308593 h 5.56054 l -5.08398,5.300781 c -0.87092,0.91386 -1.34514,2.068868 -1.39649,3.378907 -0.0436,1.112149 0.26301,2.35907 0.77735,3.699219 H 72.913804 c 0.766499,-0.9501 1.525703,-1.986776 2.289063,-3.558594 l 0.0039,-0.0059 8.54492,-18.77539 c 0.86025,-1.647701 0.82401,-3.491429 0.16992,-5.394532 z m 17.691403,0 h 33.28907 c 5.19755,9.036251 5.26629,18.139902 0.13281,27.544922 l -0.10547,0.191407 h -17.9375 c -3.13471,0 -5.46524,-1.678291 -7.17773,-5.273438 l -0.002,-0.0039 v -0.002 l -0.15039,-0.328125 -7.94922,-17.150391 -0.008,-0.01367 C 100.9416,4.552319 100.8966,2.938502 101.61279,1.000973 Z m 14.38477,1.3125 v 0.002 c -1.06825,0 -2.12869,0.266328 -3.17969,0.798828 -0.618,0.313999 -1.37619,0.964938 -1.61719,1.710937 -0.244,1.029999 0.21436,1.916016 1.19336,1.916016 0.901,0 1.42396,-0.452517 1.62696,-1.228516 0.203,-0.776999 0.36797,-1.267812 1.04297,-1.507812 0.248,-0.073 2.00923,-0.572045 2.86523,1.626953 0.856,2.197998 -0.93377,5.602924 -2.13477,7.544922 -1.20199,1.942998 -2.82212,4.17316 -6.20312,8.285156 l 0.0664,0.109375 h 12.36718 v -5.820313 h -0.16797 l -1.32421,2.955079 -0.043,0.01563 -0.0352,0.01172 h -6.63672 c 1.6657,-1.885668 3.36879,-3.738002 5.10742,-5.55664 1.67399,-1.747999 2.65064,-3.295627 2.93164,-4.640625 0.473,-2.471998 -0.4029,-4.279876 -2.6289,-5.421875 -1.085,-0.5325 -2.16222,-0.800782 -3.23047,-0.800782 z m 13.68555,0.002 c -0.68298,3.03e-4 -1.36878,0.112971 -2.02539,0.34375 -0.96144,0.337912 -3.06927,1.573252 -3.07227,1.800781 -8.6e-4,0.06197 0.51146,0.661243 1.14062,1.330078 0.95678,1.017097 1.14635,1.149475 1.15235,0.814453 0.0141,-0.736072 0.72976,-1.969618 1.37305,-2.367187 0.53235,-0.329003 0.73901,-0.360913 1.43945,-0.22461 0.64644,0.125793 0.90433,0.286849 1.23828,0.777344 0.38033,0.558581 0.41293,0.757392 0.33203,1.992187 -0.0585,0.893535 -0.22419,1.648609 -0.47656,2.169922 -0.41418,0.855596 -1.38368,1.771044 -2.05469,1.939454 -0.22581,0.05668 -0.62976,0.185704 -0.89648,0.287109 -0.47654,0.181181 -0.46118,0.195381 0.80273,0.824219 1.8467,0.918792 3.15957,2.664182 3.19727,4.25 0.0289,1.217886 -0.35604,2.358179 -1.03907,3.076172 -0.58469,0.614584 -0.76078,0.697265 -1.4746,0.697265 -1.29342,0 -2.21672,-0.965012 -2.69141,-2.816406 l -0.19922,-0.779297 -1.20898,1.625 c -1.02933,1.382479 -1.17379,1.66317 -0.97852,1.898438 0.30439,0.366751 1.44264,0.941317 2.64453,1.335937 0.7548,0.247796 1.41423,0.308078 2.92383,0.267578 1.69339,-0.04549 2.08131,-0.114998 2.96094,-0.535156 1.36649,-0.652705 2.34518,-1.791533 2.79687,-3.253906 0.40595,-1.314282 0.42491,-1.643099 0.16406,-2.859375 -0.25955,-1.210228 -1.23048,-2.278333 -2.75195,-3.027344 l -1.19141,-0.585938 0.63086,-0.324218 c 0.73235,-0.375721 1.75157,-1.507544 2.19336,-2.435547 0.86784,-1.822944 0.59544,-3.421215 -0.79492,-4.66211 -1.14087,-1.018224 -2.63222,-1.559262 -4.13476,-1.558593 z" /></g><g
     id="g2743"><path
       id="path5660-3-3"
       style="fill:#000000;fill-opacity:1;stroke:none;stroke-width:1px;stroke-linecap:butt;stroke-linejoin:miter;stroke-opacity:1"
       d="m 164.79432,0.00202 14.93945,29.73438 h 9.57617 l -8.54101,-6.5625 -6.11524,-23.17188 z m -4.07813,6.08203 -5.13867,9.78711 2.8125,2.6875 c 0,0 1.16266,-0.64477 2.35352,-1.19726 1.19086,-0.55248 4.99023,0 4.99023,0 z" /><path
       id="path9024-7"
       style="color:#000000;fill:url(#linearGradient15364);fill-opacity:1;fill-rule:evenodd;-inkscape-stroke:none"
       d="m 154.14393,0.50007 c 0.898,2.056 0.898,3.94406 0,5.66406 l -8.55469,18.79492 c -0.931,1.917 -1.84614,3.34335 -2.74414,4.27735 h 12.50195 c -1.394,-3.163 -1.2988,-5.57242 0.2832,-7.23242 l 5.89454,-6.14649 h -5.89454 l 5.22852,-9.69336 8.34961,18.04688 c 0.69,1.549 0.91436,3.29339 -1.05664,5.02539 h 15.21289 c -1.197,-1.21 -2.1233,-2.52246 -2.7793,-3.93946 L 171.86268,6.49616 c -0.658,-1.818 -0.658,-3.81609 0,-5.99609 z m 51.91601,0 -33.95898,0.002 -0.11524,0.29297 c -0.765,2.048 -0.72576,3.85215 0.11524,5.41016 l 7.9414,17.13672 0.1543,0.33203 c 1.765,3.708 4.30886,5.5625 7.63086,5.5625 h 18.23242 l 0.25,-0.45117 c 5.247,-9.613 5.163,-19.04216 -0.25,-28.28516 z" /><path
       id="path9026-2-9"
       style="color:#000000;fill:#000000;fill-rule:evenodd"
       d="m 171.86264,-9.41e-4 -18.48243,0.002 0.30469,0.701172 c 0.85306,1.953108 0.84421,3.645494 0.0156,5.232422 l -0.006,0.01172 -8.55664,18.796875 c -0.91681,1.887258 -1.81341,3.273935 -2.65234,4.146484 l -0.81442,0.847609 h 14.44336 l -0.31055,-0.701172 c -0.67641,-1.534779 -0.97479,-2.858276 -0.93164,-3.958985 0.0431,-1.100089 0.40884,-1.980693 1.11914,-2.726562 v -0.0039 l 6.70508,-6.990235 h -6.23047 l 4.35742,-8.076172 7.92774,17.132813 c 0.32477,0.729089 0.5182,1.460028 0.42969,2.179687 -0.0885,0.71966 -0.44352,1.462769 -1.35938,2.267579 l -0.99609,0.875 h 17.73632 l -0.84179,-0.851563 c -0.22314,-0.22556 -0.42759,-0.457093 -0.63086,-0.689453 1.36933,1.015279 2.95679,1.541016 4.73828,1.541016 h 18.52734 l 0.39258,-0.710938 h 0.002 c 5.31394,-9.73563 5.22898,-19.408373 -0.25781,-28.777344 l -0.14453,-0.248047 h -0.28711 l -33.52344,0.0039 v -0.0039 z m -17.10547,1.001953 h 16.52539 c -0.49588,2.014228 -0.52013,3.928691 0.10937,5.667969 l 0.008,0.01953 8.73046,18.820313 c 0.53958,1.165529 1.39121,2.204197 2.27735,3.228516 H 169.2144 c 0.51291,-0.66664 0.8759,-1.343972 0.95898,-2.019532 0.11974,-0.973589 -0.14258,-1.891028 -0.50781,-2.710937 l -0.002,-0.0039 -8.77149,-18.955078 -6.09961,11.308593 h 5.56055 l -5.08398,5.300781 c -0.87092,0.91386 -1.34514,2.068868 -1.39649,3.378907 -0.0436,1.112149 0.26301,2.35907 0.77735,3.699219 h -10.90035 c 0.7665,-0.9501 1.52571,-1.986776 2.28907,-3.558594 l 0.004,-0.0059 8.54492,-18.77539 c 0.86025,-1.647701 0.82401,-3.491429 0.16992,-5.394532 z m 17.6914,0 h 33.28907 c 5.19755,9.036251 5.26629,18.139902 0.13281,27.544922 l -0.10547,0.191407 h -17.9375 c -3.13471,0 -5.46524,-1.678291 -7.17773,-5.273438 l -0.002,-0.0039 v -0.002 l -0.15039,-0.328125 -7.94922,-17.150391 -0.008,-0.01367 c -0.76299,-1.413498 -0.80799,-3.027315 -0.0918,-4.964844 z m 14.38477,1.3125 v 0.002 c -1.06825,0 -2.12869,0.266328 -3.17969,0.798828 -0.618,0.313999 -1.37619,0.964938 -1.61719,1.710937 -0.244,1.029999 0.21436,1.916016 1.19336,1.916016 0.901,0 1.42396,-0.452517 1.62696,-1.228516 0.203,-0.776999 0.36797,-1.267812 1.04297,-1.507812 0.248,-0.073 2.00923,-0.572045 2.86523,1.626953 0.856,2.197998 -0.93377,5.602924 -2.13477,7.544922 -1.20199,1.942998 -2.82212,4.17316 -6.20312,8.285156 l 0.0664,0.109375 h 12.36718 v -5.820313 h -0.16797 l -1.32421,2.955079 -0.043,0.01563 -0.0352,0.01172 h -6.63672 c 1.6657,-1.885668 3.36879,-3.738002 5.10742,-5.55664 1.67399,-1.747999 2.65064,-3.295627 2.93164,-4.640625 0.473,-2.471998 -0.4029,-4.279876 -2.6289,-5.421875 -1.085,-0.5325 -2.16222,-0.800782 -3.23047,-0.800782 z m 13.68555,0.002 c -0.68298,3.03e-4 -1.36878,0.112971 -2.02539,0.34375 -0.96144,0.337912 -3.06927,1.573252 -3.07227,1.800781 -8.6e-4,0.06197 0.51146,0.661243 1.14062,1.330078 0.95678,1.017097 1.14635,1.149475 1.15235,0.814453 0.0141,-0.736072 0.72976,-1.969618 1.37305,-2.367187 0.53235,-0.329003 0.73901,-0.360913 1.43945,-0.22461 0.64644,0.125793 0.90433,0.286849 1.23828,0.777344 0.38033,0.558581 0.41293,0.757392 0.33203,1.992187 -0.0585,0.893535 -0.22419,1.648609 -0.47656,2.169922 -0.41418,0.855596 -1.38368,1.771044 -2.05469,1.939454 -0.22581,0.05668 -0.62976,0.185704 -0.89648,0.287109 -0.47654,0.181181 -0.46118,0.195381 0.80273,0.824219 1.8467,0.918792 3.15957,2.664182 3.19727,4.25 0.0289,1.217886 -0.35604,2.358179 -1.03907,3.076172 -0.58469,0.614584 -0.76078,0.697265 -1.4746,0.697265 -1.29342,0 -2.21672,-0.965012 -2.69141,-2.816406 l -0.19922,-0.779297 -1.20898,1.625 c -1.02933,1.382479 -1.17379,1.66317 -0.97852,1.898438 0.30439,0.366751 1.44264,0.941317 2.64453,1.335937 0.7548,0.247796 1.41423,0.308078 2.92383,0.267578 1.69339,-0.04549 2.08131,-0.114998 2.96094,-0.535156 1.36649,-0.652705 2.34518,-1.791533 2.79687,-3.253906 0.40595,-1.314282 0.42491,-1.643099 0.16406,-2.859375 -0.25955,-1.210228 -1.23048,-2.278333 -2.75195,-3.027344 l -1.19141,-0.585938 0.63086,-0.324218 c 0.73235,-0.375721 1.75157,-1.507544 2.19336,-2.435547 0.86784,-1.822944 0.59544,-3.421215 -0.79492,-4.66211 -1.14087,-1.018224 -2.63222,-1.559262 -4.13476,-1.558593 z" /></g></svg>
